<svg xmlns="http://www.w3.org/2000/svg" width="1331.25" height="249.513" viewBox="0 0 1331.25 249.513"><g id="Group_469" data-name="Group 469" transform="translate(-284.526 -1861.177)"><g id="Group_364" data-name="Group 364" transform="translate(-9.849 432)"><text id="THE_ANSWER" data-name="THE ANSWER" transform="translate(1274.249 1495.177)" font-size="47" font-family="Poppins-Medium, Poppins" font-weight="500"><tspan x="0" y="0">THE ANSWER</tspan></text><g id="complaince_manager-01" data-name="complaince manager-01" transform="translate(207.648 1372.311)"><path id="Path_1455" data-name="Path 1455" d="M205.867,83.842c-29.858-.4-55.7,5.151-81.306,12.025-10.456,2.808-10.39,3.073-10.473,13.981-.057,7.456-.041,7.528,7.506,5.875,28.831-6.317,58.018-8.019,87.441-7.011a271.79,271.79,0,0,1,37.871,3.809c14.42,2.546,28.894,5.106,42.89,9.862,7.11,2.417,14.465,4.231,21.675,6.45,3.123.962,3.881,2.56,3.827,5.568a155.361,155.361,0,0,1-3.156,26.305,168.36,168.36,0,0,1-5.994,24.027c-2.083,6-4.776,11.8-6.547,17.924-.9,3.11-2.586,3.421-5.455,2.386-16.094-5.806-32.751-9.572-49.431-13.251a252.358,252.358,0,0,0-83.384-4.487c-8.573.971-17.036,2.5-25.542,3.827-2.888.455-3.8,1.436-2.439,4.132,2.385,4.721,4.764,9.446,7.086,14.2,1.109,2.273,2.5,2.8,5.1,2.107a172.741,172.741,0,0,1,53.5-5.41,231.793,231.793,0,0,1,66,13.143c6.255,2.224,12.337,4.929,18.559,7.252,2.566.958,2.965,2.246,1.418,4.374-9.841,13.548-19.427,27.167-31.818,38.779-6.723,6.3-13.457,12.518-20.731,18.119-8.711,6.712-18.276,12.162-27.752,17.73a4.265,4.265,0,0,1-4.662.247c-21.6-11.916-41.593-25.913-58.038-44.525-4.565-5.165-4.413-5.594,1.942-8.282a78.088,78.088,0,0,1,18.2-5.351,7.243,7.243,0,0,1,7.147,2.49,146.993,146.993,0,0,0,29.857,24.277c2.087,1.273,3.485,1.455,5.657.044a196.187,196.187,0,0,0,35.773-29.927c2.833-3,2.19-3.6-1.592-4.546-16.031-4.011-32.187-6.953-48.761-7.008-19.411-.065-38.14,3.831-56.328,10.365-3.214,1.156-4.827.556-6.571-2.246-10.417-16.741-18.739-34.519-26.4-52.63-1.529-3.615-2.84-7.32-4.318-10.958-.783-1.928-.429-2.91,1.728-3.688a262.3,262.3,0,0,1,51.885-12.457,267.552,267.552,0,0,1,53.4-2.573,292.362,292.362,0,0,1,56.664,8.9c6.231,1.617,12.618,2.653,18.828,4.434,1.521.436,2.8.309,3.356-1.848,1.5-5.842,2.925-11.683,3.929-17.639.364-2.182-.239-3.031-2.207-3.556-17.231-4.6-34.563-8.574-52.337-10.633a376.528,376.528,0,0,0-42.983-2.7c-32.025-.034-63.258,4.566-93.393,15.739-5.542,2.055-5.558,1.953-6.395-3.684-3.281-22.112-2.668-44.28-1.074-66.474.239-3.329,2.637-3.735,4.881-4.423,12.694-3.892,25.415-7.666,38.37-10.664,13.981-3.236,28.038-5.951,42.28-7.791,15.213-1.968,30.406-1.847,45.71-.986a298.148,298.148,0,0,1,35.118,4.133,337.151,337.151,0,0,1,58.268,15.853c3.114,1.15,4.384,2.659,4.561,6.147.535,10.605-.116,21.176-.249,31.762-.032,2.546-.663,3.51-3.537,2.534-6.29-2.137-12.7-3.938-19.094-5.756-2.742-.78-3.874-2.225-3.75-5.212.35-8.409.239-8.434-7.848-10.838C256.639,88.325,230.008,84.03,205.867,83.842Z" transform="translate(0 0)"></path><path id="Path_1456" data-name="Path 1456" d="M1064.613,187.2c-2.242,1.027-2.526,2.631-3.2,3.891-11.328,21.318-22.7,42.613-33.823,64.039-1.8,3.463-3.819,4.623-7.669,4.455-8.038-.343-7.853-.12-8.536-8.255-1.783-21.257-3.75-42.5-5.665-63.745a4.232,4.232,0,0,0-.829-2.065c-2.7,15.968-6.637,31.619-9.834,47.422-1.587,7.84-3.352,15.644-4.91,23.489-.445,2.235-1.213,3.331-3.772,3.116-3.3-.273-6.637-.067-10.3-.067,4.364-20.665,8.654-41,12.967-61.33,1.942-9.154,4.092-18.268,5.809-27.459.491-2.629,1.546-3.105,3.857-3.035,4.542.138,9.1.208,13.631-.023,2.684-.136,3.316,1.029,3.525,3.364q2.283,25.54,4.728,51.064c.537,5.692,1.182,11.374,1.788,17.21,1.836-.685,2.019-2.342,2.669-3.572q17.028-32.213,33.924-64.493c1.329-2.546,2.7-3.812,5.8-3.6a149.6,149.6,0,0,0,14.992.041c2.315-.075,2.869.63,2.408,2.832q-9.05,43.214-18,86.448c-.248,1.2-.219,2.533-1.932,2.54-3.787.016-7.581.133-11.36-.047-2.485-.118-1.155-2.033-.946-3.069q4.6-22.863,9.373-45.689C1060.912,203.026,1062.74,195.437,1064.613,187.2Zm.266-1-.309-.273a2.665,2.665,0,0,0-.265.567c-.016.071.166.186.258.282Z" transform="translate(-80.719 -10.049)"></path><path id="Path_1457" data-name="Path 1457" d="M1349.972,255.878c-7.469-7.083-4.834-14.4,7.49-21.173-10.017-8.193-9.7-18.6-5.288-29.054,4.573-10.83,15.984-16.569,28.972-14.658,8.622,1.273,17.189.8,25.775,1.227,1.377.067,4.35-1.589,4.111,1.443-.214,2.715.826,6.728-3.711,7.519-3.244.565-6.508,1.011-9.793,1.514,5.673,20.185-5.839,35.24-26.686,35.248-3.322,0-6.678-.346-9.507,2.033-1.61,1.354-2.68,2.853-2.206,5.084.416,1.955,1.932,2.441,3.585,2.967,4.955,1.574,10.165,1.43,15.205,2.393,7.752,1.48,14.687,4.24,17.059,12.756a20.332,20.332,0,0,1-8.59,22.209c-14.6,9.344-30.246,10.951-46.12,3.491-9.659-4.54-11.325-16.715-3.79-24.319a38.055,38.055,0,0,1,6.339-5.092A71.1,71.1,0,0,1,1349.972,255.878Zm9.6,26.249c6.455-.221,12.447-.937,17.626-4.522,5.378-3.723,6.028-12.033.991-13.911a50.482,50.482,0,0,0-19.578-2.831,16.184,16.184,0,0,0-8.738,3.412,10.33,10.33,0,0,0-4.348,9.852c.34,3.979,3.223,5.455,6.431,6.741,2.579,1.033,5.288,1.028,7.607,1.259Zm4.055-64.527c-.525,4.427.571,8.2,5.033,10.053,4,1.666,9.585-.358,12.512-4.167,2.791-3.631,3.721-7.833,4.044-12.28.265-3.637-.024-7.254-3.432-9.2-3.838-2.193-7.885-1.683-11.519.938C1365.275,206.544,1363.611,211.7,1363.629,217.6Z" transform="translate(-113.001 -12.141)"></path><path id="Path_1458" data-name="Path 1458" d="M1306.1,250.366c-4.006,4.794-7.456,8.258-12.169,10.208-14.314,5.931-27.11-.546-28.725-15.877-1.839-17.457,2.273-33.621,15.193-46.58a25.194,25.194,0,0,1,13.9-7.125c7.858-1.333,14.222,1.385,19.116,7.659.793,1.016.974,2.571,2.828,3.1.811-2.216,1.687-4.388,2.4-6.614.659-2.062,1.626-3.073,4.114-3.091,8.631-.066,8.615-.2,6.819,8.265-4.008,18.889-8.077,37.767-11.926,56.689-.713,3.5-1.869,4.947-5.765,4.7-6.563-.422-6.58-.111-6.092-6.38C1305.878,254.117,1305.942,252.913,1306.1,250.366Zm-25.787-14.873a56.251,56.251,0,0,0,.035,6.295c.863,7.629,6.423,10.911,13.65,8.2a13.472,13.472,0,0,0,5.234-3.463c8.476-9.1,12.1-20.078,11.828-32.29-.182-8.12-6.042-12.435-13.826-10.705a14.357,14.357,0,0,0-7.843,5.071c-6.577,7.771-8.5,17.114-9.078,26.892Z" transform="translate(-106.922 -12.143)"></path><path id="Path_1459" data-name="Path 1459" d="M1139.85,251.541c-4.036,3.763-7.756,7.8-13.26,9.745-12.729,4.505-24.523-1.156-26.343-14.429-2.49-18.153.734-35.3,14.573-48.833,9.547-9.333,22.659-9.708,31.268-1.374,1.628,1.576,2.069,4.032,4.391,5.291a49.4,49.4,0,0,0,2.6-6.222c.826-3.041,2.568-3.764,5.587-3.667,7.115.23,7.128.061,5.661,6.917-4.229,19.748-8.521,39.483-12.638,59.254-.591,2.839-1.874,3.461-4.557,3.424-7.995-.108-7.994.008-6.886-7.8.084-.595.106-1.2.155-1.8.024-.343.05-.686.076-1.029ZM1114.426,235.1c0,2.412-.041,3.622.006,4.828.388,9.859,7.592,13.835,16.255,8.994a16.147,16.147,0,0,0,4.749-4.136c6.749-8.479,9.759-18.254,9.882-28.975.074-6.322-2.449-10.638-6.836-12.128-5.078-1.72-11.233.533-14.869,5.209-6.285,8.082-8.767,17.388-9.185,26.208Z" transform="translate(-91.918 -12.147)"></path><path id="Path_1460" data-name="Path 1460" d="M1178.02,261.583c4.647-22.012,9.114-43.422,13.789-64.785.328-1.5-.4-4.248,2.015-4.5a45.341,45.341,0,0,1,9.928.209c1.038.123.434,1.874.346,2.853-.273,3-.674,5.98-1.024,8.959,1.814.524,1.864-.936,2.429-1.611,4.336-5.188,9.2-9.6,16-11.306,12.924-3.242,23.25,4.874,22.731,18.155-.414,10.624-3.643,20.792-5.679,31.15-1.192,6.066-2.637,12.085-4.034,18.107-.216.929.231,2.564-1.166,2.621a107.821,107.821,0,0,1-13.157-.033c-1.468-.119-.5-2.132-.3-3.112,2.758-13.448,5.637-26.87,8.465-40.3.28-1.327.409-2.686.666-4.02.652-3.387.909-6.9-2.12-9.171-3.3-2.472-7.2-2.008-10.838-.587-4.284,1.673-6.921,5.25-9.356,8.922-6.347,9.57-8.258,20.629-10.5,31.57-.969,4.728-2.015,9.444-2.806,14.2-.346,2.082-1.215,2.782-3.279,2.714C1186.2,261.49,1182.275,261.583,1178.02,261.583Z" transform="translate(-99.047 -12.146)"></path><path id="Path_1461" data-name="Path 1461" d="M1469.809,246.6c0,3.345-.048,6.324.024,9.3a2.226,2.226,0,0,1-1.429,2.5c-11.841,4.364-23.926,7.579-35.876,1.144-7.657-4.122-11.547-11.235-11.791-20.129-.348-12.6,2.662-24.247,9.931-34.61,7.638-10.888,21.6-16.291,33.811-13.329,7.3,1.768,12.9,5.674,14.243,13.4,1.364,7.861-1.086,14.877-7.765,19.549-9.231,6.456-19.881,8.625-30.96,8.213-3.541-.132-3.91,1.011-3.881,3.963.1,9.934,6.419,15.743,16.283,14.692C1458.28,250.665,1463.8,248.649,1469.809,246.6Zm-25.352-25.024a4.411,4.411,0,0,0,1.3-.015c5.546-.76,11.08-1.739,15.577-5.391,3.11-2.524,4.253-6.116,2.739-9.762-1.413-3.4-4.585-4.423-8.294-4-8.43.958-12.769,6.712-16.042,13.6-2.719,5.728-2.546,5.857,4.719,5.569Z" transform="translate(-121.074 -12.144)"></path><path id="Path_1462" data-name="Path 1462" d="M422.246,79.907c-6.867,7.8-13.086,14.91-19.35,21.974-6.637,7.479-6.645,7.448-.315,15.093,6.637,8.019,13.241,16.067,20.549,24.939-5.585,0-10.313.082-15.033-.036-2.107-.053-2.837-2.117-3.924-3.469-6.395-7.949-12.7-15.972-19.956-23.72,0,7.619-.2,15.247.091,22.856.137,3.614-.944,4.59-4.508,4.482-7.919-.24-7.925-.047-7.925-7.747,0-16.639.091-33.278-.077-49.917-.035-3.443.695-4.685,4.412-4.556,8,.277,8.01.057,8.01,8.17v18.383c6.357-7.489,12.184-13.589,17.073-20.367,3.632-5.038,7.787-7.015,13.737-6.136C417.037,80.157,419.134,79.907,422.246,79.907Z" transform="translate(-25.873 -2.068)"></path><path id="Path_1463" data-name="Path 1463" d="M509.126,214.177a59.7,59.7,0,0,1,10.766-12.745,20.674,20.674,0,0,1,14.131-5.13c5.06.025,8.649,3.138,10.113,8.729a48.45,48.45,0,0,1,1.31,8.937c3.21-4.092,5.953-8.356,9.9-11.631a25.118,25.118,0,0,1,12.074-5.793c8.464-1.418,13.466,2.349,15.17,12.026,1.091,6.183-.486,12.355-1.107,18.5-1.017,10.073-2.364,20.111-3.594,30.162-.158,1.29.135,3.08-1.663,3.3-2.075.255-4.557,1.121-4.007-3.041,1.664-12.583,2.9-25.222,4.382-37.83.462-3.931.768-7.839-.229-11.71-1.325-5.144-4.439-7.264-9.671-6.587a19.227,19.227,0,0,0-11.762,6.274c-6.456,6.906-10.795,14.747-11.5,24.467-.627,8.586-2.006,17.115-2.691,25.7-.273,3.441-2.346,2.819-4.383,2.844-3.041.038-1.818-1.976-1.637-3.463,1.637-13.807,3.364-27.6,4.9-41.423.878-7.906-.8-12.2-4.954-13.812-5.105-1.981-13.539,1.214-17.582,6.629-6.825,9.144-11.3,19.13-11.858,30.748-.284,5.875-1.35,11.709-1.922,17.576-.255,2.625-.956,4.2-4.1,3.8-3.564-.455-1.5-2.739-1.352-4.055,2.071-18.932,4.3-37.847,6.4-56.776.2-1.783.553-2.894,2.637-2.685,2.018.2,3.029,1.1,2.779,3.239-.507,4.353-.954,8.713-1.424,13.071l.085,2.049Z" transform="translate(-37.248 -12.651)"></path><path id="Path_1464" data-name="Path 1464" d="M1517.342,204.01a52.1,52.1,0,0,1,12.595-10.729c4.38-2.682,9.03-2.992,13.974-1.87,1.764.4,1.787,1.182,1.455,2.5s-.611,2.644-.941,3.96c-.586,2.335-.553,5.221-1.965,6.847-1.506,1.733-4.256-.341-6.466-.195a18.088,18.088,0,0,0-12.789,5.928c-6.783,7.478-9.45,16.639-11.274,26.234-1.377,7.258-3.116,14.451-4.382,21.731-.423,2.429-1.166,3.356-3.672,3.228-3.762-.192-7.54-.05-11.759-.05,3.123-14.719,6.161-29.107,9.232-43.486,1.607-7.52,3.437-15,4.819-22.558.482-2.632,1.339-3.468,4.019-3.481,8.26-.045,8.248-.167,7.351,7.91C1517.406,201.313,1517.415,202.666,1517.342,204.01Z" transform="translate(-127.555 -12.156)"></path><path id="Path_1465" data-name="Path 1465" d="M566.353,97.956C579.317,97,579.312,97,583.239,108.887c2.3,6.958,4.62,13.911,7.378,22.209,3.455-10.324,6.413-19.352,9.535-28.324.6-1.723.293-4.527,2.455-4.867a29.932,29.932,0,0,1,9.938.057c1.936.358.225,2.28-.152,3.3-5.243,14.126-10.592,28.213-15.9,42.315a81.944,81.944,0,0,1-5.107,12.061c-4.68,8.2-13,9.083-20.562,7-4.382-1.207-.688-4.865-1.075-7.35-.435-2.8,1.949-1.4,3.149-1.292,9.462.828,12.541-3.223,9.247-12.262-.052-.142-.121-.277-.173-.419q-7.267-19.969-14.527-39.937C567.044,100.268,566.725,99.127,566.353,97.956Z" transform="translate(-43.531 -3.69)"></path><path id="Path_1466" data-name="Path 1466" d="M622.042,109.855c-.273-.52-.495-.754-.509-1-.579-9.638-.53-9.729,9.045-11.365a35.617,35.617,0,0,1,6.747-.687c10.542.248,19.744,2.583,19.926,18.365.1,8.62.244,17.24.53,25.854.071,2.12-.714,2.66-2.582,2.49a10.135,10.135,0,0,0-2.721.01c-4.492.826-6.489-.9-5.318-7-5.606,6.989-11.865,8.952-19.174,7.495-6.328-1.263-10.607-5.7-11.184-11.435-.683-6.843,1.919-11.832,7.819-14.351a25.175,25.175,0,0,1,9.575-2.47c3.025-.035,6.058-.386,9.07-.237,2.685.134,3.038-1.142,2.728-3.286-.707-4.9-5.112-7.753-10.934-7.03A31.544,31.544,0,0,0,622.042,109.855Zm18.852,12.467c-4.869.008-8.233.786-10.41,2.4-3.5,2.6-3.8,9.431-.471,10.894,5.608,2.469,13.158-.9,15.264-6.819,2.085-5.849,1.652-6.489-4.383-6.479Z" transform="translate(-48.101 -3.625)"></path><path id="Path_1467" data-name="Path 1467" d="M433.608,110.028c-.2-2.992-.342-5.507-.536-8.019-.131-1.694.807-2.283,2.281-2.8,7.621-2.658,15.339-3.364,23.14-1.11,5.681,1.637,8.729,5.819,9.553,11.488,1.552,10.662.333,21.458,1.336,32.15.112,1.2-.351,1.681-1.444,1.719a31.271,31.271,0,0,0-3.176.053c-4.166.568-7.172-.2-6.092-6.667-6.479,7.756-13.7,9.116-21.754,6.266-6.262-2.217-9.155-6.745-8.924-13.168.207-5.786,3.877-10.274,9.59-12.357,5.535-2.014,11.243-2.326,16.981-2.059,3.441.16,3.84-1.2,3.053-4.006-1.279-4.564-5.135-6.934-10.584-6.327A30.385,30.385,0,0,0,433.608,110.028Zm19.173,12.3a19.044,19.044,0,0,0-9.622,1.833,6.7,6.7,0,0,0-3.7,6.7c.071,1.66.039,3.681,2.058,4.679,5.3,2.624,13.659-.982,15.624-6.776C459.2,122.7,458.94,122.306,452.781,122.328Z" transform="translate(-30.973 -3.62)"></path><path id="Path_1468" data-name="Path 1468" d="M607.845,253.431c-1.17,9.274-2.534,17.922-3.228,26.627-.278,3.487-1.925,3.435-4.345,3.326-3.591-.161-1.618-2.584-1.46-3.926q4.572-38.677,9.322-77.334c.091-.749.3-1.483.4-2.231.21-1.552.343-2.978,2.624-2.71,2.177.255,2.783,1.282,2.546,3.328-.619,5.354-1.129,10.723-1.258,16.326,3.257-4.713,6.5-9.318,10.7-13.147,3.511-3.2,7.318-5.97,12-6.959,8.922-1.886,16.23,2.719,19.122,11.729,4.479,13.951-2.79,38.115-14.2,47.2C629.636,263.982,618.445,263.384,607.845,253.431ZM649.7,219.78c0-1.938.06-2.546-.009-3.147-.657-5.681-1.788-11.3-7.442-14.156-5.681-2.866-10.9-.646-15.694,2.648a24.435,24.435,0,0,0-6.053,6.065,61.646,61.646,0,0,0-11.681,30.872c-.7,7.744,1.988,10.1,7.758,12.978,7.534,3.752,15.98,1.6,22.028-5.232C646.523,240.868,648.984,229.955,649.7,219.78Z" transform="translate(-46.416 -12.656)"></path><path id="Path_1469" data-name="Path 1469" d="M558.631,131.693c.124.168.255.265.263.37.645,9.5-.594,10.974-10.172,12.144-14.548,1.778-24.427-3.077-28.107-14.02a30.207,30.207,0,0,1,1.314-22.95c3.34-7.183,9.7-10.044,17.307-10.344,8.016-.315,14.484,2.641,18.722,9.646,2.793,4.616,3.742,9.785,4.166,15.107.208,2.614-1.3,2.521-3.082,2.514-8.477-.033-16.958.127-25.43-.084-3.4-.085-3.428,1.4-2.585,3.8a12.408,12.408,0,0,0,11.638,7.895,36.856,36.856,0,0,0,8.5-1.144A60.546,60.546,0,0,0,558.631,131.693Zm-18.378-15.3c2.567,0,5.138-.085,7.7.024,2.628.112,2.994-.927,2.372-3.311-1.278-4.894-3.869-7.464-8.588-7.95-4.466-.455-8.384,2.025-10.281,6.52-1.743,4.128-1.408,4.678,2.91,4.715C536.327,116.405,538.291,116.39,540.254,116.39Z" transform="translate(-39.229 -3.631)"></path><path id="Path_1470" data-name="Path 1470" d="M384.5,258.78c-10.746.555-27.576-6.572-31.649-22.405-5.546-21.549-2.733-41.342,13.771-57.744,11.083-11.014,31.473-15.073,45.564-8.962,3.346,1.455,6.092,3.919,8.748,6.4,1.026.956,1.882,1.989.571,3.428s-2.671,1.245-4,.222c-3.477-2.672-6.935-5.341-11.254-6.579a36.542,36.542,0,0,0-40.3,14.486c-9.377,13.792-11.919,28.864-7.528,44.916,4.324,15.806,19.972,24.218,36.317,20.024a42.075,42.075,0,0,0,15.946-8.232c1.372-1.1,2.285-1.687,3.781-.182,1.969,1.984-.222,2.637-1.056,3.455C406.544,254.331,396.788,258.047,384.5,258.78Z" transform="translate(-23.918 -9.98)"></path><path id="Path_1471" data-name="Path 1471" d="M479.1,133.043a42.877,42.877,0,0,0,11.122,2.728,11.2,11.2,0,0,0,6.547-1.338,4.33,4.33,0,0,0,2.273-3.675c.156-2.022-1.434-2.486-2.789-3.04-3.2-1.31-6.565-2.268-9.638-3.811-6.162-3.091-8.966-8.512-8.048-14.779.936-6.4,4.569-9.866,11.586-11.563,5.612-1.357,11.108-.243,16.651.257,1.828.165,2.642.869,2.364,2.926a48.762,48.762,0,0,0-.061,6.406c-3.41-.686-6.341-1.231-9.25-1.876a8.781,8.781,0,0,0-5.722.827,3.929,3.929,0,0,0-2.593,3.43c-.114,2.046,1.486,2.364,2.879,2.91,2.938,1.152,5.978,2.1,8.788,3.508,8.508,4.262,11.707,15.443,6.946,23.694-1.551,2.688-3.924,3.955-6.92,4.523-6.661,1.26-13.228.159-19.831-.464-3.613-.34-4.916-2.106-4.339-5.632a34.176,34.176,0,0,0,.035-5.031Z" transform="translate(-35.548 -3.635)"></path><path id="Path_1472" data-name="Path 1472" d="M760.593,242.344c-4.4,7.014-8.286,13.042-14.712,16.993-10.074,6.195-21.367,2.326-24.486-9-6.231-22.6,9.233-50.826,36.006-53.43a29.768,29.768,0,0,1,8.533.847c6.092,1.219,6.534,1.825,5.8,8.015-2.068,17.408-4.267,34.8-6.312,52.213-.254,2.158-1.136,2.782-3.182,2.768-2.687-.019-2.345-1.719-2.2-3.4C760.463,252.732,761.445,248.141,760.593,242.344Zm-34.2-4.174a47.36,47.36,0,0,0,.041,6.346c1.619,11.886,10.934,15.783,20.676,8.733a33.205,33.205,0,0,0,6.379-6.416c8.159-10.239,10.638-22.367,11.856-35,1.036-10.746.148-11.771-10.9-10.571a24.9,24.9,0,0,0-3.086.66c-12.314,2.955-26.071,20.2-24.964,36.242Z" transform="translate(-57.479 -12.707)"></path><path id="Path_1473" data-name="Path 1473" d="M797.791,215.419c3.953-5.143,7.529-9.965,12.432-13.667,6.395-4.827,13.335-7.476,21.073-3.8,5.62,2.672,8.56,12.206,7.449,20.549-1.673,12.558-3.019,25.16-4.575,37.733-.188,1.52.386,3.477-1.618,4.322-2.936,1.237-4.9-.238-4.525-3.448,1.343-11.559,2.789-23.107,4.075-34.671.546-4.938,1.229-9.935-.515-14.8-1.676-4.673-4.728-6.679-9.673-6.3-5.935.455-10.456,3.637-14.408,7.785-7.941,8.354-11.9,18.3-12.357,29.834-.252,6.331-1.383,12.621-1.862,18.949-.229,3.027-2.106,2.665-4.107,2.771-2.41.129-2.266-1.265-2.069-2.91,2.266-18.908,4.486-37.824,6.819-56.719.2-1.595-.7-4.333,2.819-3.846,3.426.475,2.415,2.823,2.253,4.808C798.639,206.491,798.2,210.954,797.791,215.419Z" transform="translate(-63.559 -12.649)"></path><path id="Path_1474" data-name="Path 1474" d="M430.59,234.26c.758-14.074,5.524-25.641,17.056-33.824,13.208-9.374,30.889-3.33,35.328,12.152,4.455,15.528-1.889,34.721-14.067,43.5-8.2,5.91-16.813,7.19-26.009,3.04-9.27-4.183-11.286-12.689-12.289-21.656A25.715,25.715,0,0,1,430.59,234.26ZM478.1,222.54c0-1.511.117-3.033-.019-4.532-.79-8.645-5.6-15.372-12.245-16.679-7.145-1.407-13.567.429-18.645,5.694-9.027,9.359-11.594,21.047-10.491,33.46.6,6.771,3.62,13.093,10.82,15.412,7.442,2.392,14.238.686,19.937-4.955,7.935-7.85,10.614-17.632,10.643-28.4Z" transform="translate(-31.206 -12.626)"></path><path id="Path_1475" data-name="Path 1475" d="M932.453,261.125c-14.286-.021-22.549-7.013-23.778-21.23-1.373-15.905,3.728-29.562,16.847-39.279a23.93,23.93,0,0,1,21.542-3.905c5.274,1.527,9.19,4.831,10.058,10.514.943,6.172-1,11.241-6.568,14.741-8.578,5.4-18.352,6.547-27.993,8.259-10.357,1.844-8.171-.6-8.108,9.274.091,14.831,14.158,21.96,28.186,14.467a36.714,36.714,0,0,0,6.938-5.032c1.808-1.608,3.944-2.6,5.466-.782,1.475,1.758-1.154,2.681-2.237,3.7C947.076,257.218,940.891,261.668,932.453,261.125Zm-16.03-34.287c9.554-1.273,19.2-2.286,28.031-6.515,4.378-2.1,8.082-5.349,7.752-10.67a8.309,8.309,0,0,0-6.91-7.951,20.052,20.052,0,0,0-11.138.242c-11.6,3.958-16.012,13.375-18.6,24.213l.232,1.063Z" transform="translate(-74.581 -12.598)"></path><path id="Path_1476" data-name="Path 1476" d="M852.933,234.78c.856-15.633,6.046-28.947,20.813-36.584,7.776-4.021,18.695-4.241,25.495,3.258,1.052,1.16,2.58,2.1.721,4.064-1.891,2-2.8.546-4.019-.57-7.884-7.23-20.211-5.486-27.073,2.561-8.632,10.125-12.046,21.781-9.486,35,1.952,10.081,11.264,15.384,21.794,12.47,4.794-1.327,8.678-4.1,12.391-7.253,1.174-1,2.461-2.546,4.232-.826,2.119,2.057-.439,2.927-1.238,3.956-7.559,9.737-17.607,12.133-29.127,9.207-8.447-2.145-13.711-9.765-14.485-20.292C852.828,238.116,852.933,236.444,852.933,234.78Z" transform="translate(-69.538 -12.576)"></path><path id="Path_1477" data-name="Path 1477" d="M686.348,167.772c-1.627,13.252-3.2,26.309-4.838,39.357-1.993,15.9-4.165,31.774-5.937,47.7-.325,2.919-1.5,2.878-3.649,2.957-3.1.115-2.091-2.012-1.935-3.364,1.86-16.065,3.819-32.12,5.739-48.178,1.437-12.007,2.8-24.022,4.333-36.016.284-2.222-.535-5.455,3.8-5.175C686.158,165.2,686.878,165.83,686.348,167.772Z" transform="translate(-52.912 -9.817)"></path><path id="Path_1478" data-name="Path 1478" d="M696.956,258.074c1.679-13.548,3.323-26.864,4.978-40.179.744-5.985,1.756-11.949,2.169-17.956.251-3.637,2.582-2.576,4.455-2.641,2.749-.091,1.626,1.794,1.462,3.145q-3.4,28.063-6.819,56.124c-.268,2.2-.188,4.532-3.712,4.268C697.208,260.665,696.513,259.942,696.956,258.074Z" transform="translate(-55.374 -12.737)"></path><path id="Path_1479" data-name="Path 1479" d="M710.41,167.7c3.586-.238,5.29,1.954,5.324,4.881.036,3.138-1.719,5.288-5.377,5.274-3.589-.012-5.443-1.843-5.389-5.2S706.88,167.361,710.41,167.7Z" transform="translate(-56.112 -10.056)"></path></g></g></g></svg>