<?xml version="1.0" encoding="UTF-8"?>
<svg version="1.1" xmlns="http://www.w3.org/2000/svg" width="770" height="1000">
<path d="M0 0 C224.07 0 448.14 0 679 0 C679 150.81 679 301.62 679 457 C683.95 457 688.9 457 694 457 C698.05133127 465.65808699 702.08004043 474.32615192 706.08123779 483.00750732 C706.68788147 484.32311769 707.29516862 485.63843155 707.90313721 486.95343018 C709.89059458 491.25275269 711.85622947 495.56139375 713.8125 499.875 C714.33360352 501.00204346 714.85470703 502.12908691 715.39160156 503.2902832 C715.86694336 504.34691162 716.34228516 505.40354004 716.83203125 506.4921875 C717.25202393 507.41370605 717.6720166 508.33522461 718.10473633 509.28466797 C720.39635116 516.23512889 717.99868758 521.03226364 715.0546875 527.31640625 C714.44344528 528.65577492 714.44344528 528.65577492 713.81985474 530.02220154 C712.51542775 532.87393584 711.19551455 535.71818497 709.875 538.5625 C709.00938553 540.44809469 708.14479194 542.33415838 707.28125 544.22070312 C705.23299004 548.68903345 703.17281065 553.15170719 701.10632324 557.6116333 C699.52788171 561.01922436 697.95549505 564.42959119 696.3828125 567.83984375 C695.59648438 569.54269531 694.81015625 571.24554687 694 573 C689.05 573 684.1 573 679 573 C679 608.31 679 643.62 679 680 C672.73 683.3 666.46 686.6 660 690 C655.11631997 692.58574219 650.2329305 695.17197983 645.35095215 697.76092529 C634.83648802 703.33644426 624.31395986 708.8936304 613.75 714.375 C606.61578285 718.07790263 599.54109235 721.87313892 592.5 725.75 C582.91357498 731.02691512 573.20622734 736.04769933 563.47039795 741.04092407 C555.29530607 745.23597537 547.16739896 749.49139582 539.125 753.9375 C529.29659952 759.36937935 519.32153886 764.49519106 509.32727051 769.61248779 C499.91618313 774.43385698 490.57918921 779.35620245 481.32421875 784.47265625 C473.45909988 788.79905945 465.48657922 792.90402614 457.5 797 C448.60597774 801.56144497 439.75049623 806.16664548 431 811 C421.58748514 816.19902187 412.0488311 821.12978189 402.48129272 826.03497314 C394.02803456 830.37113034 385.63206173 834.78554567 377.3125 839.375 C370.24280664 843.2537315 363.16035516 847.10322711 356 850.8125 C355.18055908 851.25190918 354.36111816 851.69131836 353.5168457 852.14404297 C352.74816162 852.5360791 351.97947754 852.92811523 351.1875 853.33203125 C350.52105469 853.67983643 349.85460937 854.0276416 349.16796875 854.38598633 C343.67810866 855.94082846 338.87997767 853.19252457 334.11328125 850.6796875 C332.68863785 849.94826171 331.26364831 849.21750988 329.83837891 848.48730469 C329.06512268 848.08829956 328.29186646 847.68929443 327.49517822 847.27819824 C322.88620434 844.91717158 318.24282853 842.62492488 313.60546875 840.3203125 C311.55645773 839.29854376 309.50763229 838.27640281 307.45898438 837.25390625 C304.32729062 835.69111266 301.19531941 834.12889352 298.06225586 832.56884766 C286.91099623 827.01553261 275.79759595 821.41126972 264.7922821 815.57351685 C257.34689763 811.63224301 249.81786615 807.86792183 242.27069092 804.12619019 C231.5563717 798.81222999 220.86202874 793.47894612 210.31640625 787.8359375 C201.54023908 783.17112792 192.61752574 778.79387809 183.72064209 774.365448 C174.89740688 769.97190738 166.11057184 765.53473354 157.41796875 760.88671875 C149.35586713 756.60506975 141.17151608 752.56737787 133 748.5 C114.90528792 739.4933182 114.90528792 739.4933182 106.625 735.0625 C97.5111997 730.18687526 88.25173925 725.60628774 79 721 C69.10604426 716.07395065 59.22608205 711.1444236 49.4855957 705.91943359 C44.06084149 703.03270916 38.57549365 700.276136 33.07421875 697.5390625 C32.26804108 697.13774109 31.4618634 696.73641968 30.6312561 696.32293701 C26.54372534 694.28969674 22.4533596 692.26239985 18.359375 690.2421875 C16.8371913 689.48707648 15.31505394 688.73187205 13.79296875 687.9765625 C13.09684982 687.63525299 12.4007309 687.29394348 11.68351746 686.94229126 C11.02378433 686.61409393 10.36405121 686.28589661 9.68432617 685.94775391 C9.1154216 685.66703033 8.54651703 685.38630676 7.96037292 685.09707642 C7.31344986 684.7350412 6.66652679 684.37300598 6 684 C4.42208931 683.26766647 4.42208931 683.26766647 2.81230164 682.52053833 C-0.29321409 679.73720552 -0.43270044 679.37026328 -0.7215271 675.45684814 C-0.73892829 673.5458082 -0.72294744 671.63429491 -0.68115234 669.72363281 C-0.68246658 668.15730858 -0.68246658 668.15730858 -0.68380737 666.55934143 C-0.6796259 663.10650934 -0.63294396 659.65561785 -0.5859375 656.203125 C-0.57474744 653.80988629 -0.56620636 651.41663383 -0.56021118 649.02337646 C-0.53729838 642.72326737 -0.47835219 636.4239878 -0.4119873 630.12420654 C-0.3506187 623.69619977 -0.32320765 617.26805901 -0.29296875 610.83984375 C-0.22861282 598.22619797 -0.12620227 585.61316795 0 573 C-5.28 573 -10.56 573 -16 573 C-20.01252664 564.51467039 -24.00483153 556.02083435 -27.95935059 547.50831604 C-29.56621263 544.05447768 -31.18242761 540.60639083 -32.83837891 537.17578125 C-34.45876927 533.81579302 -36.04488985 530.44156854 -37.625 527.0625 C-38.11589111 526.0712915 -38.60678223 525.08008301 -39.11254883 524.05883789 C-39.54204834 523.12289795 -39.97154785 522.18695801 -40.4140625 521.22265625 C-40.98568115 520.02781616 -40.98568115 520.02781616 -41.56884766 518.80883789 C-42.64776995 511.77995849 -37.87046688 504.20607448 -34.9453125 497.9765625 C-34.5618869 497.14973969 -34.1784613 496.32291687 -33.78341675 495.47103882 C-32.5684561 492.85356663 -31.34693785 490.2392211 -30.125 487.625 C-29.31334843 485.88041932 -28.50214695 484.13562917 -27.69140625 482.390625 C-26.51723524 479.8637572 -25.3426797 477.3370767 -24.16607666 474.81134033 C-21.40808199 468.89004345 -18.68826103 462.9533554 -16 457 C-10.72 457 -5.44 457 0 457 C0 306.19 0 155.38 0 0 Z " fill="#F1F2F1" transform="translate(45,71)"/>
<path d="M0 0 C78.87 0 157.74 0 239 0 C239.33 33.33 239.66 66.66 240 101 C253.365 108.425 253.365 108.425 267 116 C279.125 123.0625 279.125 123.0625 284.96484375 126.4765625 C285.93921387 127.04536133 286.91358398 127.61416016 287.91748047 128.20019531 C290.07642129 129.4607459 292.23420256 130.72328357 294.39111328 131.98730469 C297.8126843 133.98916072 301.24956669 135.96387162 304.6875 137.9375 C305.74533691 138.55955322 306.80317383 139.18160645 307.89306641 139.82250977 C309.37492432 140.66640259 309.37492432 140.66640259 310.88671875 141.52734375 C311.75514404 142.02999756 312.62356934 142.53265137 313.51831055 143.05053711 C316.54328773 144.20785499 317.94617785 143.98958525 321 143 C323.08326134 142.0618854 323.08326134 142.0618854 325.09765625 140.83984375 C325.88446777 140.38424072 326.6712793 139.9286377 327.48193359 139.45922852 C328.33352051 138.95705811 329.18510742 138.4548877 330.0625 137.9375 C331.951618 136.84079277 333.84095239 135.74445825 335.73046875 134.6484375 C336.74157715 134.05901367 337.75268555 133.46958984 338.79443359 132.86230469 C344.47026576 129.56487531 350.17380096 126.31579171 355.875 123.0625 C357.06112775 122.38535492 358.24724429 121.70819022 359.43334961 121.03100586 C361.20572647 120.01915584 362.97817962 119.00744065 364.75086975 117.99613953 C367.65488507 116.33937625 370.55770705 114.68060171 373.45898438 113.01904297 C376.67873757 111.17538429 379.90148476 109.33707084 383.125 107.5 C384.58268799 106.66287476 384.58268799 106.66287476 386.06982422 105.80883789 C387.40037842 105.05268188 387.40037842 105.05268188 388.7578125 104.28125 C389.5327002 103.83845703 390.30758789 103.39566406 391.10595703 102.93945312 C393 102 393 102 395 102 C395 68.34 395 34.68 395 0 C473.87 0 552.74 0 634 0 C634 3.3 634 6.6 634 10 C632.515 11.485 632.515 11.485 631 13 C630.34 13 629.68 13 629 13 C629 13.66 629 14.32 629 15 C628.34 15 627.68 15 627 15 C627 15.66 627 16.32 627 17 C626.34 17 625.68 17 625 17 C625 17.66 625 18.32 625 19 C624.34 19 623.68 19 623 19 C623 19.66 623 20.32 623 21 C622.34 21 621.68 21 621 21 C621 21.66 621 22.32 621 23 C620.34 23 619.68 23 619 23 C619 23.66 619 24.32 619 25 C618.34 25 617.68 25 617 25 C617 25.66 617 26.32 617 27 C616.34 27 615.68 27 615 27 C615 27.66 615 28.32 615 29 C614.34 29 613.68 29 613 29 C613 29.66 613 30.32 613 31 C612.34 31 611.68 31 611 31 C611 31.66 611 32.32 611 33 C610.34 33 609.68 33 609 33 C608.67 33.99 608.34 34.98 608 36 C607.34 36 606.68 36 606 36 C606 36.66 606 37.32 606 38 C605.34 38 604.68 38 604 38 C603.34 39.32 602.68 40.64 602 42 C601.34 42 600.68 42 600 42 C599.34 43.32 598.68 44.64 598 46 C597.34 46 596.68 46 596 46 C595.34 47.32 594.68 48.64 594 50 C593.34 50 592.68 50 592 50 C591.7525 50.5775 591.505 51.155 591.25 51.75 C589.81700012 54.32939979 588.21575324 56.06121592 586 58 C585.34 58 584.68 58 584 58 C583.76581863 58.55949844 583.53163727 59.11899689 583.2903595 59.69544983 C581.6783192 62.57451395 579.6948792 64.54438754 577.35424805 66.87280273 C576.64896973 67.57851913 576.64896973 67.57851913 575.92944336 68.29849243 C574.37823001 69.84831587 572.82005495 71.39093522 571.26171875 72.93359375 C570.17752604 74.01405221 569.09377709 75.09495613 568.01045227 76.17628479 C565.15789004 79.02121887 562.29937992 81.86010274 559.4395752 84.69775391 C556.54273209 87.57421234 553.65146451 90.45626238 550.75976562 93.33789062 C545.66030917 98.4182212 540.55596837 103.49359851 535.44804382 108.56541443 C534.64018936 109.36882767 533.8323349 110.17224091 533 111 C532.10984695 111.87789688 531.21969391 112.75579376 530.30256653 113.66029358 C527.97407349 115.93165079 527.97407349 115.93165079 526.125 118.4375 C523.87573036 121.14985457 521.44792631 123.20597826 518.7421875 125.44140625 C517.02251094 126.97986129 515.62176452 128.57156088 514.1875 130.375 C513.465625 131.24125 512.74375 132.1075 512 133 C511.34 133 510.68 133 510 133 C510 133.66 510 134.32 510 135 C509.34 135 508.68 135 508 135 C508 135.66 508 136.32 508 137 C507.34 137 506.68 137 506 137 C506 137.66 506 138.32 506 139 C505.34 139 504.68 139 504 139 C504 139.66 504 140.32 504 141 C503.34 141 502.68 141 502 141 C502 141.66 502 142.32 502 143 C501.34 143 500.68 143 500 143 C500 143.66 500 144.32 500 145 C499.34 145 498.68 145 498 145 C498 145.66 498 146.32 498 147 C497.34 147 496.68 147 496 147 C496 147.66 496 148.32 496 149 C495.34 149 494.68 149 494 149 C494 149.66 494 150.32 494 151 C493.34 151 492.68 151 492 151 C492 151.66 492 152.32 492 153 C491.34 153 490.68 153 490 153 C490 153.66 490 154.32 490 155 C489.34 155 488.68 155 488 155 C487.67 155.99 487.34 156.98 487 158 C486.34 158 485.68 158 485 158 C485 158.66 485 159.32 485 160 C484.34 160 483.68 160 483 160 C482.34 161.32 481.68 162.64 481 164 C480.34 164 479.68 164 479 164 C478.34 165.32 477.68 166.64 477 168 C476.34 168 475.68 168 475 168 C474.34 169.32 473.68 170.64 473 172 C472.34 172 471.68 172 471 172 C470.7525 172.61875 470.505 173.2375 470.25 173.875 C468.76259631 176.40358627 467.56321991 176.71839004 465 178 C464.70694473 178.59742004 464.41388947 179.19484009 464.11195374 179.81036377 C462.8072279 182.37960282 461.24748112 183.99967772 459.20874023 186.03417969 C458.43130966 186.81468689 457.65387909 187.59519409 456.85289001 188.39935303 C456.01327225 189.23178528 455.17365448 190.06421753 454.30859375 190.921875 C453.44814957 191.78186096 452.58770538 192.64184692 451.70118713 193.52789307 C449.88364161 195.34241939 448.06366816 197.15451653 446.24145508 198.96435547 C443.43968131 201.74783294 440.64603183 204.53926933 437.85351562 207.33203125 C436.0890138 209.09161942 434.32405555 210.85075002 432.55859375 212.609375 C431.71695175 213.44990417 430.87530975 214.29043335 430.00816345 215.15643311 C429.23388504 215.92433167 428.45960663 216.69223022 427.66186523 217.48339844 C426.97728745 218.16416443 426.29270966 218.84493042 425.58738708 219.54632568 C424 221 424 221 423 221 C423 217.37 423 213.74 423 210 C417.72 210 412.44 210 407 210 C407 214.95 407 219.9 407 225 C404.36 225 401.72 225 399 225 C399 229.29 399 233.58 399 238 C401.31 238 403.62 238 406 238 C403.90722398 242.18555205 401.26716069 244.66777762 397.71484375 247.57421875 C395.83237859 249.09506325 395.83237859 249.09506325 393.625 251.375 C393.08875 251.91125 392.5525 252.4475 392 253 C391.67 253 391.34 253 391 253 C390.97421875 252.23816406 390.9484375 251.47632813 390.921875 250.69140625 C390.47655305 242.58452261 389.17154796 236.15582146 384.1875 229.625 C379.12671032 225.86555623 374.52282906 224.44043506 368.28125 224.6328125 C364.4267999 225.25322056 361.31729146 227.01917129 358 229 C357.34 229.33 356.68 229.66 356 230 C355.67 228.68 355.34 227.36 355 226 C350.05 226 345.1 226 340 226 C339.67 245.14 339.34 264.28 339 284 C344.28 283.67 349.56 283.34 355 283 C355.00410889 281.84999512 355.00821777 280.69999023 355.01245117 279.51513672 C355.03428932 275.23197137 355.08862706 270.94971855 355.15258789 266.66699219 C355.17572719 264.81649549 355.19015405 262.96586785 355.19555664 261.11523438 C355.20487625 258.44839266 355.24592991 255.78359868 355.29296875 253.1171875 C355.2890361 252.29507782 355.28510345 251.47296814 355.28105164 250.62594604 C355.42906547 244.74583959 356.73781629 242.08947409 361 238 C363.0625 237.203125 363.0625 237.203125 365 237.25 C365.9590625 237.22679687 365.9590625 237.22679687 366.9375 237.203125 C370.52543106 238.58937109 372.45730293 240.5707745 374 244 C374.61212316 248.80663498 374.47012029 253.53969445 374.3125 258.375 C374.28994141 259.68339844 374.26738281 260.99179687 374.24414062 262.33984375 C374.18535914 265.56106887 374.10322731 268.7799432 374 272 C373.34 272 372.68 272 372 272 C372 272.66 372 273.32 372 274 C371.34 274 370.68 274 370 274 C370 274.66 370 275.32 370 276 C369.34 276 368.68 276 368 276 C368 276.66 368 277.32 368 278 C367.34 278 366.68 278 366 278 C366 278.66 366 279.32 366 280 C365.34 280 364.68 280 364 280 C363.34 281.32 362.68 282.64 362 284 C361.34 284 360.68 284 360 284 C359.34 285.32 358.68 286.64 358 288 C357.34 288 356.68 288 356 288 C355.34 289.32 354.68 290.64 354 292 C353.34 292 352.68 292 352 292 C351.7525 292.61875 351.505 293.2375 351.25 293.875 C349.76259631 296.40358627 348.56321991 296.71839004 346 298 C345.70654694 298.59487213 345.41309387 299.18974426 345.11074829 299.80264282 C343.80754927 302.38071901 342.23203721 304.07812886 340.22802734 306.15771484 C339.45316986 306.96469818 338.67831238 307.77168152 337.87997437 308.6031189 C334.32791336 312.24423389 330.77244888 315.88158564 327.19873047 319.50146484 C325.31252446 321.41440936 323.44192664 323.34082821 321.58349609 325.28076172 C318.89982463 328.07366065 316.18499726 330.83248628 313.4609375 333.5859375 C312.21985733 334.89502579 312.21985733 334.89502579 310.95370483 336.2305603 C305.18523096 341.95761071 305.18523096 341.95761071 301.75712585 342.08021545 C299.62915039 341.54467773 299.62915039 341.54467773 296 340 C286.53514595 339.19291942 278.2508082 339.68970788 270.125 344.8125 C266.66518229 348.37407705 265.10877967 352.23635403 264 357 C264.81984375 357.06058594 265.6396875 357.12117188 266.484375 357.18359375 C267.56203125 357.26738281 268.6396875 357.35117187 269.75 357.4375 C270.81734375 357.51871094 271.8846875 357.59992188 272.984375 357.68359375 C275.43679962 357.94090773 277.63921291 358.31812218 280 359 C280.28875 358.38125 280.5775 357.7625 280.875 357.125 C282 355 282 355 284 353 C288.52617472 352.32186232 292.64799376 352.19523438 296.625 354.5625 C298.44833162 357.79476969 298.09386004 360.3437247 298 364 C297.44127197 364.0093457 296.88254395 364.01869141 296.30688477 364.02832031 C293.72459677 364.08268988 291.14399402 364.16619709 288.5625 364.25 C287.68400391 364.26417969 286.80550781 364.27835937 285.90039062 364.29296875 C278.18632335 364.57762068 271.95676499 366.36462251 266.125 371.5625 C263.48378809 375.08712067 262.73470256 379.16153359 261.87109375 383.4140625 C260.83086629 386.50209201 259.50502457 387.95174574 257 390 C256.34 390 255.68 390 255 390 C255 389.34 255 388.68 255 388 C254.443125 387.773125 253.88625 387.54625 253.3125 387.3125 C251 386 251 386 248.5 383.3125 C246.33011753 380.79891177 246.33011753 380.79891177 244.0625 380.9375 C241.80482706 382.02315155 241.80482706 382.02315155 239.3125 384.0625 C235.0476511 386.55703426 231.8330089 386.8645812 227 386 C223.69209603 384.31597616 221.68211342 383.02317013 219.625 379.9375 C219 378 219 378 219 375 C230.88 374.67 242.76 374.34 255 374 C255.01965613 359.60394694 255.01965613 359.60394694 248.625 347.625 C242.5700355 341.5700355 237.56509239 339.88175768 229.1875 339.75 C221.41677554 339.84522947 215.36415384 341.64604412 209.609375 347.03125 C203.5277989 354.47084794 202.22738079 363.01421717 202.58203125 372.37890625 C203.57725766 381.00110145 206.52305675 388.11340314 213 394 C220.32449515 399.44641947 229.1620685 400.05481685 238 399 C241.11839403 397.9125406 243.93652885 396.63228348 246.85546875 395.09375 C249 394 249 394 251 394 C251 394.66 251 395.32 251 396 C250.34 396 249.68 396 249 396 C249 396.66 249 397.32 249 398 C248.34 398 247.68 398 247 398 C247 398.66 247 399.32 247 400 C246.34 400 245.68 400 245 400 C245 400.66 245 401.32 245 402 C244.34 402 243.68 402 243 402 C242.34 403.32 241.68 404.64 241 406 C240.34 406 239.68 406 239 406 C238.34 407.32 237.68 408.64 237 410 C236.34 410 235.68 410 235 410 C234.34 411.32 233.68 412.64 233 414 C232.34 414 231.68 414 231 414 C230.7525 414.61875 230.505 415.2375 230.25 415.875 C228.76259631 418.40358627 227.56321991 418.71839004 225 420 C224.34 421.32 223.68 422.64 223 424 C219.37 427.63 215.74 431.26 212 435 C142.04 435 72.08 435 0 435 C0 291.45 0 147.9 0 0 Z " fill="#FEFEFE" transform="translate(67,93)"/>
<path d="M0 0 C64.62431271 -0.01713049 129.2486257 -0.0330312 193.87294006 -0.04234314 C194.82860406 -0.0424812 195.78426806 -0.04261925 196.76889157 -0.04276149 C217.53543233 -0.04575404 238.30197311 -0.04852427 259.06851393 -0.05106533 C269.25164926 -0.05231272 279.43478459 -0.05360927 289.61791992 -0.05493164 C290.63129251 -0.0550624 291.6446651 -0.05519316 292.68874594 -0.05532788 C325.56598388 -0.0595932 358.4432201 -0.06710747 391.320457 -0.07629722 C425.09135824 -0.08571968 458.86225854 -0.09188309 492.63316107 -0.09391499 C497.39734809 -0.09420317 502.16153511 -0.0945288 506.92572212 -0.09487724 C507.86343073 -0.09494467 508.80113933 -0.09501209 509.76726334 -0.09508156 C524.8935926 -0.09626568 540.01991893 -0.10091019 555.14624699 -0.10683203 C570.33403762 -0.11270469 585.52182534 -0.11497165 600.70961707 -0.11350138 C609.74541044 -0.11273778 618.78119319 -0.11479534 627.81698466 -0.12079754 C633.84126641 -0.12452776 639.86554114 -0.12467763 645.88982336 -0.12183181 C649.32980485 -0.1203118 652.76976614 -0.12042831 656.20974552 -0.12488318 C659.90264022 -0.12884233 663.59548119 -0.12676642 667.2883749 -0.12304783 C668.3734941 -0.12567484 669.45861329 -0.12830186 670.57661489 -0.13100848 C672.03777112 -0.12763754 672.03777112 -0.12763754 673.52844566 -0.1241985 C674.37432859 -0.12435448 675.22021151 -0.12451046 676.09172725 -0.12467116 C678 0 678 0 679 1 C679.09543095 2.39143689 679.12188575 3.78768367 679.12025452 5.18238831 C679.12162918 6.08407745 679.12300385 6.9857666 679.12442017 7.91477966 C679.12082489 8.91171341 679.11722961 9.90864716 679.11352539 10.93579102 C679.11367142 11.97956909 679.11381744 13.02334717 679.1139679 14.09875488 C679.11326826 17.56715943 679.10547353 21.03551103 679.09765625 24.50390625 C679.09579225 26.90144318 679.09436826 29.2989805 679.09336853 31.69651794 C679.08954194 38.02095584 679.07971046 44.34537094 679.06866455 50.6697998 C679.05845345 57.11775402 679.05387156 63.56571191 679.04882812 70.01367188 C679.03808832 82.675791 679.02120119 95.33789429 679 108 C678.20329706 108.41910739 678.20329706 108.41910739 677.39049911 108.84668159 C674.93702995 110.13741867 672.48365128 111.42832764 670.03027344 112.71923828 C669.19515228 113.15855179 668.36003113 113.5978653 667.49960327 114.05049133 C662.16735268 116.85638559 656.83915887 119.66979127 651.515625 122.4921875 C650.80065353 122.87124615 650.08568207 123.25030479 649.3490448 123.64085007 C648.01632679 124.34750322 646.68363041 125.05419718 645.35095215 125.76092529 C634.83648802 131.33644426 624.31395986 136.8936304 613.75 142.375 C606.61578285 146.07790263 599.54109235 149.87313892 592.5 153.75 C582.91357498 159.02691512 573.20622734 164.04769933 563.47039795 169.04092407 C555.29530607 173.23597537 547.16739896 177.49139582 539.125 181.9375 C529.29659952 187.36937935 519.32153886 192.49519106 509.32727051 197.61248779 C499.91618313 202.43385698 490.57918921 207.35620245 481.32421875 212.47265625 C473.45909988 216.79905945 465.48657922 220.90402614 457.5 225 C448.60597774 229.56144497 439.75049623 234.16664548 431 239 C421.58748514 244.19902187 412.0488311 249.12978189 402.48129272 254.03497314 C394.02803456 258.37113034 385.63206173 262.78554567 377.3125 267.375 C370.24280664 271.2537315 363.16035516 275.10322711 356 278.8125 C355.18055908 279.25190918 354.36111816 279.69131836 353.5168457 280.14404297 C352.74816162 280.5360791 351.97947754 280.92811523 351.1875 281.33203125 C350.52105469 281.67983643 349.85460937 282.0276416 349.16796875 282.38598633 C343.67810866 283.94082846 338.87997767 281.19252457 334.11328125 278.6796875 C332.68863785 277.94826171 331.26364831 277.21750988 329.83837891 276.48730469 C329.06512268 276.08829956 328.29186646 275.68929443 327.49517822 275.27819824 C322.88620434 272.91717158 318.24282853 270.62492488 313.60546875 268.3203125 C311.55645773 267.29854376 309.50763229 266.27640281 307.45898438 265.25390625 C304.32729062 263.69111266 301.19531941 262.12889352 298.06225586 260.56884766 C286.91099623 255.01553261 275.79759595 249.41126972 264.7922821 243.57351685 C257.34689763 239.63224301 249.81786615 235.86792183 242.27069092 232.12619019 C231.5563717 226.81222999 220.86202874 221.47894612 210.31640625 215.8359375 C201.54023908 211.17112792 192.61752574 206.79387809 183.72064209 202.365448 C174.89740688 197.97190738 166.11057184 193.53473354 157.41796875 188.88671875 C149.35586713 184.60506975 141.17151608 180.56737787 133 176.5 C114.90528792 167.4933182 114.90528792 167.4933182 106.625 163.0625 C97.5111997 158.18687526 88.25173925 153.60628774 79 149 C69.10604426 144.07395065 59.22608205 139.1444236 49.4855957 133.91943359 C44.06084149 131.03270916 38.57549365 128.276136 33.07421875 125.5390625 C32.26804108 125.13774109 31.4618634 124.73641968 30.6312561 124.32293701 C26.54372534 122.28969674 22.4533596 120.26239985 18.359375 118.2421875 C16.8371913 117.48707648 15.31505394 116.73187205 13.79296875 115.9765625 C13.09684982 115.63525299 12.4007309 115.29394348 11.68351746 114.94229126 C10.69391777 114.44999527 10.69391777 114.44999527 9.68432617 113.94775391 C9.1154216 113.66703033 8.54651703 113.38630676 7.96037292 113.09707642 C7.31344986 112.7350412 6.66652679 112.37300598 6 112 C4.98361608 111.53121618 3.96723215 111.06243237 2.92004871 110.57944298 C-0.29023897 107.74361562 -0.43906013 107.42278932 -0.7215271 103.41888428 C-0.73893003 101.48989972 -0.72294378 99.56044626 -0.68115234 97.63183594 C-0.6820285 96.57786621 -0.68290466 95.52389648 -0.68380737 94.43798828 C-0.67962571 90.95269776 -0.63294264 87.46932946 -0.5859375 83.984375 C-0.57474752 81.56871594 -0.5662064 79.15304326 -0.56021118 76.73736572 C-0.53729781 70.37807649 -0.47835107 64.01960899 -0.4119873 57.66064453 C-0.35061996 51.17231361 -0.32320791 44.68384996 -0.29296875 38.1953125 C-0.22861186 25.463191 -0.12735321 12.73163919 0 0 Z " fill="#EDEEED" transform="translate(45,643)"/>
<path d="M0 0 C234.3 0 468.6 0 710 0 C726.46609043 35.46542553 726.46609043 35.46542553 729.8125 42.875 C730.32619141 43.98617187 730.83988281 45.09734375 731.36914062 46.2421875 C731.85189453 47.3146875 732.33464844 48.3871875 732.83203125 49.4921875 C733.46202026 50.87446533 733.46202026 50.87446533 734.10473633 52.28466797 C736.39635116 59.23512889 733.99868758 64.03226364 731.0546875 70.31640625 C730.64719269 71.2093187 730.23969788 72.10223114 729.81985474 73.02220154 C728.51542775 75.87393584 727.19551455 78.71818497 725.875 81.5625 C725.00938553 83.44809469 724.14479194 85.33415838 723.28125 87.22070312 C720.86726601 92.48659106 718.43468127 97.74364714 716 103 C713.03 109.435 713.03 109.435 710 116 C475.7 116 241.4 116 0 116 C-4.95 105.44 -9.9 94.88 -15 84 C-20.27519576 72.89996762 -20.27519576 72.89996762 -25.56884766 61.80883789 C-26.64776995 54.77995849 -21.87046688 47.20607448 -18.9453125 40.9765625 C-18.5618869 40.14973969 -18.1784613 39.32291687 -17.78341675 38.47103882 C-16.5684561 35.85356663 -15.34693785 33.2392211 -14.125 30.625 C-12.91175216 28.01721998 -11.6998568 25.40881426 -10.48800659 22.80038452 C-9.7377891 21.18691596 -8.9865152 19.57393794 -8.23391724 17.96157837 C-5.44886211 11.99154429 -2.72645315 5.99819693 0 0 Z " fill="#FE492C" transform="translate(29,528)"/>
<path d="M0 0 C224.07 0 448.14 0 679 0 C679.020625 75.384375 679.04125 150.76875 679.0625 228.4375 C679.071604 252.28700928 679.08070801 276.13651855 679.09008789 300.70874023 C679.09460449 329.7130127 679.09460449 329.7130127 679.09544373 343.26820374 C679.09637969 352.78566228 679.10006229 362.30311501 679.10557556 371.8205719 C679.11191613 382.78228132 679.11484178 393.74398513 679.11344495 404.70569641 C679.11283941 410.31969549 679.11383613 415.93368202 679.11921513 421.54767883 C679.12404011 426.61392828 679.12435063 431.68015616 679.12090111 436.74640656 C679.12047346 438.58762025 679.1217724 440.42883524 679.12488258 442.27004635 C679.12884481 444.75999584 679.1267641 447.24986577 679.12304783 449.7398138 C679.12567485 450.47040411 679.12830188 451.20099441 679.13100851 451.95372381 C679.11414527 456.88585473 679.11414527 456.88585473 678 458 C676.51207909 458.09720876 675.01953858 458.12447345 673.52844566 458.1241985 C672.55434151 458.12644579 671.58023735 458.12869308 670.57661489 458.13100848 C668.94893609 458.12706796 668.94893609 458.12706796 667.2883749 458.12304783 C666.1425037 458.12420167 664.9966325 458.12535552 663.81603792 458.12654433 C660.60699523 458.12875034 657.39799102 458.126422 654.18895137 458.12226619 C650.70857014 458.11884872 647.22819227 458.12119958 643.74781042 458.12284368 C637.63862507 458.12492333 631.52944943 458.12326362 625.4202652 458.11920547 C616.33603213 458.11318779 607.25180522 458.11286805 598.16757052 458.11374746 C582.88885657 458.11506358 567.61014694 458.11171155 552.33143425 458.10573006 C537.19619666 458.09981987 522.06096086 458.0959655 506.92572212 458.09487724 C505.51591056 458.09477413 505.51591056 458.09477413 504.07761795 458.09466894 C499.30477646 458.09433062 494.53193497 458.09402923 489.75909347 458.09374207 C455.92329742 458.09163976 422.08750371 458.08489714 388.25170898 458.07543945 C355.37377942 458.06626009 322.49585051 458.0591909 289.61791992 458.05493164 C287.55165825 458.054661 285.48539658 458.05439029 283.41913491 458.05411953 C266.63080727 458.05193086 249.84247961 458.04988824 233.05415194 458.04788104 C155.3694324 458.03848774 77.68471899 458.01841889 0 458 C0 306.86 0 155.72 0 0 Z M22 22 C22 165.55 22 309.1 22 457 C231.55 457 441.1 457 657 457 C657.020625 386.895625 657.04125 316.79125 657.0625 244.5625 C657.071604 222.40424072 657.08070801 200.24598145 657.09008789 177.41625977 C657.09343175 157.60161598 657.09343175 157.60161598 657.09544373 137.78697205 C657.09637761 128.94236486 657.10005153 120.09776397 657.10557556 111.25315857 C657.11193484 101.05618522 657.11483735 90.85921793 657.11344495 80.66224259 C657.11284177 75.44457872 657.11380723 70.22692837 657.11921513 65.00926697 C657.12407554 60.29121307 657.12432713 55.57318229 657.12090111 50.85512733 C657.12047698 49.14951719 657.12174594 47.44390561 657.12488258 45.7382983 C657.12890869 43.41231436 657.12672451 41.08641308 657.12304783 38.76043034 C657.12342755 37.46976093 657.12380727 36.17909153 657.1241985 34.84931093 C656.98554787 30.55208188 656.47479651 26.27316859 656 22 C577.13 22 498.26 22 417 22 C417 55.66 417 89.32 417 124 C415.02 124.66 413.04 125.32 411 126 C409.06456645 126.99414425 407.15625465 128.04229639 405.2734375 129.1328125 C404.17273926 129.76638672 403.07204102 130.39996094 401.93798828 131.05273438 C400.75029408 131.74343553 399.56263215 132.43419216 398.375 133.125 C397.13688635 133.83976526 395.89843633 134.55394816 394.65966797 135.26757812 C392.07715076 136.75590101 389.49610957 138.24673836 386.91601562 139.73925781 C381.25551688 143.01077695 375.57603305 146.24902206 369.89727783 149.4887085 C367.10001775 151.08487209 364.30396595 152.68314882 361.5078125 154.28125 C360.45239258 154.879375 359.39697266 155.4775 358.30957031 156.09375 C355.93317413 157.46250932 353.58541788 158.85370706 351.24511719 160.28125 C350.61862274 160.65664917 349.9921283 161.03204834 349.34664917 161.41882324 C347.58848128 162.47348673 345.83865465 163.54201911 344.08935547 164.61132812 C340.62720302 166.16757304 339.5049012 166.28292075 336 165 C333.51831055 163.82348633 333.51831055 163.82348633 330.88671875 162.33203125 C329.89865234 161.77580078 328.91058594 161.21957031 327.89257812 160.64648438 C326.83490234 160.04126953 325.77722656 159.43605469 324.6875 158.8125 C323.57955078 158.18537109 322.47160156 157.55824219 321.33007812 156.91210938 C313.85250636 152.6664773 306.42156152 148.34276926 299 144 C286.75043619 136.85442111 274.37332621 129.92906268 262 123 C261.67 89.67 261.34 56.34 261 22 C182.13 22 103.26 22 22 22 Z " fill="#DDDEDB" transform="translate(45,71)"/>
<path d="M0 0 C51.81 0 103.62 0 157 0 C157 40.92 157 81.84 157 124 C149.74 127.96 142.48 131.92 135 136 C131.08680764 138.24931529 127.19018739 140.50556309 123.3125 142.8125 C113.18320455 148.78320271 102.94213306 154.53042678 92.64379883 160.20239258 C91.5586499 160.80075928 90.47350098 161.39912598 89.35546875 162.015625 C88.39278076 162.54446289 87.43009277 163.07330078 86.43823242 163.61816406 C84.58108157 164.67067971 82.77614938 165.81590041 81 167 C77.116822 166.65848532 74.24676465 165.23633781 70.88671875 163.33203125 C69.89865234 162.77580078 68.91058594 162.21957031 67.89257812 161.64648438 C66.83490234 161.04126953 65.77722656 160.43605469 64.6875 159.8125 C63.57955078 159.18537109 62.47160156 158.55824219 61.33007812 157.91210938 C52.86920455 153.10817605 44.4640006 148.20945053 36.07470703 143.28173828 C27.37058321 138.18071019 18.57800548 133.24660198 9.75585938 128.35351562 C8.75490234 127.79728516 7.75394531 127.24105469 6.72265625 126.66796875 C5.83328369 126.17578857 4.94391113 125.6836084 4.02758789 125.17651367 C2 124 2 124 1 123 C0.89187487 121.40618922 0.85315703 119.80762353 0.84178162 118.21018982 C0.83200759 117.17603911 0.82223356 116.14188841 0.81216335 115.0763998 C0.8063931 113.92768933 0.80062284 112.77897886 0.79467773 111.59545898 C0.78464501 110.37613961 0.77461229 109.15682024 0.76427555 107.9005518 C0.73799542 104.5918405 0.71601418 101.28315529 0.69608307 97.97440338 C0.67650714 94.87357439 0.6515773 91.77279053 0.6270752 88.67199707 C0.55848118 79.59387059 0.49852231 70.51568053 0.4375 61.4375 C0.293125 41.163125 0.14875 20.88875 0 0 Z " fill="#FE4A2D" transform="translate(305,71)"/>
<path d="M0 0 C31.68 0 63.36 0 96 0 C89.25002647 7.87496911 89.25002647 7.87496911 85.63452148 11.47900391 C84.8302623 12.28318756 84.02600311 13.08737122 83.19737244 13.91592407 C81.92211449 15.18344009 81.92211449 15.18344009 80.62109375 16.4765625 C79.73140396 17.36483734 78.84171417 18.25311218 77.92506409 19.16830444 C75.57630838 21.51243614 73.22541547 23.85438033 70.87341309 26.19525146 C68.48736285 28.57105809 66.10414639 30.94970353 63.72070312 33.328125 C60.22724662 36.81343655 56.73250688 40.29744949 53.23608398 43.77978516 C52.49527588 44.51794968 51.75446777 45.2561142 50.99121094 46.01664734 C49.78529256 47.21780658 48.57876265 48.41835286 47.37109375 49.61775208 C45.16631783 51.81125425 43.08377591 54.02090369 41.125 56.4375 C38.48647752 59.57631376 35.6068645 62.16886194 32.41796875 64.73828125 C30.8630558 65.96479293 30.8630558 65.96479293 30 68 C29.34 68 28.68 68 28 68 C28 68.66 28 69.32 28 70 C27.34 70 26.68 70 26 70 C26 70.66 26 71.32 26 72 C25.34 72 24.68 72 24 72 C24 72.66 24 73.32 24 74 C23.34 74 22.68 74 22 74 C22 74.66 22 75.32 22 76 C21.34 76 20.68 76 20 76 C20 76.66 20 77.32 20 78 C19.34 78 18.68 78 18 78 C18 78.66 18 79.32 18 80 C17.34 80 16.68 80 16 80 C16 80.66 16 81.32 16 82 C15.34 82 14.68 82 14 82 C14 82.66 14 83.32 14 84 C13.34 84 12.68 84 12 84 C12 84.66 12 85.32 12 86 C11.34 86 10.68 86 10 86 C10 86.66 10 87.32 10 88 C9.34 88 8.68 88 8 88 C7.67 88.99 7.34 89.98 7 91 C6.34 91 5.68 91 5 91 C4.67 91.99 4.34 92.98 4 94 C2.68 93.67 1.36 93.34 0 93 C0 62.31 0 31.62 0 0 Z " fill="#FEFEFE" transform="translate(67,644)"/>
<path d="M0 0 C3 2.4375 3 2.4375 5 5 C5.721875 5.804375 6.44375 6.60875 7.1875 7.4375 C11.29400622 13.24325017 11.30768967 19.04798014 11.30078125 25.89453125 C11.30506638 26.84132248 11.3093515 27.78811371 11.31376648 28.76359558 C11.31949337 30.76141564 11.32002217 32.75925654 11.31567383 34.75708008 C11.31252109 37.79219717 11.33596878 40.82633185 11.36132812 43.86132812 C11.36360221 45.80989462 11.36430411 47.7584637 11.36328125 49.70703125 C11.372491 50.60420364 11.38170074 51.50137604 11.39118958 52.42573547 C11.32958647 60.93976297 9.59398457 68.15514341 3.6796875 74.49609375 C-4.45950509 81.78351037 -13.64324683 81.56940655 -24 81 C-31.06677142 79.88688138 -36.37066111 76.4148602 -41 71 C-46.84186566 61.59560933 -46.18652188 50.91703837 -46.18530273 40.21899414 C-46.18749142 38.07092524 -46.205705 35.92336925 -46.22460938 33.77539062 C-46.31285608 12.17059429 -46.31285608 12.17059429 -39.37890625 4.1171875 C-28.39576031 -6.44607962 -13.25875419 -6.13167611 0 0 Z " fill="#272732" transform="translate(364,701)"/>
<path d="M0 0 C2.75377258 -0.09192571 5.50447052 -0.15935391 8.2590332 -0.21264648 C9.0375489 -0.2411544 9.81606461 -0.26966232 10.61817169 -0.29903412 C16.41786295 -0.38330917 16.41786295 -0.38330917 19.39611816 1.57772827 C21.01973945 3.60773022 22.09714288 5.57894349 23.1875 7.9375 C24.04162232 9.49742012 24.89578863 11.05731615 25.75 12.6171875 C26.13285156 13.37225586 26.51570313 14.12732422 26.91015625 14.90527344 C28.31076793 17.59730933 29.95775043 20.07198095 31.6875 22.5625 C32.37392578 23.58537109 32.37392578 23.58537109 33.07421875 24.62890625 C33.37972656 25.08136719 33.68523437 25.53382813 34 26 C38.22522567 22.32415355 40.74392086 17.76229566 43.5625 13 C44.52027999 11.39472484 45.4798582 9.79052095 46.44140625 8.1875 C46.86107666 7.47980469 47.28074707 6.77210938 47.71313477 6.04296875 C50.36672323 1.83025233 50.36672323 1.83025233 52 0 C54.85454681 -0.32343618 57.28852208 -0.42466301 60.125 -0.3125 C61.23681641 -0.29799805 61.23681641 -0.29799805 62.37109375 -0.28320312 C67.83159722 -0.16840278 67.83159722 -0.16840278 69 1 C69.10029857 3.42857035 69.13618425 5.82871613 69.12939453 8.2578125 C69.13202301 9.39678986 69.13202301 9.39678986 69.13470459 10.55877686 C69.1391233 13.08087416 69.13618506 15.60290193 69.1328125 18.125 C69.13348553 19.86995456 69.13445555 21.61490904 69.13571167 23.35986328 C69.13718867 27.02181895 69.13503403 30.68375028 69.13037109 34.34570312 C69.1246738 39.05044492 69.1279528 43.75512968 69.13394356 48.45986938 C69.13754912 52.06453891 69.13641061 55.66919482 69.13381577 59.27386475 C69.13314648 61.00909431 69.13397496 62.74432509 69.13629532 64.47955322 C69.13882177 66.90046487 69.13498138 69.32128286 69.12939453 71.7421875 C69.13141876 72.46637878 69.13344299 73.19057007 69.13552856 73.93670654 C69.11426266 78.88573734 69.11426266 78.88573734 68 80 C62.72 80 57.44 80 52 80 C51.67 63.5 51.34 47 51 30 C47.04 35.94 43.08 41.88 39 48 C36.03 48 33.06 48 30 48 C27.60717874 45.46367185 26.21409348 43.64084203 24.5625 40.6875 C23.93311523 39.65206055 23.93311523 39.65206055 23.29101562 38.59570312 C22.51325549 37.31184071 21.74865137 36.01984255 21.00219727 34.7175293 C20.06280119 33.1076264 19.03392491 31.55088737 18 30 C17.67 46.5 17.34 63 17 80 C11.72 80 6.44 80 1 80 C-0.7082941 78.2917059 -0.11971926 76.13995623 -0.12442017 73.86213684 C-0.12082489 73.12702377 -0.11722961 72.39191071 -0.11352539 71.63452148 C-0.11367142 70.86384338 -0.11381744 70.09316528 -0.1139679 69.2991333 C-0.1132686 66.73975861 -0.10547545 64.1804558 -0.09765625 61.62109375 C-0.09579213 59.85132385 -0.0943682 58.08155344 -0.09336853 56.31178284 C-0.08954288 51.64448634 -0.0797122 46.97722077 -0.06866455 42.30993652 C-0.05845144 37.55102965 -0.05387113 32.79211779 -0.04882812 28.03320312 C-0.03808997 18.68878847 -0.02101299 9.3443968 0 0 Z " fill="#2C2C36" transform="translate(103,297)"/>
<path d="M0 0 C2.89357945 1.72184481 4.86304684 3.67752516 7.0546875 6.22265625 C7.5703125 5.48015625 8.0859375 4.73765625 8.6171875 3.97265625 C12.19578131 -0.06473164 15.37269888 -2.3450232 20.671875 -3.19921875 C27.43334362 -3.53635569 31.91926462 -2.19647833 37.0546875 2.22265625 C43.08298051 8.40958855 43.35009529 14.98749301 43.28515625 23.1796875 C43.28469803 24.12325607 43.28423981 25.06682465 43.2837677 26.03898621 C43.28075767 28.02331813 43.27290896 30.00764796 43.26049805 31.99194336 C43.24214488 35.04223912 43.23998919 38.0922327 43.24023438 41.14257812 C43.23532242 43.07161723 43.22949551 45.00065427 43.22265625 46.9296875 C43.22154343 47.8462764 43.2204306 48.7628653 43.21928406 49.70722961 C43.17076439 56.10657936 43.17076439 56.10657936 42.0546875 57.22265625 C39.35813896 57.29585246 36.68777292 57.31508162 33.9921875 57.28515625 C32.85426758 57.27838867 32.85426758 57.27838867 31.69335938 57.27148438 C29.81376879 57.25966305 27.93421851 57.24172703 26.0546875 57.22265625 C26.02963135 55.99635498 26.0045752 54.77005371 25.97875977 53.5065918 C25.88465696 48.96107355 25.78444317 44.41570708 25.68237305 39.87036133 C25.63903509 37.90229846 25.59735918 35.93419827 25.55737305 33.96606445 C25.49964305 31.13872015 25.43595634 28.31156354 25.37109375 25.484375 C25.35438126 24.60303391 25.33766876 23.72169281 25.32044983 22.81364441 C25.290532 21.58270805 25.290532 21.58270805 25.26000977 20.3269043 C25.23669334 19.24435616 25.23669334 19.24435616 25.21290588 18.13993835 C25.11273493 16.00157481 25.11273493 16.00157481 24.0546875 13.22265625 C20.46204298 12.02510808 17.82751276 11.89170667 14.0546875 12.22265625 C11.68685583 13.60491206 11.68685583 13.60491206 10.0546875 16.22265625 C9.45602419 19.25469352 9.47355603 22.24499901 9.48046875 25.328125 C9.45922188 26.6478405 9.45922188 26.6478405 9.43754578 27.99421692 C9.39565544 30.799655 9.3804027 33.6044494 9.3671875 36.41015625 C9.33817017 39.22627627 9.30369125 42.04223166 9.26469421 44.85823059 C9.24213448 46.60985373 9.22635931 48.36157929 9.21784973 50.11332703 C9.16427962 56.11306413 9.16427962 56.11306413 8.0546875 57.22265625 C5.54332646 57.32240657 3.06565335 57.36147808 0.5546875 57.34765625 C-0.14785156 57.35152344 -0.85039063 57.35539062 -1.57421875 57.359375 C-6.81869872 57.34927003 -6.81869872 57.34927003 -7.9453125 56.22265625 C-8.09332788 53.30240444 -8.18045172 50.40285899 -8.2265625 47.48046875 C-8.24497192 46.60115692 -8.26338135 45.72184509 -8.28234863 44.81588745 C-8.34129055 41.99321388 -8.3940059 39.17047833 -8.4453125 36.34765625 C-8.51292152 32.64179756 -8.58664851 28.93613406 -8.6640625 25.23046875 C-8.67763794 24.37413849 -8.69121338 23.51780823 -8.7052002 22.63552856 C-8.72191772 21.83815277 -8.73863525 21.04077698 -8.75585938 20.21923828 C-8.76838745 19.51832062 -8.78091553 18.81740295 -8.79382324 18.09524536 C-8.88879427 15.99437581 -8.88879427 15.99437581 -9.9453125 13.22265625 C-13.58313882 12.01004748 -16.12267249 11.82721073 -19.9453125 12.22265625 C-22.69633788 14.21850802 -24.61292007 15.81425275 -25.41690063 19.22085571 C-25.62013544 21.64590424 -25.66361416 24.02740839 -25.65234375 26.4609375 C-25.66746506 27.34170456 -25.68258636 28.22247162 -25.69816589 29.12992859 C-25.7410154 31.93193213 -25.74987806 34.73285783 -25.7578125 37.53515625 C-25.780959 39.43948172 -25.80632466 41.34378161 -25.83398438 43.24804688 C-25.89680947 47.90634516 -25.92916619 52.56397175 -25.9453125 57.22265625 C-31.2253125 57.22265625 -36.5053125 57.22265625 -41.9453125 57.22265625 C-41.96786799 49.67767036 -41.98623019 42.13269694 -41.99712467 34.58768559 C-42.00235239 31.0845674 -42.009448 27.5814734 -42.02075195 24.07836914 C-42.03365456 20.05484784 -42.03854162 16.03135211 -42.04296875 12.0078125 C-42.05071068 10.11253563 -42.05071068 10.11253563 -42.05860901 8.17897034 C-42.05868454 7.01784225 -42.05876007 5.85671417 -42.05883789 4.66040039 C-42.06216881 3.11818565 -42.06216881 3.11818565 -42.06556702 1.54481506 C-41.9453125 -0.77734375 -41.9453125 -0.77734375 -40.9453125 -1.77734375 C-38.41481848 -1.85047942 -35.91226413 -1.86981902 -33.3828125 -1.83984375 C-32.67189453 -1.83533203 -31.96097656 -1.83082031 -31.22851562 -1.82617188 C-29.46741237 -1.81435239 -27.70635214 -1.79641638 -25.9453125 -1.77734375 C-25.9453125 0.20265625 -25.9453125 2.18265625 -25.9453125 4.22265625 C-25.40261719 3.80113281 -24.85992188 3.37960937 -24.30078125 2.9453125 C-23.58535156 2.39746094 -22.86992188 1.84960938 -22.1328125 1.28515625 C-21.42511719 0.73988281 -20.71742188 0.19460938 -19.98828125 -0.3671875 C-13.54862841 -4.81214864 -6.53541406 -3.15463758 0 0 Z " fill="#2B2B35" transform="translate(616.9453125,319.77734375)"/>
<path d="M0 0 C1.27875 0.00257813 2.5575 0.00515625 3.875 0.0078125 C5.15375 0.00523437 6.4325 0.00265625 7.75 0 C10.875 0.1328125 10.875 0.1328125 11.875 1.1328125 C11.9753188 3.59186471 12.0111818 6.02284678 12.00439453 8.48242188 C12.00614685 9.25149368 12.00789917 10.02056549 12.00970459 10.8129425 C12.0141234 13.36750513 12.01118502 15.92199911 12.0078125 18.4765625 C12.00848553 20.24393731 12.00945555 22.01131203 12.01071167 23.77868652 C12.01218868 27.48772053 12.01003398 31.1967305 12.00537109 34.90576172 C11.9996738 39.67103743 12.00295279 44.43625682 12.00894356 49.20153046 C12.01254908 52.85252307 12.01141062 56.50350223 12.00881577 60.15449524 C12.00814647 61.91205349 12.008975 63.66961295 12.01129532 65.4271698 C12.01382171 67.87921404 12.00998146 70.33116581 12.00439453 72.78320312 C12.00641876 73.51674515 12.00844299 74.25028717 12.01052856 75.00605774 C11.98926264 80.01854986 11.98926264 80.01854986 10.875 81.1328125 C8.34450598 81.20594817 5.84195163 81.22528777 3.3125 81.1953125 C2.24612305 81.18854492 2.24612305 81.18854492 1.15820312 81.18164062 C-0.60290013 81.16982114 -2.36396036 81.15188513 -4.125 81.1328125 C-4.455 79.4828125 -4.785 77.8328125 -5.125 76.1328125 C-5.8675 76.7515625 -6.61 77.3703125 -7.375 78.0078125 C-12.61769265 82.05898409 -16.58031328 82.96138662 -23.125 82.1328125 C-31.33140415 79.87875083 -35.76780051 75.19694954 -39.9375 68.0078125 C-43.75197226 58.77277441 -43.95678526 44.7678662 -40.5625 35.3828125 C-37.62725199 29.48141913 -33.40282373 24.85290831 -27.3125 22.1953125 C-22.69278026 20.77454763 -17.86763862 20.08502025 -13.125 21.1328125 C-10.35517422 22.65208261 -7.73196826 24.35062948 -5.125 26.1328125 C-5.08741577 25.0046814 -5.08741577 25.0046814 -5.04907227 23.85375977 C-4.93349486 20.46742054 -4.81059655 17.08138637 -4.6875 13.6953125 C-4.64818359 12.51130859 -4.60886719 11.32730469 -4.56835938 10.10742188 C-4.50551758 8.42036133 -4.50551758 8.42036133 -4.44140625 6.69921875 C-4.40474854 5.65709229 -4.36809082 4.61496582 -4.33032227 3.54125977 C-4.0201378 -0.0972298 -3.74513391 0.15916819 0 0 Z " fill="#292933" transform="translate(434.125,410.8671875)"/>
<path d="M0 0 C5.06516361 3.30143696 7.17782806 7.51908271 9.1875 13.125 C9.78320568 16.76155327 9.77752018 20.26821928 9.67578125 23.9453125 C9.66870651 24.92998505 9.66163177 25.91465759 9.65434265 26.9291687 C9.62662378 30.03692543 9.56392921 33.1427991 9.5 36.25 C9.47488799 38.37236959 9.45207995 40.49476777 9.43164062 42.6171875 C9.37687113 47.78717049 9.29075757 52.95576737 9.1875 58.125 C3.9075 58.125 -1.3725 58.125 -6.8125 58.125 C-6.842229 56.38428223 -6.842229 56.38428223 -6.87255859 54.60839844 C-6.94867912 50.29942266 -7.03738666 45.99078172 -7.12988281 41.68212891 C-7.1681459 39.81793838 -7.20300346 37.9536747 -7.234375 36.08935547 C-7.28008356 33.40826284 -7.33806822 30.72767267 -7.3984375 28.046875 C-7.40998871 27.21444275 -7.42153992 26.3820105 -7.43344116 25.52435303 C-7.50596499 20.02364411 -7.50596499 20.02364411 -9.8125 15.125 C-13.02622779 12.82948015 -15.94234535 12.64123067 -19.8125 13.125 C-22.14718286 14.50699414 -22.14718286 14.50699414 -23.8125 17.125 C-24.42749059 20.23898756 -24.4174344 23.31764536 -24.421875 26.484375 C-24.43841125 27.38875305 -24.45494751 28.2931311 -24.47198486 29.22491455 C-24.52049979 32.10834521 -24.54184344 34.99124834 -24.5625 37.875 C-24.59065678 39.83205784 -24.62058379 41.78909107 -24.65234375 43.74609375 C-24.72625969 48.53901908 -24.77581298 53.33165096 -24.8125 58.125 C-30.0925 58.125 -35.3725 58.125 -40.8125 58.125 C-40.842229 56.38428223 -40.842229 56.38428223 -40.87255859 54.60839844 C-40.94867912 50.29942266 -41.03738666 45.99078172 -41.12988281 41.68212891 C-41.1681459 39.81793838 -41.20300346 37.9536747 -41.234375 36.08935547 C-41.28008356 33.40826284 -41.33806822 30.72767267 -41.3984375 28.046875 C-41.40998871 27.21444275 -41.42153992 26.3820105 -41.43344116 25.52435303 C-41.48205757 20.00567524 -41.48205757 20.00567524 -43.8125 15.125 C-47.5330836 12.64461093 -49.41046571 12.66162797 -53.8125 13.125 C-56.17747439 14.99208505 -57.47280715 16.44561431 -58.8125 19.125 C-58.96970097 22.0398537 -59.07105654 24.93439636 -59.12890625 27.8515625 C-59.14968735 28.71437836 -59.17046844 29.57719421 -59.19187927 30.46615601 C-59.25736034 33.22735493 -59.31625298 35.98865038 -59.375 38.75 C-59.4181866 40.61980172 -59.46180093 42.48959362 -59.50585938 44.359375 C-59.61304024 48.94781728 -59.71431175 53.53635683 -59.8125 58.125 C-65.0925 58.125 -70.3725 58.125 -75.8125 58.125 C-75.83505549 50.58001411 -75.85341769 43.03504069 -75.86431217 35.49002934 C-75.86953989 31.98691115 -75.8766355 28.48381715 -75.88793945 24.98071289 C-75.90084206 20.95719159 -75.90572912 16.93369586 -75.91015625 12.91015625 C-75.91789818 11.01487938 -75.91789818 11.01487938 -75.92579651 9.08131409 C-75.92587204 7.920186 -75.92594757 6.75905792 -75.92602539 5.56274414 C-75.92935631 4.0205294 -75.92935631 4.0205294 -75.93275452 2.44715881 C-75.8125 0.125 -75.8125 0.125 -74.8125 -0.875 C-72.28200598 -0.94813567 -69.77945163 -0.96747527 -67.25 -0.9375 C-66.53908203 -0.93298828 -65.82816406 -0.92847656 -65.09570312 -0.92382812 C-63.33459987 -0.91200864 -61.57353964 -0.89407263 -59.8125 -0.875 C-59.8125 1.105 -59.8125 3.085 -59.8125 5.125 C-59.40902344 4.691875 -59.00554687 4.25875 -58.58984375 3.8125 C-52.88470541 -1.42023835 -47.84446068 -1.49448867 -40.30078125 -1.37890625 C-34.57796223 -0.55220563 -31.77250047 2.16499953 -27.8125 6.125 C-27.1525 6.125 -26.4925 6.125 -25.8125 6.125 C-25.07 5.361875 -24.3275 4.59875 -23.5625 3.8125 C-16.77506293 -2.82067714 -8.59038007 -4.03747863 0 0 Z " fill="#292934" transform="translate(323.8125,318.875)"/>
<path d="M0 0 C1 2 1 2 0.4777832 3.84765625 C-5.8499164 18.9661421 -5.8499164 18.9661421 -10.95703125 21.421875 C-14 21.75 -14 21.75 -17.0625 21.80859375 C-23.04890835 22.19866557 -27.39020049 26.30547421 -31.375 30.5 C-36.45392447 38.31372996 -37.00165153 44.79434549 -36 54 C-33.48882067 62.53800973 -28.31097784 67.36062581 -20.9375 71.875 C-14.32185352 74.34285914 -6.31500597 74.13657348 0.28125 71.875 C2.17500036 70.99789457 4.04854383 70.07473997 5.890625 69.09375 C8 68 8 68 10 68 C11.14501953 69.56054688 11.14501953 69.56054688 12.3828125 71.71875 C12.82753906 72.48574219 13.27226562 73.25273437 13.73046875 74.04296875 C14.19066406 74.85378906 14.65085937 75.66460937 15.125 76.5 C15.59292969 77.31082031 16.06085938 78.12164062 16.54296875 78.95703125 C17.70201772 80.96762641 18.85396471 82.98196761 20 85 C17.40962796 87.7361955 15.02535548 89.09326203 11.5625 90.625 C10.61503906 91.05039063 9.66757812 91.47578125 8.69140625 91.9140625 C-2.38549405 96.38340689 -19.5227243 95.92005938 -30.4375 91.3828125 C-43.77753019 84.1840767 -52.24791433 74.41941874 -57 60 C-60.13746495 47.33023708 -57.68400059 33.83068374 -51.5703125 22.4453125 C-44.54340644 11.5029165 -35.30977408 4.26794332 -22.83984375 0.6796875 C-15.2823004 -0.65806687 -7.64296186 -0.29054554 0 0 Z " fill="#FEFBFB" transform="translate(393,103)"/>
<path d="M0 0 C7.40203062 7.8250038 9.66311568 17.19406771 9.5078125 27.69921875 C8.8505826 35.11309264 6.1499397 42.69710771 1.1875 48.3125 C-7.16735036 54.32685748 -14.54792814 56.32628488 -24.8125 55.3125 C-31.13614221 53.49728913 -37.46817761 50.11912249 -40.99609375 44.390625 C-42.02334323 42.38880551 -42.9472065 40.38920439 -43.8125 38.3125 C-44.35003906 37.20455078 -44.35003906 37.20455078 -44.8984375 36.07421875 C-47.66387038 27.71882968 -46.90357897 16.27160642 -43.0703125 8.390625 C-38.77904481 1.30070447 -33.88807361 -2.8475397 -25.890625 -5.26953125 C-16.2472202 -7.20908823 -8.27613251 -4.9656795 0 0 Z " fill="#292934" transform="translate(228.8125,322.6875)"/>
<path d="M0 0 C4.68137581 4.13702979 8.63147857 9.13864276 9.6875 15.4375 C9.6875 29.29012683 1.00036576 39.74484048 -8.203125 49.34765625 C-9.33324362 50.46504831 -10.46969295 51.57608481 -11.61328125 52.6796875 C-14.16164627 55.22219421 -16.48812148 57.94568955 -18.83203125 60.67578125 C-19.94421172 61.95229445 -21.11533014 63.17783014 -22.3125 64.375 C-5.9775 64.87 -5.9775 64.87 10.6875 65.375 C10.6875 69.995 10.6875 74.615 10.6875 79.375 C2.87296786 79.39963956 -4.94154188 79.41783105 -12.75610352 79.42993164 C-15.41691481 79.43497383 -18.07772332 79.44180736 -20.73852539 79.45043945 C-24.55355516 79.46251009 -28.36854844 79.46822929 -32.18359375 79.47265625 C-33.98043861 79.48039818 -33.98043861 79.48039818 -35.81358337 79.48829651 C-37.46518211 79.48840981 -37.46518211 79.48840981 -39.15014648 79.48852539 C-40.12499496 79.490746 -41.09984344 79.49296661 -42.10423279 79.49525452 C-44.3125 79.375 -44.3125 79.375 -45.3125 78.375 C-45.99703754 73.51322769 -46.49799899 68.52302011 -44.06640625 64.1171875 C-42.25569532 62.05138797 -40.34964361 60.21777394 -38.3125 58.375 C-36.80721836 56.8803003 -35.30736306 55.38011941 -33.8125 53.875 C-33.04808594 53.11832031 -32.28367187 52.36164062 -31.49609375 51.58203125 C-28.26492294 48.31617883 -25.28179435 44.87803115 -22.3125 41.375 C-21.48234375 40.42238281 -20.6521875 39.46976563 -19.796875 38.48828125 C-11.30816838 29.23434429 -11.30816838 29.23434429 -8.375 17.5 C-9.03273396 14.10104512 -9.03273396 14.10104512 -12.3125 12.375 C-12.3125 11.715 -12.3125 11.055 -12.3125 10.375 C-17.96378923 10.0290027 -21.42825268 10.69345245 -26.3125 13.375 C-28.72530974 16.59207966 -29.19683197 20.4701619 -30.3125 24.375 C-35.2625 24.375 -40.2125 24.375 -45.3125 24.375 C-47.30751223 20.38497554 -46.75308197 16.79556803 -45.4765625 12.6796875 C-42.73017955 5.91510668 -39.65644488 1.97561736 -33.3125 -1.625 C-32.24 -2.24375 -31.1675 -2.8625 -30.0625 -3.5 C-19.89301223 -6.55084633 -9.39336182 -4.60806429 0 0 Z " fill="#272731" transform="translate(297.3125,701.625)"/>
<path d="M0 0 C5.2571907 3.99917278 7.96888562 9.24848807 8.98828125 15.6171875 C9.69386653 28.26051298 1.36064253 37.69322041 -6.54882812 46.59765625 C-9.05003454 49.36296521 -11.58740435 52.09070604 -14.15234375 54.796875 C-17.19935236 58.06866293 -20.10210208 61.47263472 -23.01171875 64.8671875 C-12.12171875 64.8671875 -1.23171875 64.8671875 9.98828125 64.8671875 C9.98828125 69.4871875 9.98828125 74.1071875 9.98828125 78.8671875 C2.17374911 78.89182706 -5.64076063 78.91001855 -13.45532227 78.92211914 C-16.11613356 78.92716133 -18.77694207 78.93399486 -21.43774414 78.94262695 C-25.25277391 78.95469759 -29.06776719 78.96041679 -32.8828125 78.96484375 C-34.67965736 78.97258568 -34.67965736 78.97258568 -36.51280212 78.98048401 C-38.16440086 78.98059731 -38.16440086 78.98059731 -39.84936523 78.98071289 C-40.82421371 78.9829335 -41.79906219 78.98515411 -42.80345154 78.98744202 C-45.01171875 78.8671875 -45.01171875 78.8671875 -46.01171875 77.8671875 C-47.54081985 66.99007659 -47.54081985 66.99007659 -44.47265625 62.73046875 C-43.09186006 61.58691361 -41.66777645 60.49417653 -40.2109375 59.44921875 C-38.02118805 57.87399934 -36.48946081 56.30267989 -34.76171875 54.2421875 C-32.62864859 51.71862395 -30.45665295 49.25647079 -28.1875 46.85546875 C-15.40233182 34.47153902 -15.40233182 34.47153902 -8.76171875 18.8671875 C-9.01403572 15.83938382 -9.36815424 14.3763283 -11.01171875 11.8671875 C-15.29015006 9.78461096 -19.28368802 9.72627833 -23.88671875 10.6171875 C-27.91489053 13.51747118 -28.4248454 15.97514566 -29.50390625 20.6875 C-30.01171875 22.8671875 -30.01171875 22.8671875 -31.01171875 23.8671875 C-33.54221277 23.94032317 -36.04476712 23.95966277 -38.57421875 23.9296875 C-39.28513672 23.92517578 -39.99605469 23.92066406 -40.72851562 23.91601562 C-42.48961888 23.90419614 -44.25067911 23.88626013 -46.01171875 23.8671875 C-46.4263668 16.37280802 -46.21687799 10.11467495 -41.5703125 3.95703125 C-30.49388721 -8.14736854 -13.80110546 -7.77149628 0 0 Z " fill="#262631" transform="translate(432.01171875,702.1328125)"/>
<path d="M0 0 C5.73241865 6.06961974 6.70906477 12.30065848 6.55078125 20.40234375 C6.54749313 21.34308243 6.54420502 22.28382111 6.54081726 23.25306702 C6.53045484 25.2255046 6.51060527 27.19791317 6.48168945 29.17016602 C6.43727585 32.20280544 6.42019678 35.2346524 6.40820312 38.26757812 C6.39479198 40.18751155 6.37987261 42.10743517 6.36328125 44.02734375 C6.35589432 44.93765854 6.34850739 45.84797333 6.34089661 46.78587341 C6.24335172 53.13164828 6.24335172 53.13164828 5.125 54.25 C2.59450598 54.32313567 0.09195163 54.34247527 -2.4375 54.3125 C-3.14841797 54.30798828 -3.85933594 54.30347656 -4.59179688 54.29882812 C-6.35290013 54.28700864 -8.11396036 54.26907263 -9.875 54.25 C-10.535 52.93 -11.195 51.61 -11.875 50.25 C-12.98875 50.889375 -14.1025 51.52875 -15.25 52.1875 C-21.1707754 55.58646366 -26.33283734 56.31689831 -33.13671875 54.71875 C-37.86729855 53.06079441 -42.1748878 50.87854226 -44.9765625 46.546875 C-46.99314784 41.39143075 -46.5593157 35.65671053 -45.875 30.25 C-43.45573576 24.75836215 -38.72319591 22.33664338 -33.41821289 20.05712891 C-29.05966704 18.67387532 -24.84140171 18.82721725 -20.3125 19 C-18.94254883 19.02707031 -18.94254883 19.02707031 -17.54492188 19.0546875 C-15.32046486 19.10127299 -13.09833033 19.16664515 -10.875 19.25 C-11.15627421 17.76882199 -11.45033732 16.29006751 -11.75 14.8125 C-11.91242188 13.98878906 -12.07484375 13.16507812 -12.2421875 12.31640625 C-12.45101562 11.63449219 -12.65984375 10.95257813 -12.875 10.25 C-15.29493358 9.04003321 -17.0496633 8.97916729 -19.75 8.875 C-20.61367188 8.82601563 -21.47734375 8.77703125 -22.3671875 8.7265625 C-25.14126715 9.00757182 -25.14126715 9.00757182 -26.6796875 11.81640625 C-27.40414063 12.61949219 -28.12859375 13.42257812 -28.875 14.25 C-31.90797147 14.28958698 -34.20226758 14.11244877 -37.125 13.5625 C-37.87007813 13.44455078 -38.61515625 13.32660156 -39.3828125 13.20507812 C-41.21760514 12.91104084 -43.04700757 12.5837149 -44.875 12.25 C-44.24053709 6.60661937 -43.28496496 2.98982323 -38.875 -0.75 C-26.44606196 -8.49342569 -12.28617045 -7.47853854 0 0 Z " fill="#2B2B35" transform="translate(375.875,437.75)"/>
<path d="M0 0 C6.99210237 4.7738287 10.79322253 10.68341698 13.04296875 18.8125 C13.2734375 22.20703125 13.2734375 22.20703125 13.23046875 25.625 C13.22402344 26.76582031 13.21757812 27.90664063 13.2109375 29.08203125 C13.04296875 31.8125 13.04296875 31.8125 12.04296875 32.8125 C9.37670845 32.90105161 6.73649761 32.92774673 4.0703125 32.91015625 C3.27266983 32.9087413 2.47502716 32.90732635 1.6532135 32.90586853 C-0.9044056 32.90025316 -3.46193843 32.88769812 -6.01953125 32.875 C-7.7493477 32.86998698 -9.47916551 32.86542373 -11.20898438 32.86132812 C-15.45836678 32.85027875 -19.70768437 32.83300386 -23.95703125 32.8125 C-22.09734534 37.74716764 -22.09734534 37.74716764 -18.83203125 41.75 C-14.79448588 43.24213633 -11.20868763 43.51860548 -6.95703125 42.8125 C-3.66455017 40.97932624 -3.66455017 40.97932624 -0.95703125 38.8125 C0.9453125 37.9375 0.9453125 37.9375 3.04296875 37.8125 C5.18359375 39.46484375 5.18359375 39.46484375 7.29296875 41.75 C7.999375 42.50152344 8.70578125 43.25304687 9.43359375 44.02734375 C10.23023438 44.91099609 10.23023438 44.91099609 11.04296875 45.8125 C8.30396529 51.70811284 3.56222955 54.57606764 -2.296875 57.05078125 C-11.98926442 59.82613505 -20.48804501 57.76575257 -29.08203125 53.125 C-35.34702062 48.08576942 -39.53715865 41.77309721 -40.95703125 33.8125 C-41.95170783 23.95414994 -41.26512447 15.35942976 -35.95703125 6.8125 C-27.24073831 -3.61359881 -11.99501551 -7.27841261 0 0 Z " fill="#2A2A35" transform="translate(309.95703125,435.1875)"/>
<path d="M0 0 C1.48831242 0.00667405 2.97660807 0.01863442 4.46484375 0.03515625 C5.22345703 0.03966797 5.98207031 0.04417969 6.76367188 0.04882812 C8.64326246 0.06064945 10.52281274 0.07858547 12.40234375 0.09765625 C11.81415817 5.56396987 9.88926764 9.95678132 7.62109375 14.890625 C7.24754761 15.71847 6.87400146 16.546315 6.48913574 17.39924622 C5.30015711 20.03094021 4.10162663 22.65814419 2.90234375 25.28515625 C1.70502442 27.92372889 0.50968477 30.56318521 -0.68444824 33.20320129 C-1.42671385 34.84249125 -2.17118554 36.48078449 -2.91809082 38.1179657 C-3.25514038 38.85916153 -3.59218994 39.60035736 -3.93945312 40.36401367 C-4.23621948 41.01432053 -4.53298584 41.66462738 -4.83874512 42.3346405 C-5.50792364 43.88919969 -6.06245029 45.49203838 -6.59765625 47.09765625 C-0.32765625 47.09765625 5.94234375 47.09765625 12.40234375 47.09765625 C12.36277218 41.8770235 12.36277218 41.8770235 12.31225586 36.65649414 C12.3051043 34.80331866 12.35205855 32.95016317 12.40234375 31.09765625 C13.40234375 30.09765625 13.40234375 30.09765625 16.52734375 29.96484375 C17.80609375 29.96742188 19.08484375 29.97 20.40234375 29.97265625 C21.68109375 29.97007812 22.95984375 29.9675 24.27734375 29.96484375 C27.40234375 30.09765625 27.40234375 30.09765625 28.40234375 31.09765625 C28.63887898 33.62361884 28.82408067 36.12872832 28.96484375 38.66015625 C29.00802734 39.37107422 29.05121094 40.08199219 29.09570312 40.81445312 C29.20206152 42.57527537 29.30273221 44.33643945 29.40234375 46.09765625 C31.71234375 46.75765625 34.02234375 47.41765625 36.40234375 48.09765625 C36.42920313 50.24342262 36.44867463 52.3892827 36.46484375 54.53515625 C36.47644531 55.73011719 36.48804688 56.92507813 36.5 58.15625 C36.40234375 61.09765625 36.40234375 61.09765625 35.40234375 62.09765625 C33.09234375 62.09765625 30.78234375 62.09765625 28.40234375 62.09765625 C28.40234375 69.02765625 28.40234375 75.95765625 28.40234375 83.09765625 C23.12234375 83.09765625 17.84234375 83.09765625 12.40234375 83.09765625 C12.40234375 76.16765625 12.40234375 69.23765625 12.40234375 62.09765625 C9.67082031 62.10925781 6.93929687 62.12085938 4.125 62.1328125 C1.49064246 62.14060267 -1.14371382 62.14667966 -3.77807617 62.15258789 C-5.614345 62.15762856 -7.45060979 62.16446102 -9.28686523 62.1730957 C-11.92042026 62.18517297 -14.55392241 62.19088706 -17.1875 62.1953125 C-18.42656349 62.20305443 -18.42656349 62.20305443 -19.69065857 62.21095276 C-21.66001993 62.2111483 -23.62927239 62.15969777 -25.59765625 62.09765625 C-27.33304139 60.36227111 -26.93369676 58.15561888 -27.03515625 55.78515625 C-26.95594701 51.08170441 -26.35167847 47.96314058 -24.08984375 43.84765625 C-21.3701243 38.67105245 -18.90377606 33.43753303 -16.546875 28.0859375 C-16.02561287 26.90622627 -16.02561287 26.90622627 -15.49382019 25.7026825 C-14.42191195 23.2728688 -13.35313958 20.84169738 -12.28515625 18.41015625 C-11.19603231 15.93251352 -10.10602911 13.45527724 -9.01313782 10.97929382 C-8.33867163 9.45116339 -7.66638202 7.92207003 -6.99650574 6.391922 C-4.22683818 0.11473502 -4.22683818 0.11473502 0 0 Z " fill="#262631" transform="translate(477.59765625,697.90234375)"/>
<path d="M0 0 C6.4476892 3.42049316 10.74490615 8.82907865 13.9375 15.3125 C14.9375 20.3125 14.9375 20.3125 14.9375 33.3125 C2.7275 33.3125 -9.4825 33.3125 -22.0625 33.3125 C-19.8928184 39.2867485 -19.8928184 39.2867485 -16.0625 43.3125 C-12.00466983 44.66511006 -8.30581399 44.86471209 -4.0625 44.3125 C-0.77001892 42.47932624 -0.77001892 42.47932624 1.9375 40.3125 C3.83984375 39.4375 3.83984375 39.4375 5.9375 39.3125 C8.078125 40.96484375 8.078125 40.96484375 10.1875 43.25 C10.89390625 44.00152344 11.6003125 44.75304687 12.328125 45.52734375 C13.12476563 46.41099609 13.12476563 46.41099609 13.9375 47.3125 C11.48886582 52.93838634 6.95794672 55.1406409 1.8125 58.125 C-6.46894151 61.35587628 -15.7944961 59.7492186 -23.75390625 56.4453125 C-30.70370634 53.0350891 -34.96418002 47.26060301 -37.5234375 39.9765625 C-39.30226344 31.18555313 -39.66938176 19.293436 -35.0625 11.3125 C-26.7221036 -0.39775353 -14.08571623 -5.8908223 0 0 Z " fill="#272732" transform="translate(495.0625,433.6875)"/>
<path d="M0 0 C5.63710847 4.99894524 9.17019897 10.68079587 11 18 C11 22.29 11 26.58 11 31 C-1.21 31 -13.42 31 -26 31 C-23.86618518 38.47943242 -23.86618518 38.47943242 -20.875 41 C-15.56885684 42.84561501 -10.87565351 42.77857316 -5.6875 40.625 C-4.800625 40.08875 -3.91375 39.5525 -3 39 C-1.67100479 38.32472676 -0.33843059 37.65637321 1 37 C2.36877116 38.23399063 3.71969166 39.48780623 5.0625 40.75 C5.81660156 41.44609375 6.57070313 42.1421875 7.34765625 42.859375 C9 45 9 45 9.01171875 47.0703125 C7.6762198 49.6175576 6.17315935 50.59247207 3.75 52.125 C2.98171875 52.62257813 2.2134375 53.12015625 1.421875 53.6328125 C-6.0305767 57.83984169 -14.11169059 58.27039116 -22.48046875 56.46484375 C-30.02261892 53.79518518 -36.40145741 49.25945021 -39.9765625 42.0234375 C-43.67352366 31.96908518 -43.9730072 19.02480048 -39.5 9.25 C-35.88265523 3.09027612 -31.5378586 -0.2310707 -25.25 -3.375 C-16.41667075 -5.07371716 -7.80087552 -4.83168414 0 0 Z " fill="#272732" transform="translate(385,321)"/>
<path d="M0 0 C4.73636468 2.59617505 7.64573133 5.4837076 9.27024841 10.77203369 C9.72330223 13.05544483 9.80756352 15.13238855 9.80102539 17.45996094 C9.80094986 18.36059265 9.80087433 19.26122437 9.80079651 20.18914795 C9.79563522 21.15282288 9.79047394 22.1164978 9.78515625 23.109375 C9.7837413 24.10253723 9.78232635 25.09569946 9.78086853 26.11895752 C9.77527588 29.28766912 9.7627247 32.45630979 9.75 35.625 C9.74498405 37.77473856 9.74042131 39.92447823 9.73632812 42.07421875 C9.72530885 47.34117312 9.70804923 52.60807454 9.6875 57.875 C4.4075 57.875 -0.8725 57.875 -6.3125 57.875 C-6.32651855 56.096698 -6.32651855 56.096698 -6.34082031 54.2824707 C-6.38075998 49.87453955 -6.44652981 45.46730342 -6.52001953 41.05981445 C-6.5482061 39.15398095 -6.56943216 37.24803105 -6.58349609 35.34204102 C-6.60495783 32.59851594 -6.65162365 29.85638687 -6.703125 27.11328125 C-6.70435364 26.26413651 -6.70558228 25.41499176 -6.70684814 24.54011536 C-6.80719001 20.46686593 -7.00494018 18.3630687 -9.22558594 14.83911133 C-11.46759775 12.72902885 -12.28442932 12.19085799 -15.3125 12.25 C-16.3025 12.23066406 -16.3025 12.23066406 -17.3125 12.2109375 C-20.52603005 13.2779299 -21.5172057 15.0376689 -23.3125 17.875 C-23.89829759 20.86993524 -23.89376966 23.81449655 -23.88671875 26.859375 C-23.90796562 28.14367401 -23.90796562 28.14367401 -23.92964172 29.45391846 C-23.97145275 32.17774155 -23.98677155 34.90090147 -24 37.625 C-24.02902636 40.3630738 -24.06349905 43.10097881 -24.10249329 45.83892822 C-24.12503965 47.54046996 -24.14082304 49.24211681 -24.14933777 50.94378662 C-24.20289794 56.76539794 -24.20289794 56.76539794 -25.3125 57.875 C-28.00904854 57.94819621 -30.67941458 57.96742537 -33.375 57.9375 C-34.51291992 57.93073242 -34.51291992 57.93073242 -35.67382812 57.92382812 C-37.55341871 57.9120068 -39.43296899 57.89407078 -41.3125 57.875 C-41.33562851 50.33001767 -41.35341769 42.78503899 -41.36431217 35.24002934 C-41.36953989 31.73691115 -41.3766355 28.23381715 -41.38793945 24.73071289 C-41.40084206 20.70719159 -41.40572912 16.68369586 -41.41015625 12.66015625 C-41.41789818 10.76487938 -41.41789818 10.76487938 -41.42579651 8.83131409 C-41.42587204 7.670186 -41.42594757 6.50905792 -41.42602539 5.31274414 C-41.42935631 3.7705294 -41.42935631 3.7705294 -41.43275452 2.19715881 C-41.3125 -0.125 -41.3125 -0.125 -40.3125 -1.125 C-37.78200598 -1.19813567 -35.27945163 -1.21747527 -32.75 -1.1875 C-32.03908203 -1.18298828 -31.32816406 -1.17847656 -30.59570312 -1.17382812 C-28.83459987 -1.16200864 -27.07353964 -1.14407263 -25.3125 -1.125 C-24.6525 0.195 -23.9925 1.515 -23.3125 2.875 C-21.9203125 1.9159375 -21.9203125 1.9159375 -20.5 0.9375 C-13.74933741 -3.43057579 -7.21035258 -3.32785504 0 0 Z " fill="#2B2B36" transform="translate(447.3125,319.125)"/>
<path d="M0 0 C1.39456452 0.00667256 2.78911118 0.01863093 4.18359375 0.03515625 C4.89451172 0.03966797 5.60542969 0.04417969 6.33789062 0.04882812 C8.09899388 0.06064761 9.86005411 0.07858362 11.62109375 0.09765625 C11.63567627 1.18183838 11.65025879 2.26602051 11.6652832 3.38305664 C11.72352847 7.42944289 11.80075845 11.47528784 11.88354492 15.52124023 C11.91667142 17.26789524 11.94474112 19.01465413 11.9675293 20.76147461 C12.00130256 23.28153495 12.05362722 25.80065377 12.109375 28.3203125 C12.11576492 29.09351334 12.12215485 29.86671417 12.1287384 30.66334534 C12.26655173 35.81712897 13.20125578 39.51943406 15.62109375 44.09765625 C18.67802697 45.62612286 21.25093922 45.3300807 24.62109375 45.09765625 C27.80612945 43.33750494 28.45406347 42.59874709 29.62109375 39.09765625 C29.77543533 36.15048452 29.87865405 33.2226676 29.9375 30.2734375 C29.9582811 29.41203659 29.97906219 28.55063568 30.00047302 27.66313171 C30.06584284 24.91222081 30.12479507 22.16121469 30.18359375 19.41015625 C30.22679092 17.54491204 30.2704056 15.67967745 30.31445312 13.81445312 C30.42151138 9.24228501 30.52281429 4.67002115 30.62109375 0.09765625 C35.90109375 0.09765625 41.18109375 0.09765625 46.62109375 0.09765625 C46.62109375 19.56765625 46.62109375 39.03765625 46.62109375 59.09765625 C41.34109375 59.09765625 36.06109375 59.09765625 30.62109375 59.09765625 C30.12609375 57.11765625 30.12609375 57.11765625 29.62109375 55.09765625 C28.94626953 55.6390625 28.94626953 55.6390625 28.2578125 56.19140625 C22.49182215 60.35123897 17.63366019 61.19145306 10.62109375 60.09765625 C3.9445955 58.07207458 -0.18491515 54.1417647 -3.49731445 48.03613281 C-4.79814493 43.7002714 -4.64402995 39.52171137 -4.609375 35.01953125 C-4.60891678 34.05235168 -4.60845856 33.08517212 -4.60798645 32.08868408 C-4.60497256 30.05129769 -4.59711218 28.01391342 -4.5847168 25.9765625 C-4.56639053 22.84496993 -4.5642077 19.713672 -4.56445312 16.58203125 C-4.55954032 14.60286201 -4.55371304 12.62369478 -4.546875 10.64453125 C-4.54576218 9.70293152 -4.54464935 8.76133179 -4.54350281 7.79119873 C-4.53712296 6.92649963 -4.5307431 6.06180054 -4.52416992 5.17089844 C-4.52035812 4.4065448 -4.51654633 3.64219116 -4.51261902 2.85467529 C-4.26434471 -0.40771088 -3.35253359 0.09689403 0 0 Z " fill="#272732" transform="translate(516.37890625,317.90234375)"/>
<path d="M0 0 C5.28 0 10.56 0 16 0 C16 21.78 16 43.56 16 66 C28.87 66 41.74 66 55 66 C55 70.62 55 75.24 55 80 C36.85 80 18.7 80 0 80 C0 53.6 0 27.2 0 0 Z " fill="#262631" transform="translate(206,412)"/>
<path d="M0 0 C1.01707031 -0.01224609 2.03414063 -0.02449219 3.08203125 -0.03710938 C19.13128544 -0.06801295 19.13128544 -0.06801295 24.4375 5.1875 C28.45245187 10.55568077 29.326052 16.39276861 28.5625 22.9375 C26.55921904 27.10432439 23.87634295 29.69164711 20 32.1875 C19.34 32.1875 18.68 32.1875 18 32.1875 C18.33322266 32.90405762 18.66644531 33.62061523 19.00976562 34.35888672 C20.51043393 37.59162008 22.00528452 40.82701022 23.5 44.0625 C24.02464844 45.19042969 24.54929687 46.31835938 25.08984375 47.48046875 C25.58613281 48.55683594 26.08242188 49.63320313 26.59375 50.7421875 C27.05458984 51.73718262 27.51542969 52.73217773 27.99023438 53.75732422 C29 56.1875 29 56.1875 29 58.1875 C25.7 58.1875 22.4 58.1875 19 58.1875 C17.32724698 54.56527789 15.66283749 50.9392834 14 47.3125 C13.52304687 46.27996094 13.04609375 45.24742187 12.5546875 44.18359375 C12.10351562 43.19746094 11.65234375 42.21132813 11.1875 41.1953125 C10.76855469 40.28410645 10.34960938 39.37290039 9.91796875 38.43408203 C9 36.1875 9 36.1875 9 34.1875 C5.37 33.8575 1.74 33.5275 -2 33.1875 C-2 41.4375 -2 49.6875 -2 58.1875 C-5.3 58.1875 -8.6 58.1875 -12 58.1875 C-12.02312883 50.77290058 -12.04091785 43.35830889 -12.05181217 35.94368076 C-12.05703982 32.50109652 -12.06413531 29.05853688 -12.07543945 25.6159668 C-12.08834235 21.66194957 -12.09322918 17.70794244 -12.09765625 13.75390625 C-12.10281754 12.51226212 -12.10797882 11.27061798 -12.11329651 9.99134827 C-12.11337204 8.85024094 -12.11344757 7.70913361 -12.11352539 6.53344727 C-12.115746 5.523069 -12.11796661 4.51269073 -12.12025452 3.47169495 C-11.82750954 -2.08889941 -4.25735379 0.0026183 0 0 Z " fill="#FFF7F6" transform="translate(509,559.8125)"/>
<path d="M0 0 C2.18359375 0.01953125 2.18359375 0.01953125 4.4375 0.75 C7.67357063 4.04633266 10.00230519 7.84166265 12.4375 11.75 C13.60027197 13.48178804 14.76651294 15.21125617 15.9375 16.9375 C16.7732781 18.20672684 17.60762926 19.47690285 18.4375 20.75 C22.17827384 16.1914756 25.54178611 11.41029931 28.90234375 6.5703125 C32.22075123 1.85837438 32.22075123 1.85837438 34.4375 0.75 C38 0.625 38 0.625 41.4375 0.75 C42.4375 1.75 42.4375 1.75 42.55775452 4.03419495 C42.55553391 5.04457321 42.55331329 6.05495148 42.55102539 7.09594727 C42.55094986 8.2370546 42.55087433 9.37816193 42.55079651 10.55384827 C42.54563522 11.7954924 42.54047394 13.03713654 42.53515625 14.31640625 C42.5337413 15.58016586 42.53232635 16.84392548 42.53086853 18.14598083 C42.52620582 21.51124889 42.5172148 24.8764499 42.50616455 28.24169922 C42.49594846 31.6734967 42.49137049 35.10530109 42.48632812 38.53710938 C42.4752738 45.27475824 42.4585171 52.01237525 42.4375 58.75 C39.1375 58.75 35.8375 58.75 32.4375 58.75 C32.1075 46.21 31.7775 33.67 31.4375 20.75 C28.4675 25.37 25.4975 29.99 22.4375 34.75 C20.1275 34.75 17.8175 34.75 15.4375 34.75 C12.4675 30.13 9.4975 25.51 6.4375 20.75 C6.1075 33.29 5.7775 45.83 5.4375 58.75 C2.1375 58.75 -1.1625 58.75 -4.5625 58.75 C-4.58562883 51.33540058 -4.60341785 43.92080889 -4.61431217 36.50618076 C-4.61953982 33.06359652 -4.62663531 29.62103688 -4.63793945 26.1784668 C-4.65084235 22.22444957 -4.65572918 18.27044244 -4.66015625 14.31640625 C-4.66531754 13.07476212 -4.67047882 11.83311798 -4.67579651 10.55384827 C-4.67587204 9.41274094 -4.67594757 8.27163361 -4.67602539 7.09594727 C-4.678246 6.085569 -4.68046661 5.07519073 -4.68275452 4.03419495 C-4.48718701 0.31945457 -3.83500873 0.80737026 0 0 Z " fill="#FFF6F5" transform="translate(394.5625,559.25)"/>
<path d="M0 0 C5.28765731 4.84410107 8.83032624 11.73417595 12.51953125 17.8125 C13.81512644 20.11176023 13.81512644 20.11176023 16 21 C16.226875 20.33484375 16.45375 19.6696875 16.6875 18.984375 C18.39234038 15.1078927 20.63742302 11.75336415 23 8.25 C23.45117188 7.56550781 23.90234375 6.88101563 24.3671875 6.17578125 C27.74655878 1.12672061 27.74655878 1.12672061 30 0 C33.5625 -0.125 33.5625 -0.125 37 0 C38 1 38 1 38.12025452 3.28419495 C38.11803391 4.29457321 38.11581329 5.30495148 38.11352539 6.34594727 C38.11344986 7.4870546 38.11337433 8.62816193 38.11329651 9.80384827 C38.10813522 11.0454924 38.10297394 12.28713654 38.09765625 13.56640625 C38.0962413 14.83016586 38.09482635 16.09392548 38.09336853 17.39598083 C38.08870582 20.76124889 38.0797148 24.1264499 38.06866455 27.49169922 C38.05844846 30.9234967 38.05387049 34.35530109 38.04882812 37.78710938 C38.0377738 44.52475824 38.0210171 51.26237525 38 58 C36.52093108 58.02689216 35.04172517 58.04634621 33.5625 58.0625 C32.73878906 58.07410156 31.91507812 58.08570313 31.06640625 58.09765625 C29 58 29 58 28 57 C27.83996512 54.33573315 27.74057111 51.69439572 27.68359375 49.02734375 C27.66281265 48.22970108 27.64203156 47.43205841 27.62062073 46.61024475 C27.55503842 44.05275389 27.49620033 41.4951572 27.4375 38.9375 C27.39432301 37.20767118 27.35070899 35.47785321 27.30664062 33.74804688 C27.19934828 29.4988074 27.09810574 25.2494611 27 21 C26.12988281 22.40765625 26.12988281 22.40765625 25.2421875 23.84375 C24.45422696 25.06321274 23.66510312 26.28192436 22.875 27.5 C22.49601562 28.12003906 22.11703125 28.74007812 21.7265625 29.37890625 C20.5546875 31.15625 20.5546875 31.15625 18 34 C14.83691406 34.54785156 14.83691406 34.54785156 12 34 C9.734375 31.734375 9.734375 31.734375 7.75 28.75 C7.08484375 27.77546875 6.4196875 26.8009375 5.734375 25.796875 C4 23 4 23 2 19 C1.67 31.87 1.34 44.74 1 58 C-1.97 58 -4.94 58 -8 58 C-9 57 -9 57 -9.12025452 54.75376892 C-9.11803391 53.76115555 -9.11581329 52.76854218 -9.11352539 51.74584961 C-9.11344986 50.62476303 -9.11337433 49.50367645 -9.11329651 48.34861755 C-9.10813522 47.1288472 -9.10297394 45.90907684 -9.09765625 44.65234375 C-9.0962413 43.41078018 -9.09482635 42.16921661 -9.09336853 40.89002991 C-9.08870591 37.58394509 -9.07971497 34.27792854 -9.06866455 30.97186279 C-9.05844827 27.6003885 -9.05387045 24.22890717 -9.04882812 20.85742188 C-9.03777395 14.23826225 -9.02101736 7.61913507 -9 1 C-5.66041982 -0.66979009 -3.70178235 -0.60684957 0 0 Z " fill="#FFF6F5" transform="translate(340,560)"/>
<path d="M0 0 C5.28 0 10.56 0 16 0 C16 4.95 16 9.9 16 15 C17.959375 14.979375 19.91875 14.95875 21.9375 14.9375 C23.95832876 14.91622812 25.98035801 14.92755947 28 15 C29 16 29 16 29.09765625 18.72265625 C29.06510417 21.81510417 29.03255208 24.90755208 29 28 C24.71 28 20.42 28 16 28 C16.09686684 32.09389873 16.19954872 36.18698762 16.31738281 40.28027344 C16.35569327 41.67308572 16.39054259 43.06599765 16.421875 44.45898438 C16.46747907 46.45986308 16.52651623 48.46042146 16.5859375 50.4609375 C16.63306885 52.26763916 16.63306885 52.26763916 16.68115234 54.11083984 C16.70915226 57.1260018 16.70915226 57.1260018 19 59 C20.93991404 59.42137285 20.93991404 59.42137285 23.0625 59.5625 C27 60 27 60 28 61 C28.09873816 62.99799572 28.12971799 64.99957158 28.125 67 C28.12886719 68.6396875 28.12886719 68.6396875 28.1328125 70.3125 C28 73 28 73 27 74 C24.59060484 74.12774845 22.22250324 74.18521564 19.8125 74.1875 C18.49894531 74.20167969 17.18539063 74.21585937 15.83203125 74.23046875 C11.04780556 73.94273244 7.46398366 73.21998638 3.75 70.125 C-0.07231157 65.48362167 -0.27474323 61.63487694 -0.1953125 55.734375 C-0.19106766 54.54427826 -0.19106766 54.54427826 -0.18673706 53.33013916 C-0.17556779 50.80327083 -0.15046944 48.27676068 -0.125 45.75 C-0.11496598 44.0338593 -0.10584087 42.31771302 -0.09765625 40.6015625 C-0.07563914 36.40090426 -0.04113187 32.2005128 0 28 C-2.64 28 -5.28 28 -8 28 C-8 23.71 -8 19.42 -8 15 C-5.36 15 -2.72 15 0 15 C0 10.05 0 5.1 0 0 Z " fill="#292934" transform="translate(474,303)"/>
<path d="M0 0 C3.65343482 2.35029884 5.39370453 4.50476929 6.515625 8.7265625 C7.02815366 11.19855449 7.44098641 13.69073538 7.83984375 16.18359375 C4.53984375 16.18359375 1.23984375 16.18359375 -2.16015625 16.18359375 C-2.36640625 15.27609375 -2.57265625 14.36859375 -2.78515625 13.43359375 C-4.53750359 9.29168186 -6.14958564 8.15104348 -10.16015625 6.18359375 C-13.57202547 5.83064176 -16.21179319 5.95898145 -19.53515625 6.74609375 C-21.50979948 8.22820386 -21.50979948 8.22820386 -22.09765625 11.62109375 C-22.46067663 15.00387078 -22.46067663 15.00387078 -21.16015625 16.93359375 C-17.4134926 19.27525853 -13.30670935 20.73256558 -9.2109375 22.34375 C-8.16292969 22.76527344 -7.11492187 23.18679688 -6.03515625 23.62109375 C-5.04257812 24.01167969 -4.05 24.40226563 -3.02734375 24.8046875 C1.4754214 26.97018627 4.2447623 29.0960311 6.65234375 33.49609375 C8.21446031 38.34687676 8.75558643 42.04686084 6.71484375 46.80859375 C2.54559628 52.08964055 -1.52518619 54.94656543 -8.16015625 56.18359375 C-15.8690967 56.97570506 -22.31459571 55.35717145 -29.03515625 51.55859375 C-32.01193338 48.23160754 -33.40256134 44.57455199 -34.16015625 40.18359375 C-33.73046875 37.90234375 -33.73046875 37.90234375 -33.16015625 36.18359375 C-30.52015625 36.18359375 -27.88015625 36.18359375 -25.16015625 36.18359375 C-24.76828125 37.27671875 -24.37640625 38.36984375 -23.97265625 39.49609375 C-22.87042352 41.99381379 -22.12912067 43.21274839 -20.09765625 45.12109375 C-15.84568467 46.65904092 -11.62703439 46.92444183 -7.16015625 46.18359375 C-4.12430271 44.37990874 -3.31797835 43.78857847 -2.41015625 40.30859375 C-2.89479856 36.8949077 -2.89479856 36.8949077 -6.16015625 34.74609375 C-9.06384632 33.1219074 -12.05272635 31.78620398 -15.11328125 30.4921875 C-15.81839844 30.19304443 -16.52351563 29.89390137 -17.25 29.58569336 C-18.66786171 28.99358226 -20.09232252 28.41698463 -21.5234375 27.85766602 C-27.05042784 25.59402269 -29.89719034 22.88994927 -32.47265625 17.37109375 C-33.58909552 12.19487531 -33.2069849 8.1027796 -30.66015625 3.43359375 C-22.08071314 -4.28790505 -10.18458054 -5.32250231 0 0 Z " fill="#FFF6F5" transform="translate(262.16015625,562.81640625)"/>
<path d="M0 0 C0.680625 -0.01417969 1.36125 -0.02835937 2.0625 -0.04296875 C4 0.1875 4 0.1875 7 2.1875 C6.47462276 7.2177076 5.89405214 12.20635239 5 17.1875 C4.19175781 17.20167969 3.38351562 17.21585937 2.55078125 17.23046875 C0.94783203 17.30201172 0.94783203 17.30201172 -0.6875 17.375 C-2.27111328 17.42720703 -2.27111328 17.42720703 -3.88671875 17.48046875 C-8.03665167 18.42292529 -9.37315195 19.85688069 -12 23.1875 C-12.49481235 26.15261985 -12.69945199 28.55687375 -12.671875 31.515625 C-12.69099945 32.70004181 -12.69099945 32.70004181 -12.71051025 33.90838623 C-12.7467207 36.41845965 -12.74951873 38.92718869 -12.75 41.4375 C-12.77159395 43.96159334 -12.79999459 46.48548321 -12.83233643 49.00946045 C-12.85014143 50.57746612 -12.8603866 52.14557874 -12.86248779 53.71368408 C-12.89147777 59.07897777 -12.89147777 59.07897777 -14 60.1875 C-18.95 60.1875 -23.9 60.1875 -29 60.1875 C-29 40.7175 -29 21.2475 -29 1.1875 C-23.72 1.1875 -18.44 1.1875 -13 1.1875 C-12.67 2.5075 -12.34 3.8275 -12 5.1875 C-11.236875 4.548125 -10.47375 3.90875 -9.6875 3.25 C-6.41530011 0.73877683 -4.02721306 0.03813649 0 0 Z " fill="#282833" transform="translate(550,431.8125)"/>
<path d="M0 0 C1.22763565 0.00212242 1.22763565 0.00212242 2.48007202 0.00428772 C5.09873075 0.00989335 7.71730454 0.02244677 10.3359375 0.03515625 C12.10937377 0.04017053 13.88281137 0.04473356 15.65625 0.04882812 C20.00784532 0.05986461 24.359377 0.077133 28.7109375 0.09765625 C30.07717424 2.83012973 29.8393635 5.07964527 29.7109375 8.09765625 C28.7109375 9.09765625 28.7109375 9.09765625 25.93530273 9.21118164 C24.72559814 9.20594482 23.51589355 9.20070801 22.26953125 9.1953125 C20.96435547 9.19208984 19.65917969 9.18886719 18.31445312 9.18554688 C16.9257806 9.17719026 15.53710873 9.1687253 14.1484375 9.16015625 C12.75586094 9.15514291 11.36328269 9.15057972 9.97070312 9.14648438 C6.55076299 9.13465067 3.130845 9.11671456 -0.2890625 9.09765625 C-0.2890625 14.37765625 -0.2890625 19.65765625 -0.2890625 25.09765625 C6.3109375 25.09765625 12.9109375 25.09765625 19.7109375 25.09765625 C19.7109375 27.73765625 19.7109375 30.37765625 19.7109375 33.09765625 C13.1109375 33.09765625 6.5109375 33.09765625 -0.2890625 33.09765625 C-0.2890625 38.70765625 -0.2890625 44.31765625 -0.2890625 50.09765625 C1.79277344 50.08605469 3.87460937 50.07445312 6.01953125 50.0625 C8.02840048 50.0555489 10.03727001 50.04863236 12.04614258 50.04272461 C13.44588978 50.03768545 14.8456317 50.03085409 16.24536133 50.0222168 C18.25339527 50.01013305 20.26146707 50.00495818 22.26953125 50 C24.08408813 49.99214478 24.08408813 49.99214478 25.93530273 49.98413086 C28.7109375 50.09765625 28.7109375 50.09765625 29.7109375 51.09765625 C29.75186687 53.43063058 29.75335473 55.7647085 29.7109375 58.09765625 C24.17505217 58.122304 18.6391985 58.14049121 13.10327148 58.15258789 C11.2185002 58.15762869 9.33373285 58.16446123 7.44897461 58.1730957 C4.74592114 58.18517242 2.04291919 58.19088693 -0.66015625 58.1953125 C-1.50807236 58.20047379 -2.35598846 58.20563507 -3.229599 58.21095276 C-5.24977318 58.2111482 -7.26984184 58.15971836 -9.2890625 58.09765625 C-10.2890625 57.09765625 -10.2890625 57.09765625 -10.40931702 54.85142517 C-10.40709641 53.8588118 -10.40487579 52.86619843 -10.40258789 51.84350586 C-10.40251236 50.72241928 -10.40243683 49.6013327 -10.40235901 48.4462738 C-10.39719772 47.22650345 -10.39203644 46.00673309 -10.38671875 44.75 C-10.3853038 43.50843643 -10.38388885 42.26687286 -10.38243103 40.98768616 C-10.37776841 37.68160134 -10.36877747 34.37558479 -10.35772705 31.06951904 C-10.34751077 27.69804475 -10.34293295 24.32656342 -10.33789062 20.95507812 C-10.32683645 14.3359185 -10.31007986 7.71679132 -10.2890625 1.09765625 C-7.06302705 -0.51536148 -3.54196212 -0.02287974 0 0 Z " fill="#FFF6F4" transform="translate(458.2890625,559.90234375)"/>
<path d="M0 0 C2.05078125 0.03255208 4.1015625 0.06510417 6.15234375 0.09765625 C7.28385952 2.36068778 7.28221283 3.60528342 7.29418945 6.11669922 C7.30122391 6.94450897 7.30825836 7.77231873 7.31550598 8.62521362 C7.31967026 9.52104156 7.32383453 10.41686951 7.328125 11.33984375 C7.35132154 13.22917783 7.37543881 15.11850079 7.40039062 17.0078125 C7.43552974 19.99242611 7.4648616 22.97663033 7.47827148 25.96142578 C7.49373221 28.83807134 7.53392818 31.71351506 7.578125 34.58984375 C7.57621658 35.48162323 7.57430817 36.37340271 7.57234192 37.29220581 C7.60288293 42.35262046 7.60288293 42.35262046 10.18823242 46.56689453 C11.16046753 47.32462158 11.16046753 47.32462158 12.15234375 48.09765625 C12.15234375 48.75765625 12.15234375 49.41765625 12.15234375 50.09765625 C13.71573667 50.06426339 15.27837045 49.9944986 16.83984375 49.91015625 C17.70996094 49.87535156 18.58007812 49.84054687 19.4765625 49.8046875 C23.34616232 48.7822093 24.70284697 47.26569892 27.15234375 44.09765625 C27.8935533 40.80194003 27.87385348 37.57093847 27.859375 34.203125 C27.87449631 33.25576981 27.88961761 32.30841461 27.90519714 31.33235168 C27.94807122 28.31637769 27.95691195 25.30140462 27.96484375 22.28515625 C27.98798825 20.23630152 28.01335349 18.18747059 28.04101562 16.13867188 C28.10386534 11.12491153 28.13620286 6.11177575 28.15234375 1.09765625 C31.13447288 -0.39340832 33.86844033 -0.02175842 37.15234375 0.09765625 C38.68307564 1.62838814 38.29434068 3.02133599 38.31347656 5.1550293 C38.32308411 6.0165007 38.33269165 6.87797211 38.34259033 7.76554871 C38.34684021 8.70401138 38.35109009 9.64247406 38.35546875 10.609375 C38.36116882 11.57035599 38.3668689 12.53133698 38.3727417 13.5214386 C38.3822103 15.5617258 38.38873303 17.60202843 38.39257812 19.64233398 C38.40224902 22.75466989 38.4332405 25.86633588 38.46484375 28.97851562 C38.47137703 30.95963149 38.47662622 32.94075209 38.48046875 34.921875 C38.49281555 35.85021652 38.50516235 36.77855804 38.5178833 37.73503113 C38.49521501 44.36105567 37.18574642 48.44807095 33.08984375 53.78515625 C27.48005607 58.20137208 21.46827329 59.42984714 14.40234375 59.03515625 C8.41370304 58.24962228 4.94095756 56.08500493 0.90234375 51.59765625 C-1.71795479 47.85437262 -3.09911755 45.23418363 -3.09057617 40.62036133 C-3.0936528 39.74297806 -3.09672943 38.86559479 -3.09989929 37.96162415 C-3.09271378 37.02296005 -3.08552826 36.08429596 -3.078125 35.1171875 C-3.07766678 34.14859299 -3.07720856 33.17999847 -3.07673645 32.18205261 C-3.07371919 30.1386899 -3.06584865 28.09532938 -3.0534668 26.05200195 C-3.03516431 22.91153902 -3.03295748 19.77137017 -3.03320312 16.63085938 C-3.02828957 14.64713285 -3.02246196 12.66340833 -3.015625 10.6796875 C-3.01451218 9.73495071 -3.01339935 8.79021393 -3.01225281 7.81684875 C-3.00587296 6.94892197 -2.9994931 6.08099518 -2.99291992 5.18676758 C-2.98910812 4.41939774 -2.98529633 3.65202789 -2.98136902 2.86140442 C-2.79489943 0.40176347 -2.46226394 0.1301408 0 0 Z " fill="#FFF5F4" transform="translate(281.84765625,559.90234375)"/>
<path d="M0 0 C4.90933442 4.6958851 5.8716453 8.07701339 6.16113281 14.66943359 C6.1811146 16.07902944 6.19477871 17.48872475 6.203125 18.8984375 C6.20882507 19.65162262 6.21452515 20.40480774 6.22039795 21.18081665 C6.22981267 22.76929332 6.23636784 24.3577892 6.24023438 25.94628906 C6.2499412 28.36037643 6.28099738 30.773612 6.3125 33.1875 C6.31903119 34.73697416 6.32428121 36.28645435 6.328125 37.8359375 C6.3404718 38.54970551 6.3528186 39.26347351 6.36553955 39.99887085 C6.34302337 45.13112377 5.32089332 48.52198323 3 53 C-0.55588188 56.2421276 -4.19293135 56.58445176 -8.84765625 56.4140625 C-12.4561038 55.7198784 -13.91202115 53.91051598 -16 51 C-17.98156643 46.2445892 -18.30706592 41.83662676 -18.30078125 36.75 C-18.30506638 35.97366211 -18.3093515 35.19732422 -18.31376648 34.39746094 C-18.3194838 32.76368175 -18.32002929 31.12987713 -18.31567383 29.49609375 C-18.31250937 27.00736872 -18.33601971 24.51982878 -18.36132812 22.03125 C-18.36360108 20.43750149 -18.36430463 18.8437498 -18.36328125 17.25 C-18.372491 16.51233398 -18.38170074 15.77466797 -18.39118958 15.01464844 C-18.34899149 10.26608472 -17.48701808 7.04183173 -15 3 C-10.36208754 -1.3386923 -6.07624693 -1.59901235 0 0 Z " fill="#EBECEB" transform="translate(353,712)"/>
<path d="M0 0 C5.70643786 1.35336996 8.33451771 4.02839209 11.55908203 8.81542969 C16.70242206 17.75856936 16.70242206 17.75856936 17.57421875 21.87109375 C16.22417058 26.41489656 13.63473172 30.17806738 11.07421875 34.12109375 C10.67074219 34.75789063 10.26726562 35.3946875 9.8515625 36.05078125 C6.82475839 40.74582393 6.82475839 40.74582393 4.57421875 41.87109375 C2.90048124 39.08360856 1.23645608 36.29044948 -0.42578125 33.49609375 C-0.90273438 32.70203125 -1.3796875 31.90796875 -1.87109375 31.08984375 C-2.32226562 30.32929688 -2.7734375 29.56875 -3.23828125 28.78515625 C-3.65722656 28.08342285 -4.07617188 27.38168945 -4.5078125 26.65869141 C-5.42578125 24.87109375 -5.42578125 24.87109375 -5.42578125 22.87109375 C-13.34578125 22.87109375 -21.26578125 22.87109375 -29.42578125 22.87109375 C-28.76578125 21.22109375 -28.10578125 19.57109375 -27.42578125 17.87109375 C-27.03966675 16.86308716 -27.03966675 16.86308716 -26.64575195 15.8347168 C-21.3896791 2.91670189 -14.12701633 -1.59242471 0 0 Z " fill="#FEFAF9" transform="translate(412.42578125,141.12890625)"/>
<path d="M0 0 C3.47032954 2.0340634 5.70165148 4.10495445 7 8 C7.17466964 10.78612399 7.27697439 13.52492412 7.3125 16.3125 C7.34150391 17.05951172 7.37050781 17.80652344 7.40039062 18.57617188 C7.46069502 23.85976504 6.50913791 26.82064836 3 31 C-0.76875875 33.51250583 -2.53150134 33.53016086 -7 33 C-11.30494946 30.15710885 -13.47462041 27.88401355 -15 23 C-15.63881691 16.37123753 -16.13046257 9.55476 -12 4 C-8.20660289 -0.00414139 -5.46089662 -0.86224683 0 0 Z " fill="#F9FAFA" transform="translate(214,331)"/>
<path d="M0 0 C3.3223668 0.78444772 4.92381431 2.86219833 6.96875 5.46484375 C8.58059913 8.68854202 8.19496437 12.17673086 8.21875 15.71484375 C8.239375 16.46636719 8.26 17.21789062 8.28125 17.9921875 C8.32146582 23.75310424 7.30438633 28.04866824 3.15625 32.33984375 C0.11092432 33.90601124 -1.64149461 34.00720461 -5.03125 33.46484375 C-8.9351011 30.98739978 -10.54906579 29.56071694 -12.40625 25.33984375 C-13.87329625 16.244157 -13.7895816 9.75434748 -8.34375 2.08984375 C-5.57500271 0.14423755 -3.36634154 -0.1570122 0 0 Z " fill="#ECEDED" transform="translate(421.03125,445.53515625)"/>
<path d="M0 0 C2.86328125 0.4453125 2.86328125 0.4453125 6.11328125 2.5078125 C8.33543481 6.23785597 8.62641724 8.17175094 7.86328125 12.4453125 C4.79117905 16.47744663 0.86566791 18.83303298 -3.46484375 21.33203125 C-5.29720322 22.35244213 -5.29720322 22.35244213 -6.13671875 24.4453125 C-1.51671875 24.4453125 3.10328125 24.4453125 7.86328125 24.4453125 C7.86328125 26.4253125 7.86328125 28.4053125 7.86328125 30.4453125 C0.60328125 30.1153125 -6.65671875 29.7853125 -14.13671875 29.4453125 C-13.09686622 22.1663448 -12.29726818 20.05452118 -7.13671875 15.4453125 C-5.06092389 14.04377217 -2.97600309 12.7774206 -0.7734375 11.5859375 C1.19053999 10.45940355 1.19053999 10.45940355 1.86328125 7.4453125 C-1.44239364 6.59144145 -1.44239364 6.59144145 -5.13671875 6.4453125 C-7.59844028 8.2375035 -7.59844028 8.2375035 -9.13671875 10.4453125 C-10.45671875 9.7853125 -11.77671875 9.1253125 -13.13671875 8.4453125 C-13.13671875 4.4453125 -13.13671875 4.4453125 -11.5078125 2.23046875 C-7.77541457 -0.57959032 -4.52705753 -0.16582628 0 0 Z " fill="#FEF5F4" transform="translate(412.13671875,106.5546875)"/>
<path d="M0 0 C3.58875 -0.061875 3.58875 -0.061875 7.25 -0.125 C7.99668945 -0.14320801 8.74337891 -0.16141602 9.51269531 -0.18017578 C13.17846664 -0.21074031 15.97656697 -0.17399232 19 2 C21.34168764 5.51253146 21.49623677 6.86469356 21 11 C19.20006226 13.69990662 17.916227 15.5418865 15 17 C12.44612508 17.07173806 9.92723239 17.09287732 7.375 17.0625 C4.94125 17.041875 2.5075 17.02125 0 17 C0 11.39 0 5.78 0 0 Z " fill="#FF492D" transform="translate(507,569)"/>
<path d="M0 0 C1.88138672 0.05414063 1.88138672 0.05414063 3.80078125 0.109375 C5.22970703 0.17898438 5.22970703 0.17898438 6.6875 0.25 C7.17829755 7.61196319 7.17829755 7.61196319 4.8125 10.6875 C1.59929193 13.05015299 -0.29662924 13.43033708 -4.25 13.5 C-5.12527344 13.52578125 -6.00054687 13.5515625 -6.90234375 13.578125 C-9.3125 13.25 -9.3125 13.25 -11.09765625 11.91796875 C-12.3125 10.25 -12.3125 10.25 -12.8125 7.3125 C-12.3125 4.25 -12.3125 4.25 -10.23828125 2.07421875 C-6.56128253 -0.21838259 -4.29527593 -0.16057106 0 0 Z " fill="#EFF0EF" transform="translate(358.3125,466.75)"/>
<path d="M0 0 C2.85432986 0.5315756 4.69665618 1.52040803 6.9296875 3.359375 C8.96640379 6.36595618 8.9296875 7.55034096 8.9296875 11.359375 C1.9996875 11.359375 -4.9303125 11.359375 -12.0703125 11.359375 C-10.7657918 3.53225078 -8.17231599 -0.55510071 0 0 Z " fill="#E5E6E6" transform="translate(485.0703125,445.640625)"/>
<path d="M0 0 C2.9375 1.5625 2.9375 1.5625 5 4 C5.33 6.31 5.66 8.62 6 11 C-0.6 11 -7.2 11 -14 11 C-13 4 -13 4 -10.9375 1.5625 C-7.12662377 -0.46456182 -4.22793938 -0.82850529 0 0 Z " fill="#F5F6F6" transform="translate(300,446)"/>
<path d="M0 0 C3.22901513 0.69286559 4.77682941 1.94460763 6.9296875 4.4140625 C7.5896875 6.7240625 8.2496875 9.0340625 8.9296875 11.4140625 C1.9996875 11.4140625 -4.9303125 11.4140625 -12.0703125 11.4140625 C-10.77992005 3.67170777 -8.15789116 -0.5849054 0 0 Z " fill="#F7F7F7" transform="translate(371.0703125,330.5859375)"/>
<path d="M0 0 C4.875 1.75 4.875 1.75 6 4 C6 6.31 6 8.62 6 11 C0.72 11 -4.56 11 -10 11 C-6.77932365 7.19374613 -3.59755203 3.45918464 0 0 Z " fill="#EFF0EF" transform="translate(359,446)"/>
</svg>
