<?xml version="1.0" encoding="UTF-8"?>
<svg version="1.1" xmlns="http://www.w3.org/2000/svg" width="770" height="1000">
<path d="M0 0 C224.07 0 448.14 0 679 0 C679 150.81 679 301.62 679 457 C683.95 457 688.9 457 694 457 C699.08632593 466.8609093 703.59050369 476.92928843 708.03320312 487.09277344 C709.25738892 489.89189489 710.48774933 492.68824491 711.71875 495.484375 C712.5055748 497.27848516 713.29204589 499.0727505 714.078125 500.8671875 C714.44270813 501.69540009 714.80729126 502.52361267 715.18292236 503.37692261 C715.8509612 504.90889596 716.50749574 506.44595997 717.15003967 507.98880005 C717.86889231 509.68976931 718.65879402 511.36044536 719.46362305 513.02246094 C720.28762367 517.59665832 718.47302006 520.68262373 716.50390625 524.7734375 C716.11814926 525.61484283 715.73239227 526.45624817 715.33494568 527.32315063 C714.09561966 530.01594995 712.82994641 532.6953389 711.5625 535.375 C710.74361607 537.13847585 709.92654055 538.90279265 709.11132812 540.66796875 C707.90680739 543.27430476 706.70024836 545.87951909 705.48452759 548.48065186 C702.57925396 554.69971948 699.78806057 560.96101317 697.09022522 567.27279663 C695.10091122 571.89908878 695.10091122 571.89908878 694 573 C689.05 573 684.1 573 679 573 C679 608.31 679 643.62 679 680 C672.73 683.3 666.46 686.6 660 690 C655.11631997 692.58574219 650.2329305 695.17197983 645.35095215 697.76092529 C634.83648802 703.33644426 624.31395986 708.8936304 613.75 714.375 C606.61578285 718.07790263 599.54109235 721.87313892 592.5 725.75 C582.91357498 731.02691512 573.20622734 736.04769933 563.47039795 741.04092407 C555.29530607 745.23597537 547.16739896 749.49139582 539.125 753.9375 C529.29659952 759.36937935 519.32153886 764.49519106 509.32727051 769.61248779 C499.91618313 774.43385698 490.57918921 779.35620245 481.32421875 784.47265625 C473.45909988 788.79905945 465.48657922 792.90402614 457.5 797 C448.60597774 801.56144497 439.75049623 806.16664548 431 811 C421.58748514 816.19902187 412.0488311 821.12978189 402.48129272 826.03497314 C394.02803456 830.37113034 385.63206173 834.78554567 377.3125 839.375 C370.24280664 843.2537315 363.16035516 847.10322711 356 850.8125 C355.18055908 851.25190918 354.36111816 851.69131836 353.5168457 852.14404297 C352.74816162 852.5360791 351.97947754 852.92811523 351.1875 853.33203125 C350.52105469 853.67983643 349.85460937 854.0276416 349.16796875 854.38598633 C343.67810866 855.94082846 338.87997767 853.19252457 334.11328125 850.6796875 C332.68863785 849.94826171 331.26364831 849.21750988 329.83837891 848.48730469 C329.06512268 848.08829956 328.29186646 847.68929443 327.49517822 847.27819824 C322.88620434 844.91717158 318.24282853 842.62492488 313.60546875 840.3203125 C311.55645773 839.29854376 309.50763229 838.27640281 307.45898438 837.25390625 C304.32729062 835.69111266 301.19531941 834.12889352 298.06225586 832.56884766 C286.91099623 827.01553261 275.79759595 821.41126972 264.7922821 815.57351685 C257.34689763 811.63224301 249.81786615 807.86792183 242.27069092 804.12619019 C231.5563717 798.81222999 220.86202874 793.47894612 210.31640625 787.8359375 C202.28925446 783.56925322 194.13758137 779.55050301 186 775.5 C167.90502571 766.4931779 167.90502571 766.4931779 159.625 762.0625 C150.51119983 757.18687533 141.25174097 752.60628416 132 748 C122.04960654 743.04586867 112.11771414 738.08066013 102.31640625 732.8359375 C93.54023908 728.17112792 84.61752574 723.79387809 75.72064209 719.365448 C66.90544155 714.97590825 58.12350931 710.54788759 49.44213867 705.89770508 C44.19784296 703.10908563 38.89978265 700.437872 33.58203125 697.79296875 C32.82489838 697.41616974 32.0677655 697.03937073 31.28768921 696.65115356 C27.4696436 694.75260706 23.64878794 692.85997816 19.82421875 690.97460938 C18.39969077 690.26832761 16.97520966 689.5619513 15.55078125 688.85546875 C14.90873245 688.54119431 14.26668365 688.22691986 13.60517883 687.90312195 C12.39731262 687.30244321 11.19719004 686.68579368 10.00756836 686.04974651 C8.66660384 685.3485635 7.3018134 684.6912275 5.91788769 684.07918739 C2.75082074 682.48679744 0.43870989 681.31178368 -0.72336864 677.83705997 C-0.98797654 675.06482172 -0.98969614 672.39400992 -0.90820312 669.61010742 C-0.90937134 668.56574524 -0.91053955 667.52138306 -0.91174316 666.44537354 C-0.90617456 662.99738018 -0.84397494 659.55285676 -0.78125 656.10546875 C-0.76632726 653.7136677 -0.7549404 651.32184218 -0.74694824 648.93000793 C-0.7164178 642.63783123 -0.63784333 636.34713438 -0.54931641 630.05554199 C-0.46744664 623.63423686 -0.43093412 617.21269234 -0.390625 610.79101562 C-0.30485294 598.19336058 -0.16833209 585.59680339 0 573 C-5.28 573 -10.56 573 -16 573 C-20.30287538 563.89242507 -24.59617123 554.78058082 -28.86991882 545.65930176 C-31.00117425 541.11449945 -33.15421304 536.58110464 -35.32421875 532.0546875 C-36.23758481 530.12007749 -37.15039717 528.1852059 -38.0625 526.25 C-38.48515137 525.3842334 -38.90780273 524.5184668 -39.34326172 523.62646484 C-39.90231201 522.42691162 -39.90231201 522.42691162 -40.47265625 521.203125 C-40.79500244 520.52926758 -41.11734863 519.85541016 -41.44946289 519.16113281 C-42.82836954 513.7482363 -40.27262574 508.99342618 -37.97265625 504.1875 C-37.51536133 503.22287842 -37.51536133 503.22287842 -37.04882812 502.23876953 C-36.05998412 500.15596522 -35.06119982 498.07809361 -34.0625 496 C-33.03766535 493.84636597 -32.0155962 491.69143461 -30.99375916 489.53637695 C-30.31054466 488.09572244 -29.62651357 486.65545491 -28.94166565 485.21557617 C-25.91269141 478.84130745 -22.96935032 472.43097916 -20.0625 466 C-19.64427979 465.07574219 -19.22605957 464.15148437 -18.79516602 463.19921875 C-17.86173516 461.13358385 -16.93055694 459.06693117 -16 457 C-10.72 457 -5.44 457 0 457 C0 306.19 0 155.38 0 0 Z " fill="#F1F2F0" transform="translate(45,71)"/>
<path d="M0 0 C78.87 0 157.74 0 239 0 C239.33 33 239.66 66 240 100 C248.21711979 105.0566891 256.38030017 109.97270448 264.8125 114.625 C273.49337899 119.44895229 282.1168303 124.3578404 290.6875 129.375 C292.18446411 130.24741333 292.18446411 130.24741333 293.71166992 131.13745117 C297.96492327 133.61949449 302.20596897 136.11420517 306.40234375 138.69140625 C307.04405518 139.07828613 307.6857666 139.46516602 308.34692383 139.86376953 C309.97021583 140.84403017 311.58334053 141.8410774 313.1953125 142.83984375 C316.71345413 144.29511961 318.32294706 143.88386636 322 143 C324.91934202 141.6590273 324.91934202 141.6590273 327.83203125 139.89453125 C329.50567749 138.92422974 329.50567749 138.92422974 331.21313477 137.93432617 C332.41294055 137.22708026 333.61272853 136.51980412 334.8125 135.8125 C336.69694548 134.71549909 338.58330148 133.62183231 340.4697113 132.5282135 C341.75513463 131.78265388 343.03993107 131.03601246 344.32411194 130.28831482 C350.52805259 126.67878424 356.78969889 123.17582048 363.0625 119.6875 C371.55056081 114.96062792 379.98680289 110.15650823 388.34204102 105.19799805 C393.78514437 102 393.78514437 102 396 102 C396 68.34 396 34.68 396 0 C474.87 0 553.74 0 635 0 C635 10 635 10 633.68649006 12.54119492 C633.06616492 13.1510033 632.44583979 13.76081169 631.80671692 14.38909912 C630.74475098 15.46951729 630.74475098 15.46951729 629.66133118 16.57176208 C628.87437363 17.32119583 628.08741608 18.07062958 627.27661133 18.84277344 C626.45558929 19.66364944 625.63456726 20.48452545 624.78866577 21.33027649 C622.07599968 24.03090419 619.32978522 26.69449537 616.58203125 29.359375 C614.68599861 31.23420104 612.79208905 33.11094878 610.90080261 34.99053955 C606.42848644 39.42667444 601.93174892 43.83714519 597.42518872 48.23845983 C591.81445898 53.72031906 586.23367869 59.2323605 580.65429688 64.74609375 C578.69562141 66.68167197 576.73681542 68.61711779 574.77775574 70.55230713 C574.06519726 71.25622884 574.06519726 71.25622884 573.33824366 71.97437119 C570.07497782 75.1962704 566.80240474 78.40851551 563.52607727 81.61712646 C562.21867332 82.89987709 562.21867332 82.89987709 560.88485718 84.20854187 C559.26423114 85.79808108 557.64153732 87.38551616 556.01631165 88.97035217 C552.09444854 92.82118963 548.44435036 96.7171344 545 101 C542.8125 103.375 542.8125 103.375 541 105 C540.34 105 539.68 105 539 105 C538.75726506 105.56791323 538.51453012 106.13582645 538.26443958 106.72094917 C536.75725445 109.43752936 534.97135947 111.27136965 532.76896667 113.46481323 C531.88154282 114.35354126 530.99411896 115.24226929 530.07980347 116.15792847 C529.0938993 117.13515985 528.10790379 118.1122991 527.12182617 119.08935547 C526.08488528 120.12409454 525.04839224 121.15928258 524.01231384 122.19488525 C521.78131078 124.42295606 519.54718856 126.64783433 517.31059837 128.87029648 C513.77128744 132.38732327 510.23909439 135.91144077 506.70783997 139.43655396 C501.11838018 145.01463172 495.52426988 150.5880187 489.92811614 156.15938008 C479.91551311 166.1276932 469.90841249 176.1015223 459.90659505 186.08065712 C456.39819588 189.58066914 452.88700774 193.07785175 449.37352216 196.57275748 C447.18331039 198.75228757 444.99516011 200.9338788 442.80750465 203.11597443 C441.79620284 204.12382056 440.78403108 205.13079466 439.77090454 206.13680649 C434.94518674 210.92939407 430.25733685 215.69384204 426 221 C424.2265625 222.6171875 424.2265625 222.6171875 422.625 223.875 C420.19298128 225.88743283 418.09717941 227.94964382 416.06640625 230.36328125 C411.23945669 235.93893183 406.17183329 241.26976018 401.02270508 246.54711914 C399.88239452 247.72421916 398.75114551 248.91016546 397.62915039 250.10473633 C391.16343164 256.97968972 386.19609242 262.16108177 376.45605469 263.60668945 C372.08403839 264.30682049 369.99946621 266.73144673 367.375 270.0625 C366.05108522 272.8908634 365.4384154 275.343484 364.75 278.375 C363.30820538 284.10342055 360.69755487 287.47081134 356 291 C355.67 291 355.34 291 355 291 C354.67 276.48 354.34 261.96 354 247 C349.71 247 345.42 247 341 247 C337.91968579 250.37881889 336.3326746 252.55660389 334.375 256.5 C333.41219645 258.28588628 332.44125844 260.06741914 331.4609375 261.84375 C330.85451416 263.03774414 330.85451416 263.03774414 330.23583984 264.25585938 C329.8280127 264.83142578 329.42018555 265.40699219 329 266 C328.01 266 327.02 266 326 266 C324.16591461 263.63679436 322.54244377 261.3238749 320.9375 258.8125 C320.26750977 257.80219727 320.26750977 257.80219727 319.58398438 256.77148438 C317.23255942 253.16877798 315.62881058 250.07202644 314 246 C309.71 246 305.42 246 301 246 C301 266.79 301 287.58 301 309 C304.96 309 308.92 309 313 309 C313 295.47 313 281.94 313 268 C313.66 268 314.32 268 315 268 C316.47309111 270.10019014 317.81309635 272.17767729 319.125 274.375 C319.49753906 274.97828125 319.87007813 275.5815625 320.25390625 276.203125 C323 280.72965316 323 280.72965316 323 283 C326.38093381 283.24149527 327.95706009 283.34095657 331 282 C333.45147919 279.04455819 335.38098856 275.98988387 337.3359375 272.6875 C339 270 339 270 341 269 C346.11795669 299.21753387 346.11795669 299.21753387 338.03808594 310.69824219 C330.94081841 319.53289812 322.19270975 326.95167858 313.41333008 334.06030273 C310.15071942 336.75245141 307.62525611 339.6891995 305 343 C303.82497767 344.07910214 302.62131341 345.12908746 301.375 346.125 C299.34978297 347.7470064 298.01957968 348.96904969 296.62109375 351.1796875 C295 353 295 353 292.51171875 353.25 C291.57972656 353.1675 290.64773438 353.085 289.6875 353 C284.33968009 352.77303682 282.01715288 353.52570562 278 357 C278 355.68 278 354.36 278 353 C273.71 353 269.42 353 265 353 C265.0928125 355.0728125 265.185625 357.145625 265.28125 359.28125 C265.33692529 361.31339812 265.39229852 363.345566 265.43945312 365.37792969 C265.47942324 366.77881763 265.53382527 368.17937735 265.60351562 369.57910156 C266.16695186 381.19583101 266.16695186 381.19583101 263.21875 385.75390625 C261.24263603 387.75472165 259.3466858 389.45474372 257 391 C256.67 391 256.34 391 256 391 C255.67 378.46 255.34 365.92 255 353 C251.04 352.67 247.08 352.34 243 352 C243 367.51 243 383.02 243 399 C244.65 399 246.3 399 248 399 C237.10801698 411.70731352 224.83450698 423.16549302 213 435 C142.71 435 72.42 435 0 435 C0 291.45 0 147.9 0 0 Z " fill="#FEFEFE" transform="translate(66,93)"/>
<path d="M0 0 C64.62431271 -0.01713049 129.2486257 -0.0330312 193.87294006 -0.04234314 C194.82860406 -0.0424812 195.78426806 -0.04261925 196.76889157 -0.04276149 C217.53543233 -0.04575404 238.30197311 -0.04852427 259.06851393 -0.05106533 C269.25164926 -0.05231272 279.43478459 -0.05360927 289.61791992 -0.05493164 C290.63129251 -0.0550624 291.6446651 -0.05519316 292.68874594 -0.05532788 C325.56598388 -0.0595932 358.4432201 -0.06710747 391.320457 -0.07629722 C425.09135824 -0.08571968 458.86225854 -0.09188309 492.63316107 -0.09391499 C497.39734809 -0.09420317 502.16153511 -0.0945288 506.92572212 -0.09487724 C507.86343073 -0.09494467 508.80113933 -0.09501209 509.76726334 -0.09508156 C524.8935926 -0.09626568 540.01991893 -0.10091019 555.14624699 -0.10683203 C570.33403762 -0.11270469 585.52182534 -0.11497165 600.70961707 -0.11350138 C609.74541044 -0.11273778 618.78119319 -0.11479534 627.81698466 -0.12079754 C633.84126641 -0.12452776 639.86554114 -0.12467763 645.88982336 -0.12183181 C649.32980485 -0.1203118 652.76976614 -0.12042831 656.20974552 -0.12488318 C659.90264022 -0.12884233 663.59548119 -0.12676642 667.2883749 -0.12304783 C668.3734941 -0.12567484 669.45861329 -0.12830186 670.57661489 -0.13100848 C672.03777112 -0.12763754 672.03777112 -0.12763754 673.52844566 -0.1241985 C674.37432859 -0.12435448 675.22021151 -0.12451046 676.09172725 -0.12467116 C678 0 678 0 679 1 C679.09543095 2.39143689 679.12188575 3.78768367 679.12025452 5.18238831 C679.12162918 6.08407745 679.12300385 6.9857666 679.12442017 7.91477966 C679.12082489 8.91171341 679.11722961 9.90864716 679.11352539 10.93579102 C679.11367142 11.97956909 679.11381744 13.02334717 679.1139679 14.09875488 C679.11326826 17.56715943 679.10547353 21.03551103 679.09765625 24.50390625 C679.09579225 26.90144318 679.09436826 29.2989805 679.09336853 31.69651794 C679.08954194 38.02095584 679.07971046 44.34537094 679.06866455 50.6697998 C679.05845345 57.11775402 679.05387156 63.56571191 679.04882812 70.01367188 C679.03808832 82.675791 679.02120119 95.33789429 679 108 C678.20329706 108.41910739 678.20329706 108.41910739 677.39049911 108.84668159 C674.93702995 110.13741867 672.48365128 111.42832764 670.03027344 112.71923828 C669.19515228 113.15855179 668.36003113 113.5978653 667.49960327 114.05049133 C662.16735268 116.85638559 656.83915887 119.66979127 651.515625 122.4921875 C650.80065353 122.87124615 650.08568207 123.25030479 649.3490448 123.64085007 C648.01632679 124.34750322 646.68363041 125.05419718 645.35095215 125.76092529 C634.83648802 131.33644426 624.31395986 136.8936304 613.75 142.375 C606.61578285 146.07790263 599.54109235 149.87313892 592.5 153.75 C582.91357498 159.02691512 573.20622734 164.04769933 563.47039795 169.04092407 C555.29530607 173.23597537 547.16739896 177.49139582 539.125 181.9375 C529.29659952 187.36937935 519.32153886 192.49519106 509.32727051 197.61248779 C499.91618313 202.43385698 490.57918921 207.35620245 481.32421875 212.47265625 C473.45909988 216.79905945 465.48657922 220.90402614 457.5 225 C448.60597774 229.56144497 439.75049623 234.16664548 431 239 C421.58748514 244.19902187 412.0488311 249.12978189 402.48129272 254.03497314 C394.02803456 258.37113034 385.63206173 262.78554567 377.3125 267.375 C370.24280664 271.2537315 363.16035516 275.10322711 356 278.8125 C355.18055908 279.25190918 354.36111816 279.69131836 353.5168457 280.14404297 C352.74816162 280.5360791 351.97947754 280.92811523 351.1875 281.33203125 C350.52105469 281.67983643 349.85460937 282.0276416 349.16796875 282.38598633 C343.67810866 283.94082846 338.87997767 281.19252457 334.11328125 278.6796875 C332.68863785 277.94826171 331.26364831 277.21750988 329.83837891 276.48730469 C329.06512268 276.08829956 328.29186646 275.68929443 327.49517822 275.27819824 C322.88620434 272.91717158 318.24282853 270.62492488 313.60546875 268.3203125 C311.55645773 267.29854376 309.50763229 266.27640281 307.45898438 265.25390625 C304.32729062 263.69111266 301.19531941 262.12889352 298.06225586 260.56884766 C286.91099623 255.01553261 275.79759595 249.41126972 264.7922821 243.57351685 C257.34689763 239.63224301 249.81786615 235.86792183 242.27069092 232.12619019 C231.5563717 226.81222999 220.86202874 221.47894612 210.31640625 215.8359375 C202.28925446 211.56925322 194.13758137 207.55050301 186 203.5 C167.90502571 194.4931779 167.90502571 194.4931779 159.625 190.0625 C150.51119983 185.18687533 141.25174097 180.60628416 132 176 C122.04960654 171.04586867 112.11771414 166.08066013 102.31640625 160.8359375 C93.54023908 156.17112792 84.61752574 151.79387809 75.72064209 147.365448 C66.90544155 142.97590825 58.12350931 138.54788759 49.44213867 133.89770508 C44.19784296 131.10908563 38.89978265 128.437872 33.58203125 125.79296875 C32.82489838 125.41616974 32.0677655 125.03937073 31.28768921 124.65115356 C27.4696436 122.75260706 23.64878794 120.85997816 19.82421875 118.97460938 C18.39969077 118.26832761 16.97520966 117.5619513 15.55078125 116.85546875 C14.90873245 116.54119431 14.26668365 116.22691986 13.60517883 115.90312195 C12.3972636 115.30241883 11.19713519 114.68565374 10.00756836 114.04938793 C8.66696496 113.3486332 7.30213172 112.69244996 5.91788769 112.08241463 C2.73735526 110.48706657 0.43528517 109.31115694 -0.72336864 105.82108402 C-0.98803639 103.02383544 -0.98965043 100.32713052 -0.90820312 97.51831055 C-0.90937134 96.46419479 -0.91053955 95.41007904 -0.91174316 94.32402039 C-0.90617425 90.84357434 -0.84397266 87.36656517 -0.78125 83.88671875 C-0.76632738 81.47249727 -0.75494047 79.05825156 -0.74694824 76.64399719 C-0.71641687 70.29264321 -0.63784146 63.94275513 -0.54931641 57.59197998 C-0.46744873 51.11034985 -0.43093456 44.62848261 -0.390625 38.14648438 C-0.3048514 25.4303645 -0.16986902 12.71526025 0 0 Z " fill="#F1F1F1" transform="translate(45,643)"/>
<path d="M0 0 C234.3 0 468.6 0 710 0 C713.64216891 7.28433781 717.20031124 14.48335557 720.453125 21.9296875 C720.83942078 22.80851593 721.22571655 23.68734436 721.62371826 24.59280396 C722.42837381 26.42547191 723.2315296 28.25879908 724.03320312 30.09277344 C725.25738892 32.89189489 726.48774933 35.68824491 727.71875 38.484375 C728.5055748 40.27848516 729.29204589 42.0727505 730.078125 43.8671875 C730.62499969 45.10950638 730.62499969 45.10950638 731.18292236 46.37692261 C731.8509612 47.90889596 732.50749574 49.44595997 733.15003967 50.98880005 C733.86889231 52.68976931 734.65879402 54.36044536 735.46362305 56.02246094 C736.28762367 60.59665832 734.47302006 63.68262373 732.50390625 67.7734375 C732.11814926 68.61484283 731.73239227 69.45624817 731.33494568 70.32315063 C730.09561966 73.01594995 728.82994641 75.6953389 727.5625 78.375 C726.74361607 80.13847585 725.92654055 81.90279265 725.11132812 83.66796875 C723.90680739 86.27430476 722.70024836 88.87951909 721.48452759 91.48065186 C718.57925396 97.69971948 715.78806057 103.96101317 713.09022522 110.27279663 C711.10091122 114.89908878 711.10091122 114.89908878 710 116 C708.44358117 116.09738769 706.88272341 116.1244731 705.32326072 116.1241985 C704.30328722 116.12644579 703.28331371 116.12869308 702.23243192 116.13100848 C700.52774454 116.12706796 700.52774454 116.12706796 698.78861904 116.12304783 C697.58871988 116.12420167 696.38882072 116.12535552 695.15256098 116.12654433 C691.79198574 116.12875046 688.43146668 116.12642184 685.07089674 116.12226619 C681.4262589 116.11884888 677.78162427 116.12119955 674.13698584 116.12284368 C667.73940445 116.12492338 661.34183233 116.12326354 654.94425201 116.11920547 C645.43117885 116.11318791 635.91811157 116.11286804 626.40503685 116.11374746 C610.4050777 116.1150636 594.40512267 116.11171149 578.40516472 116.10573006 C562.55540891 116.09981991 546.70565481 116.0959655 530.8558979 116.09487724 C529.87166043 116.0948085 528.88742296 116.09473976 527.8733601 116.09466894 C522.87523717 116.09433062 517.87711424 116.09402923 512.87899131 116.09374207 C477.4459377 116.09163975 442.01288633 116.0848971 406.57983398 116.07543945 C372.14982109 116.06626012 337.7198088 116.05917401 303.28979492 116.05493164 C302.22914675 116.05480011 301.16849858 116.05466859 300.07570955 116.05453308 C289.42457523 116.0532146 278.77344091 116.05193878 268.12230658 116.05069422 C246.42329896 116.04815777 224.72429138 116.04533652 203.02528381 116.04234314 C202.02752397 116.04220585 201.02976412 116.04206856 200.00176913 116.04192711 C133.33451182 116.03272116 66.66725576 116.01687535 0 116 C-0.4529393 115.03680847 -0.9058786 114.07361694 -1.37254333 113.08123779 C-3.08239436 109.44536732 -4.79260503 105.80966611 -6.50291443 102.17401123 C-7.23760857 100.61212574 -7.9722102 99.05019673 -8.70671082 97.48822021 C-14.25220184 85.69550489 -19.8259766 73.9169037 -25.44946289 62.16113281 C-26.82836954 56.7482363 -24.27262574 51.99342618 -21.97265625 47.1875 C-21.66484726 46.53789307 -21.35703827 45.88828613 -21.03990173 45.21899414 C-20.05445061 43.14256809 -19.05900568 41.07114012 -18.0625 39 C-11.8850216 26.06664537 -5.93293899 13.05246578 0 0 Z " fill="#FED100" transform="translate(29,528)"/>
<path d="M0 0 C64.62431271 -0.01713049 129.2486257 -0.0330312 193.87294006 -0.04234314 C194.82860406 -0.0424812 195.78426806 -0.04261925 196.76889157 -0.04276149 C217.53543233 -0.04575404 238.30197311 -0.04852427 259.06851393 -0.05106533 C269.25164926 -0.05231272 279.43478459 -0.05360927 289.61791992 -0.05493164 C290.63129251 -0.0550624 291.6446651 -0.05519316 292.68874594 -0.05532788 C325.56598388 -0.0595932 358.4432201 -0.06710747 391.320457 -0.07629722 C425.09135824 -0.08571968 458.86225854 -0.09188309 492.63316107 -0.09391499 C497.39734809 -0.09420317 502.16153511 -0.0945288 506.92572212 -0.09487724 C507.86343073 -0.09494467 508.80113933 -0.09501209 509.76726334 -0.09508156 C524.8935926 -0.09626568 540.01991893 -0.10091019 555.14624699 -0.10683203 C570.33403762 -0.11270469 585.52182534 -0.11497165 600.70961707 -0.11350138 C609.74541044 -0.11273778 618.78119319 -0.11479534 627.81698466 -0.12079754 C633.84126641 -0.12452776 639.86554114 -0.12467763 645.88982336 -0.12183181 C649.32980485 -0.1203118 652.76976614 -0.12042831 656.20974552 -0.12488318 C659.90264022 -0.12884233 663.59548119 -0.12676642 667.2883749 -0.12304783 C668.3734941 -0.12567484 669.45861329 -0.12830186 670.57661489 -0.13100848 C672.03777112 -0.12763754 672.03777112 -0.12763754 673.52844566 -0.1241985 C674.37432859 -0.12435448 675.22021151 -0.12451046 676.09172725 -0.12467116 C678 0 678 0 679 1 C679.09543095 2.39143689 679.12188575 3.78768367 679.12025452 5.18238831 C679.12162918 6.08407745 679.12300385 6.9857666 679.12442017 7.91477966 C679.12082489 8.91171341 679.11722961 9.90864716 679.11352539 10.93579102 C679.11367142 11.97956909 679.11381744 13.02334717 679.1139679 14.09875488 C679.11326826 17.56715943 679.10547353 21.03551103 679.09765625 24.50390625 C679.09579225 26.90144318 679.09436826 29.2989805 679.09336853 31.69651794 C679.08954194 38.02095584 679.07971046 44.34537094 679.06866455 50.6697998 C679.05845345 57.11775402 679.05387156 63.56571191 679.04882812 70.01367188 C679.03808832 82.675791 679.02120119 95.33789429 679 108 C678.20329706 108.41910739 678.20329706 108.41910739 677.39049911 108.84668159 C674.93702995 110.13741867 672.48365128 111.42832764 670.03027344 112.71923828 C669.19515228 113.15855179 668.36003113 113.5978653 667.49960327 114.05049133 C662.16735268 116.85638559 656.83915887 119.66979127 651.515625 122.4921875 C650.80065353 122.87124615 650.08568207 123.25030479 649.3490448 123.64085007 C648.01632679 124.34750322 646.68363041 125.05419718 645.35095215 125.76092529 C634.83648802 131.33644426 624.31395986 136.8936304 613.75 142.375 C606.61578285 146.07790263 599.54109235 149.87313892 592.5 153.75 C582.91357498 159.02691512 573.20622734 164.04769933 563.47039795 169.04092407 C555.29530607 173.23597537 547.16739896 177.49139582 539.125 181.9375 C529.29659952 187.36937935 519.32153886 192.49519106 509.32727051 197.61248779 C499.91618313 202.43385698 490.57918921 207.35620245 481.32421875 212.47265625 C473.45909988 216.79905945 465.48657922 220.90402614 457.5 225 C448.60597774 229.56144497 439.75049623 234.16664548 431 239 C421.58748514 244.19902187 412.0488311 249.12978189 402.48129272 254.03497314 C394.02803456 258.37113034 385.63206173 262.78554567 377.3125 267.375 C370.24280664 271.2537315 363.16035516 275.10322711 356 278.8125 C355.18055908 279.25190918 354.36111816 279.69131836 353.5168457 280.14404297 C352.74816162 280.5360791 351.97947754 280.92811523 351.1875 281.33203125 C350.52105469 281.67983643 349.85460937 282.0276416 349.16796875 282.38598633 C343.67810866 283.94082846 338.87997767 281.19252457 334.11328125 278.6796875 C332.68863785 277.94826171 331.26364831 277.21750988 329.83837891 276.48730469 C329.06512268 276.08829956 328.29186646 275.68929443 327.49517822 275.27819824 C322.88620434 272.91717158 318.24282853 270.62492488 313.60546875 268.3203125 C311.55645773 267.29854376 309.50763229 266.27640281 307.45898438 265.25390625 C304.32729062 263.69111266 301.19531941 262.12889352 298.06225586 260.56884766 C286.91099623 255.01553261 275.79759595 249.41126972 264.7922821 243.57351685 C257.34689763 239.63224301 249.81786615 235.86792183 242.27069092 232.12619019 C231.5563717 226.81222999 220.86202874 221.47894612 210.31640625 215.8359375 C202.28925446 211.56925322 194.13758137 207.55050301 186 203.5 C167.90502571 194.4931779 167.90502571 194.4931779 159.625 190.0625 C150.51119983 185.18687533 141.25174097 180.60628416 132 176 C122.04960654 171.04586867 112.11771414 166.08066013 102.31640625 160.8359375 C93.54023908 156.17112792 84.61752574 151.79387809 75.72064209 147.365448 C66.90544155 142.97590825 58.12350931 138.54788759 49.44213867 133.89770508 C44.19784296 131.10908563 38.89978265 128.437872 33.58203125 125.79296875 C32.82489838 125.41616974 32.0677655 125.03937073 31.28768921 124.65115356 C27.4696436 122.75260706 23.64878794 120.85997816 19.82421875 118.97460938 C18.39969077 118.26832761 16.97520966 117.5619513 15.55078125 116.85546875 C14.90873245 116.54119431 14.26668365 116.22691986 13.60517883 115.90312195 C12.3972636 115.30241883 11.19713519 114.68565374 10.00756836 114.04938793 C8.66696496 113.3486332 7.30213172 112.69244996 5.91788769 112.08241463 C2.73735526 110.48706657 0.43528517 109.31115694 -0.72336864 105.82108402 C-0.98803639 103.02383544 -0.98965043 100.32713052 -0.90820312 97.51831055 C-0.90937134 96.46419479 -0.91053955 95.41007904 -0.91174316 94.32402039 C-0.90617425 90.84357434 -0.84397266 87.36656517 -0.78125 83.88671875 C-0.76632738 81.47249727 -0.75494047 79.05825156 -0.74694824 76.64399719 C-0.71641687 70.29264321 -0.63784146 63.94275513 -0.54931641 57.59197998 C-0.46744873 51.11034985 -0.43093456 44.62848261 -0.390625 38.14648438 C-0.3048514 25.4303645 -0.16986902 12.71526025 0 0 Z M88 31 C88 31.66 88 32.32 88 33 C86.02 33.99 86.02 33.99 84 35 C84 35.66 84 36.32 84 37 C82.68 37.66 81.36 38.32 80 39 C80 39.66 80 40.32 80 41 C79.34 41 78.68 41 78 41 C76.54637611 42.4308764 76.54637611 42.4308764 75.02416992 44.34033203 C70.48350667 49.67553271 65.56247748 54.60166942 60.61328125 59.5546875 C59.62388682 60.54730319 58.63456422 61.53999048 57.64530945 62.53274536 C55.58715836 64.59683805 53.5269984 66.65890104 51.46557617 68.71972656 C48.82772845 71.35747195 46.19687155 74.00207572 43.56765461 76.64842033 C41.5335977 78.69359235 39.4950155 80.73420673 37.45512962 82.77356339 C36.48271057 83.74715964 35.51190601 84.7223713 34.54277992 85.69924545 C33.19124203 87.06059001 31.83270561 88.41497562 30.47387695 89.76904297 C29.31974052 90.92531693 29.31974052 90.92531693 28.14228821 92.10494995 C26.15331332 93.86438033 24.4277383 94.96199853 22 96 C24.33036829 97.33872221 26.66417775 98.67084741 29 100 C29.6290625 100.36222656 30.258125 100.72445312 30.90625 101.09765625 C37.76583782 104.98915319 44.83211594 108.45923895 51.89691162 111.95812988 C55.23194589 113.61030607 58.56312888 115.27020356 61.89453125 116.9296875 C62.53970703 117.25095108 63.18488281 117.57221466 63.84960938 117.9032135 C86.08891376 128.97987201 86.08891376 128.97987201 95.125 133.8125 C104.64991909 138.90636348 114.33209172 143.68538352 124 148.5 C134.2701971 153.61457965 144.53055748 158.72563235 154.64453125 164.14453125 C163.01209562 168.59503908 171.51658402 172.77621382 180 177 C199.25192308 186.58529051 199.25192308 186.58529051 207.375 190.9375 C216.81438351 195.99366304 226.41556288 200.72691797 236 205.5 C246.22333361 210.59126628 256.4372492 215.67786263 266.50390625 221.07421875 C276.08268338 226.16783345 285.83310878 230.93099995 295.54364014 235.76669312 C304.78055907 240.36815198 314.00945957 244.97333827 323.125 249.8125 C323.84389404 250.19253174 324.56278809 250.57256348 325.3034668 250.96411133 C328.40600351 252.60816827 331.49593896 254.2719396 334.57421875 255.9609375 C335.64285156 256.53070312 336.71148437 257.10046875 337.8125 257.6875 C338.68519531 258.16574219 339.55789063 258.64398437 340.45703125 259.13671875 C344.78841849 260.60712824 348.14850842 259.38790387 352.22192383 257.53222656 C353.37200928 256.90799805 354.52209473 256.28376953 355.70703125 255.640625 C356.34091263 255.30002548 356.97479401 254.95942596 357.62788391 254.60850525 C359.69365116 253.49664495 361.75292761 252.37328687 363.8125 251.25 C365.98155846 250.07928709 368.15224286 248.91162753 370.32299805 247.74406433 C371.78430756 246.95779546 373.24508139 246.1705302 374.70532227 245.38227844 C381.14133458 241.91055605 387.6248658 238.53774838 394.125 235.1875 C401.67953252 231.28217557 409.17660757 227.29147754 416.625 223.1875 C426.16843269 217.92989776 435.83415329 212.93166188 445.52813721 207.95980835 C453.74494708 203.74321893 461.91486942 199.46583844 470 195 C479.41623595 189.79892278 488.95917949 184.86745955 498.52978516 179.95898438 C506.74604307 175.7426684 514.91540885 171.46554048 523 167 C532.41623595 161.79892278 541.95917949 156.86745955 551.52978516 151.95898438 C559.74604307 147.7426684 567.91540885 143.46554048 576 139 C584.75050582 134.16664018 593.60607225 129.56164471 602.5 125 C612.4917585 119.87462877 622.43076392 114.67786392 632.25976562 109.24414062 C640.45281225 104.71658296 648.71926674 100.38391761 657 96 C657 64.65 657 33.3 657 1 C606.03740096 0.49221707 555.07492288 0.00830415 504.11050415 -0.27029419 C503.35479733 -0.2744359 502.5990905 -0.27857761 501.82048347 -0.28284483 C485.39225977 -0.37265682 468.96400853 -0.45575872 452.5357162 -0.53195988 C444.47790627 -0.56937611 436.42010379 -0.60827326 428.36230469 -0.64794922 C427.56050725 -0.65187199 426.75870981 -0.65579476 425.93261548 -0.65983641 C399.99877667 -0.78740988 374.06691407 -1.01254082 348.13426983 -1.28891662 C321.45854131 -1.57269174 294.78390386 -1.75674472 268.10669159 -1.8174497 C264.32859796 -1.82609284 260.55050801 -1.8358619 256.77241898 -1.84631729 C255.65717585 -1.84935133 255.65717585 -1.84935133 254.51940256 -1.85244666 C242.60699291 -1.88773859 230.69798237 -2.02642494 218.78695277 -2.20496102 C206.77712271 -2.38272862 194.77062026 -2.448764 182.75952385 -2.40504132 C176.2636816 -2.38438989 169.77575843 -2.41386426 163.28151131 -2.57616425 C129.15728463 -3.38846616 107.5585691 1.1014086 88 31 Z " fill="#DCDED9" transform="translate(45,643)"/>
<path d="M0 0 C51.81 0 103.62 0 157 0 C157 40.92 157 81.84 157 124 C148.09 128.95 139.18 133.9 130 139 C116.75074021 146.51780251 116.75074021 146.51780251 103.59877014 154.20256042 C101.05480432 155.71112401 98.50318069 157.20644968 95.95065308 158.70046997 C94.70216581 159.43576805 93.45722193 160.17711944 92.21609497 160.92477417 C90.47734791 161.97156816 88.72519939 162.99600229 86.97265625 164.01953125 C85.96468994 164.61870361 84.95672363 165.21787598 83.91821289 165.83520508 C80.34337462 167.26208982 78.6689797 167.07905887 75 166 C72.12939453 164.63989258 72.12939453 164.63989258 69.1328125 162.89453125 C68.01205322 162.24774414 66.89129395 161.60095703 65.73657227 160.93457031 C64.53260769 160.22739594 63.32875294 159.52003456 62.125 158.8125 C60.87148182 158.08480272 59.61748732 157.35792535 58.36303711 156.63183594 C55.1754898 154.78389159 51.9943103 152.92529841 48.81524658 151.06280518 C46.06555699 149.45289479 43.31194078 147.84973875 40.55859375 146.24609375 C37.58368077 144.51256126 34.60965158 142.77761927 31.63867188 141.03735352 C23.93970365 136.52961022 16.19715898 132.10128677 8.42016602 127.72949219 C7.19511353 127.03581543 7.19511353 127.03581543 5.9453125 126.328125 C4.87047607 125.72339355 4.87047607 125.72339355 3.77392578 125.10644531 C2 124 2 124 0 122 C-0.24609566 119.84858513 -0.24609566 119.84858513 -0.24050903 117.12789917 C-0.24326403 116.1007675 -0.24601902 115.07363583 -0.2488575 114.01537895 C-0.24166128 112.87963495 -0.23446507 111.74389095 -0.22705078 110.57373047 C-0.22729185 109.36420275 -0.22753292 108.15467503 -0.2277813 106.90849495 C-0.22628384 102.97798532 -0.21103113 99.04766338 -0.1953125 95.1171875 C-0.19237341 92.69669689 -0.19033214 90.27620502 -0.18920898 87.85571289 C-0.1787061 78.86212259 -0.15078389 69.86855947 -0.125 60.875 C-0.08375 40.78625 -0.0425 20.6975 0 0 Z " fill="#FE4B2E" transform="translate(305,71)"/>
<path d="M0 0 C86.46 0 172.92 0 262 0 C262 150.81 262 301.62 262 457 C254.74 457 247.48 457 240 457 C239.67 313.45 239.34 169.9 239 22 C160.13 22 81.26 22 0 22 C0 14.74 0 7.48 0 0 Z " fill="#DCDEDC" transform="translate(462,71)"/>
<path d="M0 0 C85.8 0 171.6 0 260 0 C260 7.26 260 14.52 260 22 C181.13 22 102.26 22 21 22 C21 165.55 21 309.1 21 457 C14.07 457 7.14 457 0 457 C0 306.19 0 155.38 0 0 Z " fill="#DCDEDC" transform="translate(45,71)"/>
<path d="M0 0 C32.01 0 64.02 0 97 0 C93.23256952 4.39533556 89.64376468 8.47137644 85.55859375 12.50390625 C85.06843277 12.99028061 84.57827179 13.47665497 84.07325745 13.97776794 C82.53046213 15.50851797 80.98443234 17.03593161 79.4375 18.5625 C77.39152858 20.58163063 75.34906996 22.60422408 73.30859375 24.62890625 C71.95979126 25.9603064 71.95979126 25.9603064 70.58374023 27.31860352 C67.89203843 30.11204213 65.45786781 33.00062546 63 36 C60.8125 38.375 60.8125 38.375 59 40 C58.34 40 57.68 40 57 40 C56.76771194 40.55564133 56.53542389 41.11128265 56.2960968 41.6837616 C54.65682946 44.61327578 52.61892377 46.66629895 50.26245117 49.05981445 C49.78251205 49.54968338 49.30257294 50.03955231 48.80809021 50.54426575 C47.22527632 52.15619336 45.63485812 53.7603185 44.04296875 55.36328125 C42.93678931 56.48096863 41.83061362 57.59865972 40.72444153 58.71635437 C38.40732526 61.05444971 36.08561078 63.38787811 33.76147461 65.71899414 C30.78182909 68.7096403 27.82120398 71.71840177 24.864604 74.73180866 C22.58840246 77.04520677 20.29894472 79.34512853 18.00560951 81.64153099 C16.90778813 82.74541283 15.81497975 83.85430347 14.7273159 84.96819496 C13.20721775 86.52232242 11.66940485 88.0564943 10.12573242 89.5871582 C9.25462326 90.46555862 8.3835141 91.34395905 7.48600769 92.24897766 C6.66562515 92.82681503 5.84524261 93.4046524 5 94 C3.35 93.67 1.7 93.34 0 93 C0 62.31 0 31.62 0 0 Z " fill="#FEFEFE" transform="translate(66,644)"/>
<path d="M0 0 C1.34364198 4.03092594 0.1650233 5.51017702 -1.60375977 9.20825195 C-6.80083352 19.33052669 -6.80083352 19.33052669 -10.546875 21.421875 C-13.05218748 21.81089868 -15.4687111 21.91398533 -18 22 C-24.60044503 24.0611498 -29.25286737 28.26560178 -33 34 C-36.58020237 41.52949777 -36.82639395 48.77165336 -34.08984375 56.60546875 C-30.94901429 63.64305612 -26.40826807 69.18804981 -19.16796875 72.1640625 C-9.55116805 74.70166466 -0.78034297 73.29529548 8 69 C8.99 68.67 9.98 68.34 11 68 C12.53641144 70.40794308 14.05396395 72.82468647 15.5625 75.25 C16.00013672 75.93191406 16.43777344 76.61382812 16.88867188 77.31640625 C17.29794922 77.98027344 17.70722656 78.64414063 18.12890625 79.328125 C18.51119385 79.9355957 18.89348145 80.54306641 19.28735352 81.16894531 C20.20386974 83.52381743 19.92923543 84.67950196 19 87 C16.9609375 88.4140625 16.9609375 88.4140625 14.375 89.625 C13.53710938 90.02976562 12.69921875 90.43453125 11.8359375 90.8515625 C5.11045075 93.57510672 -0.70811491 94.31485869 -7.875 94.25 C-8.72191406 94.25773437 -9.56882812 94.26546875 -10.44140625 94.2734375 C-24.06822156 94.23170147 -34.55499391 89.51261453 -44.5 80 C-53.517072 70.28054555 -57.4177638 59.31747384 -57.203125 46.1171875 C-56.33957669 32.86504232 -51.98525213 21.11868192 -42 12 C-40.68894061 10.97097082 -39.35604207 9.96898281 -38 9 C-37.38640625 8.54238281 -36.7728125 8.08476563 -36.140625 7.61328125 C-24.80288438 -0.18727169 -13.2426351 -0.5297054 0 0 Z " fill="#FFFDFD" transform="translate(392,103)"/>
<path d="M0 0 C7.6725 -0.12375 7.6725 -0.12375 15.5 -0.25 C17.09779297 -0.28641602 18.69558594 -0.32283203 20.34179688 -0.36035156 C27.83873344 -0.41889187 33.62788964 -0.37833365 40 4 C44.41134953 8.63757259 45.34344001 12.50069085 45.29296875 18.71875 C44.84862998 22.17866792 43.1279283 24.30879657 41 27 C40.30570621 28.3191582 39.62469505 29.64649406 39 31 C39.78375 31.7425 40.5675 32.485 41.375 33.25 C44.73306712 36.76797508 46.28711679 39.36369359 46.375 44.25 C46.24457837 49.19787063 44.93339503 53.00732344 42 57 C29.81926035 67.06235014 15.92422771 63 0 63 C0 42.21 0 21.42 0 0 Z " fill="#2A2B35" transform="translate(165,339)"/>
<path d="M0 0 C5.32125 -0.061875 10.6425 -0.12375 16.125 -0.1875 C18.62731201 -0.22846802 18.62731201 -0.22846802 21.18017578 -0.27026367 C22.51854735 -0.27903444 23.85692698 -0.28667698 25.1953125 -0.29296875 C25.877146 -0.30831665 26.55897949 -0.32366455 27.26147461 -0.33947754 C33.36165966 -0.34278208 37.18652465 1.43381674 41.75 5.375 C45.84836658 10.15642768 46.45432006 14.2642492 46.31640625 20.43359375 C45.63992352 25.92062031 43.33193524 29.73149025 39.375 33.5 C37 35 37 35 35 35 C38.159914 42.95075136 41.71526758 50.57362992 45.64453125 58.1640625 C47 61 47 61 47 63 C42.71 63 38.42 63 34 63 C33.11839007 61.2560386 32.23743988 59.51174089 31.35961914 57.76586914 C30.61790046 56.29303942 29.87226919 54.82217379 29.12280273 53.35327148 C27.16166809 49.47538736 25.48475009 45.67567396 24.0625 41.5625 C23.33852936 39.62512501 23.33852936 39.62512501 22 38 C19.80561062 37.35328362 19.80561062 37.35328362 17.37109375 37.27734375 C16.55439209 37.21667725 15.73769043 37.15601074 14.89624023 37.09350586 C14.27048096 37.06264893 13.64472168 37.03179199 13 37 C13.00523682 37.7520874 13.01047363 38.5041748 13.01586914 39.27905273 C13.03657227 42.66519342 13.04963877 46.05132084 13.0625 49.4375 C13.07087891 50.62150391 13.07925781 51.80550781 13.08789062 53.02539062 C13.09111328 54.15009766 13.09433594 55.27480469 13.09765625 56.43359375 C13.10289307 57.47572021 13.10812988 58.51784668 13.11352539 59.59155273 C13 62 13 62 12 63 C8.04 63 4.08 63 0 63 C0 42.21 0 21.42 0 0 Z " fill="#292A34" transform="translate(105,429)"/>
<path d="M0 0 C4.29 0 8.58 0 13 0 C16.11508655 3.35691145 17.70446867 5.50237825 19.6875 9.4375 C20.66776496 11.20858831 21.65070176 12.97820131 22.63671875 14.74609375 C23.04623779 15.53685303 23.45575684 16.3276123 23.87768555 17.14233398 C24.86917453 19.15721288 24.86917453 19.15721288 27 20 C27.32572998 19.39414062 27.65145996 18.78828125 27.98706055 18.1640625 C29.50424702 15.4117968 31.09353282 12.70846317 32.6875 10 C33.19861328 9.04609375 33.70972656 8.0921875 34.23632812 7.109375 C35.88671875 4.375 35.88671875 4.375 40 0 C44.29 0 48.58 0 53 0 C53 20.79 53 41.58 53 63 C49.04 63 45.08 63 41 63 C38.91795642 60.91795642 39.74178708 56.4661444 39.68359375 53.58984375 C39.66281265 52.74780899 39.64203156 51.90577423 39.62062073 51.03822327 C39.55503188 48.33806821 39.49619724 45.63781283 39.4375 42.9375 C39.39432363 41.11131759 39.35070964 39.28514546 39.30664062 37.45898438 C39.19934106 32.97276008 39.09810034 28.4864345 39 24 C38.43410156 24.85464844 37.86820312 25.70929688 37.28515625 26.58984375 C36.54433159 27.7057695 35.80344286 28.82165272 35.0625 29.9375 C34.68931641 30.50146484 34.31613281 31.06542969 33.93164062 31.64648438 C30.44615113 36.89041902 30.44615113 36.89041902 26.4375 37.875 C24.27734375 37.890625 24.27734375 37.890625 22 37 C18.84069366 33.1297161 14 27.15356294 14 22 C13.34 22 12.68 22 12 22 C12 35.53 12 49.06 12 63 C8.04 63 4.08 63 0 63 C0 42.21 0 21.42 0 0 Z " fill="#282833" transform="translate(367,339)"/>
<path d="M0 0 C3.91858821 1.49592287 7.27059977 3.78894091 10 7 C10.3403125 6.1028125 10.3403125 6.1028125 10.6875 5.1875 C12.48026241 2.19956265 13.75993937 1.35002526 17 0 C21.89030097 -0.68795759 26.44749363 -0.64913796 30.9375 1.5625 C34.86219823 4.68623941 36.62922625 8.08579344 37.25619507 13.01364136 C37.34473013 15.20204227 37.3380951 17.36891631 37.29296875 19.55859375 C37.28872391 20.34774673 37.28447906 21.13689972 37.28010559 21.94996643 C37.26344452 24.44617261 37.22581779 26.94154192 37.1875 29.4375 C37.17243683 31.13996222 37.15875129 32.84243721 37.14648438 34.54492188 C37.1135825 38.6969322 37.06188951 42.8483247 37 47 C35.02090602 47.02686553 33.04171029 47.04633375 31.0625 47.0625 C29.96035156 47.07410156 28.85820312 47.08570313 27.72265625 47.09765625 C25 47 25 47 24 46 C23.8648868 43.64986644 23.78956677 41.32485727 23.75390625 38.97265625 C23.72097115 37.52668658 23.68775945 36.08072319 23.65429688 34.63476562 C23.606831 32.3458281 23.56240436 30.05691667 23.52319336 27.76782227 C23.48355623 25.56499455 23.43199444 23.36269499 23.37890625 21.16015625 C23.3704921 20.47365494 23.36207794 19.78715363 23.35340881 19.07984924 C23.3455969 15.09579267 23.3455969 15.09579267 21 12 C17.5 11.66666667 17.5 11.66666667 14 12 C11.21079069 14.78920931 11.66688491 17.42410751 11.62109375 21.16015625 C11.60409927 21.86522812 11.5871048 22.57029999 11.56959534 23.29673767 C11.51639995 25.55190052 11.47613479 27.80704431 11.4375 30.0625 C11.39362094 32.32143253 11.34696543 34.58021974 11.29469299 36.838974 C11.26265469 38.24557113 11.23579006 39.65229699 11.21446228 41.05909729 C11.11173191 45.88826809 11.11173191 45.88826809 10 47 C7.98035801 47.07244053 5.95832876 47.08377188 3.9375 47.0625 C2.83277344 47.05347656 1.72804688 47.04445313 0.58984375 47.03515625 C-0.26480469 47.02355469 -1.11945313 47.01195312 -2 47 C-2.02505615 46.08186523 -2.0501123 45.16373047 -2.07592773 44.21777344 C-2.1712027 40.80342975 -2.27042778 37.38924797 -2.37231445 33.97509766 C-2.41556035 32.4989061 -2.45724256 31.02266785 -2.49731445 29.54638672 C-2.55526846 27.42140652 -2.61888946 25.29665907 -2.68359375 23.171875 C-2.72025146 21.8940918 -2.75690918 20.61630859 -2.79467773 19.29980469 C-2.95763259 16.68090127 -3.22946803 14.48983284 -4 12 C-5.8871875 11.938125 -5.8871875 11.938125 -7.8125 11.875 C-8.52019531 11.85179687 -9.22789062 11.82859375 -9.95703125 11.8046875 C-12.31359719 11.86745538 -12.31359719 11.86745538 -15 14 C-15.3259363 16.46400964 -15.46486148 18.69071634 -15.4765625 21.16015625 C-15.49993179 22.21776405 -15.49993179 22.21776405 -15.52377319 23.29673767 C-15.57136829 25.55198046 -15.59908198 27.80691258 -15.625 30.0625 C-15.66144611 32.32143959 -15.7020228 34.58020132 -15.74765015 36.838974 C-15.7749507 38.24557628 -15.79626974 39.6523092 -15.81118774 41.05909729 C-15.88935558 45.88935558 -15.88935558 45.88935558 -17 47 C-20.96 47 -24.92 47 -29 47 C-29 31.82 -29 16.64 -29 1 C-24.71 1 -20.42 1 -16 1 C-15.67 1.99 -15.34 2.98 -15 4 C-14.071875 3.01 -14.071875 3.01 -13.125 2 C-8.73472951 -0.80977312 -5.08484202 -0.80119976 0 0 Z " fill="#2B2B35" transform="translate(443,445)"/>
<path d="M0 0 C2.41534564 1.08453755 3.9518276 2.27522324 6 4 C6.33 3.01 6.66 2.02 7 1 C11.29 1 15.58 1 20 1 C20 21.46 20 41.92 20 63 C15.71 63 11.42 63 7 63 C6.505 53.595 6.505 53.595 6 44 C4.68 44.99 3.36 45.98 2 47 C-1.05859375 47.3984375 -1.05859375 47.3984375 -4.4375 47.375 C-5.54996094 47.38273437 -6.66242188 47.39046875 -7.80859375 47.3984375 C-11.38694461 46.95169113 -13.16757807 46.20996464 -16 44 C-17.765625 41.625 -17.765625 41.625 -19.25 39 C-20.00023437 37.700625 -20.00023437 37.700625 -20.765625 36.375 C-24.2905049 29.5929526 -24.0701524 20.58360457 -22.3515625 13.22265625 C-18.30282614 3.10081535 -10.58963678 -1.2467921 0 0 Z " fill="#2B2B36" transform="translate(230,445)"/>
<path d="M0 0 C4.99554235 2.54302065 7.24630864 6.11392591 9 11.375 C9.2518398 15.8584432 9.27087123 20.34416387 9.29516602 24.83374023 C9.30665314 26.31072596 9.32705328 27.78767125 9.35668945 29.2644043 C9.69307902 46.03690065 9.69307902 46.03690065 3.3515625 53.25 C-2.98335104 57.37772647 -9.65398583 57.42075698 -17 56.375 C-22.4249557 54.53000727 -26.04585819 50.90052251 -28.96801758 46.05517578 C-31.0064632 40.76110054 -30.69525041 35.08240226 -30.59692383 29.48413086 C-30.56250754 27.31297569 -30.57632335 25.14588001 -30.59570312 22.97460938 C-30.58742374 14.57049116 -30.21660232 8.97305534 -24.40234375 2.6328125 C-17.27187412 -2.88141735 -8.37990013 -3.35474407 0 0 Z " fill="#282833" transform="translate(369,754.625)"/>
<path d="M0 0 C7.1775 -0.185625 7.1775 -0.185625 14.5 -0.375 C16.74006836 -0.45693604 16.74006836 -0.45693604 19.02539062 -0.54052734 C26.10501605 -0.62907027 31.08288763 -0.52927146 36.50195312 4.31005859 C40.8085709 9.16833895 41.95608951 12.5341798 42 19 C41.37051563 24.21572768 39.80045797 26.42543983 35.90234375 29.7109375 C35.17394287 30.3301709 34.44554199 30.9494043 33.69506836 31.58740234 C33.1356958 32.05355957 32.57632324 32.5197168 32 33 C32.2673999 33.58491211 32.5347998 34.16982422 32.81030273 34.77246094 C34.02287666 37.43005612 35.23023595 40.08998876 36.4375 42.75 C36.85837891 43.67039062 37.27925781 44.59078125 37.71289062 45.5390625 C38.11572266 46.42851563 38.51855469 47.31796875 38.93359375 48.234375 C39.30540771 49.05131836 39.67722168 49.86826172 40.06030273 50.70996094 C41 53 41 53 42 57 C38.04 57 34.08 57 30 57 C29.38253906 55.42347656 28.76507812 53.84695313 28.12890625 52.22265625 C27.27534351 50.1684778 26.41976926 48.11513437 25.5625 46.0625 C25.16095703 45.02158203 24.75941406 43.98066406 24.34570312 42.90820312 C23.92353516 41.91884766 23.50136719 40.92949219 23.06640625 39.91015625 C22.5086853 38.53549194 22.5086853 38.53549194 21.93969727 37.13305664 C19.46220274 33.93646867 19.46220274 33.93646867 11 34 C11 41.59 11 49.18 11 57 C7.37 57 3.74 57 0 57 C0 38.19 0 19.38 0 0 Z " fill="#272732" transform="translate(496,676)"/>
<path d="M0 0 C3.96 0 7.92 0 12 0 C14.86119798 3.1830031 16.32302997 5.23003061 18.125 8.9375 C19.0203182 10.61494987 19.91860666 12.29081886 20.8203125 13.96484375 C21.19430176 14.7137085 21.56829102 15.46257324 21.95361328 16.23413086 C22.8839994 18.16762333 22.8839994 18.16762333 25 19 C25.30067383 18.42443359 25.60134766 17.84886719 25.91113281 17.25585938 C27.31094952 14.64244496 28.77833351 12.07358593 30.25 9.5 C30.72179687 8.59378906 31.19359375 7.68757812 31.6796875 6.75390625 C33.203125 4.15625 33.203125 4.15625 37 0 C40.96 0 44.92 0 49 0 C49 19.14 49 38.28 49 58 C45.04 58 41.08 58 37 58 C36.67 46.12 36.34 34.24 36 22 C32.04 27.94 32.04 27.94 28 34 C21 34 21 34 18.85546875 31.91796875 C18.02982422 30.56638672 18.02982422 30.56638672 17.1875 29.1875 C16.62417969 28.29417969 16.06085938 27.40085937 15.48046875 26.48046875 C14.99191406 25.66191406 14.50335938 24.84335937 14 24 C13.34 23.01 12.68 22.02 12 21 C11.67 32.88 11.34 44.76 11 57 C7.37 57 3.74 57 0 57 C0 38.19 0 19.38 0 0 Z " fill="#2A2A34" transform="translate(331,676)"/>
<path d="M0 0 C3.63 0 7.26 0 11 0 C13.73144343 2.92428839 15.20212279 4.89100137 17 8.3125 C17.89328775 9.87255411 18.78903332 11.43120403 19.6875 12.98828125 C20.06261719 13.68477783 20.43773437 14.38127441 20.82421875 15.09887695 C22.02301666 17.03721569 23.32934366 18.46023982 25 20 C25.35771484 19.00419922 25.35771484 19.00419922 25.72265625 17.98828125 C27.34802062 14.18582331 29.2874432 10.71467325 31.4375 7.1875 C31.81326172 6.49462891 32.18902344 5.80175781 32.57617188 5.08789062 C33.80859375 3.10546875 33.80859375 3.10546875 37 0 C40.63 0 44.26 0 48 0 C48 18.81 48 37.62 48 57 C44.37 57 40.74 57 37 57 C37 45.12 37 33.24 37 21 C33.65959523 24.34040477 31.53146901 27.8869123 29.109375 31.91796875 C27 34 27 34 20 34 C17.36 30.04 14.72 26.08 12 22 C11.67 33.55 11.34 45.1 11 57 C7.37 57 3.74 57 0 57 C0 38.19 0 19.38 0 0 Z " fill="#262631" transform="translate(390,676)"/>
<path d="M0 0 C4.8767626 3.73539263 7.51053581 7.90140852 8.47265625 13.9921875 C9.40505883 23.27334417 9.12651023 30.47314457 3 38 C-1.16554341 41.55296349 -6.62875945 42.38605791 -12 42 C-14.8125 40.5078125 -14.8125 40.5078125 -17 39 C-17.06058594 40.21558594 -17.12117188 41.43117188 -17.18359375 42.68359375 C-17.26798332 44.26824228 -17.3526321 45.85287702 -17.4375 47.4375 C-17.49647461 48.64116211 -17.49647461 48.64116211 -17.55664062 49.86914062 C-17.88671875 55.88671875 -17.88671875 55.88671875 -19 57 C-20.8125 57.1328125 -20.8125 57.1328125 -23 57.125 C-23.721875 57.12757813 -24.44375 57.13015625 -25.1875 57.1328125 C-27 57 -27 57 -28 56 C-28.09370624 54.22008076 -28.11744271 52.43643261 -28.11352539 50.65405273 C-28.11344986 49.5129454 -28.11337433 48.37183807 -28.11329651 47.19615173 C-28.10813522 45.9545076 -28.10297394 44.71286346 -28.09765625 43.43359375 C-28.0962413 42.16983414 -28.09482635 40.90607452 -28.09336853 39.60401917 C-28.08870582 36.23875111 -28.0797148 32.8735501 -28.06866455 29.50830078 C-28.05844846 26.0765033 -28.05387049 22.64469891 -28.04882812 19.21289062 C-28.0377738 12.47524176 -28.0210171 5.73762475 -28 -1 C-26.54207116 -1.05399736 -25.08357288 -1.09279177 -23.625 -1.125 C-22.81289063 -1.14820313 -22.00078125 -1.17140625 -21.1640625 -1.1953125 C-19 -1 -19 -1 -17 1 C-16.05125 0.46375 -15.1025 -0.0725 -14.125 -0.625 C-9.22571272 -2.7161592 -4.88165589 -1.82336892 0 0 Z " fill="#2D2B2E" transform="translate(422,577)"/>
<path d="M0 0 C1.18464844 -0.00773437 2.36929687 -0.01546875 3.58984375 -0.0234375 C9.01047528 0.59850223 12.87690355 2.57463515 16.3125 6.8125 C16.79203125 7.38871094 17.2715625 7.96492188 17.765625 8.55859375 C20.72792353 12.70759621 21.40070851 15.94910165 21.75 21.0625 C21.83636719 22.22136719 21.92273438 23.38023437 22.01171875 24.57421875 C22.02847656 25.49847656 22.04523438 26.42273438 22.0625 27.375 C21.0625 28.375 21.0625 28.375 18.37866211 28.48852539 C17.21085205 28.48328857 16.04304199 28.47805176 14.83984375 28.47265625 C13.57978516 28.46943359 12.31972656 28.46621094 11.02148438 28.46289062 C9.68098891 28.45453403 8.34049412 28.44606907 7 28.4375 C5.65560058 28.4324866 4.3111994 28.42792342 2.96679688 28.42382812 C-0.33467941 28.41199488 -3.63606803 28.39550971 -6.9375 28.375 C-5.86348892 31.29017292 -5.15939824 33.15310176 -2.9375 35.375 C-0.40767403 35.73304211 -0.40767403 35.73304211 2.4375 35.6875 C3.39398438 35.70425781 4.35046875 35.72101563 5.3359375 35.73828125 C8.42243828 35.32704261 9.77433974 34.43000649 12.0625 32.375 C15.42841866 33.81753657 17.57297079 35.70764727 20.0625 38.375 C18.21271727 42.97977827 15.48849185 44.34642781 11.11328125 46.37890625 C4.63275978 48.49482555 -2.32284036 48.8772628 -8.69140625 46.23046875 C-13.70574829 43.0996028 -17.56797163 39.38179585 -19.515625 33.68359375 C-20.1307274 30.31761673 -20.16231019 26.97257076 -20.1875 23.5625 C-20.208125 22.87607422 -20.22875 22.18964844 -20.25 21.48242188 C-20.29809695 15.12761278 -18.80051398 10.53217408 -14.5625 5.625 C-9.68749025 1.44642022 -6.50627332 -0.04238615 0 0 Z " fill="#2B2B36" transform="translate(449.9375,354.625)"/>
<path d="M0 0 C4.62481277 3.76438249 6.90647766 7.49481163 9 13 C9 16.96 9 20.92 9 25 C-0.57 25 -10.14 25 -20 25 C-17.68586764 30.6054488 -17.68586764 30.6054488 -15.3125 32.4375 C-11.76301508 33.30088822 -8.51848813 32.92323965 -5 32 C-3.64886795 31.02418241 -2.31053056 30.02970259 -1 29 C2.31306713 29 3.28714799 30.26756972 5.75 32.5625 C6.86375 33.7690625 6.86375 33.7690625 8 35 C6.49235345 39.22141034 3.78707131 40.80349864 0 43 C-3.58096387 44.21214042 -7.11654009 44.20150374 -10.875 44.25 C-12.66550781 44.28867187 -12.66550781 44.28867187 -14.4921875 44.328125 C-20.91354523 43.72746348 -24.82195773 40.74264257 -29 36 C-33.69997706 29.11789073 -33.66536708 22.15308962 -33 14 C-31.39832066 7.20887958 -28.88703923 2.76770511 -23 -1 C-15.55154621 -4.55494385 -7.10221475 -4.03851427 0 0 Z " fill="#2B2B36" transform="translate(191,448)"/>
<path d="M0 0 C6.26817522 3.74613165 8.87002859 8.21415694 11.3203125 15.01171875 C11.3203125 18.97171875 11.3203125 22.93171875 11.3203125 27.01171875 C1.7503125 27.01171875 -7.8196875 27.01171875 -17.6796875 27.01171875 C-15.40769331 32.70406254 -15.40769331 32.70406254 -12.77734375 34.3984375 C-10.35797886 35.10577509 -8.61742891 35.11612511 -6.1171875 34.82421875 C-5.35277344 34.74816406 -4.58835937 34.67210937 -3.80078125 34.59375 C-1.31043156 33.91039438 -0.40374047 32.87651074 1.3203125 31.01171875 C4.61048942 31.01171875 5.63423758 32.30423985 8.0703125 34.57421875 C9.1840625 35.78078125 9.1840625 35.78078125 10.3203125 37.01171875 C8.81266595 41.23312909 6.10738381 42.81521739 2.3203125 45.01171875 C-4.0411229 47.12287643 -12.12794324 47.1706564 -18.45703125 45.10546875 C-24.4635999 41.98725008 -27.41406333 38.17577917 -29.9296875 31.88671875 C-31.66651301 22.91312026 -31.75863573 13.93262693 -26.6796875 6.01171875 C-19.45226188 -1.12845425 -9.77386346 -3.60464643 0 0 Z " fill="#2A2A35" transform="translate(518.6796875,445.98828125)"/>
<path d="M0 0 C1.21171875 -0.02578125 2.4234375 -0.0515625 3.671875 -0.078125 C9.46211322 0.45285754 13.24645264 2.69770984 17 7.0625 C22.17771996 13.36034481 22.896569 19.2656247 22.25 27.25 C21.25 28.25 21.25 28.25 18.56616211 28.36352539 C17.39835205 28.35828857 16.23054199 28.35305176 15.02734375 28.34765625 C13.76728516 28.34443359 12.50722656 28.34121094 11.20898438 28.33789062 C9.86848891 28.32953403 8.52799412 28.32106907 7.1875 28.3125 C5.84310058 28.3074866 4.4986994 28.30292342 3.15429688 28.29882812 C-0.14717941 28.28699488 -3.44856803 28.27050971 -6.75 28.25 C-5.67598892 31.16517292 -4.97189824 33.02810176 -2.75 35.25 C-0.22017403 35.60804211 -0.22017403 35.60804211 2.625 35.5625 C3.58148438 35.57925781 4.53796875 35.59601563 5.5234375 35.61328125 C8.60993828 35.20204261 9.96183974 34.30500649 12.25 32.25 C15.61591866 33.69253657 17.76047079 35.58264727 20.25 38.25 C19.20274189 41.50813633 17.67983232 42.78606177 14.8125 44.4375 C7.85109383 47.97926805 0.12670115 48.77130327 -7.4296875 46.4140625 C-13.06038881 43.58923255 -15.99212536 39.82730899 -18.75 34.25 C-19.08 33.59 -19.41 32.93 -19.75 32.25 C-21.06481323 13.72991651 -21.06481323 13.72991651 -16.25390625 7.7265625 C-10.93391285 2.50329626 -7.63271635 0.09661666 0 0 Z " fill="#2B2B35" transform="translate(498.75,354.75)"/>
<path d="M0 0 C3.96 0 7.92 0 12 0 C12.0093457 1.28165039 12.01869141 2.56330078 12.02832031 3.88378906 C12.06820061 8.64016442 12.13395415 13.39589162 12.20751953 18.15185547 C12.23574049 20.21003898 12.25694941 22.2683311 12.27099609 24.32666016 C12.2924099 27.28604785 12.33905221 30.2441282 12.390625 33.203125 C12.39185364 34.12305237 12.39308228 35.04297974 12.39434814 35.99078369 C12.47467358 41.14733443 12.47467358 41.14733443 14.8972168 45.58569336 C17.35943116 47.24174906 18.62322564 47.45672835 21.5625 47.3125 C22.32691406 47.28800781 23.09132813 47.26351562 23.87890625 47.23828125 C26.18626781 47.05365698 26.18626781 47.05365698 29 46 C29.91187611 43.26437166 30.14730259 41.53854525 30.20532227 38.7121582 C30.22526749 37.85149246 30.24521271 36.99082672 30.26576233 36.1040802 C30.28247482 35.17899155 30.29918732 34.25390289 30.31640625 33.30078125 C30.33718735 32.35059616 30.35796844 31.40041107 30.37937927 30.4214325 C30.44478052 27.38519544 30.50371604 24.34887169 30.5625 21.3125 C30.60569417 19.25454831 30.64930876 17.19660541 30.69335938 15.13867188 C30.80045231 10.09253684 30.90174646 5.04631457 31 0 C34.96 0 38.92 0 43 0 C43.12445087 5.79826198 43.21473829 11.59573097 43.2746582 17.39501953 C43.29966047 19.36390747 43.333674 21.33270393 43.37719727 23.30126953 C43.83701468 44.64761683 43.83701468 44.64761683 38 52 C33.09250565 56.90749435 28.09186006 58.3175504 21.25 58.5 C14.27797325 58.39768514 10.00785248 56.8423948 5 52 C-0.28654601 45.52398113 -0.1449717 39.52792484 -0.09765625 31.54296875 C-0.0962413 30.64000565 -0.09482635 29.73704254 -0.09336853 28.80671692 C-0.08778823 25.93361037 -0.07523934 23.06058284 -0.0625 20.1875 C-0.05748245 18.23502717 -0.05291999 16.28255311 -0.04882812 14.33007812 C-0.03782525 9.55335515 -0.02057418 4.77669096 0 0 Z " fill="#2C2C37" transform="translate(279,676)"/>
<path d="M0 0 C5.0292885 3.71412347 6.92526317 8.36774387 8.61328125 14.19140625 C8.61328125 17.49140625 8.61328125 20.79140625 8.61328125 24.19140625 C-0.95671875 24.19140625 -10.52671875 24.19140625 -20.38671875 24.19140625 C-18.37520612 30.96630517 -18.37520612 30.96630517 -15.38671875 32.19140625 C-10.48255896 32.72945256 -5.97035532 33.04079417 -1.76171875 30.19140625 C-0.97796875 29.53140625 -0.19421875 28.87140625 0.61328125 28.19140625 C2.92328125 30.50140625 5.23328125 32.81140625 7.61328125 35.19140625 C4.05093656 40.20095347 0.80268132 42.98129918 -5.38671875 44.19140625 C-12.73018949 45.01754671 -18.75242312 45.10663656 -24.80859375 40.5390625 C-25.58976563 39.87197266 -25.58976563 39.87197266 -26.38671875 39.19140625 C-27.14984375 38.59328125 -27.91296875 37.99515625 -28.69921875 37.37890625 C-34.24510123 30.18979933 -34.26700345 21.92423063 -33.38671875 13.19140625 C-31.77389975 6.57692833 -28.20422372 1.76355843 -22.38671875 -1.80859375 C-15.20024258 -4.26950891 -6.53383391 -3.88242305 0 0 Z " fill="#292934" transform="translate(252.38671875,357.80859375)"/>
<path d="M0 0 C13.2 0 26.4 0 40 0 C40 3.3 40 6.6 40 10 C30.76 10 21.52 10 12 10 C12 14.62 12 19.24 12 24 C18.27 24 24.54 24 31 24 C31 26.64 31 29.28 31 32 C30 33 30 33 28.23413086 33.11352539 C27.48526611 33.10828857 26.73640137 33.10305176 25.96484375 33.09765625 C25.15595703 33.09443359 24.34707031 33.09121094 23.51367188 33.08789062 C22.66353516 33.07951172 21.81339844 33.07113281 20.9375 33.0625 C20.08349609 33.05798828 19.22949219 33.05347656 18.34960938 33.04882812 C16.23304337 33.03700373 14.11651315 33.01906769 12 33 C12 37.95 12 42.9 12 48 C21.24 48 30.48 48 40 48 C40 51.3 40 54.6 40 58 C26.8 58 13.6 58 0 58 C0 38.86 0 19.72 0 0 Z " fill="#2C2C37" transform="translate(448,676)"/>
<path d="M0 0 C5.4148962 3.39758193 9.15239221 7.52474225 11.625 13.4375 C12.1875 17 12.1875 17 12.1875 26 C2.6175 26 -6.9525 26 -16.8125 26 C-14.63190167 32.84825895 -14.63190167 32.84825895 -10.8125 35 C-5.11323675 35.64519961 -2.29798537 34.50086663 2.1875 31 C5.55045835 32.44126786 7.81677102 34.20592655 10.1875 37 C10.1875 37.99 10.1875 38.98 10.1875 40 C8.54296875 41.3515625 8.54296875 41.3515625 6.375 42.625 C5.31345703 43.26308594 5.31345703 43.26308594 4.23046875 43.9140625 C-1.93321517 47.19036103 -9.05133334 46.71279444 -15.8125 46 C-21.23260211 43.98511979 -24.64229825 40.91701994 -27.3125 35.8125 C-30.53366353 28.25171338 -31.20045473 19.46820721 -29.1640625 11.4453125 C-26.93256408 6.54364502 -23.25725038 2.98035466 -18.8125 0 C-12.76934227 -2.01438591 -6.10316796 -1.60083094 0 0 Z " fill="#282832" transform="translate(393.8125,446)"/>
<path d="M0 0 C3.59592773 2.62087809 5.56886977 5.25702294 6.48046875 9.640625 C6.74358184 11.5780941 6.89672449 13.52984888 7.03125 15.48046875 C3.40125 15.48046875 -0.22875 15.48046875 -3.96875 15.48046875 C-6.96875 9.73046875 -6.96875 9.73046875 -6.96875 7.48046875 C-11.91875 7.48046875 -16.86875 7.48046875 -21.96875 7.48046875 C-21.96875 10.45046875 -21.96875 13.42046875 -21.96875 16.48046875 C-19.12444698 17.62692486 -16.27292092 18.74780155 -13.41015625 19.84765625 C-12.11713741 20.35013153 -10.82416965 20.85273828 -9.53125 21.35546875 C-8.88865234 21.59910156 -8.24605469 21.84273437 -7.58398438 22.09375 C-1.86732853 24.33398265 3.90591831 26.91843778 7.03125 32.48046875 C7.91990658 37.26000011 7.65345292 42.00210075 5.40625 46.35546875 C2.04724361 50.775214 -1.50382674 53.44184213 -6.96875 54.48046875 C-14.94737446 55.13200301 -22.17888449 55.12021018 -28.96875 50.48046875 C-31.86026581 47.75577116 -34.85947622 44.65720248 -35.06640625 40.53515625 C-35.03385417 38.51692708 -35.00130208 36.49869792 -34.96875 34.48046875 C-31.33875 34.48046875 -27.70875 34.48046875 -23.96875 34.48046875 C-23.700625 35.59421875 -23.4325 36.70796875 -23.15625 37.85546875 C-22.31065981 41.69887826 -22.31065981 41.69887826 -18.96875 43.48046875 C-16.32903052 43.83529176 -16.32903052 43.83529176 -13.46875 43.79296875 C-12.5096875 43.80972656 -11.550625 43.82648437 -10.5625 43.84375 C-7.95014714 43.68347846 -7.95014714 43.68347846 -6.13671875 42.16015625 C-4.3918744 39.65084832 -4.77088526 37.44843988 -4.96875 34.48046875 C-8.52518411 32.99807939 -12.09162777 31.83300331 -15.78125 30.73046875 C-21.42542725 28.86296115 -25.59744957 26.4839915 -29.96875 22.48046875 C-30.79375 21.73796875 -31.61875 20.99546875 -32.46875 20.23046875 C-34.75924657 16.03122504 -34.711411 12.15398192 -33.96875 7.48046875 C-31.76339531 3.06975936 -29.04644265 0.23291129 -24.96875 -2.51953125 C-16.62463688 -5.25801772 -7.52500498 -4.36108243 0 0 Z " fill="#272732" transform="translate(263.96875,679.51953125)"/>
<path d="M0 0 C4.29 0 8.58 0 13 0 C13.01401855 1.43049683 13.01401855 1.43049683 13.02832031 2.88989258 C13.06820433 6.42942962 13.13395659 9.96809593 13.20751953 13.50708008 C13.23573878 15.03854178 13.25694869 16.57014939 13.27099609 18.10180664 C13.29241426 20.30430849 13.33905138 22.50505459 13.390625 24.70703125 C13.39185364 25.39150833 13.39308228 26.07598541 13.39434814 26.78120422 C13.49209738 29.95598244 13.62983807 31.60556274 15.84277344 33.96362305 C18.91908064 35.44154564 20.78729228 34.97778061 24 34 C26.45378929 30.31931607 26.30646214 28.31946281 26.4140625 23.92578125 C26.43342865 23.2419487 26.4527948 22.55811615 26.4727478 21.8535614 C26.53243997 19.67333375 26.57888631 17.49305298 26.625 15.3125 C26.66318943 13.8326595 26.70224174 12.352841 26.7421875 10.87304688 C26.83813202 7.2488995 26.92220151 3.62458743 27 0 C31.29 0 35.58 0 40 0 C40 15.18 40 30.36 40 46 C36.04 46 32.08 46 28 46 C27.34 45.01 26.68 44.02 26 43 C25.20529297 43.72509766 25.20529297 43.72509766 24.39453125 44.46484375 C19.7763328 47.42561372 14.26285097 46.80031189 9 46 C4.65045821 43.75249429 1.76329118 40.55566882 0 36 C-0.16858166 33.20915781 -0.23284241 30.52228007 -0.1953125 27.734375 C-0.1924826 26.94097717 -0.18965271 26.14757935 -0.18673706 25.33013916 C-0.17556779 22.80327083 -0.15046944 20.27676068 -0.125 17.75 C-0.11496598 16.0338593 -0.10584087 14.31771302 -0.09765625 12.6015625 C-0.07563914 8.40090426 -0.04113187 4.2005128 0 0 Z " fill="#2A2A35" transform="translate(259,446)"/>
<path d="M0 0 C4.73829769 1.66717882 7.2011938 3.85362045 10 8 C11.25282725 11.75848174 11.12381835 15.25490919 11.09765625 19.16796875 C11.0962413 19.96278152 11.09482635 20.7575943 11.09336853 21.57649231 C11.08777378 24.11353325 11.07522228 26.65048575 11.0625 29.1875 C11.05748432 30.90820185 11.05292153 32.62890508 11.04882812 34.34960938 C11.03780607 38.5664403 11.02054506 42.78320516 11 47 C7.04 47 3.08 47 -1 47 C-1.01981934 46.14768799 -1.03963867 45.29537598 -1.06005859 44.41723633 C-1.13839504 41.23941676 -1.22509665 38.06196418 -1.31738281 34.88452148 C-1.35554288 33.51221419 -1.39041796 32.13981129 -1.421875 30.76733398 C-1.46780682 28.7886771 -1.52673637 26.81033558 -1.5859375 24.83203125 C-1.63306885 23.04889526 -1.63306885 23.04889526 -1.68115234 21.22973633 C-2.01393096 17.85888767 -2.51069791 14.48930209 -5 12 C-9.54664509 11.53504776 -9.54664509 11.53504776 -13.69458008 13.05981445 C-15.65033166 15.96655801 -15.48006462 18.90223507 -15.51171875 22.29296875 C-15.52966995 22.99899734 -15.54762115 23.70502594 -15.56611633 24.43244934 C-15.62023178 26.68407241 -15.65411722 28.93548343 -15.6875 31.1875 C-15.72067219 32.71552431 -15.75516177 34.24352063 -15.79101562 35.77148438 C-15.87595825 39.51416989 -15.94276248 43.25679241 -16 47 C-20.29 47 -24.58 47 -29 47 C-29 31.82 -29 16.64 -29 1 C-24.71 1 -20.42 1 -16 1 C-15.67 1.99 -15.34 2.98 -15 4 C-14.071875 3.01 -14.071875 3.01 -13.125 2 C-8.73166641 -0.8117335 -5.08584175 -0.66940453 0 0 Z " fill="#282833" transform="translate(567,445)"/>
<path d="M0 0 C4.05013114 2.96684305 5.75959202 5.66029147 6.55859375 10.5625 C7.12706042 19.65796671 1.11076274 26.46770451 -4.37890625 33.1875 C-6.98046231 35.93150437 -9.6395805 38.58127314 -12.375 41.19140625 C-14.43212467 43.02887012 -14.43212467 43.02887012 -15.37890625 45.1875 C-7.78890625 45.1875 -0.19890625 45.1875 7.62109375 45.1875 C7.62109375 48.4875 7.62109375 51.7875 7.62109375 55.1875 C-5.24890625 55.1875 -18.11890625 55.1875 -31.37890625 55.1875 C-31.37890625 45.1875 -31.37890625 45.1875 -28.6328125 41.53515625 C-27.42500352 40.41516076 -26.19317337 39.32064069 -24.94140625 38.25 C-23.65240568 37.0614474 -22.36726293 35.86869783 -21.0859375 34.671875 C-20.45381348 34.08986328 -19.82168945 33.50785156 -19.17041016 32.90820312 C-10.31186933 24.42265883 -10.31186933 24.42265883 -6.12890625 13.625 C-6.00691668 10.12352047 -6.00691668 10.12352047 -8.37890625 8.1875 C-10.81903574 7.94462511 -10.81903574 7.94462511 -13.50390625 8.0625 C-14.86902344 8.08957031 -14.86902344 8.08957031 -16.26171875 8.1171875 C-16.96039063 8.14039063 -17.6590625 8.16359375 -18.37890625 8.1875 C-19.03890625 10.8275 -19.69890625 13.4675 -20.37890625 16.1875 C-24.00890625 16.1875 -27.63890625 16.1875 -31.37890625 16.1875 C-30.97712054 6.27678571 -30.97712054 6.27678571 -28.25390625 2.75 C-20.43144482 -4.22219388 -9.16382768 -5.48686564 0 0 Z " fill="#2A2A34" transform="translate(324.37890625,755.8125)"/>
<path d="M0 0 C1.22763565 0.00212242 1.22763565 0.00212242 2.48007202 0.00428772 C5.09873075 0.00989335 7.71730454 0.02244677 10.3359375 0.03515625 C12.10937377 0.04017053 13.88281137 0.04473356 15.65625 0.04882812 C20.00784532 0.05986461 24.359377 0.077133 28.7109375 0.09765625 C30.07717424 2.83012973 29.8393635 5.07964527 29.7109375 8.09765625 C28.7109375 9.09765625 28.7109375 9.09765625 25.93530273 9.21118164 C24.72559814 9.20594482 23.51589355 9.20070801 22.26953125 9.1953125 C20.96435547 9.19208984 19.65917969 9.18886719 18.31445312 9.18554688 C16.9257806 9.17719026 15.53710873 9.1687253 14.1484375 9.16015625 C12.75586094 9.15514291 11.36328269 9.15057972 9.97070312 9.14648438 C6.55076299 9.13465067 3.130845 9.11671456 -0.2890625 9.09765625 C-0.2890625 14.37765625 -0.2890625 19.65765625 -0.2890625 25.09765625 C6.3109375 25.09765625 12.9109375 25.09765625 19.7109375 25.09765625 C19.7109375 27.73765625 19.7109375 30.37765625 19.7109375 33.09765625 C13.1109375 33.09765625 6.5109375 33.09765625 -0.2890625 33.09765625 C-0.2890625 38.70765625 -0.2890625 44.31765625 -0.2890625 50.09765625 C1.79277344 50.08605469 3.87460938 50.07445312 6.01953125 50.0625 C8.02840048 50.0555489 10.03727001 50.04863236 12.04614258 50.04272461 C13.44588978 50.03768545 14.8456317 50.03085409 16.24536133 50.0222168 C18.25339527 50.01013305 20.26146707 50.00495818 22.26953125 50 C24.08408813 49.99214478 24.08408813 49.99214478 25.93530273 49.98413086 C28.7109375 50.09765625 28.7109375 50.09765625 29.7109375 51.09765625 C29.75186687 53.43063058 29.75335473 55.7647085 29.7109375 58.09765625 C24.17505217 58.122304 18.6391985 58.14049121 13.10327148 58.15258789 C11.2185002 58.15762869 9.33373285 58.16446123 7.44897461 58.1730957 C4.74592114 58.18517242 2.04291919 58.19088693 -0.66015625 58.1953125 C-1.50807236 58.20047379 -2.35598846 58.20563507 -3.229599 58.21095276 C-5.24977318 58.2111482 -7.26984184 58.15971836 -9.2890625 58.09765625 C-10.2890625 57.09765625 -10.2890625 57.09765625 -10.40931702 54.85142517 C-10.40709641 53.8588118 -10.40487579 52.86619843 -10.40258789 51.84350586 C-10.40251236 50.72241928 -10.40243683 49.6013327 -10.40235901 48.4462738 C-10.39719772 47.22650345 -10.39203644 46.00673309 -10.38671875 44.75 C-10.3853038 43.50843643 -10.38388885 42.26687286 -10.38243103 40.98768616 C-10.37776841 37.68160134 -10.36877747 34.37558479 -10.35772705 31.06951904 C-10.34751077 27.69804475 -10.34293295 24.32656342 -10.33789062 20.95507812 C-10.32683645 14.3359185 -10.31007986 7.71679132 -10.2890625 1.09765625 C-7.06302705 -0.51536148 -3.54196212 -0.02287974 0 0 Z " fill="#2F2D2D" transform="translate(206.2890625,559.90234375)"/>
<path d="M0 0 C3.59881467 2.67366951 4.39177163 4.43203561 5.20703125 8.87890625 C5.36171875 10.48765625 5.36171875 10.48765625 5.51953125 12.12890625 C1.55953125 12.12890625 -2.40046875 12.12890625 -6.48046875 12.12890625 C-6.81046875 11.13890625 -7.14046875 10.14890625 -7.48046875 9.12890625 C-9.88592513 7.92617806 -11.43043828 8.02819153 -14.10546875 8.06640625 C-14.92273438 8.07542969 -15.74 8.08445312 -16.58203125 8.09375 C-17.20851563 8.10535156 -17.835 8.11695313 -18.48046875 8.12890625 C-18.81046875 9.44890625 -19.14046875 10.76890625 -19.48046875 12.12890625 C-18.24296875 12.52078125 -17.00546875 12.91265625 -15.73046875 13.31640625 C-11.84280003 14.62872549 -7.99223331 16.01643157 -4.16796875 17.50390625 C-3.18183594 17.88289063 -2.19570313 18.261875 -1.1796875 18.65234375 C2.53825799 20.68618369 4.63776453 23.3653728 6.51953125 27.12890625 C6.87537552 31.39035838 6.54928765 34.85699252 3.80859375 38.2421875 C-2.90199998 44.26675399 -8.08055215 44.484233 -16.98828125 44.41015625 C-23.03003241 43.92357226 -26.63952516 41.92264616 -30.91796875 37.75390625 C-32.66083711 34.82588741 -33.16671616 32.50174662 -33.48046875 29.12890625 C-29.4403633 28.83894653 -25.5119991 28.67978426 -21.48046875 29.12890625 C-18.60546875 31.62890625 -18.60546875 31.62890625 -16.48046875 34.12890625 C-12.33822569 34.70882028 -10.99871386 34.47440299 -7.48046875 32.12890625 C-7.48046875 31.13890625 -7.48046875 30.14890625 -7.48046875 29.12890625 C-8.47046875 28.82597656 -9.46046875 28.52304687 -10.48046875 28.2109375 C-28.32834508 22.60651006 -28.32834508 22.60651006 -31.66015625 17.22265625 C-33.3712447 12.85530669 -33.08955841 8.61779208 -31.35546875 4.37890625 C-23.95228897 -4.50490948 -9.7608075 -5.89758264 0 0 Z " fill="#292934" transform="translate(593.48046875,357.87109375)"/>
<path d="M0 0 C3.7435159 2.25079871 6.3069657 4.56878587 8.5625 8.375 C9.88586961 15.35489634 8.15656395 20.43507603 4.5625 26.375 C2.7147558 28.89563735 0.70573127 31.2323927 -1.375 33.5625 C-1.88740234 34.15224609 -2.39980469 34.74199219 -2.92773438 35.34960938 C-5.98603743 38.84314743 -9.14025186 42.07775186 -12.4375 45.375 C-5.1775 45.705 2.0825 46.035 9.5625 46.375 C9.5625 49.345 9.5625 52.315 9.5625 55.375 C-2.9775 55.375 -15.5175 55.375 -28.4375 55.375 C-28.4375 46.375 -28.4375 46.375 -26.71484375 43.80859375 C-25.94269531 43.14988281 -25.17054688 42.49117187 -24.375 41.8125 C-23.1375 40.69488281 -23.1375 40.69488281 -21.875 39.5546875 C-21.070625 38.83539062 -20.26625 38.11609375 -19.4375 37.375 C-17.00455507 34.78999601 -14.72351218 32.08995487 -12.4375 29.375 C-11.71949219 28.55773437 -11.00148438 27.74046875 -10.26171875 26.8984375 C-4.69681912 20.46550538 -4.69681912 20.46550538 -3.4375 12.375 C-4.0975 11.385 -4.7575 10.395 -5.4375 9.375 C-7.57238276 8.93567135 -7.57238276 8.93567135 -9.9375 9.0625 C-11.12859375 9.06830078 -11.12859375 9.06830078 -12.34375 9.07421875 C-14.65483036 9.19274835 -14.65483036 9.19274835 -16.4375 11.375 C-16.83514263 13.36321313 -17.17525349 15.36444339 -17.4375 17.375 C-21.0675 17.375 -24.6975 17.375 -28.4375 17.375 C-28.85814893 11.27559045 -28.52714656 8.23836347 -24.4375 3.375 C-17.74969141 -2.66033946 -8.31003284 -3.82198075 0 0 Z " fill="#252530" transform="translate(414.4375,754.625)"/>
<path d="M0 0 C4.23762762 2.27015765 5.95264508 3.81515309 8.5 7.875 C8.8125 11.25 8.8125 11.25 8.5 13.875 C6.73050905 13.98315225 4.95912513 14.06066083 3.1875 14.125 C2.20136719 14.17140625 1.21523438 14.2178125 0.19921875 14.265625 C-2.5 13.875 -2.5 13.875 -4.0625 11.875 C-4.536875 11.215 -5.01125 10.555 -5.5 9.875 C-7.77889342 9.39331272 -7.77889342 9.39331272 -10.1875 9.625 C-10.99574219 9.66109375 -11.80398438 9.6971875 -12.63671875 9.734375 C-13.25160156 9.78078125 -13.86648438 9.8271875 -14.5 9.875 C-14.83 11.195 -15.16 12.515 -15.5 13.875 C-11.18189419 15.83777537 -6.91681707 17.37063333 -2.375 18.75 C2.56713953 20.3520202 5.30881425 21.80348714 8.5 25.875 C8.83 26.205 9.16 26.535 9.5 26.875 C9.94844616 31.04899889 9.94156271 34.77109322 8.375 38.6875 C5.11336309 42.49274306 1.43102956 44.96315791 -3.5 45.875 C-12.91398297 46.43879007 -19.84246678 45.79218476 -27.5 39.875 C-29.84867153 36.5655083 -29.5 35.26691664 -29.5 30.875 C-25.54 30.875 -21.58 30.875 -17.5 30.875 C-16.84 32.195 -16.18 33.515 -15.5 34.875 C-12.51405576 36.36797212 -9.79146376 35.99255228 -6.5 35.875 C-5.51 35.38 -5.51 35.38 -4.5 34.875 C-4.5 33.555 -4.5 32.235 -4.5 30.875 C-5.58539063 30.48828125 -6.67078125 30.1015625 -7.7890625 29.703125 C-9.23452713 29.1775015 -10.67983118 28.65143628 -12.125 28.125 C-12.83785156 27.87234375 -13.55070312 27.6196875 -14.28515625 27.359375 C-20.00575157 25.26007396 -25.01704754 23.09942869 -28.5 17.875 C-29.27214663 12.6244029 -29.49487518 8.27952967 -26.375 3.875 C-25.42625 3.215 -24.4775 2.555 -23.5 1.875 C-22.675 1.276875 -21.85 0.67875 -21 0.0625 C-14.36213482 -2.18963283 -6.70438056 -2.14132307 0 0 Z " fill="#292934" transform="translate(296.5,356.125)"/>
<path d="M0 0 C3.20261467 1.95448647 5.43598331 4.05495196 7.375 7.3125 C8.125 10.625 8.125 10.625 8.375 13.3125 C6.43872231 13.42057131 4.50072244 13.4981225 2.5625 13.5625 C0.94408203 13.63210938 0.94408203 13.63210938 -0.70703125 13.703125 C-3.625 13.3125 -3.625 13.3125 -5.21875 11.3125 C-5.6828125 10.6525 -6.146875 9.9925 -6.625 9.3125 C-8.90389342 8.83081272 -8.90389342 8.83081272 -11.3125 9.0625 C-12.12074219 9.09859375 -12.92898438 9.1346875 -13.76171875 9.171875 C-14.37660156 9.21828125 -14.99148438 9.2646875 -15.625 9.3125 C-16.285 10.9625 -16.945 12.6125 -17.625 14.3125 C-16.89796875 14.45945312 -16.1709375 14.60640625 -15.421875 14.7578125 C3.48343373 18.9751506 3.48343373 18.9751506 8.375 26.3125 C8.95664691 30.76927504 8.8741243 34.96192837 7.3125 39.1875 C3.30722343 43.58038398 0.52877282 45.10973896 -5.359375 45.6640625 C-13.72382272 45.95599465 -21.59331675 46.03405377 -28.0625 40.0625 C-29.92390524 36.78642679 -30.3323034 34.0443817 -30.625 30.3125 C-26.665 30.3125 -22.705 30.3125 -18.625 30.3125 C-17.965 31.6325 -17.305 32.9525 -16.625 34.3125 C-13.60631566 35.82184217 -10.95202771 35.48760672 -7.625 35.3125 C-6.635 34.6525 -5.645 33.9925 -4.625 33.3125 C-4.625 32.3225 -4.625 31.3325 -4.625 30.3125 C-5.60339844 30.02117187 -6.58179688 29.72984375 -7.58984375 29.4296875 C-15.27568154 27.05764851 -22.42353881 24.67975449 -28.625 19.3125 C-30.35491807 15.85266386 -29.96770487 12.10202496 -29.625 8.3125 C-28.05759067 4.00212433 -25.08551875 1.53562648 -21.19921875 -0.734375 C-14.58009129 -3.18515968 -6.43224936 -2.93908023 0 0 Z " fill="#282833" transform="translate(650.625,446.6875)"/>
<path d="M0 0 C3.96 0 7.92 0 12 0 C11.0299141 3.88034361 9.70239068 7.09567888 8.05859375 10.734375 C7.77146011 11.37240051 7.48432648 12.01042603 7.18849182 12.66778564 C6.27459644 14.69660635 5.35611976 16.7233147 4.4375 18.75 C3.81545139 20.12876922 3.19370318 21.50767401 2.57226562 22.88671875 C1.05165431 26.25939018 -0.47307149 29.63018307 -2 33 C2.29 33 6.58 33 11 33 C11 29.04 11 25.08 11 21 C14.96 21 18.92 21 23 21 C23 24.96 23 28.92 23 33 C24.65 33 26.3 33 28 33 C28 36.3 28 39.6 28 43 C26.35 43 24.7 43 23 43 C23 47.95 23 52.9 23 58 C19.04 58 15.08 58 11 58 C11 53.05 11 48.1 11 43 C2.42 43 -6.16 43 -15 43 C-15 35.57938581 -14.66760179 31.95017534 -11.71875 25.68359375 C-11.21933899 24.57069725 -11.21933899 24.57069725 -10.70983887 23.43531799 C-9.65545642 21.09527769 -8.57830785 18.76659671 -7.5 16.4375 C-6.7758047 14.84119211 -6.0531335 13.24419187 -5.33203125 11.64648438 C-3.57219291 7.75610245 -1.79187499 3.87572393 0 0 Z " fill="#2B2B35" transform="translate(446,753)"/>
<path d="M0 0 C6.55920395 6.10158507 7.36621761 13.90569615 7.6875 22.5 C5.02571779 23.8308911 3.00010604 23.61268993 0.0234375 23.59765625 C-1.09804688 23.59443359 -2.21953125 23.59121094 -3.375 23.58789062 C-4.550625 23.57951172 -5.72625 23.57113281 -6.9375 23.5625 C-8.12085938 23.55798828 -9.30421875 23.55347656 -10.5234375 23.54882812 C-13.45317507 23.53701467 -16.38281272 23.52054258 -19.3125 23.5 C-17.78694034 28.31122847 -17.78694034 28.31122847 -14.3125 31.5 C-8.34683797 32.11593966 -8.34683797 32.11593966 -3 29.9375 C-2.443125 29.463125 -1.88625 28.98875 -1.3125 28.5 C1.75461564 28.77882869 3.05120706 29.74247137 5.6875 31.5 C5.37032813 34.46027076 4.70321727 35.48428273 2.5625 37.625 C-3.35624478 41.48505094 -8.79530655 41.93344981 -15.66015625 41.0859375 C-19.81747788 40.16753066 -22.54093308 38.75357856 -25.3125 35.5 C-29.97248189 28.17717131 -30.30735935 19.94123087 -29.3125 11.5 C-27.77385802 6.16823528 -25.1473093 2.35693277 -20.3125 -0.5 C-13.15655812 -3.00457966 -6.97646102 -3.15915216 0 0 Z " fill="#302E2D" transform="translate(560.3125,577.5)"/>
<path d="M0 0 C5.34973539 5.89909697 6.26105385 11.68661953 6.203125 19.4375 C6.03515625 21.51171875 6.03515625 21.51171875 5.03515625 22.51171875 C3.10848118 22.59920082 1.17863764 22.61869209 -0.75 22.609375 C-1.91982422 22.60615234 -3.08964844 22.60292969 -4.29492188 22.59960938 C-5.52662109 22.59123047 -6.75832031 22.58285156 -8.02734375 22.57421875 C-9.88069336 22.56745117 -9.88069336 22.56745117 -11.77148438 22.56054688 C-14.83598492 22.54871483 -17.90039096 22.53223048 -20.96484375 22.51171875 C-18.85157849 27.22014499 -18.85157849 27.22014499 -14.96484375 30.51171875 C-10.36882362 31.26459062 -6.3305973 31.14926042 -2.40234375 28.51171875 C-1.59796875 27.85171875 -0.79359375 27.19171875 0.03515625 26.51171875 C2.51015625 28.49171875 2.51015625 28.49171875 5.03515625 30.51171875 C4.72682026 33.38952128 4.04494203 34.50132136 2.03515625 36.63671875 C-3.84102146 40.30932982 -10.0876721 41.07857665 -16.89453125 40.046875 C-21.65205865 38.81709905 -24.33943365 36.32306159 -27.27734375 32.51171875 C-30.10794448 27.47953967 -30.20390665 22.83543745 -30.27734375 17.13671875 C-30.30634766 16.39421875 -30.33535156 15.65171875 -30.36523438 14.88671875 C-30.42591044 9.6032336 -29.40439889 6.73039963 -25.96484375 2.51171875 C-19.30844458 -4.14468042 -7.83250274 -5.93277047 0 0 Z " fill="#302E2D" transform="translate(347.96484375,578.48828125)"/>
<path d="M0 0 C3.96 0 7.92 0 12 0 C12 3.96 12 7.92 12 12 C15.3 12 18.6 12 22 12 C22 15.63 22 19.26 22 23 C18.7 23 15.4 23 12 23 C12.33 30.92 12.66 38.84 13 47 C15.64 47.33 18.28 47.66 21 48 C21 51.63 21 55.26 21 59 C18.9377952 59.054348 16.87517184 59.09294961 14.8125 59.125 C13.66394531 59.14820313 12.51539063 59.17140625 11.33203125 59.1953125 C7.93921348 58.9964369 5.90380516 58.75532263 3 57 C0.3322844 52.61801228 -0.3630842 49.38411889 -0.29296875 44.2890625 C-0.28330078 43.04511719 -0.27363281 41.80117188 -0.26367188 40.51953125 C-0.23853516 39.23433594 -0.21339844 37.94914062 -0.1875 36.625 C-0.17396484 35.31660156 -0.16042969 34.00820313 -0.14648438 32.66015625 C-0.1112237 29.43968156 -0.06193633 26.22005394 0 23 C-2.31 23 -4.62 23 -7 23 C-7 19.37 -7 15.74 -7 12 C-4.69 12 -2.38 12 0 12 C0 8.04 0 4.08 0 0 Z " fill="#292933" transform="translate(532,343)"/>
<path d="M0 0 C3.96 0 7.92 0 12 0 C12 3.96 12 7.92 12 12 C15.3 12 18.6 12 22 12 C22 15.63 22 19.26 22 23 C18.7 23 15.4 23 12 23 C12.14035305 26.62528953 12.28702517 30.25012883 12.4375 33.875 C12.47681641 34.90753906 12.51613281 35.94007813 12.55664062 37.00390625 C12.59853516 37.99003906 12.64042969 38.97617187 12.68359375 39.9921875 C12.72025146 40.90339355 12.75690918 41.81459961 12.79467773 42.75341797 C12.86577065 45.03483481 12.86577065 45.03483481 14 47 C16.32156597 47.40729228 18.6568787 47.74438677 21 48 C21 51.63 21 55.26 21 59 C6.56534437 59.57824288 6.56534437 59.57824288 2 56 C0.01963111 52.10538977 -0.29530936 48.72120828 -0.4140625 44.38671875 C-0.45273437 43.13955078 -0.49140625 41.89238281 -0.53125 40.60742188 C-0.5621875 39.31384766 -0.593125 38.02027344 -0.625 36.6875 C-0.66367187 35.37458984 -0.70234375 34.06167969 -0.7421875 32.70898438 C-0.83633117 29.47279563 -0.92196352 26.23661065 -1 23 C-2.98 22.67 -4.96 22.34 -7 22 C-7 18.7 -7 15.4 -7 12 C-4.69 12 -2.38 12 0 12 C0 8.04 0 4.08 0 0 Z " fill="#282833" transform="translate(318,343)"/>
<path d="M0 0 C8.49609375 -0.09765625 8.49609375 -0.09765625 11 0 C12 1 12 1 12.09765625 3.72265625 C12.08605469 4.82480469 12.07445312 5.92695313 12.0625 7.0625 C12.05347656 8.16722656 12.04445313 9.27195312 12.03515625 10.41015625 C12.02355469 11.26480469 12.01195312 12.11945313 12 13 C15.3 13 18.6 13 22 13 C22.09765625 19.93359375 22.09765625 19.93359375 22 22 C21.67 22.33 21.34 22.66 21 23 C18.03 23 15.06 23 12 23 C12.33 30.59 12.66 38.18 13 46 C15.64 46.99 18.28 47.98 21 49 C21.02689216 50.47906892 21.04634621 51.95827483 21.0625 53.4375 C21.07410156 54.26121094 21.08570313 55.08492188 21.09765625 55.93359375 C21 58 21 58 20 59 C13.53403342 59.52290865 7.48541397 59.89753098 2 56 C-0.45286296 52.32070555 -0.23228878 50.52622093 -0.1953125 46.14453125 C-0.19106766 45.15207649 -0.19106766 45.15207649 -0.18673706 44.13957214 C-0.17555918 42.03036263 -0.15045981 39.92158075 -0.125 37.8125 C-0.11496707 36.38086552 -0.10584176 34.94922436 -0.09765625 33.51757812 C-0.07562795 30.01158023 -0.04111485 26.50583187 0 23 C-2.31 23 -4.62 23 -7 23 C-7 19.7 -7 16.4 -7 13 C-5.02 12.67 -3.04 12.34 -1 12 C-0.67 8.04 -0.34 4.08 0 0 Z " fill="#292934" transform="translate(592,433)"/>
<path d="M0 0 C3.38559017 2.65127267 5.27699247 5.76923684 6 10 C6.08220526 12.38943295 6.10745472 14.78104847 6.09765625 17.171875 C6.0962413 17.8542926 6.09482635 18.53671021 6.09336853 19.23980713 C6.08779084 21.40991684 6.07524254 23.5799217 6.0625 25.75 C6.05748211 27.22525892 6.05291971 28.70051947 6.04882812 30.17578125 C6.03782875 33.78388798 6.02057953 37.39193375 6 41 C2.7 41 -0.6 41 -4 41 C-4.01458252 40.10692139 -4.02916504 39.21384277 -4.04418945 38.29370117 C-4.10527077 34.97782722 -4.17942478 31.66278101 -4.26245117 28.34741211 C-4.29569001 26.91295372 -4.32372535 25.47836487 -4.34643555 24.04370117 C-4.38000271 21.98039193 -4.43231413 19.91827697 -4.48828125 17.85546875 C-4.51446533 16.61434326 -4.54064941 15.37321777 -4.56762695 14.09448242 C-4.75731623 11.04707704 -4.75731623 11.04707704 -6.31323242 9.09887695 C-9.20930713 7.21217377 -11.66937057 7.58367132 -15 8 C-17.43237233 10.31654507 -17.96819292 11.77075914 -18.43237305 15.11621094 C-18.45855713 16.31020508 -18.48474121 17.50419922 -18.51171875 18.734375 C-18.54716797 20.02988281 -18.58261719 21.32539062 -18.61914062 22.66015625 C-18.64223867 24.02343226 -18.66502114 25.38671364 -18.6875 26.75 C-18.72068648 28.12893862 -18.75517738 29.5078465 -18.79101562 30.88671875 C-18.87352291 34.25773059 -18.94266771 37.62848128 -19 41 C-22.3 41 -25.6 41 -29 41 C-29 27.14 -29 13.28 -29 -1 C-26.03 -1 -23.06 -1 -20 -1 C-19.34 -0.34 -18.68 0.32 -18 1 C-16.88625 0.46375 -15.7725 -0.0725 -14.625 -0.625 C-9.46671573 -2.53988706 -5.06126568 -2.07842353 0 0 Z " fill="#2F2D2D" transform="translate(273,577)"/>
<path d="M0 0 C20.4772011 -2.54314415 20.4772011 -2.54314415 26.0859375 1.50585938 C29.32360018 5.23373154 31.43450225 9.5028633 33.23583984 14.07714844 C33.96089179 16.06762488 33.96089179 16.06762488 35.22998047 17.97485352 C36 20 36 20 35.24902344 22.09057617 C34.79043945 22.81736572 34.33185547 23.54415527 33.859375 24.29296875 C33.36566406 25.08767578 32.87195313 25.88238281 32.36328125 26.70117188 C31.83089844 27.52166016 31.29851562 28.34214844 30.75 29.1875 C30.23308594 30.01958984 29.71617187 30.85167969 29.18359375 31.70898438 C25.31431362 37.84284319 25.31431362 37.84284319 23 39 C21.32626249 36.21251481 19.66223733 33.41935573 18 30.625 C17.52304687 29.8309375 17.04609375 29.036875 16.5546875 28.21875 C16.10351562 27.45820313 15.65234375 26.69765625 15.1875 25.9140625 C14.76855469 25.2123291 14.34960938 24.5105957 13.91796875 23.78759766 C13 22 13 22 13 20 C5.08 20 -2.84 20 -11 20 C-9.50260417 17.29817708 -8.00520833 14.59635417 -6.5078125 11.89453125 C-5.1576322 9.30260482 -4.02901671 6.73238902 -3 4 C-2.34 4 -1.68 4 -1 4 C-0.67 2.68 -0.34 1.36 0 0 Z " fill="#FFFEFD" transform="translate(394,144)"/>
<path d="M0 0 C2.8788869 1.82281281 5.24219923 4.25522983 6.8671875 7.234375 C7.0546875 9.984375 7.0546875 9.984375 6.8671875 12.234375 C3.8971875 12.234375 0.9271875 12.234375 -2.1328125 12.234375 C-2.4628125 11.244375 -2.7928125 10.254375 -3.1328125 9.234375 C-6.80146491 6.78860673 -8.80481593 6.99830246 -13.1328125 7.234375 C-14.1228125 7.729375 -14.1228125 7.729375 -15.1328125 8.234375 C-15.78836369 10.76170735 -15.78836369 10.76170735 -16.1328125 13.234375 C-15.45476562 13.39292969 -14.77671875 13.55148437 -14.078125 13.71484375 C1.67199908 17.66328206 1.67199908 17.66328206 6.9921875 23.609375 C8.16542815 27.12909695 8.38542252 29.5419505 7.8671875 33.234375 C5.28745414 37.70591282 3.04201807 39.47963082 -1.8203125 41.171875 C-8.53903912 42.85155666 -14.92241711 42.66208129 -21.1328125 39.421875 C-25.26756427 36.40695183 -25.26756427 36.40695183 -26.1328125 33.234375 C-26.2578125 30.484375 -26.2578125 30.484375 -26.1328125 28.234375 C-23.1628125 28.234375 -20.1928125 28.234375 -17.1328125 28.234375 C-16.4728125 29.554375 -15.8128125 30.874375 -15.1328125 32.234375 C-12.60805788 33.49675231 -10.82080784 33.33293904 -8.0078125 33.296875 C-7.09773438 33.28785156 -6.18765625 33.27882813 -5.25 33.26953125 C-4.55132812 33.25792969 -3.85265625 33.24632812 -3.1328125 33.234375 C-3.1328125 31.584375 -3.1328125 29.934375 -3.1328125 28.234375 C-3.8340625 27.99203125 -4.5353125 27.7496875 -5.2578125 27.5 C-19.7611198 22.37654905 -19.7611198 22.37654905 -24.0703125 18.484375 C-25.65804203 15.12212424 -26.23668127 11.95139315 -26.1328125 8.234375 C-24.69474154 4.27967986 -22.23798471 1.9257846 -18.4921875 -0.03515625 C-12.78043057 -1.80353133 -5.66484434 -2.03353387 0 0 Z " fill="#2E2C2D" transform="translate(516.1328125,576.765625)"/>
<path d="M0 0 C0.66 0.33 1.32 0.66 2 1 C1.85904936 2.6254308 1.71207913 4.25034051 1.5625 5.875 C1.48128906 6.77992188 1.40007812 7.68484375 1.31640625 8.6171875 C1 11 1 11 0 13 C-1.9609375 13.37890625 -1.9609375 13.37890625 -4.375 13.5625 C-7.19477465 13.78753088 -9.28663703 14.09554568 -12 15 C-13.12183708 18.36551123 -13.20800968 21.09060232 -13.31640625 24.63671875 C-13.35830078 25.93544922 -13.40019531 27.23417969 -13.44335938 28.57226562 C-13.48316987 29.94400761 -13.52288216 31.31575244 -13.5625 32.6875 C-13.60570835 34.07097645 -13.64932339 35.45444027 -13.69335938 36.83789062 C-13.79958028 40.22515719 -13.90162358 43.61249799 -14 47 C-15.97909398 47.02686553 -17.95828971 47.04633375 -19.9375 47.0625 C-21.03964844 47.07410156 -22.14179688 47.08570313 -23.27734375 47.09765625 C-26 47 -26 47 -27 46 C-27.0928726 44.58774954 -27.11746772 43.17091066 -27.11352539 41.75561523 C-27.11344986 40.85475693 -27.11337433 39.95389862 -27.11329651 39.02574158 C-27.10813522 38.04658279 -27.10297394 37.06742401 -27.09765625 36.05859375 C-27.0962413 35.06118668 -27.09482635 34.0637796 -27.09336853 33.03614807 C-27.08775114 29.83656876 -27.07519571 26.63705831 -27.0625 23.4375 C-27.05748724 21.27408955 -27.05292395 19.11067801 -27.04882812 16.94726562 C-27.03777606 11.63148371 -27.02049979 6.31575354 -27 1 C-22.71 1 -18.42 1 -14 1 C-13.67 1.99 -13.34 2.98 -13 4 C-12.34 3.34 -11.68 2.68 -11 2 C-6.94333233 -0.70444511 -4.80573152 -0.39391242 0 0 Z " fill="#2B2B35" transform="translate(358,445)"/>
<path d="M0 0 C2.97 0 5.94 0 9 0 C9 3.63 9 7.26 9 11 C12.3 11 15.6 11 19 11 C19 13.64 19 16.28 19 19 C15.7 19 12.4 19 9 19 C9.11347156 22.79233901 9.24022786 26.58341049 9.375 30.375 C9.4059375 31.45523438 9.436875 32.53546875 9.46875 33.6484375 C9.50742187 34.6796875 9.54609375 35.7109375 9.5859375 36.7734375 C9.6173584 37.72653809 9.6487793 38.67963867 9.68115234 39.66162109 C9.78555796 42.18895176 9.78555796 42.18895176 12 44 C13.98821313 44.39764263 15.98944339 44.73775349 18 45 C18 47.64 18 50.28 18 53 C7.10055447 53.62580548 7.10055447 53.62580548 2.8125 51.1875 C-0.23744562 47.50653115 -0.11932345 44.41589564 -0.09765625 39.80078125 C-0.09282227 37.98803711 -0.09282227 37.98803711 -0.08789062 36.13867188 C-0.07951172 34.87603516 -0.07113281 33.61339844 -0.0625 32.3125 C-0.05798828 31.03826172 -0.05347656 29.76402344 -0.04882812 28.45117188 C-0.03702873 25.30073436 -0.02056597 22.15039051 0 19 C-1.98 19 -3.96 19 -6 19 C-6 16.36 -6 13.72 -6 11 C-4.02 11 -2.04 11 0 11 C0 7.37 0 3.74 0 0 Z " fill="#28282F" transform="translate(292,565)"/>
<path d="M0 0 C2.67431489 1.81163267 2.95920359 2.87761077 4 6 C4.23592291 10.47539806 4.18517947 14.95655063 4.1875 19.4375 C4.19974609 20.67822266 4.21199219 21.91894531 4.22460938 23.19726562 C4.22750977 24.98487305 4.22750977 24.98487305 4.23046875 26.80859375 C4.23457764 27.89970459 4.23868652 28.99081543 4.24291992 30.11499023 C4.00095711 32.98863301 3.58441708 34.61530289 2 37 C-0.93436133 38.71171078 -2.72038502 39.0111846 -6.125 38.875 C-9.58471099 37.82204448 -10.23566794 37.10476409 -12 34 C-12.40405273 30.85546875 -12.40405273 30.85546875 -12.43359375 27.1875 C-12.4388356 26.53676514 -12.44407745 25.88603027 -12.44947815 25.21557617 C-12.45588282 23.84392724 -12.45458142 22.47222326 -12.44604492 21.10058594 C-12.43752508 19.00616479 -12.46632474 16.91446503 -12.49804688 14.8203125 C-12.49965892 13.48437581 -12.49908128 12.14843432 -12.49609375 10.8125 C-12.49794678 9.60207031 -12.4997998 8.39164063 -12.50170898 7.14453125 C-11.30254079 -0.37142315 -6.44361961 -0.71595773 0 0 Z " fill="#ECEDEC" transform="translate(363,763)"/>
<path d="M0 0 C3.96 0 7.92 0 12 0 C12 15.51 12 31.02 12 47 C8.04 47 4.08 47 0 47 C0 31.49 0 15.98 0 0 Z " fill="#272732" transform="translate(309,445)"/>
<path d="M0 0 C2.97 0 5.94 0 9 0 C9.33 1.32 9.66 2.64 10 4 C10.639375 3.34 11.27875 2.68 11.9375 2 C16.04464253 -0.68221553 19.23379829 -0.37381974 24 0 C25.31223496 3.93670488 24.24296256 6.12488144 23 10 C22.39671875 10.01417969 21.7934375 10.02835938 21.171875 10.04296875 C20.37265625 10.09066406 19.5734375 10.13835938 18.75 10.1875 C17.96109375 10.22230469 17.1721875 10.25710938 16.359375 10.29296875 C12.95408396 11.31342848 11.94696271 13.07352196 10 16 C9.36639024 18.9817875 9.36639024 18.9817875 9.390625 22.17578125 C9.35839844 23.33271484 9.32617188 24.48964844 9.29296875 25.68164062 C9.27169922 27.47891602 9.27169922 27.47891602 9.25 29.3125 C9.22035156 30.53001953 9.19070313 31.74753906 9.16015625 33.00195312 C9.08958177 36.00136833 9.03682136 39.0000117 9 42 C6.03 42 3.06 42 0 42 C0 28.14 0 14.28 0 0 Z " fill="#28272F" transform="translate(363,576)"/>
<path d="M0 0 C2.97 0 5.94 0 9 0 C9.33 1.32 9.66 2.64 10 4 C10.639375 3.34 11.27875 2.68 11.9375 2 C16.04464253 -0.68221553 19.23379829 -0.37381974 24 0 C24.125 7.75 24.125 7.75 23 10 C21.0390625 10.34375 21.0390625 10.34375 18.625 10.5 C15.10348536 10.72941463 14.07060704 10.95292864 11 13 C9.94163339 16.17509982 9.79756211 18.64282383 9.68359375 21.98046875 C9.64169922 23.14384766 9.59980469 24.30722656 9.55664062 25.50585938 C9.51732422 26.72080078 9.47800781 27.93574219 9.4375 29.1875 C9.39431641 30.41404297 9.35113281 31.64058594 9.30664062 32.90429688 C9.2004691 35.93608381 9.09842048 38.96795315 9 42 C6.03 42 3.06 42 0 42 C0 28.14 0 14.28 0 0 Z " fill="#27262F" transform="translate(440,576)"/>
<path d="M0 0 C2.97 0 5.94 0 9 0 C10 1 10 1 10.11352539 4.87719727 C10.11336621 6.60694167 10.10766849 8.33669081 10.09765625 10.06640625 C10.0962413 10.97502914 10.09482635 11.88365204 10.09336853 12.81980896 C10.08775193 15.73407221 10.07519665 18.64825981 10.0625 21.5625 C10.05748714 23.53320202 10.05292386 25.50390524 10.04882812 27.47460938 C10.03777711 32.31643559 10.02050138 37.15820495 10 42 C6.7 42 3.4 42 0 42 C0 28.14 0 14.28 0 0 Z " fill="#302D2D" transform="translate(471,576)"/>
<path d="M0 0 C3.91475809 0.02542051 5.44718853 0.13081312 8.875 2.1875 C12.14567892 5.89426944 11.84009371 8.44743957 11.75 13.3125 C11.09 13.3125 10.43 13.3125 9.75 13.3125 C9.75 13.9725 9.75 14.6325 9.75 15.3125 C7.98596271 16.57086598 6.16220501 17.7463265 4.3125 18.875 C0.84563564 20.84783923 0.84563564 20.84783923 -2.25 23.3125 C4.68 23.8075 4.68 23.8075 11.75 24.3125 C11.75 26.2925 11.75 28.2725 11.75 30.3125 C4.49 29.9825 -2.77 29.6525 -10.25 29.3125 C-8.42415613 22.00912452 -7.32343172 17.90468382 -1.14453125 13.97265625 C0.27723648 13.14475964 1.71684217 12.34641961 3.17578125 11.5859375 C3.69527344 11.16570312 4.21476562 10.74546875 4.75 10.3125 C4.75 8.9925 4.75 7.6725 4.75 6.3125 C3.47125 6.415625 2.1925 6.51875 0.875 6.625 C0.15570313 6.68300781 -0.56359375 6.74101563 -1.3046875 6.80078125 C-3.64519216 7.18643036 -3.64519216 7.18643036 -5.25 10.3125 C-7.25 10.3125 -7.25 10.3125 -8.875 8.9375 C-10.25 7.3125 -10.25 7.3125 -10.25 5.3125 C-9.59 5.3125 -8.93 5.3125 -8.25 5.3125 C-7.7859375 4.3534375 -7.7859375 4.3534375 -7.3125 3.375 C-5.42250902 -0.29380601 -4.04500235 0.10274739 0 0 Z " fill="#FFFAFA" transform="translate(408.25,106.6875)"/>
<path d="M0 0 C4.59207478 0.54482243 5.86519031 1.86810833 8.6875 5.4375 C11.01680775 12.42542325 9.59722782 17.94656871 6.6875 24.4375 C4.6875 26.4375 4.6875 26.4375 1.3125 26.8125 C-2.3125 26.4375 -2.3125 26.4375 -4.6875 24.625 C-8.2861788 19.78062469 -7.6507216 14.21201519 -7.3125 8.4375 C-5.41581851 0.71529678 -5.41581851 0.71529678 0 0 Z " fill="#FBCE00" transform="translate(411.3125,583.5625)"/>
<path d="M0 0 C3.625 0.4375 3.625 0.4375 5.81640625 2.46484375 C8.06812405 6.16583132 8.25349371 9.22943019 8.1875 13.4375 C8.21134766 14.13617188 8.23519531 14.83484375 8.25976562 15.5546875 C8.24857005 19.51045598 7.7406034 21.28991299 5.28125 24.4296875 C2.625 26.4375 2.625 26.4375 -0.4375 26.5625 C-4.61414651 24.96293325 -6.41271492 22.36207017 -8.375 18.4375 C-9.32082723 7.14214016 -9.32082723 7.14214016 -5.375 2.4375 C-3.375 0.4375 -3.375 0.4375 0 0 Z " fill="#F8F8F8" transform="translate(228.375,455.5625)"/>
<path d="M0 0 C3.83625 -0.12375 3.83625 -0.12375 7.75 -0.25 C8.54889648 -0.28641602 9.34779297 -0.32283203 10.17089844 -0.36035156 C13.63386259 -0.41443312 15.63181731 -0.26207649 18.48046875 1.765625 C20.06507344 4.0956864 20.56793606 5.2167383 20.5625 8 C20.58441406 8.66 20.60632813 9.32 20.62890625 10 C19.60664334 13.25092304 17.88192588 14.27694379 15 16 C12.20704934 16.28942494 9.94329617 16.38605897 7.1875 16.25 C4.815625 16.1675 2.44375 16.085 0 16 C0 10.72 0 5.44 0 0 Z " fill="#FDFDFD" transform="translate(118,440)"/>
<path d="M0 0 C3.5578125 -0.12375 3.5578125 -0.12375 7.1875 -0.25 C7.92508545 -0.28641602 8.6626709 -0.32283203 9.42260742 -0.36035156 C12.96873531 -0.41973304 14.90906325 -0.05533188 17.953125 1.796875 C20 4 20 4 20.5625 7.5 C20 11 20 11 18.25 13.375 C12.8920203 17.244652 6.32699668 16.0687717 0 16 C0 10.72 0 5.44 0 0 Z " fill="#FAFAFA" transform="translate(178,375)"/>
<path d="M0 0 C2.4178712 -0.10826289 4.83087556 -0.18739789 7.25 -0.25 C8.27287109 -0.30027344 8.27287109 -0.30027344 9.31640625 -0.3515625 C12.73418084 -0.41792706 14.64465176 -0.25519436 17.453125 1.76171875 C19.99923151 5.44585771 19.55997892 7.59016601 19 12 C16.58893394 14.63728955 15.16722112 14.98394677 11.58203125 15.328125 C10.33808594 15.30234375 9.09414063 15.2765625 7.8125 15.25 C6.56082031 15.23453125 5.30914063 15.2190625 4.01953125 15.203125 C1 15 1 15 0 14 C-0.07271741 11.64686445 -0.08370868 9.29166332 -0.0625 6.9375 C-0.05347656 5.64714844 -0.04445313 4.35679687 -0.03515625 3.02734375 C-0.02355469 2.02832031 -0.01195312 1.02929688 0 0 Z " fill="#E8E9E9" transform="translate(507,686)"/>
<path d="M0 0 C2.41734542 -0.08117951 4.83194949 -0.14056926 7.25 -0.1875 C7.93191406 -0.21263672 8.61382812 -0.23777344 9.31640625 -0.26367188 C12.44826945 -0.30928153 14.66103025 -0.17920057 17.453125 1.296875 C19 3 19 3 19.5 6.4375 C19 10 19 10 17.453125 12.20703125 C14.11503854 14.64681101 11.21050857 14.44465638 7.25 14.25 C6.55261719 14.23195313 5.85523438 14.21390625 5.13671875 14.1953125 C3.42388461 14.14838554 1.71176176 14.07664605 0 14 C0 9.38 0 4.76 0 0 Z " fill="#FDFDFD" transform="translate(178,350)"/>
<path d="M0 0 C2.375 1.625 2.375 1.625 4 4 C4.61195145 7.6717087 4.48706506 9.28813568 2.375 12.375 C-0.71186432 14.48706506 -2.3282913 14.61195145 -6 14 C-8.375 12.375 -8.375 12.375 -10 10 C-10.61195145 6.3282913 -10.48706506 4.71186432 -8.375 1.625 C-5.28813568 -0.48706506 -3.6717087 -0.61195145 0 0 Z " fill="#2D2D38" transform="translate(318,426)"/>
<path d="M0 0 C2.875 1.6875 2.875 1.6875 5 4 C5.33 5.65 5.66 7.3 6 9 C0.39 9 -5.22 9 -11 9 C-10 3 -10 3 -8.875 1.125 C-5.82171624 -0.70697026 -3.47558236 -0.41946684 0 0 Z " fill="#FCCF00" transform="translate(552,584)"/>
<path d="M0 0 C3.6875 0.4375 3.6875 0.4375 6.625 2.6875 C8.6875 5.4375 8.6875 5.4375 8.6875 9.4375 C3.0775 9.4375 -2.5325 9.4375 -8.3125 9.4375 C-4.52392857 0.5975 -4.52392857 0.5975 0 0 Z " fill="#FDD000" transform="translate(335.3125,583.5625)"/>
<path d="M0 0 C1.9375 1.625 1.9375 1.625 3 4 C2.8125 7.1875 2.8125 7.1875 2 10 C-1.04300316 11.52150158 -3.654085 11.23899393 -7 11 C-9.15502531 7.76746204 -9.46856135 6.74849077 -9 3 C-6.74280427 -0.63659311 -4.02330328 -0.58673173 0 0 Z " fill="#302E2D" transform="translate(479,559)"/>
<path d="M0 0 C2.5 1.75 2.5 1.75 4 4 C4 5.32 4 6.64 4 8 C-1.28 8 -6.56 8 -12 8 C-11 3 -11 3 -9.9375 1.1875 C-6.78858766 -0.74247853 -3.5277243 -0.64592135 0 0 Z " fill="#ECEDEC" transform="translate(454,366)"/>
<path d="M0 0 C1.94140625 0.390625 1.94140625 0.390625 4.44140625 2.703125 C5.94140625 5.390625 5.94140625 5.390625 5.94140625 8.390625 C0.66140625 8.390625 -4.61859375 8.390625 -10.05859375 8.390625 C-9.72859375 6.410625 -9.39859375 4.430625 -9.05859375 2.390625 C-5.84407211 0.24761058 -3.82995896 -0.08463998 0 0 Z " fill="#FAFAFA" transform="translate(242.05859375,365.609375)"/>
<path d="M0 0 C2.5 1.75 2.5 1.75 4 4 C4 5.32 4 6.64 4 8 C-1.28 8 -6.56 8 -12 8 C-11 3 -11 3 -9.9375 1.1875 C-6.78858766 -0.74247853 -3.5277243 -0.64592135 0 0 Z " fill="#EBECEC" transform="translate(513,456)"/>
<path d="M0 0 C1.17369141 -0.02513672 1.17369141 -0.02513672 2.37109375 -0.05078125 C4.5625 0.3125 4.5625 0.3125 6.28515625 1.51953125 C7.5625 3.3125 7.5625 3.3125 8.5625 8.3125 C3.2825 8.3125 -1.9975 8.3125 -7.4375 8.3125 C-6.05705629 0.02983772 -6.05705629 0.02983772 0 0 Z " fill="#EDEEED" transform="translate(499.4375,365.6875)"/>
<path d="M0 0 C2.9375 2.3125 2.9375 2.3125 5 5 C5 5.99 5 6.98 5 8 C-0.28 8 -5.56 8 -11 8 C-10 3 -10 3 -8.875 1.1875 C-5.80189505 -0.7587998 -3.54118756 -0.48843966 0 0 Z " fill="#ECEDED" transform="translate(388,456)"/>
<path d="M0 0 C2.5 2.3125 2.5 2.3125 4 5 C4 5.99 4 6.98 4 8 C-1.28 8 -6.56 8 -12 8 C-11 3 -11 3 -9.9375 1.1875 C-6.78026015 -0.74758249 -3.52476363 -0.77303669 0 0 Z " fill="#F9F9F9" transform="translate(183,456)"/>
</svg>
