<svg xmlns="http://www.w3.org/2000/svg" version="1.1" xmlns:xlink="http://www.w3.org/1999/xlink" xmlns:svgjs="http://svgjs.dev/svgjs" width="1440" height="560" preserveAspectRatio="none" viewBox="0 0 1440 560"><g mask="url(&quot;#SvgjsMask1004&quot;)" fill="none"><g mask="url(&quot;#SvgjsMask1005&quot;)"><path d="M712.5 502.5L727.5 487.5L727.5 472.5M712.5 547.5L697.5 532.5L697.5 517.5L682.5 502.5M712.5 562.5L727.5 547.5L727.5 532.5L727.5 517.5M727.5 577.5L712.5 562.5L712.5 547.5L712.5 532.5L712.5 517.5L712.5 502.5L712.5 487.5L712.5 472.5L712.5 457.5" stroke="rgba(5, 6, 6, 1)" stroke-width="2.5"></path><path d="M708.75 457.5 a3.75 3.75 0 1 0 7.5 0 a3.75 3.75 0 1 0 -7.5 0zM723.75 472.5 a3.75 3.75 0 1 0 7.5 0 a3.75 3.75 0 1 0 -7.5 0zM678.75 502.5 a3.75 3.75 0 1 0 7.5 0 a3.75 3.75 0 1 0 -7.5 0zM723.75 517.5 a3.75 3.75 0 1 0 7.5 0 a3.75 3.75 0 1 0 -7.5 0z" fill="rgba(5, 6, 6, 1)"></path><path d="M742.5 577.5L742.5 562.5L742.5 547.5L742.5 532.5L742.5 517.5L742.5 502.5" stroke="rgba(5, 6, 6, 1)" stroke-width="2.5"></path><path d="M738.75 502.5 a3.75 3.75 0 1 0 7.5 0 a3.75 3.75 0 1 0 -7.5 0z" fill="rgba(5, 6, 6, 1)"></path><path d="M697.5 577.5L697.5 562.5L682.5 547.5" stroke="rgba(5, 6, 6, 1)" stroke-width="2.5"></path><path d="M678.75 547.5 a3.75 3.75 0 1 0 7.5 0 a3.75 3.75 0 1 0 -7.5 0z" fill="rgba(5, 6, 6, 1)"></path><path d="M757.5 487.5L742.5 472.5M757.5 457.5L742.5 442.5M757.5 532.5L772.5 517.5M757.5 577.5L757.5 562.5L757.5 547.5L757.5 532.5L757.5 517.5L757.5 502.5L757.5 487.5L757.5 472.5L757.5 457.5L757.5 442.5" stroke="rgba(5, 6, 6, 1)" stroke-width="2.5"></path><path d="M753.75 442.5 a3.75 3.75 0 1 0 7.5 0 a3.75 3.75 0 1 0 -7.5 0zM738.75 472.5 a3.75 3.75 0 1 0 7.5 0 a3.75 3.75 0 1 0 -7.5 0zM738.75 442.5 a3.75 3.75 0 1 0 7.5 0 a3.75 3.75 0 1 0 -7.5 0zM768.75 517.5 a3.75 3.75 0 1 0 7.5 0 a3.75 3.75 0 1 0 -7.5 0z" fill="rgba(5, 6, 6, 1)"></path><path d="M667.5 502.5L667.5 487.5M697.5 472.5L682.5 457.5L682.5 442.5L682.5 427.5L682.5 412.5M682.5 487.5L682.5 472.5L667.5 457.5L667.5 442.5L667.5 427.5M682.5 577.5L682.5 562.5L667.5 547.5L667.5 532.5L667.5 517.5L667.5 502.5L682.5 487.5L697.5 472.5L697.5 457.5L697.5 442.5" stroke="rgba(5, 6, 6, 1)" stroke-width="2.5"></path><path d="M693.75 442.5 a3.75 3.75 0 1 0 7.5 0 a3.75 3.75 0 1 0 -7.5 0zM663.75 487.5 a3.75 3.75 0 1 0 7.5 0 a3.75 3.75 0 1 0 -7.5 0zM678.75 412.5 a3.75 3.75 0 1 0 7.5 0 a3.75 3.75 0 1 0 -7.5 0zM663.75 427.5 a3.75 3.75 0 1 0 7.5 0 a3.75 3.75 0 1 0 -7.5 0z" fill="rgba(5, 6, 6, 1)"></path><path d="M787.5 487.5L772.5 472.5M787.5 457.5L772.5 442.5M787.5 547.5L772.5 532.5M772.5 577.5L772.5 562.5L787.5 547.5L787.5 532.5L787.5 517.5L787.5 502.5L787.5 487.5L787.5 472.5L787.5 457.5L787.5 442.5" stroke="rgba(5, 6, 6, 1)" stroke-width="2.5"></path><path d="M783.75 442.5 a3.75 3.75 0 1 0 7.5 0 a3.75 3.75 0 1 0 -7.5 0zM768.75 472.5 a3.75 3.75 0 1 0 7.5 0 a3.75 3.75 0 1 0 -7.5 0zM768.75 442.5 a3.75 3.75 0 1 0 7.5 0 a3.75 3.75 0 1 0 -7.5 0zM768.75 532.5 a3.75 3.75 0 1 0 7.5 0 a3.75 3.75 0 1 0 -7.5 0z" fill="rgba(5, 6, 6, 1)"></path><path d="M652.5 382.5L667.5 367.5M652.5 442.5L637.5 427.5L637.5 412.5M652.5 472.5L637.5 457.5M667.5 577.5L667.5 562.5L652.5 547.5L652.5 532.5L652.5 517.5L652.5 502.5L652.5 487.5L652.5 472.5L652.5 457.5L652.5 442.5L652.5 427.5L652.5 412.5L652.5 397.5L652.5 382.5L652.5 367.5" stroke="rgba(5, 6, 6, 1)" stroke-width="2.5"></path><path d="M648.75 367.5 a3.75 3.75 0 1 0 7.5 0 a3.75 3.75 0 1 0 -7.5 0zM663.75 367.5 a3.75 3.75 0 1 0 7.5 0 a3.75 3.75 0 1 0 -7.5 0zM633.75 412.5 a3.75 3.75 0 1 0 7.5 0 a3.75 3.75 0 1 0 -7.5 0zM633.75 457.5 a3.75 3.75 0 1 0 7.5 0 a3.75 3.75 0 1 0 -7.5 0z" fill="rgba(5, 6, 6, 1)"></path><path d="M817.5 427.5L802.5 412.5M817.5 382.5L832.5 367.5M802.5 472.5L802.5 457.5L802.5 442.5L802.5 427.5M817.5 397.5L802.5 382.5L802.5 367.5L802.5 352.5M787.5 577.5L787.5 562.5L802.5 547.5L802.5 532.5L802.5 517.5L802.5 502.5L802.5 487.5L802.5 472.5L817.5 457.5L817.5 442.5L817.5 427.5L817.5 412.5L817.5 397.5L817.5 382.5L817.5 367.5L817.5 352.5L817.5 337.5" stroke="rgba(5, 6, 6, 1)" stroke-width="2.5"></path><path d="M813.75 337.5 a3.75 3.75 0 1 0 7.5 0 a3.75 3.75 0 1 0 -7.5 0zM798.75 412.5 a3.75 3.75 0 1 0 7.5 0 a3.75 3.75 0 1 0 -7.5 0zM828.75 367.5 a3.75 3.75 0 1 0 7.5 0 a3.75 3.75 0 1 0 -7.5 0zM798.75 427.5 a3.75 3.75 0 1 0 7.5 0 a3.75 3.75 0 1 0 -7.5 0zM798.75 352.5 a3.75 3.75 0 1 0 7.5 0 a3.75 3.75 0 1 0 -7.5 0z" fill="rgba(5, 6, 6, 1)"></path><path d="M652.5 577.5L652.5 562.5L637.5 547.5L637.5 532.5L637.5 517.5L637.5 502.5L637.5 487.5" stroke="rgba(5, 6, 6, 1)" stroke-width="2.5"></path><path d="M633.75 487.5 a3.75 3.75 0 1 0 7.5 0 a3.75 3.75 0 1 0 -7.5 0z" fill="rgba(5, 6, 6, 1)"></path><path d="M802.5 577.5L802.5 562.5L817.5 547.5L817.5 532.5L817.5 517.5L817.5 502.5L817.5 487.5L817.5 472.5L832.5 457.5L832.5 442.5L832.5 427.5" stroke="rgba(5, 6, 6, 1)" stroke-width="2.5"></path><path d="M828.75 427.5 a3.75 3.75 0 1 0 7.5 0 a3.75 3.75 0 1 0 -7.5 0z" fill="rgba(5, 6, 6, 1)"></path><path d="M622.5 457.5L607.5 442.5L607.5 427.5M637.5 397.5L622.5 382.5L622.5 367.5L622.5 352.5M622.5 517.5L607.5 502.5L607.5 487.5L607.5 472.5L607.5 457.5M622.5 412.5L622.5 397.5L607.5 382.5L607.5 367.5M637.5 577.5L637.5 562.5L622.5 547.5L622.5 532.5L622.5 517.5L622.5 502.5L622.5 487.5L622.5 472.5L622.5 457.5L622.5 442.5L622.5 427.5L622.5 412.5L637.5 397.5L637.5 382.5L637.5 367.5L637.5 352.5" stroke="rgba(5, 6, 6, 1)" stroke-width="2.5"></path><path d="M633.75 352.5 a3.75 3.75 0 1 0 7.5 0 a3.75 3.75 0 1 0 -7.5 0zM603.75 427.5 a3.75 3.75 0 1 0 7.5 0 a3.75 3.75 0 1 0 -7.5 0zM618.75 352.5 a3.75 3.75 0 1 0 7.5 0 a3.75 3.75 0 1 0 -7.5 0zM603.75 457.5 a3.75 3.75 0 1 0 7.5 0 a3.75 3.75 0 1 0 -7.5 0zM603.75 367.5 a3.75 3.75 0 1 0 7.5 0 a3.75 3.75 0 1 0 -7.5 0z" fill="rgba(5, 6, 6, 1)"></path><path d="M832.5 487.5L847.5 472.5M847.5 412.5L832.5 397.5L832.5 382.5L847.5 367.5L847.5 352.5M817.5 577.5L817.5 562.5L832.5 547.5L832.5 532.5L832.5 517.5L832.5 502.5L832.5 487.5L832.5 472.5L847.5 457.5L847.5 442.5L847.5 427.5L847.5 412.5L847.5 397.5" stroke="rgba(5, 6, 6, 1)" stroke-width="2.5"></path><path d="M843.75 397.5 a3.75 3.75 0 1 0 7.5 0 a3.75 3.75 0 1 0 -7.5 0zM843.75 472.5 a3.75 3.75 0 1 0 7.5 0 a3.75 3.75 0 1 0 -7.5 0zM843.75 352.5 a3.75 3.75 0 1 0 7.5 0 a3.75 3.75 0 1 0 -7.5 0z" fill="rgba(5, 6, 6, 1)"></path><path d="M592.5 427.5L577.5 412.5L577.5 397.5L562.5 382.5L562.5 367.5M592.5 412.5L607.5 397.5M607.5 532.5L607.5 517.5M622.5 577.5L622.5 562.5L607.5 547.5L607.5 532.5L592.5 517.5L592.5 502.5L592.5 487.5L592.5 472.5L592.5 457.5L592.5 442.5L592.5 427.5L592.5 412.5L592.5 397.5" stroke="rgba(5, 6, 6, 1)" stroke-width="2.5"></path><path d="M588.75 397.5 a3.75 3.75 0 1 0 7.5 0 a3.75 3.75 0 1 0 -7.5 0zM558.75 367.5 a3.75 3.75 0 1 0 7.5 0 a3.75 3.75 0 1 0 -7.5 0zM603.75 397.5 a3.75 3.75 0 1 0 7.5 0 a3.75 3.75 0 1 0 -7.5 0zM603.75 517.5 a3.75 3.75 0 1 0 7.5 0 a3.75 3.75 0 1 0 -7.5 0z" fill="rgba(5, 6, 6, 1)"></path><path d="M832.5 577.5L832.5 562.5L847.5 547.5L847.5 532.5L847.5 517.5L847.5 502.5" stroke="rgba(5, 6, 6, 1)" stroke-width="2.5"></path><path d="M843.75 502.5 a3.75 3.75 0 1 0 7.5 0 a3.75 3.75 0 1 0 -7.5 0z" fill="rgba(5, 6, 6, 1)"></path><path d="M607.5 577.5L607.5 562.5" stroke="rgba(5, 6, 6, 1)" stroke-width="2.5"></path><path d="M603.75 562.5 a3.75 3.75 0 1 0 7.5 0 a3.75 3.75 0 1 0 -7.5 0z" fill="rgba(5, 6, 6, 1)"></path><path d="M862.5 412.5L877.5 397.5L877.5 382.5L877.5 367.5M862.5 427.5L877.5 412.5M862.5 457.5L877.5 442.5L877.5 427.5M847.5 577.5L847.5 562.5L862.5 547.5L862.5 532.5L862.5 517.5L862.5 502.5L862.5 487.5L862.5 472.5L862.5 457.5L862.5 442.5L862.5 427.5L862.5 412.5L862.5 397.5L862.5 382.5L862.5 367.5" stroke="rgba(5, 6, 6, 1)" stroke-width="2.5"></path><path d="M858.75 367.5 a3.75 3.75 0 1 0 7.5 0 a3.75 3.75 0 1 0 -7.5 0zM873.75 367.5 a3.75 3.75 0 1 0 7.5 0 a3.75 3.75 0 1 0 -7.5 0zM873.75 412.5 a3.75 3.75 0 1 0 7.5 0 a3.75 3.75 0 1 0 -7.5 0zM873.75 427.5 a3.75 3.75 0 1 0 7.5 0 a3.75 3.75 0 1 0 -7.5 0z" fill="rgba(5, 6, 6, 1)"></path><path d="M592.5 577.5L592.5 562.5" stroke="rgba(5, 6, 6, 1)" stroke-width="2.5"></path><path d="M588.75 562.5 a3.75 3.75 0 1 0 7.5 0 a3.75 3.75 0 1 0 -7.5 0z" fill="rgba(5, 6, 6, 1)"></path><path d="M862.5 577.5L862.5 562.5L877.5 547.5L877.5 532.5L877.5 517.5L877.5 502.5" stroke="rgba(5, 6, 6, 1)" stroke-width="2.5"></path><path d="M873.75 502.5 a3.75 3.75 0 1 0 7.5 0 a3.75 3.75 0 1 0 -7.5 0z" fill="rgba(5, 6, 6, 1)"></path><path d="M577.5 562.5L562.5 547.5L562.5 532.5L562.5 517.5M577.5 547.5L592.5 532.5M577.5 502.5L562.5 487.5L562.5 472.5L562.5 457.5L562.5 442.5M577.5 577.5L577.5 562.5L577.5 547.5L577.5 532.5L577.5 517.5L577.5 502.5L577.5 487.5L577.5 472.5" stroke="rgba(5, 6, 6, 1)" stroke-width="2.5"></path><path d="M573.75 472.5 a3.75 3.75 0 1 0 7.5 0 a3.75 3.75 0 1 0 -7.5 0zM558.75 517.5 a3.75 3.75 0 1 0 7.5 0 a3.75 3.75 0 1 0 -7.5 0zM588.75 532.5 a3.75 3.75 0 1 0 7.5 0 a3.75 3.75 0 1 0 -7.5 0zM558.75 442.5 a3.75 3.75 0 1 0 7.5 0 a3.75 3.75 0 1 0 -7.5 0z" fill="rgba(5, 6, 6, 1)"></path><path d="M892.5 412.5L907.5 397.5L907.5 382.5L907.5 367.5L907.5 352.5M892.5 472.5L877.5 457.5M892.5 427.5L907.5 412.5M877.5 577.5L892.5 562.5L892.5 547.5L892.5 532.5L892.5 517.5L892.5 502.5L892.5 487.5L892.5 472.5L892.5 457.5L892.5 442.5L892.5 427.5L892.5 412.5L892.5 397.5" stroke="rgba(5, 6, 6, 1)" stroke-width="2.5"></path><path d="M888.75 397.5 a3.75 3.75 0 1 0 7.5 0 a3.75 3.75 0 1 0 -7.5 0zM903.75 352.5 a3.75 3.75 0 1 0 7.5 0 a3.75 3.75 0 1 0 -7.5 0zM873.75 457.5 a3.75 3.75 0 1 0 7.5 0 a3.75 3.75 0 1 0 -7.5 0zM903.75 412.5 a3.75 3.75 0 1 0 7.5 0 a3.75 3.75 0 1 0 -7.5 0z" fill="rgba(5, 6, 6, 1)"></path><path d="M547.5 502.5L532.5 487.5M547.5 517.5L532.5 502.5M547.5 532.5L532.5 517.5M562.5 577.5L547.5 562.5L547.5 547.5L547.5 532.5L547.5 517.5L547.5 502.5L547.5 487.5L547.5 472.5" stroke="rgba(5, 6, 6, 1)" stroke-width="2.5"></path><path d="M543.75 472.5 a3.75 3.75 0 1 0 7.5 0 a3.75 3.75 0 1 0 -7.5 0zM528.75 487.5 a3.75 3.75 0 1 0 7.5 0 a3.75 3.75 0 1 0 -7.5 0zM528.75 502.5 a3.75 3.75 0 1 0 7.5 0 a3.75 3.75 0 1 0 -7.5 0zM528.75 517.5 a3.75 3.75 0 1 0 7.5 0 a3.75 3.75 0 1 0 -7.5 0z" fill="rgba(5, 6, 6, 1)"></path><path d="M907.5 577.5L907.5 562.5L907.5 547.5L907.5 532.5L907.5 517.5L907.5 502.5L907.5 487.5L907.5 472.5L907.5 457.5L907.5 442.5" stroke="rgba(5, 6, 6, 1)" stroke-width="2.5"></path><path d="M903.75 442.5 a3.75 3.75 0 1 0 7.5 0 a3.75 3.75 0 1 0 -7.5 0z" fill="rgba(5, 6, 6, 1)"></path><path d="M532.5 577.5L532.5 562.5" stroke="rgba(5, 6, 6, 1)" stroke-width="2.5"></path><path d="M528.75 562.5 a3.75 3.75 0 1 0 7.5 0 a3.75 3.75 0 1 0 -7.5 0z" fill="rgba(5, 6, 6, 1)"></path><path d="M922.5 397.5L937.5 382.5L937.5 367.5L922.5 352.5L922.5 337.5M922.5 472.5L937.5 457.5L937.5 442.5M922.5 412.5L937.5 397.5L952.5 382.5L967.5 367.5M922.5 577.5L922.5 562.5L922.5 547.5L922.5 532.5L922.5 517.5L922.5 502.5L922.5 487.5L922.5 472.5L922.5 457.5L922.5 442.5L922.5 427.5L922.5 412.5L922.5 397.5L922.5 382.5" stroke="rgba(5, 6, 6, 1)" stroke-width="2.5"></path><path d="M918.75 382.5 a3.75 3.75 0 1 0 7.5 0 a3.75 3.75 0 1 0 -7.5 0zM918.75 337.5 a3.75 3.75 0 1 0 7.5 0 a3.75 3.75 0 1 0 -7.5 0zM933.75 442.5 a3.75 3.75 0 1 0 7.5 0 a3.75 3.75 0 1 0 -7.5 0zM963.75 367.5 a3.75 3.75 0 1 0 7.5 0 a3.75 3.75 0 1 0 -7.5 0z" fill="rgba(5, 6, 6, 1)"></path><path d="M487.5 487.5L502.5 472.5M517.5 532.5L517.5 517.5L517.5 502.5L517.5 487.5M487.5 502.5L472.5 487.5L472.5 472.5M517.5 577.5L517.5 562.5L517.5 547.5L517.5 532.5L502.5 517.5L487.5 502.5L487.5 487.5L487.5 472.5" stroke="rgba(5, 6, 6, 1)" stroke-width="2.5"></path><path d="M483.75 472.5 a3.75 3.75 0 1 0 7.5 0 a3.75 3.75 0 1 0 -7.5 0zM498.75 472.5 a3.75 3.75 0 1 0 7.5 0 a3.75 3.75 0 1 0 -7.5 0zM513.75 487.5 a3.75 3.75 0 1 0 7.5 0 a3.75 3.75 0 1 0 -7.5 0zM468.75 472.5 a3.75 3.75 0 1 0 7.5 0 a3.75 3.75 0 1 0 -7.5 0z" fill="rgba(5, 6, 6, 1)"></path><path d="M937.5 532.5L952.5 517.5L952.5 502.5L952.5 487.5L952.5 472.5M937.5 547.5L952.5 532.5L967.5 517.5M937.5 562.5L952.5 547.5L967.5 532.5M937.5 577.5L937.5 562.5L937.5 547.5L937.5 532.5L937.5 517.5L937.5 502.5L937.5 487.5" stroke="rgba(5, 6, 6, 1)" stroke-width="2.5"></path><path d="M933.75 487.5 a3.75 3.75 0 1 0 7.5 0 a3.75 3.75 0 1 0 -7.5 0zM948.75 472.5 a3.75 3.75 0 1 0 7.5 0 a3.75 3.75 0 1 0 -7.5 0zM963.75 517.5 a3.75 3.75 0 1 0 7.5 0 a3.75 3.75 0 1 0 -7.5 0zM963.75 532.5 a3.75 3.75 0 1 0 7.5 0 a3.75 3.75 0 1 0 -7.5 0z" fill="rgba(5, 6, 6, 1)"></path><path d="M472.5 517.5L472.5 502.5M487.5 397.5L472.5 382.5L472.5 367.5M457.5 472.5L457.5 457.5M502.5 577.5L502.5 562.5L502.5 547.5L487.5 532.5L472.5 517.5L457.5 502.5L457.5 487.5L457.5 472.5L472.5 457.5L472.5 442.5L472.5 427.5L472.5 412.5L487.5 397.5L487.5 382.5" stroke="rgba(5, 6, 6, 1)" stroke-width="2.5"></path><path d="M483.75 382.5 a3.75 3.75 0 1 0 7.5 0 a3.75 3.75 0 1 0 -7.5 0zM468.75 502.5 a3.75 3.75 0 1 0 7.5 0 a3.75 3.75 0 1 0 -7.5 0zM468.75 367.5 a3.75 3.75 0 1 0 7.5 0 a3.75 3.75 0 1 0 -7.5 0zM453.75 457.5 a3.75 3.75 0 1 0 7.5 0 a3.75 3.75 0 1 0 -7.5 0z" fill="rgba(5, 6, 6, 1)"></path><path d="M442.5 382.5L457.5 367.5L457.5 352.5L457.5 337.5M427.5 352.5L442.5 337.5M442.5 412.5L457.5 397.5L457.5 382.5M442.5 427.5L457.5 412.5M487.5 577.5L487.5 562.5L487.5 547.5L472.5 532.5L457.5 517.5L442.5 502.5L442.5 487.5L442.5 472.5L442.5 457.5L442.5 442.5L442.5 427.5L442.5 412.5L442.5 397.5L442.5 382.5L442.5 367.5L427.5 352.5L427.5 337.5L427.5 322.5" stroke="rgba(5, 6, 6, 1)" stroke-width="2.5"></path><path d="M423.75 322.5 a3.75 3.75 0 1 0 7.5 0 a3.75 3.75 0 1 0 -7.5 0zM453.75 337.5 a3.75 3.75 0 1 0 7.5 0 a3.75 3.75 0 1 0 -7.5 0zM438.75 337.5 a3.75 3.75 0 1 0 7.5 0 a3.75 3.75 0 1 0 -7.5 0zM453.75 382.5 a3.75 3.75 0 1 0 7.5 0 a3.75 3.75 0 1 0 -7.5 0zM453.75 412.5 a3.75 3.75 0 1 0 7.5 0 a3.75 3.75 0 1 0 -7.5 0z" fill="rgba(5, 6, 6, 1)"></path><path d="M967.5 577.5L982.5 562.5" stroke="rgba(5, 6, 6, 1)" stroke-width="2.5"></path><path d="M978.75 562.5 a3.75 3.75 0 1 0 7.5 0 a3.75 3.75 0 1 0 -7.5 0z" fill="rgba(5, 6, 6, 1)"></path><path d="M427.5 427.5L412.5 412.5M427.5 397.5L412.5 382.5L412.5 367.5M472.5 577.5L472.5 562.5L472.5 547.5L457.5 532.5L442.5 517.5L427.5 502.5L427.5 487.5L427.5 472.5L427.5 457.5L427.5 442.5L427.5 427.5L427.5 412.5L427.5 397.5L427.5 382.5" stroke="rgba(5, 6, 6, 1)" stroke-width="2.5"></path><path d="M423.75 382.5 a3.75 3.75 0 1 0 7.5 0 a3.75 3.75 0 1 0 -7.5 0zM408.75 412.5 a3.75 3.75 0 1 0 7.5 0 a3.75 3.75 0 1 0 -7.5 0zM408.75 367.5 a3.75 3.75 0 1 0 7.5 0 a3.75 3.75 0 1 0 -7.5 0z" fill="rgba(5, 6, 6, 1)"></path><path d="M457.5 577.5L457.5 562.5" stroke="rgba(5, 6, 6, 1)" stroke-width="2.5"></path><path d="M453.75 562.5 a3.75 3.75 0 1 0 7.5 0 a3.75 3.75 0 1 0 -7.5 0z" fill="rgba(5, 6, 6, 1)"></path><path d="M997.5 577.5L997.5 562.5" stroke="rgba(5, 6, 6, 1)" stroke-width="2.5"></path><path d="M993.75 562.5 a3.75 3.75 0 1 0 7.5 0 a3.75 3.75 0 1 0 -7.5 0z" fill="rgba(5, 6, 6, 1)"></path><path d="M427.5 547.5L442.5 532.5M442.5 562.5L442.5 547.5M442.5 577.5L442.5 562.5L427.5 547.5L427.5 532.5L427.5 517.5L412.5 502.5L412.5 487.5L412.5 472.5L412.5 457.5L412.5 442.5" stroke="rgba(5, 6, 6, 1)" stroke-width="2.5"></path><path d="M408.75 442.5 a3.75 3.75 0 1 0 7.5 0 a3.75 3.75 0 1 0 -7.5 0zM438.75 532.5 a3.75 3.75 0 1 0 7.5 0 a3.75 3.75 0 1 0 -7.5 0zM438.75 547.5 a3.75 3.75 0 1 0 7.5 0 a3.75 3.75 0 1 0 -7.5 0z" fill="rgba(5, 6, 6, 1)"></path><path d="M1012.5 472.5L1027.5 457.5L1027.5 442.5M1012.5 487.5L1027.5 472.5M1012.5 502.5L1027.5 487.5M1012.5 532.5L997.5 517.5M1012.5 577.5L1012.5 562.5L1012.5 547.5L1012.5 532.5L1012.5 517.5L1012.5 502.5L1012.5 487.5L1012.5 472.5L1012.5 457.5L1012.5 442.5L1012.5 427.5L1012.5 412.5L1012.5 397.5L1012.5 382.5L1012.5 367.5L1012.5 352.5" stroke="rgba(5, 6, 6, 1)" stroke-width="2.5"></path><path d="M1008.75 352.5 a3.75 3.75 0 1 0 7.5 0 a3.75 3.75 0 1 0 -7.5 0zM1023.75 442.5 a3.75 3.75 0 1 0 7.5 0 a3.75 3.75 0 1 0 -7.5 0zM1023.75 472.5 a3.75 3.75 0 1 0 7.5 0 a3.75 3.75 0 1 0 -7.5 0zM1023.75 487.5 a3.75 3.75 0 1 0 7.5 0 a3.75 3.75 0 1 0 -7.5 0zM993.75 517.5 a3.75 3.75 0 1 0 7.5 0 a3.75 3.75 0 1 0 -7.5 0z" fill="rgba(5, 6, 6, 1)"></path><path d="M397.5 412.5L382.5 397.5L382.5 382.5L382.5 367.5M397.5 352.5L382.5 337.5M397.5 502.5L382.5 487.5L382.5 472.5M397.5 457.5L382.5 442.5M427.5 577.5L427.5 562.5L412.5 547.5L412.5 532.5L412.5 517.5L397.5 502.5L397.5 487.5L397.5 472.5L397.5 457.5L397.5 442.5L397.5 427.5L397.5 412.5L397.5 397.5L397.5 382.5L397.5 367.5L397.5 352.5L397.5 337.5" stroke="rgba(5, 6, 6, 1)" stroke-width="2.5"></path><path d="M393.75 337.5 a3.75 3.75 0 1 0 7.5 0 a3.75 3.75 0 1 0 -7.5 0zM378.75 367.5 a3.75 3.75 0 1 0 7.5 0 a3.75 3.75 0 1 0 -7.5 0zM378.75 337.5 a3.75 3.75 0 1 0 7.5 0 a3.75 3.75 0 1 0 -7.5 0zM378.75 472.5 a3.75 3.75 0 1 0 7.5 0 a3.75 3.75 0 1 0 -7.5 0zM378.75 442.5 a3.75 3.75 0 1 0 7.5 0 a3.75 3.75 0 1 0 -7.5 0z" fill="rgba(5, 6, 6, 1)"></path><path d="M1042.5 442.5L1057.5 427.5L1057.5 412.5L1057.5 397.5M1042.5 487.5L1057.5 472.5L1072.5 457.5L1072.5 442.5M1042.5 502.5L1057.5 487.5L1072.5 472.5M1027.5 577.5L1027.5 562.5L1027.5 547.5L1027.5 532.5L1042.5 517.5L1042.5 502.5L1042.5 487.5L1042.5 472.5L1042.5 457.5L1042.5 442.5L1042.5 427.5L1042.5 412.5" stroke="rgba(5, 6, 6, 1)" stroke-width="2.5"></path><path d="M1038.75 412.5 a3.75 3.75 0 1 0 7.5 0 a3.75 3.75 0 1 0 -7.5 0zM1053.75 397.5 a3.75 3.75 0 1 0 7.5 0 a3.75 3.75 0 1 0 -7.5 0zM1068.75 442.5 a3.75 3.75 0 1 0 7.5 0 a3.75 3.75 0 1 0 -7.5 0zM1068.75 472.5 a3.75 3.75 0 1 0 7.5 0 a3.75 3.75 0 1 0 -7.5 0z" fill="rgba(5, 6, 6, 1)"></path><path d="M412.5 577.5L412.5 562.5L397.5 547.5" stroke="rgba(5, 6, 6, 1)" stroke-width="2.5"></path><path d="M393.75 547.5 a3.75 3.75 0 1 0 7.5 0 a3.75 3.75 0 1 0 -7.5 0z" fill="rgba(5, 6, 6, 1)"></path><path d="M1042.5 577.5L1042.5 562.5" stroke="rgba(5, 6, 6, 1)" stroke-width="2.5"></path><path d="M1038.75 562.5 a3.75 3.75 0 1 0 7.5 0 a3.75 3.75 0 1 0 -7.5 0z" fill="rgba(5, 6, 6, 1)"></path><path d="M397.5 577.5L397.5 562.5L382.5 547.5" stroke="rgba(5, 6, 6, 1)" stroke-width="2.5"></path><path d="M378.75 547.5 a3.75 3.75 0 1 0 7.5 0 a3.75 3.75 0 1 0 -7.5 0z" fill="rgba(5, 6, 6, 1)"></path><path d="M382.5 577.5L382.5 562.5L367.5 547.5L367.5 532.5L367.5 517.5" stroke="rgba(5, 6, 6, 1)" stroke-width="2.5"></path><path d="M363.75 517.5 a3.75 3.75 0 1 0 7.5 0 a3.75 3.75 0 1 0 -7.5 0z" fill="rgba(5, 6, 6, 1)"></path><path d="M1072.5 562.5L1087.5 547.5L1087.5 532.5M1072.5 577.5L1072.5 562.5L1072.5 547.5" stroke="rgba(5, 6, 6, 1)" stroke-width="2.5"></path><path d="M1068.75 547.5 a3.75 3.75 0 1 0 7.5 0 a3.75 3.75 0 1 0 -7.5 0zM1083.75 532.5 a3.75 3.75 0 1 0 7.5 0 a3.75 3.75 0 1 0 -7.5 0z" fill="rgba(5, 6, 6, 1)"></path><path d="M352.5 532.5L337.5 517.5L337.5 502.5L337.5 487.5L337.5 472.5M352.5 547.5L337.5 532.5L322.5 517.5M367.5 577.5L367.5 562.5L352.5 547.5L352.5 532.5L352.5 517.5L352.5 502.5" stroke="rgba(5, 6, 6, 1)" stroke-width="2.5"></path><path d="M348.75 502.5 a3.75 3.75 0 1 0 7.5 0 a3.75 3.75 0 1 0 -7.5 0zM333.75 472.5 a3.75 3.75 0 1 0 7.5 0 a3.75 3.75 0 1 0 -7.5 0zM318.75 517.5 a3.75 3.75 0 1 0 7.5 0 a3.75 3.75 0 1 0 -7.5 0z" fill="rgba(5, 6, 6, 1)"></path></g></g><defs><mask id="SvgjsMask1004"><rect width="1440" height="560" fill="#ffffff"></rect></mask><mask id="SvgjsMask1005"><rect width="1440" height="560" fill="white"></rect><path d="M710.62 457.5 a1.88 1.88 0 1 0 3.76 0 a1.88 1.88 0 1 0 -3.76 0zM725.62 472.5 a1.88 1.88 0 1 0 3.76 0 a1.88 1.88 0 1 0 -3.76 0zM680.62 502.5 a1.88 1.88 0 1 0 3.76 0 a1.88 1.88 0 1 0 -3.76 0zM725.62 517.5 a1.88 1.88 0 1 0 3.76 0 a1.88 1.88 0 1 0 -3.76 0z" fill="black"></path><path d="M740.62 502.5 a1.88 1.88 0 1 0 3.76 0 a1.88 1.88 0 1 0 -3.76 0z" fill="black"></path><path d="M680.62 547.5 a1.88 1.88 0 1 0 3.76 0 a1.88 1.88 0 1 0 -3.76 0z" fill="black"></path><path d="M755.62 442.5 a1.88 1.88 0 1 0 3.76 0 a1.88 1.88 0 1 0 -3.76 0zM740.62 472.5 a1.88 1.88 0 1 0 3.76 0 a1.88 1.88 0 1 0 -3.76 0zM740.62 442.5 a1.88 1.88 0 1 0 3.76 0 a1.88 1.88 0 1 0 -3.76 0zM770.62 517.5 a1.88 1.88 0 1 0 3.76 0 a1.88 1.88 0 1 0 -3.76 0z" fill="black"></path><path d="M695.62 442.5 a1.88 1.88 0 1 0 3.76 0 a1.88 1.88 0 1 0 -3.76 0zM665.62 487.5 a1.88 1.88 0 1 0 3.76 0 a1.88 1.88 0 1 0 -3.76 0zM680.62 412.5 a1.88 1.88 0 1 0 3.76 0 a1.88 1.88 0 1 0 -3.76 0zM665.62 427.5 a1.88 1.88 0 1 0 3.76 0 a1.88 1.88 0 1 0 -3.76 0z" fill="black"></path><path d="M785.62 442.5 a1.88 1.88 0 1 0 3.76 0 a1.88 1.88 0 1 0 -3.76 0zM770.62 472.5 a1.88 1.88 0 1 0 3.76 0 a1.88 1.88 0 1 0 -3.76 0zM770.62 442.5 a1.88 1.88 0 1 0 3.76 0 a1.88 1.88 0 1 0 -3.76 0zM770.62 532.5 a1.88 1.88 0 1 0 3.76 0 a1.88 1.88 0 1 0 -3.76 0z" fill="black"></path><path d="M650.62 367.5 a1.88 1.88 0 1 0 3.76 0 a1.88 1.88 0 1 0 -3.76 0zM665.62 367.5 a1.88 1.88 0 1 0 3.76 0 a1.88 1.88 0 1 0 -3.76 0zM635.62 412.5 a1.88 1.88 0 1 0 3.76 0 a1.88 1.88 0 1 0 -3.76 0zM635.62 457.5 a1.88 1.88 0 1 0 3.76 0 a1.88 1.88 0 1 0 -3.76 0z" fill="black"></path><path d="M815.62 337.5 a1.88 1.88 0 1 0 3.76 0 a1.88 1.88 0 1 0 -3.76 0zM800.62 412.5 a1.88 1.88 0 1 0 3.76 0 a1.88 1.88 0 1 0 -3.76 0zM830.62 367.5 a1.88 1.88 0 1 0 3.76 0 a1.88 1.88 0 1 0 -3.76 0zM800.62 427.5 a1.88 1.88 0 1 0 3.76 0 a1.88 1.88 0 1 0 -3.76 0zM800.62 352.5 a1.88 1.88 0 1 0 3.76 0 a1.88 1.88 0 1 0 -3.76 0z" fill="black"></path><path d="M635.62 487.5 a1.88 1.88 0 1 0 3.76 0 a1.88 1.88 0 1 0 -3.76 0z" fill="black"></path><path d="M830.62 427.5 a1.88 1.88 0 1 0 3.76 0 a1.88 1.88 0 1 0 -3.76 0z" fill="black"></path><path d="M635.62 352.5 a1.88 1.88 0 1 0 3.76 0 a1.88 1.88 0 1 0 -3.76 0zM605.62 427.5 a1.88 1.88 0 1 0 3.76 0 a1.88 1.88 0 1 0 -3.76 0zM620.62 352.5 a1.88 1.88 0 1 0 3.76 0 a1.88 1.88 0 1 0 -3.76 0zM605.62 457.5 a1.88 1.88 0 1 0 3.76 0 a1.88 1.88 0 1 0 -3.76 0zM605.62 367.5 a1.88 1.88 0 1 0 3.76 0 a1.88 1.88 0 1 0 -3.76 0z" fill="black"></path><path d="M845.62 397.5 a1.88 1.88 0 1 0 3.76 0 a1.88 1.88 0 1 0 -3.76 0zM845.62 472.5 a1.88 1.88 0 1 0 3.76 0 a1.88 1.88 0 1 0 -3.76 0zM845.62 352.5 a1.88 1.88 0 1 0 3.76 0 a1.88 1.88 0 1 0 -3.76 0z" fill="black"></path><path d="M590.62 397.5 a1.88 1.88 0 1 0 3.76 0 a1.88 1.88 0 1 0 -3.76 0zM560.62 367.5 a1.88 1.88 0 1 0 3.76 0 a1.88 1.88 0 1 0 -3.76 0zM605.62 397.5 a1.88 1.88 0 1 0 3.76 0 a1.88 1.88 0 1 0 -3.76 0zM605.62 517.5 a1.88 1.88 0 1 0 3.76 0 a1.88 1.88 0 1 0 -3.76 0z" fill="black"></path><path d="M845.62 502.5 a1.88 1.88 0 1 0 3.76 0 a1.88 1.88 0 1 0 -3.76 0z" fill="black"></path><path d="M605.62 562.5 a1.88 1.88 0 1 0 3.76 0 a1.88 1.88 0 1 0 -3.76 0z" fill="black"></path><path d="M860.62 367.5 a1.88 1.88 0 1 0 3.76 0 a1.88 1.88 0 1 0 -3.76 0zM875.62 367.5 a1.88 1.88 0 1 0 3.76 0 a1.88 1.88 0 1 0 -3.76 0zM875.62 412.5 a1.88 1.88 0 1 0 3.76 0 a1.88 1.88 0 1 0 -3.76 0zM875.62 427.5 a1.88 1.88 0 1 0 3.76 0 a1.88 1.88 0 1 0 -3.76 0z" fill="black"></path><path d="M590.62 562.5 a1.88 1.88 0 1 0 3.76 0 a1.88 1.88 0 1 0 -3.76 0z" fill="black"></path><path d="M875.62 502.5 a1.88 1.88 0 1 0 3.76 0 a1.88 1.88 0 1 0 -3.76 0z" fill="black"></path><path d="M575.62 472.5 a1.88 1.88 0 1 0 3.76 0 a1.88 1.88 0 1 0 -3.76 0zM560.62 517.5 a1.88 1.88 0 1 0 3.76 0 a1.88 1.88 0 1 0 -3.76 0zM590.62 532.5 a1.88 1.88 0 1 0 3.76 0 a1.88 1.88 0 1 0 -3.76 0zM560.62 442.5 a1.88 1.88 0 1 0 3.76 0 a1.88 1.88 0 1 0 -3.76 0z" fill="black"></path><path d="M890.62 397.5 a1.88 1.88 0 1 0 3.76 0 a1.88 1.88 0 1 0 -3.76 0zM905.62 352.5 a1.88 1.88 0 1 0 3.76 0 a1.88 1.88 0 1 0 -3.76 0zM875.62 457.5 a1.88 1.88 0 1 0 3.76 0 a1.88 1.88 0 1 0 -3.76 0zM905.62 412.5 a1.88 1.88 0 1 0 3.76 0 a1.88 1.88 0 1 0 -3.76 0z" fill="black"></path><path d="M545.62 472.5 a1.88 1.88 0 1 0 3.76 0 a1.88 1.88 0 1 0 -3.76 0zM530.62 487.5 a1.88 1.88 0 1 0 3.76 0 a1.88 1.88 0 1 0 -3.76 0zM530.62 502.5 a1.88 1.88 0 1 0 3.76 0 a1.88 1.88 0 1 0 -3.76 0zM530.62 517.5 a1.88 1.88 0 1 0 3.76 0 a1.88 1.88 0 1 0 -3.76 0z" fill="black"></path><path d="M905.62 442.5 a1.88 1.88 0 1 0 3.76 0 a1.88 1.88 0 1 0 -3.76 0z" fill="black"></path><path d="M530.62 562.5 a1.88 1.88 0 1 0 3.76 0 a1.88 1.88 0 1 0 -3.76 0z" fill="black"></path><path d="M920.62 382.5 a1.88 1.88 0 1 0 3.76 0 a1.88 1.88 0 1 0 -3.76 0zM920.62 337.5 a1.88 1.88 0 1 0 3.76 0 a1.88 1.88 0 1 0 -3.76 0zM935.62 442.5 a1.88 1.88 0 1 0 3.76 0 a1.88 1.88 0 1 0 -3.76 0zM965.62 367.5 a1.88 1.88 0 1 0 3.76 0 a1.88 1.88 0 1 0 -3.76 0z" fill="black"></path><path d="M485.62 472.5 a1.88 1.88 0 1 0 3.76 0 a1.88 1.88 0 1 0 -3.76 0zM500.62 472.5 a1.88 1.88 0 1 0 3.76 0 a1.88 1.88 0 1 0 -3.76 0zM515.62 487.5 a1.88 1.88 0 1 0 3.76 0 a1.88 1.88 0 1 0 -3.76 0zM470.62 472.5 a1.88 1.88 0 1 0 3.76 0 a1.88 1.88 0 1 0 -3.76 0z" fill="black"></path><path d="M935.62 487.5 a1.88 1.88 0 1 0 3.76 0 a1.88 1.88 0 1 0 -3.76 0zM950.62 472.5 a1.88 1.88 0 1 0 3.76 0 a1.88 1.88 0 1 0 -3.76 0zM965.62 517.5 a1.88 1.88 0 1 0 3.76 0 a1.88 1.88 0 1 0 -3.76 0zM965.62 532.5 a1.88 1.88 0 1 0 3.76 0 a1.88 1.88 0 1 0 -3.76 0z" fill="black"></path><path d="M485.62 382.5 a1.88 1.88 0 1 0 3.76 0 a1.88 1.88 0 1 0 -3.76 0zM470.62 502.5 a1.88 1.88 0 1 0 3.76 0 a1.88 1.88 0 1 0 -3.76 0zM470.62 367.5 a1.88 1.88 0 1 0 3.76 0 a1.88 1.88 0 1 0 -3.76 0zM455.62 457.5 a1.88 1.88 0 1 0 3.76 0 a1.88 1.88 0 1 0 -3.76 0z" fill="black"></path><path d="M425.62 322.5 a1.88 1.88 0 1 0 3.76 0 a1.88 1.88 0 1 0 -3.76 0zM455.62 337.5 a1.88 1.88 0 1 0 3.76 0 a1.88 1.88 0 1 0 -3.76 0zM440.62 337.5 a1.88 1.88 0 1 0 3.76 0 a1.88 1.88 0 1 0 -3.76 0zM455.62 382.5 a1.88 1.88 0 1 0 3.76 0 a1.88 1.88 0 1 0 -3.76 0zM455.62 412.5 a1.88 1.88 0 1 0 3.76 0 a1.88 1.88 0 1 0 -3.76 0z" fill="black"></path><path d="M980.62 562.5 a1.88 1.88 0 1 0 3.76 0 a1.88 1.88 0 1 0 -3.76 0z" fill="black"></path><path d="M425.62 382.5 a1.88 1.88 0 1 0 3.76 0 a1.88 1.88 0 1 0 -3.76 0zM410.62 412.5 a1.88 1.88 0 1 0 3.76 0 a1.88 1.88 0 1 0 -3.76 0zM410.62 367.5 a1.88 1.88 0 1 0 3.76 0 a1.88 1.88 0 1 0 -3.76 0z" fill="black"></path><path d="M455.62 562.5 a1.88 1.88 0 1 0 3.76 0 a1.88 1.88 0 1 0 -3.76 0z" fill="black"></path><path d="M995.62 562.5 a1.88 1.88 0 1 0 3.76 0 a1.88 1.88 0 1 0 -3.76 0z" fill="black"></path><path d="M410.62 442.5 a1.88 1.88 0 1 0 3.76 0 a1.88 1.88 0 1 0 -3.76 0zM440.62 532.5 a1.88 1.88 0 1 0 3.76 0 a1.88 1.88 0 1 0 -3.76 0zM440.62 547.5 a1.88 1.88 0 1 0 3.76 0 a1.88 1.88 0 1 0 -3.76 0z" fill="black"></path><path d="M1010.62 352.5 a1.88 1.88 0 1 0 3.76 0 a1.88 1.88 0 1 0 -3.76 0zM1025.62 442.5 a1.88 1.88 0 1 0 3.76 0 a1.88 1.88 0 1 0 -3.76 0zM1025.62 472.5 a1.88 1.88 0 1 0 3.76 0 a1.88 1.88 0 1 0 -3.76 0zM1025.62 487.5 a1.88 1.88 0 1 0 3.76 0 a1.88 1.88 0 1 0 -3.76 0zM995.62 517.5 a1.88 1.88 0 1 0 3.76 0 a1.88 1.88 0 1 0 -3.76 0z" fill="black"></path><path d="M395.62 337.5 a1.88 1.88 0 1 0 3.76 0 a1.88 1.88 0 1 0 -3.76 0zM380.62 367.5 a1.88 1.88 0 1 0 3.76 0 a1.88 1.88 0 1 0 -3.76 0zM380.62 337.5 a1.88 1.88 0 1 0 3.76 0 a1.88 1.88 0 1 0 -3.76 0zM380.62 472.5 a1.88 1.88 0 1 0 3.76 0 a1.88 1.88 0 1 0 -3.76 0zM380.62 442.5 a1.88 1.88 0 1 0 3.76 0 a1.88 1.88 0 1 0 -3.76 0z" fill="black"></path><path d="M1040.62 412.5 a1.88 1.88 0 1 0 3.76 0 a1.88 1.88 0 1 0 -3.76 0zM1055.62 397.5 a1.88 1.88 0 1 0 3.76 0 a1.88 1.88 0 1 0 -3.76 0zM1070.62 442.5 a1.88 1.88 0 1 0 3.76 0 a1.88 1.88 0 1 0 -3.76 0zM1070.62 472.5 a1.88 1.88 0 1 0 3.76 0 a1.88 1.88 0 1 0 -3.76 0z" fill="black"></path><path d="M395.62 547.5 a1.88 1.88 0 1 0 3.76 0 a1.88 1.88 0 1 0 -3.76 0z" fill="black"></path><path d="M1040.62 562.5 a1.88 1.88 0 1 0 3.76 0 a1.88 1.88 0 1 0 -3.76 0z" fill="black"></path><path d="M380.62 547.5 a1.88 1.88 0 1 0 3.76 0 a1.88 1.88 0 1 0 -3.76 0z" fill="black"></path><path d="M365.62 517.5 a1.88 1.88 0 1 0 3.76 0 a1.88 1.88 0 1 0 -3.76 0z" fill="black"></path><path d="M1070.62 547.5 a1.88 1.88 0 1 0 3.76 0 a1.88 1.88 0 1 0 -3.76 0zM1085.62 532.5 a1.88 1.88 0 1 0 3.76 0 a1.88 1.88 0 1 0 -3.76 0z" fill="black"></path><path d="M350.62 502.5 a1.88 1.88 0 1 0 3.76 0 a1.88 1.88 0 1 0 -3.76 0zM335.62 472.5 a1.88 1.88 0 1 0 3.76 0 a1.88 1.88 0 1 0 -3.76 0zM320.62 517.5 a1.88 1.88 0 1 0 3.76 0 a1.88 1.88 0 1 0 -3.76 0z" fill="black"></path></mask></defs></svg>