<svg xmlns="http://www.w3.org/2000/svg" version="1.1" xmlns:xlink="http://www.w3.org/1999/xlink" xmlns:svgjs="http://svgjs.dev/svgjs" width="1440" height="560" preserveAspectRatio="none" viewBox="0 0 1440 560"><g mask="url(&quot;#SvgjsMask1174&quot;)" fill="none"><g mask="url(&quot;#SvgjsMask1175&quot;)"><path d="M189 279L207 297M171 279L189 297L207 315M63 279L81 297L99 297M243 279L261 261L279 261M-9 279L9 279L27 279L45 279L63 279L81 279L99 279L117 279L135 279L153 279L171 279L189 279L207 279L225 279L243 279L261 279" stroke="rgba(1, 45, 108, 1)" stroke-width="3"></path><path d="M256.5 279 a4.5 4.5 0 1 0 9 0 a4.5 4.5 0 1 0 -9 0zM202.5 297 a4.5 4.5 0 1 0 9 0 a4.5 4.5 0 1 0 -9 0zM202.5 315 a4.5 4.5 0 1 0 9 0 a4.5 4.5 0 1 0 -9 0zM94.5 297 a4.5 4.5 0 1 0 9 0 a4.5 4.5 0 1 0 -9 0zM274.5 261 a4.5 4.5 0 1 0 9 0 a4.5 4.5 0 1 0 -9 0z" fill="rgba(1, 45, 108, 1)"></path><path d="M189 351L207 351L225 351L243 351L261 351M243 297L261 315L279 315L297 315L315 315M423 297L441 315L459 315L477 315L495 315L513 315M225 315L243 315L261 333L279 333M207 333L225 333L243 333M459 297L477 279L495 279L513 279M333 297L351 315L369 315L387 315L405 315M531 297L549 315L567 315L585 333L603 333L621 333L639 333M-9 297L9 315L27 315L45 315L63 315L81 315L99 315L117 315L135 333L153 333L171 351L189 351L207 333L225 315L243 297L261 297L279 297L297 297L315 297L333 297L351 297L369 297L387 297L405 297L423 297L441 297L459 297L477 297L495 297L513 297L531 297L549 297" stroke="rgba(1, 45, 108, 1)" stroke-width="3"></path><path d="M544.5 297 a4.5 4.5 0 1 0 9 0 a4.5 4.5 0 1 0 -9 0zM256.5 351 a4.5 4.5 0 1 0 9 0 a4.5 4.5 0 1 0 -9 0zM310.5 315 a4.5 4.5 0 1 0 9 0 a4.5 4.5 0 1 0 -9 0zM508.5 315 a4.5 4.5 0 1 0 9 0 a4.5 4.5 0 1 0 -9 0zM274.5 333 a4.5 4.5 0 1 0 9 0 a4.5 4.5 0 1 0 -9 0zM238.5 333 a4.5 4.5 0 1 0 9 0 a4.5 4.5 0 1 0 -9 0zM508.5 279 a4.5 4.5 0 1 0 9 0 a4.5 4.5 0 1 0 -9 0zM400.5 315 a4.5 4.5 0 1 0 9 0 a4.5 4.5 0 1 0 -9 0zM634.5 333 a4.5 4.5 0 1 0 9 0 a4.5 4.5 0 1 0 -9 0z" fill="rgba(1, 45, 108, 1)"></path><path d="M423 261L441 279L459 279M225 243L243 261M315 261L333 279L351 279L369 279L387 279L405 279L423 279M387 261L405 243L423 225L441 225L459 225L477 225L495 243L513 243L531 243M279 243L297 243L315 243L333 243L351 243L369 243L387 243L405 225M297 261L315 279M-9 261L9 261L27 261L45 261L63 261L81 261L99 261L117 261L135 261L153 261L171 261L189 261L207 243L225 243L243 243L261 243L279 243L297 261L315 261L333 261L351 261L369 261L387 261L405 261L423 261L441 261L459 261" stroke="rgba(1, 45, 108, 1)" stroke-width="3"></path><path d="M454.5 261 a4.5 4.5 0 1 0 9 0 a4.5 4.5 0 1 0 -9 0zM454.5 279 a4.5 4.5 0 1 0 9 0 a4.5 4.5 0 1 0 -9 0zM238.5 261 a4.5 4.5 0 1 0 9 0 a4.5 4.5 0 1 0 -9 0zM418.5 279 a4.5 4.5 0 1 0 9 0 a4.5 4.5 0 1 0 -9 0zM526.5 243 a4.5 4.5 0 1 0 9 0 a4.5 4.5 0 1 0 -9 0zM400.5 225 a4.5 4.5 0 1 0 9 0 a4.5 4.5 0 1 0 -9 0zM310.5 279 a4.5 4.5 0 1 0 9 0 a4.5 4.5 0 1 0 -9 0z" fill="rgba(1, 45, 108, 1)"></path><path d="M-9 315L9 333L27 333L45 333L63 333L81 333L99 333L117 333L135 351" stroke="rgba(1, 45, 108, 1)" stroke-width="3"></path><path d="M130.5 351 a4.5 4.5 0 1 0 9 0 a4.5 4.5 0 1 0 -9 0z" fill="rgba(1, 45, 108, 1)"></path><path d="M-9 243L9 243L27 243L45 243L63 243L81 243L99 243L117 243L135 243L153 243L171 243L189 243" stroke="rgba(1, 45, 108, 1)" stroke-width="3"></path><path d="M184.5 243 a4.5 4.5 0 1 0 9 0 a4.5 4.5 0 1 0 -9 0z" fill="rgba(1, 45, 108, 1)"></path><path d="M-9 333L9 351L27 351L45 351L63 351L81 351L99 351L117 351L135 369L153 369L171 369L189 369L207 369" stroke="rgba(1, 45, 108, 1)" stroke-width="3"></path><path d="M202.5 369 a4.5 4.5 0 1 0 9 0 a4.5 4.5 0 1 0 -9 0z" fill="rgba(1, 45, 108, 1)"></path><path d="M405 207L423 189L441 189L459 189L477 189L495 189L513 189L531 189L549 189L567 189L585 189L603 189L621 171M117 225L135 207M783 225L801 207L819 207L837 207L855 207L873 207L891 207M495 207L513 225L531 225L549 225L567 225L585 225L603 225L621 225L639 243L657 243M81 225L99 207L117 207M387 207L405 189M225 225L243 207L261 207L279 207L297 207L315 207L333 189L351 189L369 189L387 189M351 207L369 225L387 225M45 225L63 207L81 207M675 207L693 207L711 207L729 207L747 207L765 207L783 207L801 189L819 189L837 189L855 189M639 207L657 189L675 189L693 189L711 189M-9 225L9 225L27 225L45 225L63 225L81 225L99 225L117 225L135 225L153 225L171 225L189 225L207 225L225 225L243 225L261 225L279 225L297 225L315 225L333 207L351 207L369 207L387 207L405 207L423 207L441 207L459 207L477 207L495 207L513 207L531 207L549 207L567 207L585 207L603 207L621 207L639 207L657 207L675 207L693 225L711 225L729 225L747 225L765 225L783 225L801 225" stroke="rgba(1, 45, 108, 1)" stroke-width="3"></path><path d="M796.5 225 a4.5 4.5 0 1 0 9 0 a4.5 4.5 0 1 0 -9 0zM616.5 171 a4.5 4.5 0 1 0 9 0 a4.5 4.5 0 1 0 -9 0zM130.5 207 a4.5 4.5 0 1 0 9 0 a4.5 4.5 0 1 0 -9 0zM886.5 207 a4.5 4.5 0 1 0 9 0 a4.5 4.5 0 1 0 -9 0zM652.5 243 a4.5 4.5 0 1 0 9 0 a4.5 4.5 0 1 0 -9 0zM112.5 207 a4.5 4.5 0 1 0 9 0 a4.5 4.5 0 1 0 -9 0zM400.5 189 a4.5 4.5 0 1 0 9 0 a4.5 4.5 0 1 0 -9 0zM382.5 189 a4.5 4.5 0 1 0 9 0 a4.5 4.5 0 1 0 -9 0zM382.5 225 a4.5 4.5 0 1 0 9 0 a4.5 4.5 0 1 0 -9 0zM76.5 207 a4.5 4.5 0 1 0 9 0 a4.5 4.5 0 1 0 -9 0zM850.5 189 a4.5 4.5 0 1 0 9 0 a4.5 4.5 0 1 0 -9 0zM706.5 189 a4.5 4.5 0 1 0 9 0 a4.5 4.5 0 1 0 -9 0z" fill="rgba(1, 45, 108, 1)"></path><path d="M99 369L117 369M225 405L243 387M207 387L225 387L243 369L261 369L279 369L297 369M279 405L297 387L315 387L333 387M-9 351L9 369L27 369L45 369L63 369L81 369L99 369L117 387L135 387L153 387L171 387L189 387L207 387L225 405L243 405L261 405L279 405L297 405" stroke="rgba(1, 45, 108, 1)" stroke-width="3"></path><path d="M292.5 405 a4.5 4.5 0 1 0 9 0 a4.5 4.5 0 1 0 -9 0zM112.5 369 a4.5 4.5 0 1 0 9 0 a4.5 4.5 0 1 0 -9 0zM238.5 387 a4.5 4.5 0 1 0 9 0 a4.5 4.5 0 1 0 -9 0zM292.5 369 a4.5 4.5 0 1 0 9 0 a4.5 4.5 0 1 0 -9 0zM328.5 387 a4.5 4.5 0 1 0 9 0 a4.5 4.5 0 1 0 -9 0z" fill="rgba(1, 45, 108, 1)"></path><path d="M279 171L297 189M495 171L513 171L531 171L549 171L567 171L585 171L603 153L621 153M207 189L225 207M261 189L279 189M405 171L423 153L441 153L459 153M153 189L171 207L189 207L207 207M531 153L549 135L567 135M477 171L495 153L513 135L531 117M-9 207L9 207L27 207L45 189L63 189L81 189L99 189L117 189L135 189L153 189L171 189L189 189L207 189L225 189L243 189L261 189L279 171L297 171L315 171L333 171L351 171L369 171L387 171L405 171L423 171L441 171L459 171L477 171L495 171L513 153L531 153L549 153L567 153L585 153" stroke="rgba(1, 45, 108, 1)" stroke-width="3"></path><path d="M580.5 153 a4.5 4.5 0 1 0 9 0 a4.5 4.5 0 1 0 -9 0zM292.5 189 a4.5 4.5 0 1 0 9 0 a4.5 4.5 0 1 0 -9 0zM616.5 153 a4.5 4.5 0 1 0 9 0 a4.5 4.5 0 1 0 -9 0zM220.5 207 a4.5 4.5 0 1 0 9 0 a4.5 4.5 0 1 0 -9 0zM274.5 189 a4.5 4.5 0 1 0 9 0 a4.5 4.5 0 1 0 -9 0zM454.5 153 a4.5 4.5 0 1 0 9 0 a4.5 4.5 0 1 0 -9 0zM202.5 207 a4.5 4.5 0 1 0 9 0 a4.5 4.5 0 1 0 -9 0zM562.5 135 a4.5 4.5 0 1 0 9 0 a4.5 4.5 0 1 0 -9 0zM526.5 117 a4.5 4.5 0 1 0 9 0 a4.5 4.5 0 1 0 -9 0z" fill="rgba(1, 45, 108, 1)"></path><path d="M261 441L279 423L297 423L315 423L333 423L351 405L369 405M81 387L99 387M549 441L567 459L585 459L603 459M423 441L441 423L459 423L477 423M531 441L549 459M567 441L585 423L603 423L621 423L639 423L657 423L675 423L693 405L711 405L729 405L747 405L765 405L783 405L801 423L819 423M459 459L477 441L495 441L513 441L531 423M441 441L459 441M-9 369L9 387L27 387L45 387L63 387L81 387L99 405L117 405L135 405L153 405L171 405L189 405L207 405L225 423L243 441L261 441L279 441L297 441L315 441L333 441L351 441L369 441L387 441L405 441L423 441L441 441L459 459L477 459L495 459L513 459L531 441L549 441L567 441L585 441L603 441" stroke="rgba(1, 45, 108, 1)" stroke-width="3"></path><path d="M598.5 441 a4.5 4.5 0 1 0 9 0 a4.5 4.5 0 1 0 -9 0zM364.5 405 a4.5 4.5 0 1 0 9 0 a4.5 4.5 0 1 0 -9 0zM94.5 387 a4.5 4.5 0 1 0 9 0 a4.5 4.5 0 1 0 -9 0zM598.5 459 a4.5 4.5 0 1 0 9 0 a4.5 4.5 0 1 0 -9 0zM472.5 423 a4.5 4.5 0 1 0 9 0 a4.5 4.5 0 1 0 -9 0zM544.5 459 a4.5 4.5 0 1 0 9 0 a4.5 4.5 0 1 0 -9 0zM814.5 423 a4.5 4.5 0 1 0 9 0 a4.5 4.5 0 1 0 -9 0zM526.5 423 a4.5 4.5 0 1 0 9 0 a4.5 4.5 0 1 0 -9 0zM454.5 441 a4.5 4.5 0 1 0 9 0 a4.5 4.5 0 1 0 -9 0z" fill="rgba(1, 45, 108, 1)"></path><path d="M423 117L441 135L459 135L477 135L495 135M279 153L297 153M351 117L369 135L387 135L405 135L423 135M333 117L351 135L369 153M315 117L333 135L351 153M-9 189L9 189L27 189L45 171L63 171L81 171L99 171L117 171L135 171L153 171L171 171L189 171L207 171L225 171L243 171L261 171L279 153L297 135L315 117L333 117L351 117L369 117L387 117L405 117L423 117L441 117L459 117L477 117L495 117" stroke="rgba(1, 45, 108, 1)" stroke-width="3"></path><path d="M490.5 117 a4.5 4.5 0 1 0 9 0 a4.5 4.5 0 1 0 -9 0zM490.5 135 a4.5 4.5 0 1 0 9 0 a4.5 4.5 0 1 0 -9 0zM292.5 153 a4.5 4.5 0 1 0 9 0 a4.5 4.5 0 1 0 -9 0zM418.5 135 a4.5 4.5 0 1 0 9 0 a4.5 4.5 0 1 0 -9 0zM364.5 153 a4.5 4.5 0 1 0 9 0 a4.5 4.5 0 1 0 -9 0zM346.5 153 a4.5 4.5 0 1 0 9 0 a4.5 4.5 0 1 0 -9 0z" fill="rgba(1, 45, 108, 1)"></path><path d="M-9 387L9 405L27 405L45 405L63 405L81 405L99 423L117 423L135 423L153 423" stroke="rgba(1, 45, 108, 1)" stroke-width="3"></path><path d="M148.5 423 a4.5 4.5 0 1 0 9 0 a4.5 4.5 0 1 0 -9 0z" fill="rgba(1, 45, 108, 1)"></path><path d="M243 153L261 135L279 117L297 99L315 81L333 81L351 81L369 81L387 81L405 81L423 81M153 153L171 135M441 99L459 81L477 81M189 153L207 135L225 135L243 135L261 117L279 99L297 81M135 153L153 135M-9 171L9 171L27 171L45 153L63 153L81 153L99 153L117 153L135 153L153 153L171 153L189 153L207 153L225 153L243 153L261 153L279 135L297 117L315 99L333 99L351 99L369 99L387 99L405 99L423 99L441 99L459 99L477 99" stroke="rgba(1, 45, 108, 1)" stroke-width="3"></path><path d="M472.5 99 a4.5 4.5 0 1 0 9 0 a4.5 4.5 0 1 0 -9 0zM418.5 81 a4.5 4.5 0 1 0 9 0 a4.5 4.5 0 1 0 -9 0zM166.5 135 a4.5 4.5 0 1 0 9 0 a4.5 4.5 0 1 0 -9 0zM472.5 81 a4.5 4.5 0 1 0 9 0 a4.5 4.5 0 1 0 -9 0zM292.5 81 a4.5 4.5 0 1 0 9 0 a4.5 4.5 0 1 0 -9 0zM148.5 135 a4.5 4.5 0 1 0 9 0 a4.5 4.5 0 1 0 -9 0z" fill="rgba(1, 45, 108, 1)"></path><path d="M261 459L279 477L297 477L315 477L333 495L351 495L369 495L387 495M531 477L549 495L567 495L585 495L603 495L621 495M441 477L459 495L477 495L495 495L513 495M171 441L189 423M351 477L369 459L387 459L405 459L423 459L441 459M9 423L27 441L45 441L63 459M135 441L153 459M189 441L207 459L225 459L243 477L261 477L279 495L297 495L315 495L333 513L351 513L369 513L387 513M639 459L657 477L675 477L693 477M45 423L63 423L81 423M-9 405L9 423L27 423L45 423L63 441L81 441L99 441L117 441L135 441L153 441L171 441L189 441L207 441L225 441L243 459L261 459L279 459L297 459L315 459L333 477L351 477L369 477L387 477L405 477L423 477L441 477L459 477L477 477L495 477L513 477L531 477L549 477L567 477L585 477L603 477L621 459L639 459L657 459L675 459L693 459L711 459" stroke="rgba(1, 45, 108, 1)" stroke-width="3"></path><path d="M706.5 459 a4.5 4.5 0 1 0 9 0 a4.5 4.5 0 1 0 -9 0zM382.5 495 a4.5 4.5 0 1 0 9 0 a4.5 4.5 0 1 0 -9 0zM616.5 495 a4.5 4.5 0 1 0 9 0 a4.5 4.5 0 1 0 -9 0zM508.5 495 a4.5 4.5 0 1 0 9 0 a4.5 4.5 0 1 0 -9 0zM184.5 423 a4.5 4.5 0 1 0 9 0 a4.5 4.5 0 1 0 -9 0zM436.5 459 a4.5 4.5 0 1 0 9 0 a4.5 4.5 0 1 0 -9 0zM58.5 459 a4.5 4.5 0 1 0 9 0 a4.5 4.5 0 1 0 -9 0zM148.5 459 a4.5 4.5 0 1 0 9 0 a4.5 4.5 0 1 0 -9 0zM382.5 513 a4.5 4.5 0 1 0 9 0 a4.5 4.5 0 1 0 -9 0zM688.5 477 a4.5 4.5 0 1 0 9 0 a4.5 4.5 0 1 0 -9 0zM76.5 423 a4.5 4.5 0 1 0 9 0 a4.5 4.5 0 1 0 -9 0z" fill="rgba(1, 45, 108, 1)"></path><path d="M135 117L153 99L171 99L189 99M81 135L99 117L117 99L135 99L153 81M117 117L135 135M-9 153L9 153L27 153L45 135L63 135L81 135L99 135L117 117L135 117L153 117L171 117L189 117L207 117" stroke="rgba(1, 45, 108, 1)" stroke-width="3"></path><path d="M202.5 117 a4.5 4.5 0 1 0 9 0 a4.5 4.5 0 1 0 -9 0zM184.5 99 a4.5 4.5 0 1 0 9 0 a4.5 4.5 0 1 0 -9 0zM148.5 81 a4.5 4.5 0 1 0 9 0 a4.5 4.5 0 1 0 -9 0zM130.5 135 a4.5 4.5 0 1 0 9 0 a4.5 4.5 0 1 0 -9 0z" fill="rgba(1, 45, 108, 1)"></path></g></g><defs><mask id="SvgjsMask1174"><rect width="1440" height="560" fill="#ffffff"></rect></mask><mask id="SvgjsMask1175"><rect width="1440" height="560" fill="white"></rect><path d="M258.75 279 a2.25 2.25 0 1 0 4.5 0 a2.25 2.25 0 1 0 -4.5 0zM204.75 297 a2.25 2.25 0 1 0 4.5 0 a2.25 2.25 0 1 0 -4.5 0zM204.75 315 a2.25 2.25 0 1 0 4.5 0 a2.25 2.25 0 1 0 -4.5 0zM96.75 297 a2.25 2.25 0 1 0 4.5 0 a2.25 2.25 0 1 0 -4.5 0zM276.75 261 a2.25 2.25 0 1 0 4.5 0 a2.25 2.25 0 1 0 -4.5 0z" fill="black"></path><path d="M546.75 297 a2.25 2.25 0 1 0 4.5 0 a2.25 2.25 0 1 0 -4.5 0zM258.75 351 a2.25 2.25 0 1 0 4.5 0 a2.25 2.25 0 1 0 -4.5 0zM312.75 315 a2.25 2.25 0 1 0 4.5 0 a2.25 2.25 0 1 0 -4.5 0zM510.75 315 a2.25 2.25 0 1 0 4.5 0 a2.25 2.25 0 1 0 -4.5 0zM276.75 333 a2.25 2.25 0 1 0 4.5 0 a2.25 2.25 0 1 0 -4.5 0zM240.75 333 a2.25 2.25 0 1 0 4.5 0 a2.25 2.25 0 1 0 -4.5 0zM510.75 279 a2.25 2.25 0 1 0 4.5 0 a2.25 2.25 0 1 0 -4.5 0zM402.75 315 a2.25 2.25 0 1 0 4.5 0 a2.25 2.25 0 1 0 -4.5 0zM636.75 333 a2.25 2.25 0 1 0 4.5 0 a2.25 2.25 0 1 0 -4.5 0z" fill="black"></path><path d="M456.75 261 a2.25 2.25 0 1 0 4.5 0 a2.25 2.25 0 1 0 -4.5 0zM456.75 279 a2.25 2.25 0 1 0 4.5 0 a2.25 2.25 0 1 0 -4.5 0zM240.75 261 a2.25 2.25 0 1 0 4.5 0 a2.25 2.25 0 1 0 -4.5 0zM420.75 279 a2.25 2.25 0 1 0 4.5 0 a2.25 2.25 0 1 0 -4.5 0zM528.75 243 a2.25 2.25 0 1 0 4.5 0 a2.25 2.25 0 1 0 -4.5 0zM402.75 225 a2.25 2.25 0 1 0 4.5 0 a2.25 2.25 0 1 0 -4.5 0zM312.75 279 a2.25 2.25 0 1 0 4.5 0 a2.25 2.25 0 1 0 -4.5 0z" fill="black"></path><path d="M132.75 351 a2.25 2.25 0 1 0 4.5 0 a2.25 2.25 0 1 0 -4.5 0z" fill="black"></path><path d="M186.75 243 a2.25 2.25 0 1 0 4.5 0 a2.25 2.25 0 1 0 -4.5 0z" fill="black"></path><path d="M204.75 369 a2.25 2.25 0 1 0 4.5 0 a2.25 2.25 0 1 0 -4.5 0z" fill="black"></path><path d="M798.75 225 a2.25 2.25 0 1 0 4.5 0 a2.25 2.25 0 1 0 -4.5 0zM618.75 171 a2.25 2.25 0 1 0 4.5 0 a2.25 2.25 0 1 0 -4.5 0zM132.75 207 a2.25 2.25 0 1 0 4.5 0 a2.25 2.25 0 1 0 -4.5 0zM888.75 207 a2.25 2.25 0 1 0 4.5 0 a2.25 2.25 0 1 0 -4.5 0zM654.75 243 a2.25 2.25 0 1 0 4.5 0 a2.25 2.25 0 1 0 -4.5 0zM114.75 207 a2.25 2.25 0 1 0 4.5 0 a2.25 2.25 0 1 0 -4.5 0zM402.75 189 a2.25 2.25 0 1 0 4.5 0 a2.25 2.25 0 1 0 -4.5 0zM384.75 189 a2.25 2.25 0 1 0 4.5 0 a2.25 2.25 0 1 0 -4.5 0zM384.75 225 a2.25 2.25 0 1 0 4.5 0 a2.25 2.25 0 1 0 -4.5 0zM78.75 207 a2.25 2.25 0 1 0 4.5 0 a2.25 2.25 0 1 0 -4.5 0zM852.75 189 a2.25 2.25 0 1 0 4.5 0 a2.25 2.25 0 1 0 -4.5 0zM708.75 189 a2.25 2.25 0 1 0 4.5 0 a2.25 2.25 0 1 0 -4.5 0z" fill="black"></path><path d="M294.75 405 a2.25 2.25 0 1 0 4.5 0 a2.25 2.25 0 1 0 -4.5 0zM114.75 369 a2.25 2.25 0 1 0 4.5 0 a2.25 2.25 0 1 0 -4.5 0zM240.75 387 a2.25 2.25 0 1 0 4.5 0 a2.25 2.25 0 1 0 -4.5 0zM294.75 369 a2.25 2.25 0 1 0 4.5 0 a2.25 2.25 0 1 0 -4.5 0zM330.75 387 a2.25 2.25 0 1 0 4.5 0 a2.25 2.25 0 1 0 -4.5 0z" fill="black"></path><path d="M582.75 153 a2.25 2.25 0 1 0 4.5 0 a2.25 2.25 0 1 0 -4.5 0zM294.75 189 a2.25 2.25 0 1 0 4.5 0 a2.25 2.25 0 1 0 -4.5 0zM618.75 153 a2.25 2.25 0 1 0 4.5 0 a2.25 2.25 0 1 0 -4.5 0zM222.75 207 a2.25 2.25 0 1 0 4.5 0 a2.25 2.25 0 1 0 -4.5 0zM276.75 189 a2.25 2.25 0 1 0 4.5 0 a2.25 2.25 0 1 0 -4.5 0zM456.75 153 a2.25 2.25 0 1 0 4.5 0 a2.25 2.25 0 1 0 -4.5 0zM204.75 207 a2.25 2.25 0 1 0 4.5 0 a2.25 2.25 0 1 0 -4.5 0zM564.75 135 a2.25 2.25 0 1 0 4.5 0 a2.25 2.25 0 1 0 -4.5 0zM528.75 117 a2.25 2.25 0 1 0 4.5 0 a2.25 2.25 0 1 0 -4.5 0z" fill="black"></path><path d="M600.75 441 a2.25 2.25 0 1 0 4.5 0 a2.25 2.25 0 1 0 -4.5 0zM366.75 405 a2.25 2.25 0 1 0 4.5 0 a2.25 2.25 0 1 0 -4.5 0zM96.75 387 a2.25 2.25 0 1 0 4.5 0 a2.25 2.25 0 1 0 -4.5 0zM600.75 459 a2.25 2.25 0 1 0 4.5 0 a2.25 2.25 0 1 0 -4.5 0zM474.75 423 a2.25 2.25 0 1 0 4.5 0 a2.25 2.25 0 1 0 -4.5 0zM546.75 459 a2.25 2.25 0 1 0 4.5 0 a2.25 2.25 0 1 0 -4.5 0zM816.75 423 a2.25 2.25 0 1 0 4.5 0 a2.25 2.25 0 1 0 -4.5 0zM528.75 423 a2.25 2.25 0 1 0 4.5 0 a2.25 2.25 0 1 0 -4.5 0zM456.75 441 a2.25 2.25 0 1 0 4.5 0 a2.25 2.25 0 1 0 -4.5 0z" fill="black"></path><path d="M492.75 117 a2.25 2.25 0 1 0 4.5 0 a2.25 2.25 0 1 0 -4.5 0zM492.75 135 a2.25 2.25 0 1 0 4.5 0 a2.25 2.25 0 1 0 -4.5 0zM294.75 153 a2.25 2.25 0 1 0 4.5 0 a2.25 2.25 0 1 0 -4.5 0zM420.75 135 a2.25 2.25 0 1 0 4.5 0 a2.25 2.25 0 1 0 -4.5 0zM366.75 153 a2.25 2.25 0 1 0 4.5 0 a2.25 2.25 0 1 0 -4.5 0zM348.75 153 a2.25 2.25 0 1 0 4.5 0 a2.25 2.25 0 1 0 -4.5 0z" fill="black"></path><path d="M150.75 423 a2.25 2.25 0 1 0 4.5 0 a2.25 2.25 0 1 0 -4.5 0z" fill="black"></path><path d="M474.75 99 a2.25 2.25 0 1 0 4.5 0 a2.25 2.25 0 1 0 -4.5 0zM420.75 81 a2.25 2.25 0 1 0 4.5 0 a2.25 2.25 0 1 0 -4.5 0zM168.75 135 a2.25 2.25 0 1 0 4.5 0 a2.25 2.25 0 1 0 -4.5 0zM474.75 81 a2.25 2.25 0 1 0 4.5 0 a2.25 2.25 0 1 0 -4.5 0zM294.75 81 a2.25 2.25 0 1 0 4.5 0 a2.25 2.25 0 1 0 -4.5 0zM150.75 135 a2.25 2.25 0 1 0 4.5 0 a2.25 2.25 0 1 0 -4.5 0z" fill="black"></path><path d="M708.75 459 a2.25 2.25 0 1 0 4.5 0 a2.25 2.25 0 1 0 -4.5 0zM384.75 495 a2.25 2.25 0 1 0 4.5 0 a2.25 2.25 0 1 0 -4.5 0zM618.75 495 a2.25 2.25 0 1 0 4.5 0 a2.25 2.25 0 1 0 -4.5 0zM510.75 495 a2.25 2.25 0 1 0 4.5 0 a2.25 2.25 0 1 0 -4.5 0zM186.75 423 a2.25 2.25 0 1 0 4.5 0 a2.25 2.25 0 1 0 -4.5 0zM438.75 459 a2.25 2.25 0 1 0 4.5 0 a2.25 2.25 0 1 0 -4.5 0zM60.75 459 a2.25 2.25 0 1 0 4.5 0 a2.25 2.25 0 1 0 -4.5 0zM150.75 459 a2.25 2.25 0 1 0 4.5 0 a2.25 2.25 0 1 0 -4.5 0zM384.75 513 a2.25 2.25 0 1 0 4.5 0 a2.25 2.25 0 1 0 -4.5 0zM690.75 477 a2.25 2.25 0 1 0 4.5 0 a2.25 2.25 0 1 0 -4.5 0zM78.75 423 a2.25 2.25 0 1 0 4.5 0 a2.25 2.25 0 1 0 -4.5 0z" fill="black"></path><path d="M204.75 117 a2.25 2.25 0 1 0 4.5 0 a2.25 2.25 0 1 0 -4.5 0zM186.75 99 a2.25 2.25 0 1 0 4.5 0 a2.25 2.25 0 1 0 -4.5 0zM150.75 81 a2.25 2.25 0 1 0 4.5 0 a2.25 2.25 0 1 0 -4.5 0zM132.75 135 a2.25 2.25 0 1 0 4.5 0 a2.25 2.25 0 1 0 -4.5 0z" fill="black"></path></mask></defs></svg>