<svg xmlns="http://www.w3.org/2000/svg" version="1.1" xmlns:xlink="http://www.w3.org/1999/xlink" xmlns:svgjs="http://svgjs.dev/svgjs" width="1434" height="549" preserveAspectRatio="none" viewBox="0 0 1434 549"><g mask="url(&quot;#SvgjsMask1242&quot;)" fill="none"><g mask="url(&quot;#SvgjsMask1243&quot;)"><path d="M1035 405L1089 459L1341 459L1377 495" stroke-width="3" stroke="rgba(1, 45, 108, 1)"></path><path d="M1030.5 405 a4.5 4.5 0 1 0 9 0 a4.5 4.5 0 1 0 -9 0zM1372.5 495 a4.5 4.5 0 1 0 9 0 a4.5 4.5 0 1 0 -9 0z" fill="rgba(1, 45, 108, 1)"></path><path d="M819 423L837 441L837 549" stroke-width="3" stroke="rgba(1, 45, 108, 1)"></path><path d="M814.5 423 a4.5 4.5 0 1 0 9 0 a4.5 4.5 0 1 0 -9 0zM832.5 549 a4.5 4.5 0 1 0 9 0 a4.5 4.5 0 1 0 -9 0z" fill="rgba(1, 45, 108, 1)"></path><path d="M621 351L621 549" stroke-width="3" stroke="rgba(1, 45, 108, 1)"></path><path d="M616.5 351 a4.5 4.5 0 1 0 9 0 a4.5 4.5 0 1 0 -9 0zM616.5 549 a4.5 4.5 0 1 0 9 0 a4.5 4.5 0 1 0 -9 0z" fill="rgba(1, 45, 108, 1)"></path><path d="M1161 117L1413 117L1431 135L1431 207" stroke-width="3" stroke="rgba(1, 45, 108, 1)"></path><path d="M1156.5 117 a4.5 4.5 0 1 0 9 0 a4.5 4.5 0 1 0 -9 0zM1426.5 207 a4.5 4.5 0 1 0 9 0 a4.5 4.5 0 1 0 -9 0z" fill="rgba(1, 45, 108, 1)"></path><path d="M1035 369L1035 171L1107 99L1179 99" stroke-width="3" stroke="rgba(1, 45, 108, 1)"></path><path d="M1030.5 369 a4.5 4.5 0 1 0 9 0 a4.5 4.5 0 1 0 -9 0zM1174.5 99 a4.5 4.5 0 1 0 9 0 a4.5 4.5 0 1 0 -9 0z" fill="rgba(1, 45, 108, 1)"></path><path d="M513 477L459 477L315 333L171 333" stroke-width="3" stroke="rgba(1, 45, 108, 1)"></path><path d="M508.5 477 a4.5 4.5 0 1 0 9 0 a4.5 4.5 0 1 0 -9 0zM166.5 333 a4.5 4.5 0 1 0 9 0 a4.5 4.5 0 1 0 -9 0z" fill="rgba(1, 45, 108, 1)"></path><path d="M99 27L441 369" stroke-width="3" stroke="rgba(1, 45, 108, 1)"></path><path d="M94.5 27 a4.5 4.5 0 1 0 9 0 a4.5 4.5 0 1 0 -9 0zM436.5 369 a4.5 4.5 0 1 0 9 0 a4.5 4.5 0 1 0 -9 0z" fill="rgba(1, 45, 108, 1)"></path><path d="M603 333L747 333L945 531" stroke-width="3" stroke="rgba(1, 45, 108, 1)"></path><path d="M598.5 333 a4.5 4.5 0 1 0 9 0 a4.5 4.5 0 1 0 -9 0zM940.5 531 a4.5 4.5 0 1 0 9 0 a4.5 4.5 0 1 0 -9 0z" fill="rgba(1, 45, 108, 1)"></path><path d="M1377 207L1305 135L1089 135L1053 171L1053 189" stroke-width="3" stroke="rgba(1, 45, 108, 1)"></path><path d="M1372.5 207 a4.5 4.5 0 1 0 9 0 a4.5 4.5 0 1 0 -9 0zM1048.5 189 a4.5 4.5 0 1 0 9 0 a4.5 4.5 0 1 0 -9 0z" fill="rgba(1, 45, 108, 1)"></path><path d="M999 27L981 9L657 9" stroke-width="3" stroke="rgba(1, 45, 108, 1)"></path><path d="M994.5 27 a4.5 4.5 0 1 0 9 0 a4.5 4.5 0 1 0 -9 0zM652.5 9 a4.5 4.5 0 1 0 9 0 a4.5 4.5 0 1 0 -9 0z" fill="rgba(1, 45, 108, 1)"></path><path d="M711 153L711 207L999 495" stroke-width="3" stroke="rgba(1, 45, 108, 1)"></path><path d="M706.5 153 a4.5 4.5 0 1 0 9 0 a4.5 4.5 0 1 0 -9 0zM994.5 495 a4.5 4.5 0 1 0 9 0 a4.5 4.5 0 1 0 -9 0z" fill="rgba(1, 45, 108, 1)"></path><path d="M369 9L81 9L63 27L27 27" stroke-width="3" stroke="rgba(1, 45, 108, 1)"></path><path d="M364.5 9 a4.5 4.5 0 1 0 9 0 a4.5 4.5 0 1 0 -9 0zM22.5 27 a4.5 4.5 0 1 0 9 0 a4.5 4.5 0 1 0 -9 0z" fill="rgba(1, 45, 108, 1)"></path><path d="M999 153L1035 153L1053 135L1053 9" stroke-width="3" stroke="rgba(1, 45, 108, 1)"></path><path d="M994.5 153 a4.5 4.5 0 1 0 9 0 a4.5 4.5 0 1 0 -9 0zM1048.5 9 a4.5 4.5 0 1 0 9 0 a4.5 4.5 0 1 0 -9 0z" fill="rgba(1, 45, 108, 1)"></path><path d="M1413 513L1431 531L1431 549" stroke-width="3" stroke="rgba(1, 45, 108, 1)"></path><path d="M1408.5 513 a4.5 4.5 0 1 0 9 0 a4.5 4.5 0 1 0 -9 0zM1426.5 549 a4.5 4.5 0 1 0 9 0 a4.5 4.5 0 1 0 -9 0z" fill="rgba(1, 45, 108, 1)"></path><path d="M1017 99L1035 117L1035 135" stroke-width="3" stroke="rgba(1, 45, 108, 1)"></path><path d="M1012.5 99 a4.5 4.5 0 1 0 9 0 a4.5 4.5 0 1 0 -9 0zM1030.5 135 a4.5 4.5 0 1 0 9 0 a4.5 4.5 0 1 0 -9 0z" fill="rgba(1, 45, 108, 1)"></path><path d="M9 171L45 207L189 207L225 171" stroke-width="3" stroke="rgba(1, 45, 108, 1)"></path><path d="M4.5 171 a4.5 4.5 0 1 0 9 0 a4.5 4.5 0 1 0 -9 0zM220.5 171 a4.5 4.5 0 1 0 9 0 a4.5 4.5 0 1 0 -9 0z" fill="rgba(1, 45, 108, 1)"></path><path d="M387 297L621 63L711 63L729 45" stroke-width="3" stroke="rgba(1, 45, 108, 1)"></path><path d="M382.5 297 a4.5 4.5 0 1 0 9 0 a4.5 4.5 0 1 0 -9 0zM724.5 45 a4.5 4.5 0 1 0 9 0 a4.5 4.5 0 1 0 -9 0z" fill="rgba(1, 45, 108, 1)"></path><path d="M459 423L423 423L207 207" stroke-width="3" stroke="rgba(1, 45, 108, 1)"></path><path d="M454.5 423 a4.5 4.5 0 1 0 9 0 a4.5 4.5 0 1 0 -9 0zM202.5 207 a4.5 4.5 0 1 0 9 0 a4.5 4.5 0 1 0 -9 0z" fill="rgba(1, 45, 108, 1)"></path><path d="M513 63L405 171L351 171L315 207L315 225L369 279L387 279L441 225" stroke-width="3" stroke="rgba(1, 45, 108, 1)"></path><path d="M508.5 63 a4.5 4.5 0 1 0 9 0 a4.5 4.5 0 1 0 -9 0zM436.5 225 a4.5 4.5 0 1 0 9 0 a4.5 4.5 0 1 0 -9 0z" fill="rgba(1, 45, 108, 1)"></path><path d="M1233 99L1197 63L1071 63" stroke-width="3" stroke="rgba(1, 45, 108, 1)"></path><path d="M1228.5 99 a4.5 4.5 0 1 0 9 0 a4.5 4.5 0 1 0 -9 0zM1066.5 63 a4.5 4.5 0 1 0 9 0 a4.5 4.5 0 1 0 -9 0z" fill="rgba(1, 45, 108, 1)"></path><path d="M675 297L783 297L891 405L891 459L909 477L963 477" stroke-width="3" stroke="rgba(1, 45, 108, 1)"></path><path d="M670.5 297 a4.5 4.5 0 1 0 9 0 a4.5 4.5 0 1 0 -9 0zM958.5 477 a4.5 4.5 0 1 0 9 0 a4.5 4.5 0 1 0 -9 0z" fill="rgba(1, 45, 108, 1)"></path><path d="M243 81L243 153L297 207" stroke-width="3" stroke="rgba(1, 45, 108, 1)"></path><path d="M238.5 81 a4.5 4.5 0 1 0 9 0 a4.5 4.5 0 1 0 -9 0zM292.5 207 a4.5 4.5 0 1 0 9 0 a4.5 4.5 0 1 0 -9 0z" fill="rgba(1, 45, 108, 1)"></path><path d="M945 153L873 153L747 27L711 27L693 45L603 45" stroke-width="3" stroke="rgba(1, 45, 108, 1)"></path><path d="M940.5 153 a4.5 4.5 0 1 0 9 0 a4.5 4.5 0 1 0 -9 0zM598.5 45 a4.5 4.5 0 1 0 9 0 a4.5 4.5 0 1 0 -9 0z" fill="rgba(1, 45, 108, 1)"></path><path d="M351 45L153 45L135 27L117 27" stroke-width="3" stroke="rgba(1, 45, 108, 1)"></path><path d="M346.5 45 a4.5 4.5 0 1 0 9 0 a4.5 4.5 0 1 0 -9 0zM112.5 27 a4.5 4.5 0 1 0 9 0 a4.5 4.5 0 1 0 -9 0z" fill="rgba(1, 45, 108, 1)"></path><path d="M171 477L171 351L9 189" stroke-width="3" stroke="rgba(1, 45, 108, 1)"></path><path d="M166.5 477 a4.5 4.5 0 1 0 9 0 a4.5 4.5 0 1 0 -9 0zM4.5 189 a4.5 4.5 0 1 0 9 0 a4.5 4.5 0 1 0 -9 0z" fill="rgba(1, 45, 108, 1)"></path><path d="M1413 297L1413 315L1431 333L1431 387L1359 459" stroke-width="3" stroke="rgba(1, 45, 108, 1)"></path><path d="M1408.5 297 a4.5 4.5 0 1 0 9 0 a4.5 4.5 0 1 0 -9 0zM1354.5 459 a4.5 4.5 0 1 0 9 0 a4.5 4.5 0 1 0 -9 0z" fill="rgba(1, 45, 108, 1)"></path><path d="M243 405L243 351" stroke-width="3" stroke="rgba(1, 45, 108, 1)"></path><path d="M238.5 405 a4.5 4.5 0 1 0 9 0 a4.5 4.5 0 1 0 -9 0zM238.5 351 a4.5 4.5 0 1 0 9 0 a4.5 4.5 0 1 0 -9 0z" fill="rgba(1, 45, 108, 1)"></path><path d="M1053 387L963 387L945 405L927 405L855 333L855 315L783 243L783 189" stroke-width="3" stroke="rgba(1, 45, 108, 1)"></path><path d="M1048.5 387 a4.5 4.5 0 1 0 9 0 a4.5 4.5 0 1 0 -9 0zM778.5 189 a4.5 4.5 0 1 0 9 0 a4.5 4.5 0 1 0 -9 0z" fill="rgba(1, 45, 108, 1)"></path><path d="M981 81L981 243L999 261L1017 261" stroke-width="3" stroke="rgba(1, 45, 108, 1)"></path><path d="M976.5 81 a4.5 4.5 0 1 0 9 0 a4.5 4.5 0 1 0 -9 0zM1012.5 261 a4.5 4.5 0 1 0 9 0 a4.5 4.5 0 1 0 -9 0z" fill="rgba(1, 45, 108, 1)"></path><path d="M1251 9L1341 99L1431 99" stroke-width="3" stroke="rgba(1, 45, 108, 1)"></path><path d="M1246.5 9 a4.5 4.5 0 1 0 9 0 a4.5 4.5 0 1 0 -9 0zM1426.5 99 a4.5 4.5 0 1 0 9 0 a4.5 4.5 0 1 0 -9 0z" fill="rgba(1, 45, 108, 1)"></path><path d="M63 315L135 387L153 387" stroke-width="3" stroke="rgba(1, 45, 108, 1)"></path><path d="M58.5 315 a4.5 4.5 0 1 0 9 0 a4.5 4.5 0 1 0 -9 0zM148.5 387 a4.5 4.5 0 1 0 9 0 a4.5 4.5 0 1 0 -9 0z" fill="rgba(1, 45, 108, 1)"></path><path d="M459 99L261 99" stroke-width="3" stroke="rgba(1, 45, 108, 1)"></path><path d="M454.5 99 a4.5 4.5 0 1 0 9 0 a4.5 4.5 0 1 0 -9 0zM256.5 99 a4.5 4.5 0 1 0 9 0 a4.5 4.5 0 1 0 -9 0z" fill="rgba(1, 45, 108, 1)"></path><path d="M999 423L1125 549L1341 549" stroke-width="3" stroke="rgba(1, 45, 108, 1)"></path><path d="M994.5 423 a4.5 4.5 0 1 0 9 0 a4.5 4.5 0 1 0 -9 0zM1336.5 549 a4.5 4.5 0 1 0 9 0 a4.5 4.5 0 1 0 -9 0z" fill="rgba(1, 45, 108, 1)"></path><path d="M567 387L603 351" stroke-width="3" stroke="rgba(1, 45, 108, 1)"></path><path d="M562.5 387 a4.5 4.5 0 1 0 9 0 a4.5 4.5 0 1 0 -9 0zM598.5 351 a4.5 4.5 0 1 0 9 0 a4.5 4.5 0 1 0 -9 0z" fill="rgba(1, 45, 108, 1)"></path><path d="M1071 243L1107 207L1143 207L1197 153L1305 153L1413 261" stroke-width="3" stroke="rgba(1, 45, 108, 1)"></path><path d="M1066.5 243 a4.5 4.5 0 1 0 9 0 a4.5 4.5 0 1 0 -9 0zM1408.5 261 a4.5 4.5 0 1 0 9 0 a4.5 4.5 0 1 0 -9 0z" fill="rgba(1, 45, 108, 1)"></path><path d="M801 135L837 135L981 279L1017 279" stroke-width="3" stroke="rgba(1, 45, 108, 1)"></path><path d="M796.5 135 a4.5 4.5 0 1 0 9 0 a4.5 4.5 0 1 0 -9 0zM1012.5 279 a4.5 4.5 0 1 0 9 0 a4.5 4.5 0 1 0 -9 0z" fill="rgba(1, 45, 108, 1)"></path><path d="M531 9L639 9L657 27L693 27" stroke-width="3" stroke="rgba(1, 45, 108, 1)"></path><path d="M526.5 9 a4.5 4.5 0 1 0 9 0 a4.5 4.5 0 1 0 -9 0zM688.5 27 a4.5 4.5 0 1 0 9 0 a4.5 4.5 0 1 0 -9 0z" fill="rgba(1, 45, 108, 1)"></path><path d="M1305 9L1431 9" stroke-width="3" stroke="rgba(1, 45, 108, 1)"></path><path d="M1300.5 9 a4.5 4.5 0 1 0 9 0 a4.5 4.5 0 1 0 -9 0zM1426.5 9 a4.5 4.5 0 1 0 9 0 a4.5 4.5 0 1 0 -9 0z" fill="rgba(1, 45, 108, 1)"></path><path d="M909 135L963 135" stroke-width="3" stroke="rgba(1, 45, 108, 1)"></path><path d="M904.5 135 a4.5 4.5 0 1 0 9 0 a4.5 4.5 0 1 0 -9 0zM958.5 135 a4.5 4.5 0 1 0 9 0 a4.5 4.5 0 1 0 -9 0z" fill="rgba(1, 45, 108, 1)"></path><path d="M423 45L423 81" stroke-width="3" stroke="rgba(1, 45, 108, 1)"></path><path d="M418.5 45 a4.5 4.5 0 1 0 9 0 a4.5 4.5 0 1 0 -9 0zM418.5 81 a4.5 4.5 0 1 0 9 0 a4.5 4.5 0 1 0 -9 0z" fill="rgba(1, 45, 108, 1)"></path><path d="M639 81L405 315" stroke-width="3" stroke="rgba(1, 45, 108, 1)"></path><path d="M634.5 81 a4.5 4.5 0 1 0 9 0 a4.5 4.5 0 1 0 -9 0zM400.5 315 a4.5 4.5 0 1 0 9 0 a4.5 4.5 0 1 0 -9 0z" fill="rgba(1, 45, 108, 1)"></path><path d="M387 45L405 45L441 9L459 9L495 45L549 45L585 81" stroke-width="3" stroke="rgba(1, 45, 108, 1)"></path><path d="M382.5 45 a4.5 4.5 0 1 0 9 0 a4.5 4.5 0 1 0 -9 0zM580.5 81 a4.5 4.5 0 1 0 9 0 a4.5 4.5 0 1 0 -9 0z" fill="rgba(1, 45, 108, 1)"></path><path d="M423 117L261 117" stroke-width="3" stroke="rgba(1, 45, 108, 1)"></path><path d="M418.5 117 a4.5 4.5 0 1 0 9 0 a4.5 4.5 0 1 0 -9 0zM256.5 117 a4.5 4.5 0 1 0 9 0 a4.5 4.5 0 1 0 -9 0z" fill="rgba(1, 45, 108, 1)"></path><path d="M315 27L405 27L423 9" stroke-width="3" stroke="rgba(1, 45, 108, 1)"></path><path d="M310.5 27 a4.5 4.5 0 1 0 9 0 a4.5 4.5 0 1 0 -9 0zM418.5 9 a4.5 4.5 0 1 0 9 0 a4.5 4.5 0 1 0 -9 0z" fill="rgba(1, 45, 108, 1)"></path><path d="M1377 405L1377 423L1359 441L1089 441L1053 405" stroke-width="3" stroke="rgba(1, 45, 108, 1)"></path><path d="M1372.5 405 a4.5 4.5 0 1 0 9 0 a4.5 4.5 0 1 0 -9 0zM1048.5 405 a4.5 4.5 0 1 0 9 0 a4.5 4.5 0 1 0 -9 0z" fill="rgba(1, 45, 108, 1)"></path><path d="M657 279L765 279" stroke-width="3" stroke="rgba(1, 45, 108, 1)"></path><path d="M652.5 279 a4.5 4.5 0 1 0 9 0 a4.5 4.5 0 1 0 -9 0zM760.5 279 a4.5 4.5 0 1 0 9 0 a4.5 4.5 0 1 0 -9 0z" fill="rgba(1, 45, 108, 1)"></path><path d="M1431 495L1431 405" stroke-width="3" stroke="rgba(1, 45, 108, 1)"></path><path d="M1426.5 495 a4.5 4.5 0 1 0 9 0 a4.5 4.5 0 1 0 -9 0zM1426.5 405 a4.5 4.5 0 1 0 9 0 a4.5 4.5 0 1 0 -9 0z" fill="rgba(1, 45, 108, 1)"></path><path d="M513 333L513 225L585 153L603 153L675 81L729 81L747 99" stroke-width="3" stroke="rgba(1, 45, 108, 1)"></path><path d="M508.5 333 a4.5 4.5 0 1 0 9 0 a4.5 4.5 0 1 0 -9 0zM742.5 99 a4.5 4.5 0 1 0 9 0 a4.5 4.5 0 1 0 -9 0z" fill="rgba(1, 45, 108, 1)"></path><path d="M873 315L927 261L945 261L1017 333L1017 351L999 369L909 369L873 333" stroke-width="3" stroke="rgba(1, 45, 108, 1)"></path><path d="M868.5 315 a4.5 4.5 0 1 0 9 0 a4.5 4.5 0 1 0 -9 0zM868.5 333 a4.5 4.5 0 1 0 9 0 a4.5 4.5 0 1 0 -9 0z" fill="rgba(1, 45, 108, 1)"></path><path d="M603 459L513 549L261 549" stroke-width="3" stroke="rgba(1, 45, 108, 1)"></path><path d="M598.5 459 a4.5 4.5 0 1 0 9 0 a4.5 4.5 0 1 0 -9 0zM256.5 549 a4.5 4.5 0 1 0 9 0 a4.5 4.5 0 1 0 -9 0z" fill="rgba(1, 45, 108, 1)"></path><path d="M531 405L477 459L459 459L441 441" stroke-width="3" stroke="rgba(1, 45, 108, 1)"></path><path d="M526.5 405 a4.5 4.5 0 1 0 9 0 a4.5 4.5 0 1 0 -9 0zM436.5 441 a4.5 4.5 0 1 0 9 0 a4.5 4.5 0 1 0 -9 0z" fill="rgba(1, 45, 108, 1)"></path><path d="M585 279L459 405L423 405L243 225" stroke-width="3" stroke="rgba(1, 45, 108, 1)"></path><path d="M580.5 279 a4.5 4.5 0 1 0 9 0 a4.5 4.5 0 1 0 -9 0zM238.5 225 a4.5 4.5 0 1 0 9 0 a4.5 4.5 0 1 0 -9 0z" fill="rgba(1, 45, 108, 1)"></path><path d="M153 225L117 261L117 279L153 315L297 315" stroke-width="3" stroke="rgba(1, 45, 108, 1)"></path><path d="M148.5 225 a4.5 4.5 0 1 0 9 0 a4.5 4.5 0 1 0 -9 0zM292.5 315 a4.5 4.5 0 1 0 9 0 a4.5 4.5 0 1 0 -9 0z" fill="rgba(1, 45, 108, 1)"></path><path d="M279 135L369 135L387 153L405 153L423 135" stroke-width="3" stroke="rgba(1, 45, 108, 1)"></path><path d="M274.5 135 a4.5 4.5 0 1 0 9 0 a4.5 4.5 0 1 0 -9 0zM418.5 135 a4.5 4.5 0 1 0 9 0 a4.5 4.5 0 1 0 -9 0z" fill="rgba(1, 45, 108, 1)"></path><path d="M819 243L819 153" stroke-width="3" stroke="rgba(1, 45, 108, 1)"></path><path d="M814.5 243 a4.5 4.5 0 1 0 9 0 a4.5 4.5 0 1 0 -9 0zM814.5 153 a4.5 4.5 0 1 0 9 0 a4.5 4.5 0 1 0 -9 0z" fill="rgba(1, 45, 108, 1)"></path><path d="M189 405L225 405L279 459L279 531" stroke-width="3" stroke="rgba(1, 45, 108, 1)"></path><path d="M184.5 405 a4.5 4.5 0 1 0 9 0 a4.5 4.5 0 1 0 -9 0zM274.5 531 a4.5 4.5 0 1 0 9 0 a4.5 4.5 0 1 0 -9 0z" fill="rgba(1, 45, 108, 1)"></path><path d="M1053 279L1053 369L1107 423L1269 423L1305 387" stroke-width="3" stroke="rgba(1, 45, 108, 1)"></path><path d="M1048.5 279 a4.5 4.5 0 1 0 9 0 a4.5 4.5 0 1 0 -9 0zM1300.5 387 a4.5 4.5 0 1 0 9 0 a4.5 4.5 0 1 0 -9 0z" fill="rgba(1, 45, 108, 1)"></path><path d="M1251 99L1251 27L1233 9L1071 9" stroke-width="3" stroke="rgba(1, 45, 108, 1)"></path><path d="M1246.5 99 a4.5 4.5 0 1 0 9 0 a4.5 4.5 0 1 0 -9 0zM1066.5 9 a4.5 4.5 0 1 0 9 0 a4.5 4.5 0 1 0 -9 0z" fill="rgba(1, 45, 108, 1)"></path><path d="M99 423L207 531L207 549" stroke-width="3" stroke="rgba(1, 45, 108, 1)"></path><path d="M94.5 423 a4.5 4.5 0 1 0 9 0 a4.5 4.5 0 1 0 -9 0zM202.5 549 a4.5 4.5 0 1 0 9 0 a4.5 4.5 0 1 0 -9 0z" fill="rgba(1, 45, 108, 1)"></path><path d="M783 27L837 81L855 81L891 117L891 135" stroke-width="3" stroke="rgba(1, 45, 108, 1)"></path><path d="M778.5 27 a4.5 4.5 0 1 0 9 0 a4.5 4.5 0 1 0 -9 0zM886.5 135 a4.5 4.5 0 1 0 9 0 a4.5 4.5 0 1 0 -9 0z" fill="rgba(1, 45, 108, 1)"></path><path d="M675 387L639 351" stroke-width="3" stroke="rgba(1, 45, 108, 1)"></path><path d="M670.5 387 a4.5 4.5 0 1 0 9 0 a4.5 4.5 0 1 0 -9 0zM634.5 351 a4.5 4.5 0 1 0 9 0 a4.5 4.5 0 1 0 -9 0z" fill="rgba(1, 45, 108, 1)"></path><path d="M387 423L495 531L513 531L603 441L603 369" stroke-width="3" stroke="rgba(1, 45, 108, 1)"></path><path d="M382.5 423 a4.5 4.5 0 1 0 9 0 a4.5 4.5 0 1 0 -9 0zM598.5 369 a4.5 4.5 0 1 0 9 0 a4.5 4.5 0 1 0 -9 0z" fill="rgba(1, 45, 108, 1)"></path><path d="M981 441L981 405" stroke-width="3" stroke="rgba(1, 45, 108, 1)"></path><path d="M976.5 441 a4.5 4.5 0 1 0 9 0 a4.5 4.5 0 1 0 -9 0zM976.5 405 a4.5 4.5 0 1 0 9 0 a4.5 4.5 0 1 0 -9 0z" fill="rgba(1, 45, 108, 1)"></path><path d="M1089 27L1107 45L1233 45" stroke-width="3" stroke="rgba(1, 45, 108, 1)"></path><path d="M1084.5 27 a4.5 4.5 0 1 0 9 0 a4.5 4.5 0 1 0 -9 0zM1228.5 45 a4.5 4.5 0 1 0 9 0 a4.5 4.5 0 1 0 -9 0z" fill="rgba(1, 45, 108, 1)"></path><path d="M333 513L351 531L477 531" stroke-width="3" stroke="rgba(1, 45, 108, 1)"></path><path d="M328.5 513 a4.5 4.5 0 1 0 9 0 a4.5 4.5 0 1 0 -9 0zM472.5 531 a4.5 4.5 0 1 0 9 0 a4.5 4.5 0 1 0 -9 0z" fill="rgba(1, 45, 108, 1)"></path><path d="M837 405L873 405" stroke-width="3" stroke="rgba(1, 45, 108, 1)"></path><path d="M832.5 405 a4.5 4.5 0 1 0 9 0 a4.5 4.5 0 1 0 -9 0zM868.5 405 a4.5 4.5 0 1 0 9 0 a4.5 4.5 0 1 0 -9 0z" fill="rgba(1, 45, 108, 1)"></path><path d="M63 279L63 261L9 207" stroke-width="3" stroke="rgba(1, 45, 108, 1)"></path><path d="M58.5 279 a4.5 4.5 0 1 0 9 0 a4.5 4.5 0 1 0 -9 0zM4.5 207 a4.5 4.5 0 1 0 9 0 a4.5 4.5 0 1 0 -9 0z" fill="rgba(1, 45, 108, 1)"></path><path d="M819 549L639 369" stroke-width="3" stroke="rgba(1, 45, 108, 1)"></path><path d="M814.5 549 a4.5 4.5 0 1 0 9 0 a4.5 4.5 0 1 0 -9 0zM634.5 369 a4.5 4.5 0 1 0 9 0 a4.5 4.5 0 1 0 -9 0z" fill="rgba(1, 45, 108, 1)"></path><path d="M1251 315L1287 279L1287 171" stroke-width="3" stroke="rgba(1, 45, 108, 1)"></path><path d="M1246.5 315 a4.5 4.5 0 1 0 9 0 a4.5 4.5 0 1 0 -9 0zM1282.5 171 a4.5 4.5 0 1 0 9 0 a4.5 4.5 0 1 0 -9 0z" fill="rgba(1, 45, 108, 1)"></path><path d="M117 423L27 333L9 333" stroke-width="3" stroke="rgba(1, 45, 108, 1)"></path><path d="M112.5 423 a4.5 4.5 0 1 0 9 0 a4.5 4.5 0 1 0 -9 0zM4.5 333 a4.5 4.5 0 1 0 9 0 a4.5 4.5 0 1 0 -9 0z" fill="rgba(1, 45, 108, 1)"></path><path d="M1395 297L1395 315L1413 333L1413 387L1395 405" stroke-width="3" stroke="rgba(1, 45, 108, 1)"></path><path d="M1390.5 297 a4.5 4.5 0 1 0 9 0 a4.5 4.5 0 1 0 -9 0zM1390.5 405 a4.5 4.5 0 1 0 9 0 a4.5 4.5 0 1 0 -9 0z" fill="rgba(1, 45, 108, 1)"></path><path d="M189 477L207 459L261 459" stroke-width="3" stroke="rgba(1, 45, 108, 1)"></path><path d="M184.5 477 a4.5 4.5 0 1 0 9 0 a4.5 4.5 0 1 0 -9 0zM256.5 459 a4.5 4.5 0 1 0 9 0 a4.5 4.5 0 1 0 -9 0z" fill="rgba(1, 45, 108, 1)"></path><path d="M1359 549L1413 549" stroke-width="3" stroke="rgba(1, 45, 108, 1)"></path><path d="M1354.5 549 a4.5 4.5 0 1 0 9 0 a4.5 4.5 0 1 0 -9 0zM1408.5 549 a4.5 4.5 0 1 0 9 0 a4.5 4.5 0 1 0 -9 0z" fill="rgba(1, 45, 108, 1)"></path><path d="M603 315L783 315L855 387" stroke-width="3" stroke="rgba(1, 45, 108, 1)"></path><path d="M598.5 315 a4.5 4.5 0 1 0 9 0 a4.5 4.5 0 1 0 -9 0zM850.5 387 a4.5 4.5 0 1 0 9 0 a4.5 4.5 0 1 0 -9 0z" fill="rgba(1, 45, 108, 1)"></path><path d="M1215 243L1215 171" stroke-width="3" stroke="rgba(1, 45, 108, 1)"></path><path d="M1210.5 243 a4.5 4.5 0 1 0 9 0 a4.5 4.5 0 1 0 -9 0zM1210.5 171 a4.5 4.5 0 1 0 9 0 a4.5 4.5 0 1 0 -9 0z" fill="rgba(1, 45, 108, 1)"></path><path d="M747 405L729 423L711 423L693 405L693 351" stroke-width="3" stroke="rgba(1, 45, 108, 1)"></path><path d="M742.5 405 a4.5 4.5 0 1 0 9 0 a4.5 4.5 0 1 0 -9 0zM688.5 351 a4.5 4.5 0 1 0 9 0 a4.5 4.5 0 1 0 -9 0z" fill="rgba(1, 45, 108, 1)"></path><path d="M1179 405L1323 261L1341 261L1359 243L1359 225L1305 171" stroke-width="3" stroke="rgba(1, 45, 108, 1)"></path><path d="M1174.5 405 a4.5 4.5 0 1 0 9 0 a4.5 4.5 0 1 0 -9 0zM1300.5 171 a4.5 4.5 0 1 0 9 0 a4.5 4.5 0 1 0 -9 0z" fill="rgba(1, 45, 108, 1)"></path><path d="M729 513L729 549" stroke-width="3" stroke="rgba(1, 45, 108, 1)"></path><path d="M724.5 513 a4.5 4.5 0 1 0 9 0 a4.5 4.5 0 1 0 -9 0zM724.5 549 a4.5 4.5 0 1 0 9 0 a4.5 4.5 0 1 0 -9 0z" fill="rgba(1, 45, 108, 1)"></path><path d="M189 279L207 261L207 225" stroke-width="3" stroke="rgba(1, 45, 108, 1)"></path><path d="M184.5 279 a4.5 4.5 0 1 0 9 0 a4.5 4.5 0 1 0 -9 0zM202.5 225 a4.5 4.5 0 1 0 9 0 a4.5 4.5 0 1 0 -9 0z" fill="rgba(1, 45, 108, 1)"></path><path d="M261 405L261 351" stroke-width="3" stroke="rgba(1, 45, 108, 1)"></path><path d="M256.5 405 a4.5 4.5 0 1 0 9 0 a4.5 4.5 0 1 0 -9 0zM256.5 351 a4.5 4.5 0 1 0 9 0 a4.5 4.5 0 1 0 -9 0z" fill="rgba(1, 45, 108, 1)"></path><path d="M369 459L297 459L261 423" stroke-width="3" stroke="rgba(1, 45, 108, 1)"></path><path d="M364.5 459 a4.5 4.5 0 1 0 9 0 a4.5 4.5 0 1 0 -9 0zM256.5 423 a4.5 4.5 0 1 0 9 0 a4.5 4.5 0 1 0 -9 0z" fill="rgba(1, 45, 108, 1)"></path><path d="M585 171L621 171L675 225L675 243L693 261L747 261" stroke-width="3" stroke="rgba(1, 45, 108, 1)"></path><path d="M580.5 171 a4.5 4.5 0 1 0 9 0 a4.5 4.5 0 1 0 -9 0zM742.5 261 a4.5 4.5 0 1 0 9 0 a4.5 4.5 0 1 0 -9 0z" fill="rgba(1, 45, 108, 1)"></path><path d="M99 387L45 333L45 261L9 225" stroke-width="3" stroke="rgba(1, 45, 108, 1)"></path><path d="M94.5 387 a4.5 4.5 0 1 0 9 0 a4.5 4.5 0 1 0 -9 0zM4.5 225 a4.5 4.5 0 1 0 9 0 a4.5 4.5 0 1 0 -9 0z" fill="rgba(1, 45, 108, 1)"></path><path d="M1017 63L1017 9" stroke-width="3" stroke="rgba(1, 45, 108, 1)"></path><path d="M1012.5 63 a4.5 4.5 0 1 0 9 0 a4.5 4.5 0 1 0 -9 0zM1012.5 9 a4.5 4.5 0 1 0 9 0 a4.5 4.5 0 1 0 -9 0z" fill="rgba(1, 45, 108, 1)"></path><path d="M333 405L279 351" stroke-width="3" stroke="rgba(1, 45, 108, 1)"></path><path d="M328.5 405 a4.5 4.5 0 1 0 9 0 a4.5 4.5 0 1 0 -9 0zM274.5 351 a4.5 4.5 0 1 0 9 0 a4.5 4.5 0 1 0 -9 0z" fill="rgba(1, 45, 108, 1)"></path><path d="M891 99L963 27L981 27L999 45L999 99" stroke-width="3" stroke="rgba(1, 45, 108, 1)"></path><path d="M886.5 99 a4.5 4.5 0 1 0 9 0 a4.5 4.5 0 1 0 -9 0zM994.5 99 a4.5 4.5 0 1 0 9 0 a4.5 4.5 0 1 0 -9 0z" fill="rgba(1, 45, 108, 1)"></path><path d="M423 189L477 189L567 99L567 81L549 63L531 63L423 171" stroke-width="3" stroke="rgba(1, 45, 108, 1)"></path><path d="M418.5 189 a4.5 4.5 0 1 0 9 0 a4.5 4.5 0 1 0 -9 0zM418.5 171 a4.5 4.5 0 1 0 9 0 a4.5 4.5 0 1 0 -9 0z" fill="rgba(1, 45, 108, 1)"></path><path d="M1143 81L1071 81" stroke-width="3" stroke="rgba(1, 45, 108, 1)"></path><path d="M1138.5 81 a4.5 4.5 0 1 0 9 0 a4.5 4.5 0 1 0 -9 0zM1066.5 81 a4.5 4.5 0 1 0 9 0 a4.5 4.5 0 1 0 -9 0z" fill="rgba(1, 45, 108, 1)"></path><path d="M1071 279L1053 261L1053 225L1107 171L1107 153" stroke-width="3" stroke="rgba(1, 45, 108, 1)"></path><path d="M1066.5 279 a4.5 4.5 0 1 0 9 0 a4.5 4.5 0 1 0 -9 0zM1102.5 153 a4.5 4.5 0 1 0 9 0 a4.5 4.5 0 1 0 -9 0z" fill="rgba(1, 45, 108, 1)"></path><path d="M729 207L729 99" stroke-width="3" stroke="rgba(1, 45, 108, 1)"></path><path d="M724.5 207 a4.5 4.5 0 1 0 9 0 a4.5 4.5 0 1 0 -9 0zM724.5 99 a4.5 4.5 0 1 0 9 0 a4.5 4.5 0 1 0 -9 0z" fill="rgba(1, 45, 108, 1)"></path><path d="M621 261L567 207L567 189" stroke-width="3" stroke="rgba(1, 45, 108, 1)"></path><path d="M616.5 261 a4.5 4.5 0 1 0 9 0 a4.5 4.5 0 1 0 -9 0zM562.5 189 a4.5 4.5 0 1 0 9 0 a4.5 4.5 0 1 0 -9 0z" fill="rgba(1, 45, 108, 1)"></path><path d="M639 225L603 189L585 189" stroke-width="3" stroke="rgba(1, 45, 108, 1)"></path><path d="M634.5 225 a4.5 4.5 0 1 0 9 0 a4.5 4.5 0 1 0 -9 0zM580.5 189 a4.5 4.5 0 1 0 9 0 a4.5 4.5 0 1 0 -9 0z" fill="rgba(1, 45, 108, 1)"></path><path d="M9 495L9 351" stroke-width="3" stroke="rgba(1, 45, 108, 1)"></path><path d="M4.5 495 a4.5 4.5 0 1 0 9 0 a4.5 4.5 0 1 0 -9 0zM4.5 351 a4.5 4.5 0 1 0 9 0 a4.5 4.5 0 1 0 -9 0z" fill="rgba(1, 45, 108, 1)"></path><path d="M1233 297L1251 297L1269 279" stroke-width="3" stroke="rgba(1, 45, 108, 1)"></path><path d="M1228.5 297 a4.5 4.5 0 1 0 9 0 a4.5 4.5 0 1 0 -9 0zM1264.5 279 a4.5 4.5 0 1 0 9 0 a4.5 4.5 0 1 0 -9 0z" fill="rgba(1, 45, 108, 1)"></path><path d="M819 45L837 63L855 63L873 81L891 81L945 27" stroke-width="3" stroke="rgba(1, 45, 108, 1)"></path><path d="M814.5 45 a4.5 4.5 0 1 0 9 0 a4.5 4.5 0 1 0 -9 0zM940.5 27 a4.5 4.5 0 1 0 9 0 a4.5 4.5 0 1 0 -9 0z" fill="rgba(1, 45, 108, 1)"></path><path d="M45 477L117 549L189 549" stroke-width="3" stroke="rgba(1, 45, 108, 1)"></path><path d="M40.5 477 a4.5 4.5 0 1 0 9 0 a4.5 4.5 0 1 0 -9 0zM184.5 549 a4.5 4.5 0 1 0 9 0 a4.5 4.5 0 1 0 -9 0z" fill="rgba(1, 45, 108, 1)"></path><path d="M63 513L27 477L27 351" stroke-width="3" stroke="rgba(1, 45, 108, 1)"></path><path d="M58.5 513 a4.5 4.5 0 1 0 9 0 a4.5 4.5 0 1 0 -9 0zM22.5 351 a4.5 4.5 0 1 0 9 0 a4.5 4.5 0 1 0 -9 0z" fill="rgba(1, 45, 108, 1)"></path><path d="M63 189L45 189L9 153L9 9" stroke-width="3" stroke="rgba(1, 45, 108, 1)"></path><path d="M58.5 189 a4.5 4.5 0 1 0 9 0 a4.5 4.5 0 1 0 -9 0zM4.5 9 a4.5 4.5 0 1 0 9 0 a4.5 4.5 0 1 0 -9 0z" fill="rgba(1, 45, 108, 1)"></path><path d="M63 171L27 135L27 45" stroke-width="3" stroke="rgba(1, 45, 108, 1)"></path><path d="M58.5 171 a4.5 4.5 0 1 0 9 0 a4.5 4.5 0 1 0 -9 0zM22.5 45 a4.5 4.5 0 1 0 9 0 a4.5 4.5 0 1 0 -9 0z" fill="rgba(1, 45, 108, 1)"></path><path d="M1269 63L1287 63L1323 99" stroke-width="3" stroke="rgba(1, 45, 108, 1)"></path><path d="M1264.5 63 a4.5 4.5 0 1 0 9 0 a4.5 4.5 0 1 0 -9 0zM1318.5 99 a4.5 4.5 0 1 0 9 0 a4.5 4.5 0 1 0 -9 0z" fill="rgba(1, 45, 108, 1)"></path><path d="M1287 351L1377 261L1377 243" stroke-width="3" stroke="rgba(1, 45, 108, 1)"></path><path d="M1282.5 351 a4.5 4.5 0 1 0 9 0 a4.5 4.5 0 1 0 -9 0zM1372.5 243 a4.5 4.5 0 1 0 9 0 a4.5 4.5 0 1 0 -9 0z" fill="rgba(1, 45, 108, 1)"></path><path d="M81 81L135 81L189 135L189 189" stroke-width="3" stroke="rgba(1, 45, 108, 1)"></path><path d="M76.5 81 a4.5 4.5 0 1 0 9 0 a4.5 4.5 0 1 0 -9 0zM184.5 189 a4.5 4.5 0 1 0 9 0 a4.5 4.5 0 1 0 -9 0z" fill="rgba(1, 45, 108, 1)"></path><path d="M1377 315L1323 369L1323 423" stroke-width="3" stroke="rgba(1, 45, 108, 1)"></path><path d="M1372.5 315 a4.5 4.5 0 1 0 9 0 a4.5 4.5 0 1 0 -9 0zM1318.5 423 a4.5 4.5 0 1 0 9 0 a4.5 4.5 0 1 0 -9 0z" fill="rgba(1, 45, 108, 1)"></path><path d="M1161 261L1197 225L1197 171" stroke-width="3" stroke="rgba(1, 45, 108, 1)"></path><path d="M1156.5 261 a4.5 4.5 0 1 0 9 0 a4.5 4.5 0 1 0 -9 0zM1192.5 171 a4.5 4.5 0 1 0 9 0 a4.5 4.5 0 1 0 -9 0z" fill="rgba(1, 45, 108, 1)"></path><path d="M387 459L405 459L441 495L441 513" stroke-width="3" stroke="rgba(1, 45, 108, 1)"></path><path d="M382.5 459 a4.5 4.5 0 1 0 9 0 a4.5 4.5 0 1 0 -9 0zM436.5 513 a4.5 4.5 0 1 0 9 0 a4.5 4.5 0 1 0 -9 0z" fill="rgba(1, 45, 108, 1)"></path><path d="M873 189L855 171L837 171" stroke-width="3" stroke="rgba(1, 45, 108, 1)"></path><path d="M868.5 189 a4.5 4.5 0 1 0 9 0 a4.5 4.5 0 1 0 -9 0zM832.5 171 a4.5 4.5 0 1 0 9 0 a4.5 4.5 0 1 0 -9 0z" fill="rgba(1, 45, 108, 1)"></path><path d="M765 225L765 63L747 45" stroke-width="3" stroke="rgba(1, 45, 108, 1)"></path><path d="M760.5 225 a4.5 4.5 0 1 0 9 0 a4.5 4.5 0 1 0 -9 0zM742.5 45 a4.5 4.5 0 1 0 9 0 a4.5 4.5 0 1 0 -9 0z" fill="rgba(1, 45, 108, 1)"></path><path d="M1053 513L1053 549" stroke-width="3" stroke="rgba(1, 45, 108, 1)"></path><path d="M1048.5 513 a4.5 4.5 0 1 0 9 0 a4.5 4.5 0 1 0 -9 0zM1048.5 549 a4.5 4.5 0 1 0 9 0 a4.5 4.5 0 1 0 -9 0z" fill="rgba(1, 45, 108, 1)"></path><path d="M99 99L63 135L45 135" stroke-width="3" stroke="rgba(1, 45, 108, 1)"></path><path d="M94.5 99 a4.5 4.5 0 1 0 9 0 a4.5 4.5 0 1 0 -9 0zM40.5 135 a4.5 4.5 0 1 0 9 0 a4.5 4.5 0 1 0 -9 0z" fill="rgba(1, 45, 108, 1)"></path><path d="M927 351L891 315" stroke-width="3" stroke="rgba(1, 45, 108, 1)"></path><path d="M922.5 351 a4.5 4.5 0 1 0 9 0 a4.5 4.5 0 1 0 -9 0zM886.5 315 a4.5 4.5 0 1 0 9 0 a4.5 4.5 0 1 0 -9 0z" fill="rgba(1, 45, 108, 1)"></path><path d="M495 117L531 117L549 99L549 81" stroke-width="3" stroke="rgba(1, 45, 108, 1)"></path><path d="M490.5 117 a4.5 4.5 0 1 0 9 0 a4.5 4.5 0 1 0 -9 0zM544.5 81 a4.5 4.5 0 1 0 9 0 a4.5 4.5 0 1 0 -9 0z" fill="rgba(1, 45, 108, 1)"></path><path d="M1143 261L1161 243L1161 225" stroke-width="3" stroke="rgba(1, 45, 108, 1)"></path><path d="M1138.5 261 a4.5 4.5 0 1 0 9 0 a4.5 4.5 0 1 0 -9 0zM1156.5 225 a4.5 4.5 0 1 0 9 0 a4.5 4.5 0 1 0 -9 0z" fill="rgba(1, 45, 108, 1)"></path><path d="M963 297L945 279L927 279L909 297L909 315L927 333L999 333" stroke-width="3" stroke="rgba(1, 45, 108, 1)"></path><path d="M958.5 297 a4.5 4.5 0 1 0 9 0 a4.5 4.5 0 1 0 -9 0zM994.5 333 a4.5 4.5 0 1 0 9 0 a4.5 4.5 0 1 0 -9 0z" fill="rgba(1, 45, 108, 1)"></path><path d="M1251 351L1197 405" stroke-width="3" stroke="rgba(1, 45, 108, 1)"></path><path d="M1246.5 351 a4.5 4.5 0 1 0 9 0 a4.5 4.5 0 1 0 -9 0zM1192.5 405 a4.5 4.5 0 1 0 9 0 a4.5 4.5 0 1 0 -9 0z" fill="rgba(1, 45, 108, 1)"></path><path d="M63 441L117 495L117 531" stroke-width="3" stroke="rgba(1, 45, 108, 1)"></path><path d="M58.5 441 a4.5 4.5 0 1 0 9 0 a4.5 4.5 0 1 0 -9 0zM112.5 531 a4.5 4.5 0 1 0 9 0 a4.5 4.5 0 1 0 -9 0z" fill="rgba(1, 45, 108, 1)"></path><path d="M1071 315L1107 315L1179 387" stroke-width="3" stroke="rgba(1, 45, 108, 1)"></path><path d="M1066.5 315 a4.5 4.5 0 1 0 9 0 a4.5 4.5 0 1 0 -9 0zM1174.5 387 a4.5 4.5 0 1 0 9 0 a4.5 4.5 0 1 0 -9 0z" fill="rgba(1, 45, 108, 1)"></path><path d="M1359 297L1359 315L1269 405L1215 405" stroke-width="3" stroke="rgba(1, 45, 108, 1)"></path><path d="M1354.5 297 a4.5 4.5 0 1 0 9 0 a4.5 4.5 0 1 0 -9 0zM1210.5 405 a4.5 4.5 0 1 0 9 0 a4.5 4.5 0 1 0 -9 0z" fill="rgba(1, 45, 108, 1)"></path><path d="M333 441L279 387L279 369" stroke-width="3" stroke="rgba(1, 45, 108, 1)"></path><path d="M328.5 441 a4.5 4.5 0 1 0 9 0 a4.5 4.5 0 1 0 -9 0zM274.5 369 a4.5 4.5 0 1 0 9 0 a4.5 4.5 0 1 0 -9 0z" fill="rgba(1, 45, 108, 1)"></path><path d="M1395 477L1395 531" stroke-width="3" stroke="rgba(1, 45, 108, 1)"></path><path d="M1390.5 477 a4.5 4.5 0 1 0 9 0 a4.5 4.5 0 1 0 -9 0zM1390.5 531 a4.5 4.5 0 1 0 9 0 a4.5 4.5 0 1 0 -9 0z" fill="rgba(1, 45, 108, 1)"></path><path d="M1395 441L1395 459L1377 477" stroke-width="3" stroke="rgba(1, 45, 108, 1)"></path><path d="M1390.5 441 a4.5 4.5 0 1 0 9 0 a4.5 4.5 0 1 0 -9 0zM1372.5 477 a4.5 4.5 0 1 0 9 0 a4.5 4.5 0 1 0 -9 0z" fill="rgba(1, 45, 108, 1)"></path><path d="M1089 369L1089 387L1107 405L1161 405" stroke-width="3" stroke="rgba(1, 45, 108, 1)"></path><path d="M1084.5 369 a4.5 4.5 0 1 0 9 0 a4.5 4.5 0 1 0 -9 0zM1156.5 405 a4.5 4.5 0 1 0 9 0 a4.5 4.5 0 1 0 -9 0z" fill="rgba(1, 45, 108, 1)"></path><path d="M1179 315L1179 297L1161 279L1089 279L1071 261" stroke-width="3" stroke="rgba(1, 45, 108, 1)"></path><path d="M1174.5 315 a4.5 4.5 0 1 0 9 0 a4.5 4.5 0 1 0 -9 0zM1066.5 261 a4.5 4.5 0 1 0 9 0 a4.5 4.5 0 1 0 -9 0z" fill="rgba(1, 45, 108, 1)"></path><path d="M765 477L729 441" stroke-width="3" stroke="rgba(1, 45, 108, 1)"></path><path d="M760.5 477 a4.5 4.5 0 1 0 9 0 a4.5 4.5 0 1 0 -9 0zM724.5 441 a4.5 4.5 0 1 0 9 0 a4.5 4.5 0 1 0 -9 0z" fill="rgba(1, 45, 108, 1)"></path><path d="M639 297L585 297L567 315L567 333L585 351" stroke-width="3" stroke="rgba(1, 45, 108, 1)"></path><path d="M634.5 297 a4.5 4.5 0 1 0 9 0 a4.5 4.5 0 1 0 -9 0zM580.5 351 a4.5 4.5 0 1 0 9 0 a4.5 4.5 0 1 0 -9 0z" fill="rgba(1, 45, 108, 1)"></path><path d="M693 99L693 171L675 189L675 207L693 225L711 225L729 243" stroke-width="3" stroke="rgba(1, 45, 108, 1)"></path><path d="M688.5 99 a4.5 4.5 0 1 0 9 0 a4.5 4.5 0 1 0 -9 0zM724.5 243 a4.5 4.5 0 1 0 9 0 a4.5 4.5 0 1 0 -9 0z" fill="rgba(1, 45, 108, 1)"></path><path d="M135 351L99 315L81 315L63 297" stroke-width="3" stroke="rgba(1, 45, 108, 1)"></path><path d="M130.5 351 a4.5 4.5 0 1 0 9 0 a4.5 4.5 0 1 0 -9 0zM58.5 297 a4.5 4.5 0 1 0 9 0 a4.5 4.5 0 1 0 -9 0z" fill="rgba(1, 45, 108, 1)"></path><path d="M117 459L117 477L171 531L189 531" stroke-width="3" stroke="rgba(1, 45, 108, 1)"></path><path d="M112.5 459 a4.5 4.5 0 1 0 9 0 a4.5 4.5 0 1 0 -9 0zM184.5 531 a4.5 4.5 0 1 0 9 0 a4.5 4.5 0 1 0 -9 0z" fill="rgba(1, 45, 108, 1)"></path><path d="M63 549L27 513L9 513" stroke-width="3" stroke="rgba(1, 45, 108, 1)"></path><path d="M58.5 549 a4.5 4.5 0 1 0 9 0 a4.5 4.5 0 1 0 -9 0zM4.5 513 a4.5 4.5 0 1 0 9 0 a4.5 4.5 0 1 0 -9 0z" fill="rgba(1, 45, 108, 1)"></path><path d="M495 315L459 279" stroke-width="3" stroke="rgba(1, 45, 108, 1)"></path><path d="M490.5 315 a4.5 4.5 0 1 0 9 0 a4.5 4.5 0 1 0 -9 0zM454.5 279 a4.5 4.5 0 1 0 9 0 a4.5 4.5 0 1 0 -9 0z" fill="rgba(1, 45, 108, 1)"></path><path d="M1251 387L1269 369L1287 369" stroke-width="3" stroke="rgba(1, 45, 108, 1)"></path><path d="M1246.5 387 a4.5 4.5 0 1 0 9 0 a4.5 4.5 0 1 0 -9 0zM1282.5 369 a4.5 4.5 0 1 0 9 0 a4.5 4.5 0 1 0 -9 0z" fill="rgba(1, 45, 108, 1)"></path><path d="M1215 279L1269 225L1269 171" stroke-width="3" stroke="rgba(1, 45, 108, 1)"></path><path d="M1210.5 279 a4.5 4.5 0 1 0 9 0 a4.5 4.5 0 1 0 -9 0zM1264.5 171 a4.5 4.5 0 1 0 9 0 a4.5 4.5 0 1 0 -9 0z" fill="rgba(1, 45, 108, 1)"></path><path d="M981 45L981 63L927 117L909 117" stroke-width="3" stroke="rgba(1, 45, 108, 1)"></path><path d="M976.5 45 a4.5 4.5 0 1 0 9 0 a4.5 4.5 0 1 0 -9 0zM904.5 117 a4.5 4.5 0 1 0 9 0 a4.5 4.5 0 1 0 -9 0z" fill="rgba(1, 45, 108, 1)"></path><path d="M1143 243L1125 225L1107 225L1089 243L1089 261" stroke-width="3" stroke="rgba(1, 45, 108, 1)"></path><path d="M1138.5 243 a4.5 4.5 0 1 0 9 0 a4.5 4.5 0 1 0 -9 0zM1084.5 261 a4.5 4.5 0 1 0 9 0 a4.5 4.5 0 1 0 -9 0z" fill="rgba(1, 45, 108, 1)"></path><path d="M1233 477L1287 531L1377 531" stroke-width="3" stroke="rgba(1, 45, 108, 1)"></path><path d="M1228.5 477 a4.5 4.5 0 1 0 9 0 a4.5 4.5 0 1 0 -9 0zM1372.5 531 a4.5 4.5 0 1 0 9 0 a4.5 4.5 0 1 0 -9 0z" fill="rgba(1, 45, 108, 1)"></path><path d="M909 459L945 459" stroke-width="3" stroke="rgba(1, 45, 108, 1)"></path><path d="M904.5 459 a4.5 4.5 0 1 0 9 0 a4.5 4.5 0 1 0 -9 0zM940.5 459 a4.5 4.5 0 1 0 9 0 a4.5 4.5 0 1 0 -9 0z" fill="rgba(1, 45, 108, 1)"></path><path d="M1215 513L1215 477" stroke-width="3" stroke="rgba(1, 45, 108, 1)"></path><path d="M1210.5 513 a4.5 4.5 0 1 0 9 0 a4.5 4.5 0 1 0 -9 0zM1210.5 477 a4.5 4.5 0 1 0 9 0 a4.5 4.5 0 1 0 -9 0z" fill="rgba(1, 45, 108, 1)"></path><path d="M927 549L855 549" stroke-width="3" stroke="rgba(1, 45, 108, 1)"></path><path d="M922.5 549 a4.5 4.5 0 1 0 9 0 a4.5 4.5 0 1 0 -9 0zM850.5 549 a4.5 4.5 0 1 0 9 0 a4.5 4.5 0 1 0 -9 0z" fill="rgba(1, 45, 108, 1)"></path><path d="M351 477L387 513L423 513" stroke-width="3" stroke="rgba(1, 45, 108, 1)"></path><path d="M346.5 477 a4.5 4.5 0 1 0 9 0 a4.5 4.5 0 1 0 -9 0zM418.5 513 a4.5 4.5 0 1 0 9 0 a4.5 4.5 0 1 0 -9 0z" fill="rgba(1, 45, 108, 1)"></path><path d="M243 549L243 513L261 495L261 477" stroke-width="3" stroke="rgba(1, 45, 108, 1)"></path><path d="M238.5 549 a4.5 4.5 0 1 0 9 0 a4.5 4.5 0 1 0 -9 0zM256.5 477 a4.5 4.5 0 1 0 9 0 a4.5 4.5 0 1 0 -9 0z" fill="rgba(1, 45, 108, 1)"></path><path d="M783 495L783 387L747 351L711 351" stroke-width="3" stroke="rgba(1, 45, 108, 1)"></path><path d="M778.5 495 a4.5 4.5 0 1 0 9 0 a4.5 4.5 0 1 0 -9 0zM706.5 351 a4.5 4.5 0 1 0 9 0 a4.5 4.5 0 1 0 -9 0z" fill="rgba(1, 45, 108, 1)"></path><path d="M495 351L441 297" stroke-width="3" stroke="rgba(1, 45, 108, 1)"></path><path d="M490.5 351 a4.5 4.5 0 1 0 9 0 a4.5 4.5 0 1 0 -9 0zM436.5 297 a4.5 4.5 0 1 0 9 0 a4.5 4.5 0 1 0 -9 0z" fill="rgba(1, 45, 108, 1)"></path><path d="M1305 189L1341 225L1341 243" stroke-width="3" stroke="rgba(1, 45, 108, 1)"></path><path d="M1300.5 189 a4.5 4.5 0 1 0 9 0 a4.5 4.5 0 1 0 -9 0zM1336.5 243 a4.5 4.5 0 1 0 9 0 a4.5 4.5 0 1 0 -9 0z" fill="rgba(1, 45, 108, 1)"></path><path d="M855 459L855 531" stroke-width="3" stroke="rgba(1, 45, 108, 1)"></path><path d="M850.5 459 a4.5 4.5 0 1 0 9 0 a4.5 4.5 0 1 0 -9 0zM850.5 531 a4.5 4.5 0 1 0 9 0 a4.5 4.5 0 1 0 -9 0z" fill="rgba(1, 45, 108, 1)"></path><path d="M1035 513L945 513L927 495" stroke-width="3" stroke="rgba(1, 45, 108, 1)"></path><path d="M1030.5 513 a4.5 4.5 0 1 0 9 0 a4.5 4.5 0 1 0 -9 0zM922.5 495 a4.5 4.5 0 1 0 9 0 a4.5 4.5 0 1 0 -9 0z" fill="rgba(1, 45, 108, 1)"></path><path d="M1431 45L1431 81" stroke-width="3" stroke="rgba(1, 45, 108, 1)"></path><path d="M1426.5 45 a4.5 4.5 0 1 0 9 0 a4.5 4.5 0 1 0 -9 0zM1426.5 81 a4.5 4.5 0 1 0 9 0 a4.5 4.5 0 1 0 -9 0z" fill="rgba(1, 45, 108, 1)"></path><path d="M585 261L603 279L639 279L657 261L657 225" stroke-width="3" stroke="rgba(1, 45, 108, 1)"></path><path d="M580.5 261 a4.5 4.5 0 1 0 9 0 a4.5 4.5 0 1 0 -9 0zM652.5 225 a4.5 4.5 0 1 0 9 0 a4.5 4.5 0 1 0 -9 0z" fill="rgba(1, 45, 108, 1)"></path><path d="M1305 495L1269 495L1251 477" stroke-width="3" stroke="rgba(1, 45, 108, 1)"></path><path d="M1300.5 495 a4.5 4.5 0 1 0 9 0 a4.5 4.5 0 1 0 -9 0zM1246.5 477 a4.5 4.5 0 1 0 9 0 a4.5 4.5 0 1 0 -9 0z" fill="rgba(1, 45, 108, 1)"></path><path d="M153 405L117 405" stroke-width="3" stroke="rgba(1, 45, 108, 1)"></path><path d="M148.5 405 a4.5 4.5 0 1 0 9 0 a4.5 4.5 0 1 0 -9 0zM112.5 405 a4.5 4.5 0 1 0 9 0 a4.5 4.5 0 1 0 -9 0z" fill="rgba(1, 45, 108, 1)"></path><path d="M477 135L477 171" stroke-width="3" stroke="rgba(1, 45, 108, 1)"></path><path d="M472.5 135 a4.5 4.5 0 1 0 9 0 a4.5 4.5 0 1 0 -9 0zM472.5 171 a4.5 4.5 0 1 0 9 0 a4.5 4.5 0 1 0 -9 0z" fill="rgba(1, 45, 108, 1)"></path><path d="M333 387L369 423" stroke-width="3" stroke="rgba(1, 45, 108, 1)"></path><path d="M328.5 387 a4.5 4.5 0 1 0 9 0 a4.5 4.5 0 1 0 -9 0zM364.5 423 a4.5 4.5 0 1 0 9 0 a4.5 4.5 0 1 0 -9 0z" fill="rgba(1, 45, 108, 1)"></path><path d="M441 315L477 351L477 369L459 387L441 387" stroke-width="3" stroke="rgba(1, 45, 108, 1)"></path><path d="M436.5 315 a4.5 4.5 0 1 0 9 0 a4.5 4.5 0 1 0 -9 0zM436.5 387 a4.5 4.5 0 1 0 9 0 a4.5 4.5 0 1 0 -9 0z" fill="rgba(1, 45, 108, 1)"></path><path d="M1305 27L1287 27L1269 9" stroke-width="3" stroke="rgba(1, 45, 108, 1)"></path><path d="M1300.5 27 a4.5 4.5 0 1 0 9 0 a4.5 4.5 0 1 0 -9 0zM1264.5 9 a4.5 4.5 0 1 0 9 0 a4.5 4.5 0 1 0 -9 0z" fill="rgba(1, 45, 108, 1)"></path><path d="M765 423L765 459" stroke-width="3" stroke="rgba(1, 45, 108, 1)"></path><path d="M760.5 423 a4.5 4.5 0 1 0 9 0 a4.5 4.5 0 1 0 -9 0zM760.5 459 a4.5 4.5 0 1 0 9 0 a4.5 4.5 0 1 0 -9 0z" fill="rgba(1, 45, 108, 1)"></path><path d="M657 459L657 513L639 531L639 549" stroke-width="3" stroke="rgba(1, 45, 108, 1)"></path><path d="M652.5 459 a4.5 4.5 0 1 0 9 0 a4.5 4.5 0 1 0 -9 0zM634.5 549 a4.5 4.5 0 1 0 9 0 a4.5 4.5 0 1 0 -9 0z" fill="rgba(1, 45, 108, 1)"></path><path d="M1125 369L1143 369L1161 387" stroke-width="3" stroke="rgba(1, 45, 108, 1)"></path><path d="M1120.5 369 a4.5 4.5 0 1 0 9 0 a4.5 4.5 0 1 0 -9 0zM1156.5 387 a4.5 4.5 0 1 0 9 0 a4.5 4.5 0 1 0 -9 0z" fill="rgba(1, 45, 108, 1)"></path><path d="M333 279L405 351L405 369" stroke-width="3" stroke="rgba(1, 45, 108, 1)"></path><path d="M328.5 279 a4.5 4.5 0 1 0 9 0 a4.5 4.5 0 1 0 -9 0zM400.5 369 a4.5 4.5 0 1 0 9 0 a4.5 4.5 0 1 0 -9 0z" fill="rgba(1, 45, 108, 1)"></path><path d="M675 495L693 513L711 513L729 495L747 495L801 549" stroke-width="3" stroke="rgba(1, 45, 108, 1)"></path><path d="M670.5 495 a4.5 4.5 0 1 0 9 0 a4.5 4.5 0 1 0 -9 0zM796.5 549 a4.5 4.5 0 1 0 9 0 a4.5 4.5 0 1 0 -9 0z" fill="rgba(1, 45, 108, 1)"></path><path d="M189 99L225 99" stroke-width="3" stroke="rgba(1, 45, 108, 1)"></path><path d="M184.5 99 a4.5 4.5 0 1 0 9 0 a4.5 4.5 0 1 0 -9 0zM220.5 99 a4.5 4.5 0 1 0 9 0 a4.5 4.5 0 1 0 -9 0z" fill="rgba(1, 45, 108, 1)"></path><path d="M873 135L873 117L855 99L837 99" stroke-width="3" stroke="rgba(1, 45, 108, 1)"></path><path d="M868.5 135 a4.5 4.5 0 1 0 9 0 a4.5 4.5 0 1 0 -9 0zM832.5 99 a4.5 4.5 0 1 0 9 0 a4.5 4.5 0 1 0 -9 0z" fill="rgba(1, 45, 108, 1)"></path><path d="M1143 387L1107 387" stroke-width="3" stroke="rgba(1, 45, 108, 1)"></path><path d="M1138.5 387 a4.5 4.5 0 1 0 9 0 a4.5 4.5 0 1 0 -9 0zM1102.5 387 a4.5 4.5 0 1 0 9 0 a4.5 4.5 0 1 0 -9 0z" fill="rgba(1, 45, 108, 1)"></path><path d="M585 531L549 531L531 549" stroke-width="3" stroke="rgba(1, 45, 108, 1)"></path><path d="M580.5 531 a4.5 4.5 0 1 0 9 0 a4.5 4.5 0 1 0 -9 0zM526.5 549 a4.5 4.5 0 1 0 9 0 a4.5 4.5 0 1 0 -9 0z" fill="rgba(1, 45, 108, 1)"></path><path d="M585 63L585 27" stroke-width="3" stroke="rgba(1, 45, 108, 1)"></path><path d="M580.5 63 a4.5 4.5 0 1 0 9 0 a4.5 4.5 0 1 0 -9 0zM580.5 27 a4.5 4.5 0 1 0 9 0 a4.5 4.5 0 1 0 -9 0z" fill="rgba(1, 45, 108, 1)"></path><path d="M243 279L261 297L279 297" stroke-width="3" stroke="rgba(1, 45, 108, 1)"></path><path d="M238.5 279 a4.5 4.5 0 1 0 9 0 a4.5 4.5 0 1 0 -9 0zM274.5 297 a4.5 4.5 0 1 0 9 0 a4.5 4.5 0 1 0 -9 0z" fill="rgba(1, 45, 108, 1)"></path><path d="M1233 315L1179 369" stroke-width="3" stroke="rgba(1, 45, 108, 1)"></path><path d="M1228.5 315 a4.5 4.5 0 1 0 9 0 a4.5 4.5 0 1 0 -9 0zM1174.5 369 a4.5 4.5 0 1 0 9 0 a4.5 4.5 0 1 0 -9 0z" fill="rgba(1, 45, 108, 1)"></path><path d="M585 441L567 441L495 513" stroke-width="3" stroke="rgba(1, 45, 108, 1)"></path><path d="M580.5 441 a4.5 4.5 0 1 0 9 0 a4.5 4.5 0 1 0 -9 0zM490.5 513 a4.5 4.5 0 1 0 9 0 a4.5 4.5 0 1 0 -9 0z" fill="rgba(1, 45, 108, 1)"></path><path d="M81 153L81 135L117 99L135 99L171 135L171 189" stroke-width="3" stroke="rgba(1, 45, 108, 1)"></path><path d="M76.5 153 a4.5 4.5 0 1 0 9 0 a4.5 4.5 0 1 0 -9 0zM166.5 189 a4.5 4.5 0 1 0 9 0 a4.5 4.5 0 1 0 -9 0z" fill="rgba(1, 45, 108, 1)"></path><path d="M783 171L801 189L801 243" stroke-width="3" stroke="rgba(1, 45, 108, 1)"></path><path d="M778.5 171 a4.5 4.5 0 1 0 9 0 a4.5 4.5 0 1 0 -9 0zM796.5 243 a4.5 4.5 0 1 0 9 0 a4.5 4.5 0 1 0 -9 0z" fill="rgba(1, 45, 108, 1)"></path><path d="M261 207L225 207" stroke-width="3" stroke="rgba(1, 45, 108, 1)"></path><path d="M256.5 207 a4.5 4.5 0 1 0 9 0 a4.5 4.5 0 1 0 -9 0zM220.5 207 a4.5 4.5 0 1 0 9 0 a4.5 4.5 0 1 0 -9 0z" fill="rgba(1, 45, 108, 1)"></path><path d="M27 9L63 9" stroke-width="3" stroke="rgba(1, 45, 108, 1)"></path><path d="M22.5 9 a4.5 4.5 0 1 0 9 0 a4.5 4.5 0 1 0 -9 0zM58.5 9 a4.5 4.5 0 1 0 9 0 a4.5 4.5 0 1 0 -9 0z" fill="rgba(1, 45, 108, 1)"></path><path d="M675 423L729 477" stroke-width="3" stroke="rgba(1, 45, 108, 1)"></path><path d="M670.5 423 a4.5 4.5 0 1 0 9 0 a4.5 4.5 0 1 0 -9 0zM724.5 477 a4.5 4.5 0 1 0 9 0 a4.5 4.5 0 1 0 -9 0z" fill="rgba(1, 45, 108, 1)"></path><path d="M549 279L549 297L531 315" stroke-width="3" stroke="rgba(1, 45, 108, 1)"></path><path d="M544.5 279 a4.5 4.5 0 1 0 9 0 a4.5 4.5 0 1 0 -9 0zM526.5 315 a4.5 4.5 0 1 0 9 0 a4.5 4.5 0 1 0 -9 0z" fill="rgba(1, 45, 108, 1)"></path><path d="M675 117L639 153L621 153" stroke-width="3" stroke="rgba(1, 45, 108, 1)"></path><path d="M670.5 117 a4.5 4.5 0 1 0 9 0 a4.5 4.5 0 1 0 -9 0zM616.5 153 a4.5 4.5 0 1 0 9 0 a4.5 4.5 0 1 0 -9 0z" fill="rgba(1, 45, 108, 1)"></path><path d="M1107 369L1089 351L1071 351" stroke-width="3" stroke="rgba(1, 45, 108, 1)"></path><path d="M1102.5 369 a4.5 4.5 0 1 0 9 0 a4.5 4.5 0 1 0 -9 0zM1066.5 351 a4.5 4.5 0 1 0 9 0 a4.5 4.5 0 1 0 -9 0z" fill="rgba(1, 45, 108, 1)"></path><path d="M333 63L351 81L405 81" stroke-width="3" stroke="rgba(1, 45, 108, 1)"></path><path d="M328.5 63 a4.5 4.5 0 1 0 9 0 a4.5 4.5 0 1 0 -9 0zM400.5 81 a4.5 4.5 0 1 0 9 0 a4.5 4.5 0 1 0 -9 0z" fill="rgba(1, 45, 108, 1)"></path><path d="M567 423L585 405L585 387" stroke-width="3" stroke="rgba(1, 45, 108, 1)"></path><path d="M562.5 423 a4.5 4.5 0 1 0 9 0 a4.5 4.5 0 1 0 -9 0zM580.5 387 a4.5 4.5 0 1 0 9 0 a4.5 4.5 0 1 0 -9 0z" fill="rgba(1, 45, 108, 1)"></path><path d="M1323 63L1341 81L1359 81L1377 63L1377 27" stroke-width="3" stroke="rgba(1, 45, 108, 1)"></path><path d="M1318.5 63 a4.5 4.5 0 1 0 9 0 a4.5 4.5 0 1 0 -9 0zM1372.5 27 a4.5 4.5 0 1 0 9 0 a4.5 4.5 0 1 0 -9 0z" fill="rgba(1, 45, 108, 1)"></path><path d="M729 369L711 387L711 405" stroke-width="3" stroke="rgba(1, 45, 108, 1)"></path><path d="M724.5 369 a4.5 4.5 0 1 0 9 0 a4.5 4.5 0 1 0 -9 0zM706.5 405 a4.5 4.5 0 1 0 9 0 a4.5 4.5 0 1 0 -9 0z" fill="rgba(1, 45, 108, 1)"></path><path d="M1323 243L1323 225L1305 207" stroke-width="3" stroke="rgba(1, 45, 108, 1)"></path><path d="M1318.5 243 a4.5 4.5 0 1 0 9 0 a4.5 4.5 0 1 0 -9 0zM1300.5 207 a4.5 4.5 0 1 0 9 0 a4.5 4.5 0 1 0 -9 0z" fill="rgba(1, 45, 108, 1)"></path><path d="M999 207L1017 189L1017 171" stroke-width="3" stroke="rgba(1, 45, 108, 1)"></path><path d="M994.5 207 a4.5 4.5 0 1 0 9 0 a4.5 4.5 0 1 0 -9 0zM1012.5 171 a4.5 4.5 0 1 0 9 0 a4.5 4.5 0 1 0 -9 0z" fill="rgba(1, 45, 108, 1)"></path><path d="M1161 333L1161 297" stroke-width="3" stroke="rgba(1, 45, 108, 1)"></path><path d="M1156.5 333 a4.5 4.5 0 1 0 9 0 a4.5 4.5 0 1 0 -9 0zM1156.5 297 a4.5 4.5 0 1 0 9 0 a4.5 4.5 0 1 0 -9 0z" fill="rgba(1, 45, 108, 1)"></path><path d="M99 261L63 225" stroke-width="3" stroke="rgba(1, 45, 108, 1)"></path><path d="M94.5 261 a4.5 4.5 0 1 0 9 0 a4.5 4.5 0 1 0 -9 0zM58.5 225 a4.5 4.5 0 1 0 9 0 a4.5 4.5 0 1 0 -9 0z" fill="rgba(1, 45, 108, 1)"></path><path d="M153 171L153 135L135 117L117 117L99 135L99 153L81 171L81 189" stroke-width="3" stroke="rgba(1, 45, 108, 1)"></path><path d="M148.5 171 a4.5 4.5 0 1 0 9 0 a4.5 4.5 0 1 0 -9 0zM76.5 189 a4.5 4.5 0 1 0 9 0 a4.5 4.5 0 1 0 -9 0z" fill="rgba(1, 45, 108, 1)"></path><path d="M747 153L747 225" stroke-width="3" stroke="rgba(1, 45, 108, 1)"></path><path d="M742.5 153 a4.5 4.5 0 1 0 9 0 a4.5 4.5 0 1 0 -9 0zM742.5 225 a4.5 4.5 0 1 0 9 0 a4.5 4.5 0 1 0 -9 0z" fill="rgba(1, 45, 108, 1)"></path><path d="M675 441L639 405L639 387" stroke-width="3" stroke="rgba(1, 45, 108, 1)"></path><path d="M670.5 441 a4.5 4.5 0 1 0 9 0 a4.5 4.5 0 1 0 -9 0zM634.5 387 a4.5 4.5 0 1 0 9 0 a4.5 4.5 0 1 0 -9 0z" fill="rgba(1, 45, 108, 1)"></path><path d="M441 81L441 63L459 45L459 27" stroke-width="3" stroke="rgba(1, 45, 108, 1)"></path><path d="M436.5 81 a4.5 4.5 0 1 0 9 0 a4.5 4.5 0 1 0 -9 0zM454.5 27 a4.5 4.5 0 1 0 9 0 a4.5 4.5 0 1 0 -9 0z" fill="rgba(1, 45, 108, 1)"></path><path d="M603 531L603 477" stroke-width="3" stroke="rgba(1, 45, 108, 1)"></path><path d="M598.5 531 a4.5 4.5 0 1 0 9 0 a4.5 4.5 0 1 0 -9 0zM598.5 477 a4.5 4.5 0 1 0 9 0 a4.5 4.5 0 1 0 -9 0z" fill="rgba(1, 45, 108, 1)"></path><path d="M585 549L549 549" stroke-width="3" stroke="rgba(1, 45, 108, 1)"></path><path d="M580.5 549 a4.5 4.5 0 1 0 9 0 a4.5 4.5 0 1 0 -9 0zM544.5 549 a4.5 4.5 0 1 0 9 0 a4.5 4.5 0 1 0 -9 0z" fill="rgba(1, 45, 108, 1)"></path><path d="M1107 27L1143 27" stroke-width="3" stroke="rgba(1, 45, 108, 1)"></path><path d="M1102.5 27 a4.5 4.5 0 1 0 9 0 a4.5 4.5 0 1 0 -9 0zM1138.5 27 a4.5 4.5 0 1 0 9 0 a4.5 4.5 0 1 0 -9 0z" fill="rgba(1, 45, 108, 1)"></path><path d="M9 297L27 279L27 261L9 243" stroke-width="3" stroke="rgba(1, 45, 108, 1)"></path><path d="M4.5 297 a4.5 4.5 0 1 0 9 0 a4.5 4.5 0 1 0 -9 0zM4.5 243 a4.5 4.5 0 1 0 9 0 a4.5 4.5 0 1 0 -9 0z" fill="rgba(1, 45, 108, 1)"></path><path d="M1359 351L1359 423" stroke-width="3" stroke="rgba(1, 45, 108, 1)"></path><path d="M1354.5 351 a4.5 4.5 0 1 0 9 0 a4.5 4.5 0 1 0 -9 0zM1354.5 423 a4.5 4.5 0 1 0 9 0 a4.5 4.5 0 1 0 -9 0z" fill="rgba(1, 45, 108, 1)"></path><path d="M531 225L567 261L567 279" stroke-width="3" stroke="rgba(1, 45, 108, 1)"></path><path d="M526.5 225 a4.5 4.5 0 1 0 9 0 a4.5 4.5 0 1 0 -9 0zM562.5 279 a4.5 4.5 0 1 0 9 0 a4.5 4.5 0 1 0 -9 0z" fill="rgba(1, 45, 108, 1)"></path><path d="M891 279L837 279L819 261" stroke-width="3" stroke="rgba(1, 45, 108, 1)"></path><path d="M886.5 279 a4.5 4.5 0 1 0 9 0 a4.5 4.5 0 1 0 -9 0zM814.5 261 a4.5 4.5 0 1 0 9 0 a4.5 4.5 0 1 0 -9 0z" fill="rgba(1, 45, 108, 1)"></path><path d="M837 45L819 27L801 27" stroke-width="3" stroke="rgba(1, 45, 108, 1)"></path><path d="M832.5 45 a4.5 4.5 0 1 0 9 0 a4.5 4.5 0 1 0 -9 0zM796.5 27 a4.5 4.5 0 1 0 9 0 a4.5 4.5 0 1 0 -9 0z" fill="rgba(1, 45, 108, 1)"></path><path d="M891 513L909 513L927 531" stroke-width="3" stroke="rgba(1, 45, 108, 1)"></path><path d="M886.5 513 a4.5 4.5 0 1 0 9 0 a4.5 4.5 0 1 0 -9 0zM922.5 531 a4.5 4.5 0 1 0 9 0 a4.5 4.5 0 1 0 -9 0z" fill="rgba(1, 45, 108, 1)"></path><path d="M675 171L675 135" stroke-width="3" stroke="rgba(1, 45, 108, 1)"></path><path d="M670.5 171 a4.5 4.5 0 1 0 9 0 a4.5 4.5 0 1 0 -9 0zM670.5 135 a4.5 4.5 0 1 0 9 0 a4.5 4.5 0 1 0 -9 0z" fill="rgba(1, 45, 108, 1)"></path><path d="M1179 153L1125 153" stroke-width="3" stroke="rgba(1, 45, 108, 1)"></path><path d="M1174.5 153 a4.5 4.5 0 1 0 9 0 a4.5 4.5 0 1 0 -9 0zM1120.5 153 a4.5 4.5 0 1 0 9 0 a4.5 4.5 0 1 0 -9 0z" fill="rgba(1, 45, 108, 1)"></path><path d="M873 63L837 27" stroke-width="3" stroke="rgba(1, 45, 108, 1)"></path><path d="M868.5 63 a4.5 4.5 0 1 0 9 0 a4.5 4.5 0 1 0 -9 0zM832.5 27 a4.5 4.5 0 1 0 9 0 a4.5 4.5 0 1 0 -9 0z" fill="rgba(1, 45, 108, 1)"></path><path d="M945 63L945 81L927 99L909 99" stroke-width="3" stroke="rgba(1, 45, 108, 1)"></path><path d="M940.5 63 a4.5 4.5 0 1 0 9 0 a4.5 4.5 0 1 0 -9 0zM904.5 99 a4.5 4.5 0 1 0 9 0 a4.5 4.5 0 1 0 -9 0z" fill="rgba(1, 45, 108, 1)"></path><path d="M1197 279L1197 243" stroke-width="3" stroke="rgba(1, 45, 108, 1)"></path><path d="M1192.5 279 a4.5 4.5 0 1 0 9 0 a4.5 4.5 0 1 0 -9 0zM1192.5 243 a4.5 4.5 0 1 0 9 0 a4.5 4.5 0 1 0 -9 0z" fill="rgba(1, 45, 108, 1)"></path><path d="M1377 135L1359 153L1359 171L1431 243L1431 315" stroke-width="3" stroke="rgba(1, 45, 108, 1)"></path><path d="M1372.5 135 a4.5 4.5 0 1 0 9 0 a4.5 4.5 0 1 0 -9 0zM1426.5 315 a4.5 4.5 0 1 0 9 0 a4.5 4.5 0 1 0 -9 0z" fill="rgba(1, 45, 108, 1)"></path><path d="M1197 513L1179 495L1179 477" stroke-width="3" stroke="rgba(1, 45, 108, 1)"></path><path d="M1192.5 513 a4.5 4.5 0 1 0 9 0 a4.5 4.5 0 1 0 -9 0zM1174.5 477 a4.5 4.5 0 1 0 9 0 a4.5 4.5 0 1 0 -9 0z" fill="rgba(1, 45, 108, 1)"></path><path d="M369 207L369 261" stroke-width="3" stroke="rgba(1, 45, 108, 1)"></path><path d="M364.5 207 a4.5 4.5 0 1 0 9 0 a4.5 4.5 0 1 0 -9 0zM364.5 261 a4.5 4.5 0 1 0 9 0 a4.5 4.5 0 1 0 -9 0z" fill="rgba(1, 45, 108, 1)"></path><path d="M81 477L99 495L99 513" stroke-width="3" stroke="rgba(1, 45, 108, 1)"></path><path d="M76.5 477 a4.5 4.5 0 1 0 9 0 a4.5 4.5 0 1 0 -9 0zM94.5 513 a4.5 4.5 0 1 0 9 0 a4.5 4.5 0 1 0 -9 0z" fill="rgba(1, 45, 108, 1)"></path><path d="M1161 513L1143 495L1143 477" stroke-width="3" stroke="rgba(1, 45, 108, 1)"></path><path d="M1156.5 513 a4.5 4.5 0 1 0 9 0 a4.5 4.5 0 1 0 -9 0zM1138.5 477 a4.5 4.5 0 1 0 9 0 a4.5 4.5 0 1 0 -9 0z" fill="rgba(1, 45, 108, 1)"></path><path d="M153 243L171 261L171 297" stroke-width="3" stroke="rgba(1, 45, 108, 1)"></path><path d="M148.5 243 a4.5 4.5 0 1 0 9 0 a4.5 4.5 0 1 0 -9 0zM166.5 297 a4.5 4.5 0 1 0 9 0 a4.5 4.5 0 1 0 -9 0z" fill="rgba(1, 45, 108, 1)"></path><path d="M333 495L351 513L369 513" stroke-width="3" stroke="rgba(1, 45, 108, 1)"></path><path d="M328.5 495 a4.5 4.5 0 1 0 9 0 a4.5 4.5 0 1 0 -9 0zM364.5 513 a4.5 4.5 0 1 0 9 0 a4.5 4.5 0 1 0 -9 0z" fill="rgba(1, 45, 108, 1)"></path><path d="M225 513L225 495L207 477" stroke-width="3" stroke="rgba(1, 45, 108, 1)"></path><path d="M220.5 513 a4.5 4.5 0 1 0 9 0 a4.5 4.5 0 1 0 -9 0zM202.5 477 a4.5 4.5 0 1 0 9 0 a4.5 4.5 0 1 0 -9 0z" fill="rgba(1, 45, 108, 1)"></path><path d="M189 27L225 27" stroke-width="3" stroke="rgba(1, 45, 108, 1)"></path><path d="M184.5 27 a4.5 4.5 0 1 0 9 0 a4.5 4.5 0 1 0 -9 0zM220.5 27 a4.5 4.5 0 1 0 9 0 a4.5 4.5 0 1 0 -9 0z" fill="rgba(1, 45, 108, 1)"></path><path d="M207 423L189 441L189 459" stroke-width="3" stroke="rgba(1, 45, 108, 1)"></path><path d="M202.5 423 a4.5 4.5 0 1 0 9 0 a4.5 4.5 0 1 0 -9 0zM184.5 459 a4.5 4.5 0 1 0 9 0 a4.5 4.5 0 1 0 -9 0z" fill="rgba(1, 45, 108, 1)"></path><path d="M423 495L405 477L369 477" stroke-width="3" stroke="rgba(1, 45, 108, 1)"></path><path d="M418.5 495 a4.5 4.5 0 1 0 9 0 a4.5 4.5 0 1 0 -9 0zM364.5 477 a4.5 4.5 0 1 0 9 0 a4.5 4.5 0 1 0 -9 0z" fill="rgba(1, 45, 108, 1)"></path><path d="M819 459L819 441L801 423L801 405" stroke-width="3" stroke="rgba(1, 45, 108, 1)"></path><path d="M814.5 459 a4.5 4.5 0 1 0 9 0 a4.5 4.5 0 1 0 -9 0zM796.5 405 a4.5 4.5 0 1 0 9 0 a4.5 4.5 0 1 0 -9 0z" fill="rgba(1, 45, 108, 1)"></path><path d="M117 171L135 189L153 189" stroke-width="3" stroke="rgba(1, 45, 108, 1)"></path><path d="M112.5 171 a4.5 4.5 0 1 0 9 0 a4.5 4.5 0 1 0 -9 0zM148.5 189 a4.5 4.5 0 1 0 9 0 a4.5 4.5 0 1 0 -9 0z" fill="rgba(1, 45, 108, 1)"></path><path d="M801 351L783 351L765 333" stroke-width="3" stroke="rgba(1, 45, 108, 1)"></path><path d="M796.5 351 a4.5 4.5 0 1 0 9 0 a4.5 4.5 0 1 0 -9 0zM760.5 333 a4.5 4.5 0 1 0 9 0 a4.5 4.5 0 1 0 -9 0z" fill="rgba(1, 45, 108, 1)"></path><path d="M531 459L549 441L549 405" stroke-width="3" stroke="rgba(1, 45, 108, 1)"></path><path d="M526.5 459 a4.5 4.5 0 1 0 9 0 a4.5 4.5 0 1 0 -9 0zM544.5 405 a4.5 4.5 0 1 0 9 0 a4.5 4.5 0 1 0 -9 0z" fill="rgba(1, 45, 108, 1)"></path><path d="M801 441L801 477" stroke-width="3" stroke="rgba(1, 45, 108, 1)"></path><path d="M796.5 441 a4.5 4.5 0 1 0 9 0 a4.5 4.5 0 1 0 -9 0zM796.5 477 a4.5 4.5 0 1 0 9 0 a4.5 4.5 0 1 0 -9 0z" fill="rgba(1, 45, 108, 1)"></path><path d="M1215 27L1179 27" stroke-width="3" stroke="rgba(1, 45, 108, 1)"></path><path d="M1210.5 27 a4.5 4.5 0 1 0 9 0 a4.5 4.5 0 1 0 -9 0zM1174.5 27 a4.5 4.5 0 1 0 9 0 a4.5 4.5 0 1 0 -9 0z" fill="rgba(1, 45, 108, 1)"></path><path d="M837 207L873 243L873 261" stroke-width="3" stroke="rgba(1, 45, 108, 1)"></path><path d="M832.5 207 a4.5 4.5 0 1 0 9 0 a4.5 4.5 0 1 0 -9 0zM868.5 261 a4.5 4.5 0 1 0 9 0 a4.5 4.5 0 1 0 -9 0z" fill="rgba(1, 45, 108, 1)"></path><path d="M1089 477L1107 477L1161 531L1233 531L1251 513" stroke-width="3" stroke="rgba(1, 45, 108, 1)"></path><path d="M1084.5 477 a4.5 4.5 0 1 0 9 0 a4.5 4.5 0 1 0 -9 0zM1246.5 513 a4.5 4.5 0 1 0 9 0 a4.5 4.5 0 1 0 -9 0z" fill="rgba(1, 45, 108, 1)"></path><path d="M45 81L63 99L63 117" stroke-width="3" stroke="rgba(1, 45, 108, 1)"></path><path d="M40.5 81 a4.5 4.5 0 1 0 9 0 a4.5 4.5 0 1 0 -9 0zM58.5 117 a4.5 4.5 0 1 0 9 0 a4.5 4.5 0 1 0 -9 0z" fill="rgba(1, 45, 108, 1)"></path><path d="M945 297L963 315L981 315" stroke-width="3" stroke="rgba(1, 45, 108, 1)"></path><path d="M940.5 297 a4.5 4.5 0 1 0 9 0 a4.5 4.5 0 1 0 -9 0zM976.5 315 a4.5 4.5 0 1 0 9 0 a4.5 4.5 0 1 0 -9 0z" fill="rgba(1, 45, 108, 1)"></path><path d="M1107 297L1143 297" stroke-width="3" stroke="rgba(1, 45, 108, 1)"></path><path d="M1102.5 297 a4.5 4.5 0 1 0 9 0 a4.5 4.5 0 1 0 -9 0zM1138.5 297 a4.5 4.5 0 1 0 9 0 a4.5 4.5 0 1 0 -9 0z" fill="rgba(1, 45, 108, 1)"></path><path d="M297 513L297 477" stroke-width="3" stroke="rgba(1, 45, 108, 1)"></path><path d="M292.5 513 a4.5 4.5 0 1 0 9 0 a4.5 4.5 0 1 0 -9 0zM292.5 477 a4.5 4.5 0 1 0 9 0 a4.5 4.5 0 1 0 -9 0z" fill="rgba(1, 45, 108, 1)"></path><path d="M333 207L333 225L351 243" stroke-width="3" stroke="rgba(1, 45, 108, 1)"></path><path d="M328.5 207 a4.5 4.5 0 1 0 9 0 a4.5 4.5 0 1 0 -9 0zM346.5 243 a4.5 4.5 0 1 0 9 0 a4.5 4.5 0 1 0 -9 0z" fill="rgba(1, 45, 108, 1)"></path><path d="M1197 99L1179 81L1161 81" stroke-width="3" stroke="rgba(1, 45, 108, 1)"></path><path d="M1192.5 99 a4.5 4.5 0 1 0 9 0 a4.5 4.5 0 1 0 -9 0zM1156.5 81 a4.5 4.5 0 1 0 9 0 a4.5 4.5 0 1 0 -9 0z" fill="rgba(1, 45, 108, 1)"></path><path d="M405 207L387 207L369 189L351 189" stroke-width="3" stroke="rgba(1, 45, 108, 1)"></path><path d="M400.5 207 a4.5 4.5 0 1 0 9 0 a4.5 4.5 0 1 0 -9 0zM346.5 189 a4.5 4.5 0 1 0 9 0 a4.5 4.5 0 1 0 -9 0z" fill="rgba(1, 45, 108, 1)"></path><path d="M1305 513L1377 513" stroke-width="3" stroke="rgba(1, 45, 108, 1)"></path><path d="M1300.5 513 a4.5 4.5 0 1 0 9 0 a4.5 4.5 0 1 0 -9 0zM1372.5 513 a4.5 4.5 0 1 0 9 0 a4.5 4.5 0 1 0 -9 0z" fill="rgba(1, 45, 108, 1)"></path><path d="M297 351L315 351L333 369" stroke-width="3" stroke="rgba(1, 45, 108, 1)"></path><path d="M292.5 351 a4.5 4.5 0 1 0 9 0 a4.5 4.5 0 1 0 -9 0zM328.5 369 a4.5 4.5 0 1 0 9 0 a4.5 4.5 0 1 0 -9 0z" fill="rgba(1, 45, 108, 1)"></path><path d="M387 225L387 261" stroke-width="3" stroke="rgba(1, 45, 108, 1)"></path><path d="M382.5 225 a4.5 4.5 0 1 0 9 0 a4.5 4.5 0 1 0 -9 0zM382.5 261 a4.5 4.5 0 1 0 9 0 a4.5 4.5 0 1 0 -9 0z" fill="rgba(1, 45, 108, 1)"></path><path d="M675 513L657 531L657 549" stroke-width="3" stroke="rgba(1, 45, 108, 1)"></path><path d="M670.5 513 a4.5 4.5 0 1 0 9 0 a4.5 4.5 0 1 0 -9 0zM652.5 549 a4.5 4.5 0 1 0 9 0 a4.5 4.5 0 1 0 -9 0z" fill="rgba(1, 45, 108, 1)"></path><path d="M315 81L279 81" stroke-width="3" stroke="rgba(1, 45, 108, 1)"></path><path d="M310.5 81 a4.5 4.5 0 1 0 9 0 a4.5 4.5 0 1 0 -9 0zM274.5 81 a4.5 4.5 0 1 0 9 0 a4.5 4.5 0 1 0 -9 0z" fill="rgba(1, 45, 108, 1)"></path><path d="M1107 513L1125 531L1143 531" stroke-width="3" stroke="rgba(1, 45, 108, 1)"></path><path d="M1102.5 513 a4.5 4.5 0 1 0 9 0 a4.5 4.5 0 1 0 -9 0zM1138.5 531 a4.5 4.5 0 1 0 9 0 a4.5 4.5 0 1 0 -9 0z" fill="rgba(1, 45, 108, 1)"></path><path d="M963 549L999 549" stroke-width="3" stroke="rgba(1, 45, 108, 1)"></path><path d="M958.5 549 a4.5 4.5 0 1 0 9 0 a4.5 4.5 0 1 0 -9 0zM994.5 549 a4.5 4.5 0 1 0 9 0 a4.5 4.5 0 1 0 -9 0z" fill="rgba(1, 45, 108, 1)"></path><path d="M1377 81L1431 27" stroke-width="3" stroke="rgba(1, 45, 108, 1)"></path><path d="M1372.5 81 a4.5 4.5 0 1 0 9 0 a4.5 4.5 0 1 0 -9 0zM1426.5 27 a4.5 4.5 0 1 0 9 0 a4.5 4.5 0 1 0 -9 0z" fill="rgba(1, 45, 108, 1)"></path><path d="M1413 189L1413 153" stroke-width="3" stroke="rgba(1, 45, 108, 1)"></path><path d="M1408.5 189 a4.5 4.5 0 1 0 9 0 a4.5 4.5 0 1 0 -9 0zM1408.5 153 a4.5 4.5 0 1 0 9 0 a4.5 4.5 0 1 0 -9 0z" fill="rgba(1, 45, 108, 1)"></path><path d="M585 207L603 225L621 225" stroke-width="3" stroke="rgba(1, 45, 108, 1)"></path><path d="M580.5 207 a4.5 4.5 0 1 0 9 0 a4.5 4.5 0 1 0 -9 0zM616.5 225 a4.5 4.5 0 1 0 9 0 a4.5 4.5 0 1 0 -9 0z" fill="rgba(1, 45, 108, 1)"></path><path d="M495 243L495 279" stroke-width="3" stroke="rgba(1, 45, 108, 1)"></path><path d="M490.5 243 a4.5 4.5 0 1 0 9 0 a4.5 4.5 0 1 0 -9 0zM490.5 279 a4.5 4.5 0 1 0 9 0 a4.5 4.5 0 1 0 -9 0z" fill="rgba(1, 45, 108, 1)"></path><path d="M315 495L315 531" stroke-width="3" stroke="rgba(1, 45, 108, 1)"></path><path d="M310.5 495 a4.5 4.5 0 1 0 9 0 a4.5 4.5 0 1 0 -9 0zM310.5 531 a4.5 4.5 0 1 0 9 0 a4.5 4.5 0 1 0 -9 0z" fill="rgba(1, 45, 108, 1)"></path><path d="M1197 297L1197 333" stroke-width="3" stroke="rgba(1, 45, 108, 1)"></path><path d="M1192.5 297 a4.5 4.5 0 1 0 9 0 a4.5 4.5 0 1 0 -9 0zM1192.5 333 a4.5 4.5 0 1 0 9 0 a4.5 4.5 0 1 0 -9 0z" fill="rgba(1, 45, 108, 1)"></path><path d="M45 405L45 369" stroke-width="3" stroke="rgba(1, 45, 108, 1)"></path><path d="M40.5 405 a4.5 4.5 0 1 0 9 0 a4.5 4.5 0 1 0 -9 0zM40.5 369 a4.5 4.5 0 1 0 9 0 a4.5 4.5 0 1 0 -9 0z" fill="rgba(1, 45, 108, 1)"></path><path d="M891 207L855 207" stroke-width="3" stroke="rgba(1, 45, 108, 1)"></path><path d="M886.5 207 a4.5 4.5 0 1 0 9 0 a4.5 4.5 0 1 0 -9 0zM850.5 207 a4.5 4.5 0 1 0 9 0 a4.5 4.5 0 1 0 -9 0z" fill="rgba(1, 45, 108, 1)"></path></g></g><defs><mask id="SvgjsMask1242"><rect width="1434" height="549" fill="#ffffff"></rect></mask><mask id="SvgjsMask1243"><rect width="1434" height="549" fill="white"></rect><path d="M1032.75 405 a2.25 2.25 0 1 0 4.5 0 a2.25 2.25 0 1 0 -4.5 0zM1374.75 495 a2.25 2.25 0 1 0 4.5 0 a2.25 2.25 0 1 0 -4.5 0z" fill="black"></path><path d="M816.75 423 a2.25 2.25 0 1 0 4.5 0 a2.25 2.25 0 1 0 -4.5 0zM834.75 549 a2.25 2.25 0 1 0 4.5 0 a2.25 2.25 0 1 0 -4.5 0z" fill="black"></path><path d="M618.75 351 a2.25 2.25 0 1 0 4.5 0 a2.25 2.25 0 1 0 -4.5 0zM618.75 549 a2.25 2.25 0 1 0 4.5 0 a2.25 2.25 0 1 0 -4.5 0z" fill="black"></path><path d="M1158.75 117 a2.25 2.25 0 1 0 4.5 0 a2.25 2.25 0 1 0 -4.5 0zM1428.75 207 a2.25 2.25 0 1 0 4.5 0 a2.25 2.25 0 1 0 -4.5 0z" fill="black"></path><path d="M1032.75 369 a2.25 2.25 0 1 0 4.5 0 a2.25 2.25 0 1 0 -4.5 0zM1176.75 99 a2.25 2.25 0 1 0 4.5 0 a2.25 2.25 0 1 0 -4.5 0z" fill="black"></path><path d="M510.75 477 a2.25 2.25 0 1 0 4.5 0 a2.25 2.25 0 1 0 -4.5 0zM168.75 333 a2.25 2.25 0 1 0 4.5 0 a2.25 2.25 0 1 0 -4.5 0z" fill="black"></path><path d="M96.75 27 a2.25 2.25 0 1 0 4.5 0 a2.25 2.25 0 1 0 -4.5 0zM438.75 369 a2.25 2.25 0 1 0 4.5 0 a2.25 2.25 0 1 0 -4.5 0z" fill="black"></path><path d="M600.75 333 a2.25 2.25 0 1 0 4.5 0 a2.25 2.25 0 1 0 -4.5 0zM942.75 531 a2.25 2.25 0 1 0 4.5 0 a2.25 2.25 0 1 0 -4.5 0z" fill="black"></path><path d="M1374.75 207 a2.25 2.25 0 1 0 4.5 0 a2.25 2.25 0 1 0 -4.5 0zM1050.75 189 a2.25 2.25 0 1 0 4.5 0 a2.25 2.25 0 1 0 -4.5 0z" fill="black"></path><path d="M996.75 27 a2.25 2.25 0 1 0 4.5 0 a2.25 2.25 0 1 0 -4.5 0zM654.75 9 a2.25 2.25 0 1 0 4.5 0 a2.25 2.25 0 1 0 -4.5 0z" fill="black"></path><path d="M708.75 153 a2.25 2.25 0 1 0 4.5 0 a2.25 2.25 0 1 0 -4.5 0zM996.75 495 a2.25 2.25 0 1 0 4.5 0 a2.25 2.25 0 1 0 -4.5 0z" fill="black"></path><path d="M366.75 9 a2.25 2.25 0 1 0 4.5 0 a2.25 2.25 0 1 0 -4.5 0zM24.75 27 a2.25 2.25 0 1 0 4.5 0 a2.25 2.25 0 1 0 -4.5 0z" fill="black"></path><path d="M996.75 153 a2.25 2.25 0 1 0 4.5 0 a2.25 2.25 0 1 0 -4.5 0zM1050.75 9 a2.25 2.25 0 1 0 4.5 0 a2.25 2.25 0 1 0 -4.5 0z" fill="black"></path><path d="M1410.75 513 a2.25 2.25 0 1 0 4.5 0 a2.25 2.25 0 1 0 -4.5 0zM1428.75 549 a2.25 2.25 0 1 0 4.5 0 a2.25 2.25 0 1 0 -4.5 0z" fill="black"></path><path d="M1014.75 99 a2.25 2.25 0 1 0 4.5 0 a2.25 2.25 0 1 0 -4.5 0zM1032.75 135 a2.25 2.25 0 1 0 4.5 0 a2.25 2.25 0 1 0 -4.5 0z" fill="black"></path><path d="M6.75 171 a2.25 2.25 0 1 0 4.5 0 a2.25 2.25 0 1 0 -4.5 0zM222.75 171 a2.25 2.25 0 1 0 4.5 0 a2.25 2.25 0 1 0 -4.5 0z" fill="black"></path><path d="M384.75 297 a2.25 2.25 0 1 0 4.5 0 a2.25 2.25 0 1 0 -4.5 0zM726.75 45 a2.25 2.25 0 1 0 4.5 0 a2.25 2.25 0 1 0 -4.5 0z" fill="black"></path><path d="M456.75 423 a2.25 2.25 0 1 0 4.5 0 a2.25 2.25 0 1 0 -4.5 0zM204.75 207 a2.25 2.25 0 1 0 4.5 0 a2.25 2.25 0 1 0 -4.5 0z" fill="black"></path><path d="M510.75 63 a2.25 2.25 0 1 0 4.5 0 a2.25 2.25 0 1 0 -4.5 0zM438.75 225 a2.25 2.25 0 1 0 4.5 0 a2.25 2.25 0 1 0 -4.5 0z" fill="black"></path><path d="M1230.75 99 a2.25 2.25 0 1 0 4.5 0 a2.25 2.25 0 1 0 -4.5 0zM1068.75 63 a2.25 2.25 0 1 0 4.5 0 a2.25 2.25 0 1 0 -4.5 0z" fill="black"></path><path d="M672.75 297 a2.25 2.25 0 1 0 4.5 0 a2.25 2.25 0 1 0 -4.5 0zM960.75 477 a2.25 2.25 0 1 0 4.5 0 a2.25 2.25 0 1 0 -4.5 0z" fill="black"></path><path d="M240.75 81 a2.25 2.25 0 1 0 4.5 0 a2.25 2.25 0 1 0 -4.5 0zM294.75 207 a2.25 2.25 0 1 0 4.5 0 a2.25 2.25 0 1 0 -4.5 0z" fill="black"></path><path d="M942.75 153 a2.25 2.25 0 1 0 4.5 0 a2.25 2.25 0 1 0 -4.5 0zM600.75 45 a2.25 2.25 0 1 0 4.5 0 a2.25 2.25 0 1 0 -4.5 0z" fill="black"></path><path d="M348.75 45 a2.25 2.25 0 1 0 4.5 0 a2.25 2.25 0 1 0 -4.5 0zM114.75 27 a2.25 2.25 0 1 0 4.5 0 a2.25 2.25 0 1 0 -4.5 0z" fill="black"></path><path d="M168.75 477 a2.25 2.25 0 1 0 4.5 0 a2.25 2.25 0 1 0 -4.5 0zM6.75 189 a2.25 2.25 0 1 0 4.5 0 a2.25 2.25 0 1 0 -4.5 0z" fill="black"></path><path d="M1410.75 297 a2.25 2.25 0 1 0 4.5 0 a2.25 2.25 0 1 0 -4.5 0zM1356.75 459 a2.25 2.25 0 1 0 4.5 0 a2.25 2.25 0 1 0 -4.5 0z" fill="black"></path><path d="M240.75 405 a2.25 2.25 0 1 0 4.5 0 a2.25 2.25 0 1 0 -4.5 0zM240.75 351 a2.25 2.25 0 1 0 4.5 0 a2.25 2.25 0 1 0 -4.5 0z" fill="black"></path><path d="M1050.75 387 a2.25 2.25 0 1 0 4.5 0 a2.25 2.25 0 1 0 -4.5 0zM780.75 189 a2.25 2.25 0 1 0 4.5 0 a2.25 2.25 0 1 0 -4.5 0z" fill="black"></path><path d="M978.75 81 a2.25 2.25 0 1 0 4.5 0 a2.25 2.25 0 1 0 -4.5 0zM1014.75 261 a2.25 2.25 0 1 0 4.5 0 a2.25 2.25 0 1 0 -4.5 0z" fill="black"></path><path d="M1248.75 9 a2.25 2.25 0 1 0 4.5 0 a2.25 2.25 0 1 0 -4.5 0zM1428.75 99 a2.25 2.25 0 1 0 4.5 0 a2.25 2.25 0 1 0 -4.5 0z" fill="black"></path><path d="M60.75 315 a2.25 2.25 0 1 0 4.5 0 a2.25 2.25 0 1 0 -4.5 0zM150.75 387 a2.25 2.25 0 1 0 4.5 0 a2.25 2.25 0 1 0 -4.5 0z" fill="black"></path><path d="M456.75 99 a2.25 2.25 0 1 0 4.5 0 a2.25 2.25 0 1 0 -4.5 0zM258.75 99 a2.25 2.25 0 1 0 4.5 0 a2.25 2.25 0 1 0 -4.5 0z" fill="black"></path><path d="M996.75 423 a2.25 2.25 0 1 0 4.5 0 a2.25 2.25 0 1 0 -4.5 0zM1338.75 549 a2.25 2.25 0 1 0 4.5 0 a2.25 2.25 0 1 0 -4.5 0z" fill="black"></path><path d="M564.75 387 a2.25 2.25 0 1 0 4.5 0 a2.25 2.25 0 1 0 -4.5 0zM600.75 351 a2.25 2.25 0 1 0 4.5 0 a2.25 2.25 0 1 0 -4.5 0z" fill="black"></path><path d="M1068.75 243 a2.25 2.25 0 1 0 4.5 0 a2.25 2.25 0 1 0 -4.5 0zM1410.75 261 a2.25 2.25 0 1 0 4.5 0 a2.25 2.25 0 1 0 -4.5 0z" fill="black"></path><path d="M798.75 135 a2.25 2.25 0 1 0 4.5 0 a2.25 2.25 0 1 0 -4.5 0zM1014.75 279 a2.25 2.25 0 1 0 4.5 0 a2.25 2.25 0 1 0 -4.5 0z" fill="black"></path><path d="M528.75 9 a2.25 2.25 0 1 0 4.5 0 a2.25 2.25 0 1 0 -4.5 0zM690.75 27 a2.25 2.25 0 1 0 4.5 0 a2.25 2.25 0 1 0 -4.5 0z" fill="black"></path><path d="M1302.75 9 a2.25 2.25 0 1 0 4.5 0 a2.25 2.25 0 1 0 -4.5 0zM1428.75 9 a2.25 2.25 0 1 0 4.5 0 a2.25 2.25 0 1 0 -4.5 0z" fill="black"></path><path d="M906.75 135 a2.25 2.25 0 1 0 4.5 0 a2.25 2.25 0 1 0 -4.5 0zM960.75 135 a2.25 2.25 0 1 0 4.5 0 a2.25 2.25 0 1 0 -4.5 0z" fill="black"></path><path d="M420.75 45 a2.25 2.25 0 1 0 4.5 0 a2.25 2.25 0 1 0 -4.5 0zM420.75 81 a2.25 2.25 0 1 0 4.5 0 a2.25 2.25 0 1 0 -4.5 0z" fill="black"></path><path d="M636.75 81 a2.25 2.25 0 1 0 4.5 0 a2.25 2.25 0 1 0 -4.5 0zM402.75 315 a2.25 2.25 0 1 0 4.5 0 a2.25 2.25 0 1 0 -4.5 0z" fill="black"></path><path d="M384.75 45 a2.25 2.25 0 1 0 4.5 0 a2.25 2.25 0 1 0 -4.5 0zM582.75 81 a2.25 2.25 0 1 0 4.5 0 a2.25 2.25 0 1 0 -4.5 0z" fill="black"></path><path d="M420.75 117 a2.25 2.25 0 1 0 4.5 0 a2.25 2.25 0 1 0 -4.5 0zM258.75 117 a2.25 2.25 0 1 0 4.5 0 a2.25 2.25 0 1 0 -4.5 0z" fill="black"></path><path d="M312.75 27 a2.25 2.25 0 1 0 4.5 0 a2.25 2.25 0 1 0 -4.5 0zM420.75 9 a2.25 2.25 0 1 0 4.5 0 a2.25 2.25 0 1 0 -4.5 0z" fill="black"></path><path d="M1374.75 405 a2.25 2.25 0 1 0 4.5 0 a2.25 2.25 0 1 0 -4.5 0zM1050.75 405 a2.25 2.25 0 1 0 4.5 0 a2.25 2.25 0 1 0 -4.5 0z" fill="black"></path><path d="M654.75 279 a2.25 2.25 0 1 0 4.5 0 a2.25 2.25 0 1 0 -4.5 0zM762.75 279 a2.25 2.25 0 1 0 4.5 0 a2.25 2.25 0 1 0 -4.5 0z" fill="black"></path><path d="M1428.75 495 a2.25 2.25 0 1 0 4.5 0 a2.25 2.25 0 1 0 -4.5 0zM1428.75 405 a2.25 2.25 0 1 0 4.5 0 a2.25 2.25 0 1 0 -4.5 0z" fill="black"></path><path d="M510.75 333 a2.25 2.25 0 1 0 4.5 0 a2.25 2.25 0 1 0 -4.5 0zM744.75 99 a2.25 2.25 0 1 0 4.5 0 a2.25 2.25 0 1 0 -4.5 0z" fill="black"></path><path d="M870.75 315 a2.25 2.25 0 1 0 4.5 0 a2.25 2.25 0 1 0 -4.5 0zM870.75 333 a2.25 2.25 0 1 0 4.5 0 a2.25 2.25 0 1 0 -4.5 0z" fill="black"></path><path d="M600.75 459 a2.25 2.25 0 1 0 4.5 0 a2.25 2.25 0 1 0 -4.5 0zM258.75 549 a2.25 2.25 0 1 0 4.5 0 a2.25 2.25 0 1 0 -4.5 0z" fill="black"></path><path d="M528.75 405 a2.25 2.25 0 1 0 4.5 0 a2.25 2.25 0 1 0 -4.5 0zM438.75 441 a2.25 2.25 0 1 0 4.5 0 a2.25 2.25 0 1 0 -4.5 0z" fill="black"></path><path d="M582.75 279 a2.25 2.25 0 1 0 4.5 0 a2.25 2.25 0 1 0 -4.5 0zM240.75 225 a2.25 2.25 0 1 0 4.5 0 a2.25 2.25 0 1 0 -4.5 0z" fill="black"></path><path d="M150.75 225 a2.25 2.25 0 1 0 4.5 0 a2.25 2.25 0 1 0 -4.5 0zM294.75 315 a2.25 2.25 0 1 0 4.5 0 a2.25 2.25 0 1 0 -4.5 0z" fill="black"></path><path d="M276.75 135 a2.25 2.25 0 1 0 4.5 0 a2.25 2.25 0 1 0 -4.5 0zM420.75 135 a2.25 2.25 0 1 0 4.5 0 a2.25 2.25 0 1 0 -4.5 0z" fill="black"></path><path d="M816.75 243 a2.25 2.25 0 1 0 4.5 0 a2.25 2.25 0 1 0 -4.5 0zM816.75 153 a2.25 2.25 0 1 0 4.5 0 a2.25 2.25 0 1 0 -4.5 0z" fill="black"></path><path d="M186.75 405 a2.25 2.25 0 1 0 4.5 0 a2.25 2.25 0 1 0 -4.5 0zM276.75 531 a2.25 2.25 0 1 0 4.5 0 a2.25 2.25 0 1 0 -4.5 0z" fill="black"></path><path d="M1050.75 279 a2.25 2.25 0 1 0 4.5 0 a2.25 2.25 0 1 0 -4.5 0zM1302.75 387 a2.25 2.25 0 1 0 4.5 0 a2.25 2.25 0 1 0 -4.5 0z" fill="black"></path><path d="M1248.75 99 a2.25 2.25 0 1 0 4.5 0 a2.25 2.25 0 1 0 -4.5 0zM1068.75 9 a2.25 2.25 0 1 0 4.5 0 a2.25 2.25 0 1 0 -4.5 0z" fill="black"></path><path d="M96.75 423 a2.25 2.25 0 1 0 4.5 0 a2.25 2.25 0 1 0 -4.5 0zM204.75 549 a2.25 2.25 0 1 0 4.5 0 a2.25 2.25 0 1 0 -4.5 0z" fill="black"></path><path d="M780.75 27 a2.25 2.25 0 1 0 4.5 0 a2.25 2.25 0 1 0 -4.5 0zM888.75 135 a2.25 2.25 0 1 0 4.5 0 a2.25 2.25 0 1 0 -4.5 0z" fill="black"></path><path d="M672.75 387 a2.25 2.25 0 1 0 4.5 0 a2.25 2.25 0 1 0 -4.5 0zM636.75 351 a2.25 2.25 0 1 0 4.5 0 a2.25 2.25 0 1 0 -4.5 0z" fill="black"></path><path d="M384.75 423 a2.25 2.25 0 1 0 4.5 0 a2.25 2.25 0 1 0 -4.5 0zM600.75 369 a2.25 2.25 0 1 0 4.5 0 a2.25 2.25 0 1 0 -4.5 0z" fill="black"></path><path d="M978.75 441 a2.25 2.25 0 1 0 4.5 0 a2.25 2.25 0 1 0 -4.5 0zM978.75 405 a2.25 2.25 0 1 0 4.5 0 a2.25 2.25 0 1 0 -4.5 0z" fill="black"></path><path d="M1086.75 27 a2.25 2.25 0 1 0 4.5 0 a2.25 2.25 0 1 0 -4.5 0zM1230.75 45 a2.25 2.25 0 1 0 4.5 0 a2.25 2.25 0 1 0 -4.5 0z" fill="black"></path><path d="M330.75 513 a2.25 2.25 0 1 0 4.5 0 a2.25 2.25 0 1 0 -4.5 0zM474.75 531 a2.25 2.25 0 1 0 4.5 0 a2.25 2.25 0 1 0 -4.5 0z" fill="black"></path><path d="M834.75 405 a2.25 2.25 0 1 0 4.5 0 a2.25 2.25 0 1 0 -4.5 0zM870.75 405 a2.25 2.25 0 1 0 4.5 0 a2.25 2.25 0 1 0 -4.5 0z" fill="black"></path><path d="M60.75 279 a2.25 2.25 0 1 0 4.5 0 a2.25 2.25 0 1 0 -4.5 0zM6.75 207 a2.25 2.25 0 1 0 4.5 0 a2.25 2.25 0 1 0 -4.5 0z" fill="black"></path><path d="M816.75 549 a2.25 2.25 0 1 0 4.5 0 a2.25 2.25 0 1 0 -4.5 0zM636.75 369 a2.25 2.25 0 1 0 4.5 0 a2.25 2.25 0 1 0 -4.5 0z" fill="black"></path><path d="M1248.75 315 a2.25 2.25 0 1 0 4.5 0 a2.25 2.25 0 1 0 -4.5 0zM1284.75 171 a2.25 2.25 0 1 0 4.5 0 a2.25 2.25 0 1 0 -4.5 0z" fill="black"></path><path d="M114.75 423 a2.25 2.25 0 1 0 4.5 0 a2.25 2.25 0 1 0 -4.5 0zM6.75 333 a2.25 2.25 0 1 0 4.5 0 a2.25 2.25 0 1 0 -4.5 0z" fill="black"></path><path d="M1392.75 297 a2.25 2.25 0 1 0 4.5 0 a2.25 2.25 0 1 0 -4.5 0zM1392.75 405 a2.25 2.25 0 1 0 4.5 0 a2.25 2.25 0 1 0 -4.5 0z" fill="black"></path><path d="M186.75 477 a2.25 2.25 0 1 0 4.5 0 a2.25 2.25 0 1 0 -4.5 0zM258.75 459 a2.25 2.25 0 1 0 4.5 0 a2.25 2.25 0 1 0 -4.5 0z" fill="black"></path><path d="M1356.75 549 a2.25 2.25 0 1 0 4.5 0 a2.25 2.25 0 1 0 -4.5 0zM1410.75 549 a2.25 2.25 0 1 0 4.5 0 a2.25 2.25 0 1 0 -4.5 0z" fill="black"></path><path d="M600.75 315 a2.25 2.25 0 1 0 4.5 0 a2.25 2.25 0 1 0 -4.5 0zM852.75 387 a2.25 2.25 0 1 0 4.5 0 a2.25 2.25 0 1 0 -4.5 0z" fill="black"></path><path d="M1212.75 243 a2.25 2.25 0 1 0 4.5 0 a2.25 2.25 0 1 0 -4.5 0zM1212.75 171 a2.25 2.25 0 1 0 4.5 0 a2.25 2.25 0 1 0 -4.5 0z" fill="black"></path><path d="M744.75 405 a2.25 2.25 0 1 0 4.5 0 a2.25 2.25 0 1 0 -4.5 0zM690.75 351 a2.25 2.25 0 1 0 4.5 0 a2.25 2.25 0 1 0 -4.5 0z" fill="black"></path><path d="M1176.75 405 a2.25 2.25 0 1 0 4.5 0 a2.25 2.25 0 1 0 -4.5 0zM1302.75 171 a2.25 2.25 0 1 0 4.5 0 a2.25 2.25 0 1 0 -4.5 0z" fill="black"></path><path d="M726.75 513 a2.25 2.25 0 1 0 4.5 0 a2.25 2.25 0 1 0 -4.5 0zM726.75 549 a2.25 2.25 0 1 0 4.5 0 a2.25 2.25 0 1 0 -4.5 0z" fill="black"></path><path d="M186.75 279 a2.25 2.25 0 1 0 4.5 0 a2.25 2.25 0 1 0 -4.5 0zM204.75 225 a2.25 2.25 0 1 0 4.5 0 a2.25 2.25 0 1 0 -4.5 0z" fill="black"></path><path d="M258.75 405 a2.25 2.25 0 1 0 4.5 0 a2.25 2.25 0 1 0 -4.5 0zM258.75 351 a2.25 2.25 0 1 0 4.5 0 a2.25 2.25 0 1 0 -4.5 0z" fill="black"></path><path d="M366.75 459 a2.25 2.25 0 1 0 4.5 0 a2.25 2.25 0 1 0 -4.5 0zM258.75 423 a2.25 2.25 0 1 0 4.5 0 a2.25 2.25 0 1 0 -4.5 0z" fill="black"></path><path d="M582.75 171 a2.25 2.25 0 1 0 4.5 0 a2.25 2.25 0 1 0 -4.5 0zM744.75 261 a2.25 2.25 0 1 0 4.5 0 a2.25 2.25 0 1 0 -4.5 0z" fill="black"></path><path d="M96.75 387 a2.25 2.25 0 1 0 4.5 0 a2.25 2.25 0 1 0 -4.5 0zM6.75 225 a2.25 2.25 0 1 0 4.5 0 a2.25 2.25 0 1 0 -4.5 0z" fill="black"></path><path d="M1014.75 63 a2.25 2.25 0 1 0 4.5 0 a2.25 2.25 0 1 0 -4.5 0zM1014.75 9 a2.25 2.25 0 1 0 4.5 0 a2.25 2.25 0 1 0 -4.5 0z" fill="black"></path><path d="M330.75 405 a2.25 2.25 0 1 0 4.5 0 a2.25 2.25 0 1 0 -4.5 0zM276.75 351 a2.25 2.25 0 1 0 4.5 0 a2.25 2.25 0 1 0 -4.5 0z" fill="black"></path><path d="M888.75 99 a2.25 2.25 0 1 0 4.5 0 a2.25 2.25 0 1 0 -4.5 0zM996.75 99 a2.25 2.25 0 1 0 4.5 0 a2.25 2.25 0 1 0 -4.5 0z" fill="black"></path><path d="M420.75 189 a2.25 2.25 0 1 0 4.5 0 a2.25 2.25 0 1 0 -4.5 0zM420.75 171 a2.25 2.25 0 1 0 4.5 0 a2.25 2.25 0 1 0 -4.5 0z" fill="black"></path><path d="M1140.75 81 a2.25 2.25 0 1 0 4.5 0 a2.25 2.25 0 1 0 -4.5 0zM1068.75 81 a2.25 2.25 0 1 0 4.5 0 a2.25 2.25 0 1 0 -4.5 0z" fill="black"></path><path d="M1068.75 279 a2.25 2.25 0 1 0 4.5 0 a2.25 2.25 0 1 0 -4.5 0zM1104.75 153 a2.25 2.25 0 1 0 4.5 0 a2.25 2.25 0 1 0 -4.5 0z" fill="black"></path><path d="M726.75 207 a2.25 2.25 0 1 0 4.5 0 a2.25 2.25 0 1 0 -4.5 0zM726.75 99 a2.25 2.25 0 1 0 4.5 0 a2.25 2.25 0 1 0 -4.5 0z" fill="black"></path><path d="M618.75 261 a2.25 2.25 0 1 0 4.5 0 a2.25 2.25 0 1 0 -4.5 0zM564.75 189 a2.25 2.25 0 1 0 4.5 0 a2.25 2.25 0 1 0 -4.5 0z" fill="black"></path><path d="M636.75 225 a2.25 2.25 0 1 0 4.5 0 a2.25 2.25 0 1 0 -4.5 0zM582.75 189 a2.25 2.25 0 1 0 4.5 0 a2.25 2.25 0 1 0 -4.5 0z" fill="black"></path><path d="M6.75 495 a2.25 2.25 0 1 0 4.5 0 a2.25 2.25 0 1 0 -4.5 0zM6.75 351 a2.25 2.25 0 1 0 4.5 0 a2.25 2.25 0 1 0 -4.5 0z" fill="black"></path><path d="M1230.75 297 a2.25 2.25 0 1 0 4.5 0 a2.25 2.25 0 1 0 -4.5 0zM1266.75 279 a2.25 2.25 0 1 0 4.5 0 a2.25 2.25 0 1 0 -4.5 0z" fill="black"></path><path d="M816.75 45 a2.25 2.25 0 1 0 4.5 0 a2.25 2.25 0 1 0 -4.5 0zM942.75 27 a2.25 2.25 0 1 0 4.5 0 a2.25 2.25 0 1 0 -4.5 0z" fill="black"></path><path d="M42.75 477 a2.25 2.25 0 1 0 4.5 0 a2.25 2.25 0 1 0 -4.5 0zM186.75 549 a2.25 2.25 0 1 0 4.5 0 a2.25 2.25 0 1 0 -4.5 0z" fill="black"></path><path d="M60.75 513 a2.25 2.25 0 1 0 4.5 0 a2.25 2.25 0 1 0 -4.5 0zM24.75 351 a2.25 2.25 0 1 0 4.5 0 a2.25 2.25 0 1 0 -4.5 0z" fill="black"></path><path d="M60.75 189 a2.25 2.25 0 1 0 4.5 0 a2.25 2.25 0 1 0 -4.5 0zM6.75 9 a2.25 2.25 0 1 0 4.5 0 a2.25 2.25 0 1 0 -4.5 0z" fill="black"></path><path d="M60.75 171 a2.25 2.25 0 1 0 4.5 0 a2.25 2.25 0 1 0 -4.5 0zM24.75 45 a2.25 2.25 0 1 0 4.5 0 a2.25 2.25 0 1 0 -4.5 0z" fill="black"></path><path d="M1266.75 63 a2.25 2.25 0 1 0 4.5 0 a2.25 2.25 0 1 0 -4.5 0zM1320.75 99 a2.25 2.25 0 1 0 4.5 0 a2.25 2.25 0 1 0 -4.5 0z" fill="black"></path><path d="M1284.75 351 a2.25 2.25 0 1 0 4.5 0 a2.25 2.25 0 1 0 -4.5 0zM1374.75 243 a2.25 2.25 0 1 0 4.5 0 a2.25 2.25 0 1 0 -4.5 0z" fill="black"></path><path d="M78.75 81 a2.25 2.25 0 1 0 4.5 0 a2.25 2.25 0 1 0 -4.5 0zM186.75 189 a2.25 2.25 0 1 0 4.5 0 a2.25 2.25 0 1 0 -4.5 0z" fill="black"></path><path d="M1374.75 315 a2.25 2.25 0 1 0 4.5 0 a2.25 2.25 0 1 0 -4.5 0zM1320.75 423 a2.25 2.25 0 1 0 4.5 0 a2.25 2.25 0 1 0 -4.5 0z" fill="black"></path><path d="M1158.75 261 a2.25 2.25 0 1 0 4.5 0 a2.25 2.25 0 1 0 -4.5 0zM1194.75 171 a2.25 2.25 0 1 0 4.5 0 a2.25 2.25 0 1 0 -4.5 0z" fill="black"></path><path d="M384.75 459 a2.25 2.25 0 1 0 4.5 0 a2.25 2.25 0 1 0 -4.5 0zM438.75 513 a2.25 2.25 0 1 0 4.5 0 a2.25 2.25 0 1 0 -4.5 0z" fill="black"></path><path d="M870.75 189 a2.25 2.25 0 1 0 4.5 0 a2.25 2.25 0 1 0 -4.5 0zM834.75 171 a2.25 2.25 0 1 0 4.5 0 a2.25 2.25 0 1 0 -4.5 0z" fill="black"></path><path d="M762.75 225 a2.25 2.25 0 1 0 4.5 0 a2.25 2.25 0 1 0 -4.5 0zM744.75 45 a2.25 2.25 0 1 0 4.5 0 a2.25 2.25 0 1 0 -4.5 0z" fill="black"></path><path d="M1050.75 513 a2.25 2.25 0 1 0 4.5 0 a2.25 2.25 0 1 0 -4.5 0zM1050.75 549 a2.25 2.25 0 1 0 4.5 0 a2.25 2.25 0 1 0 -4.5 0z" fill="black"></path><path d="M96.75 99 a2.25 2.25 0 1 0 4.5 0 a2.25 2.25 0 1 0 -4.5 0zM42.75 135 a2.25 2.25 0 1 0 4.5 0 a2.25 2.25 0 1 0 -4.5 0z" fill="black"></path><path d="M924.75 351 a2.25 2.25 0 1 0 4.5 0 a2.25 2.25 0 1 0 -4.5 0zM888.75 315 a2.25 2.25 0 1 0 4.5 0 a2.25 2.25 0 1 0 -4.5 0z" fill="black"></path><path d="M492.75 117 a2.25 2.25 0 1 0 4.5 0 a2.25 2.25 0 1 0 -4.5 0zM546.75 81 a2.25 2.25 0 1 0 4.5 0 a2.25 2.25 0 1 0 -4.5 0z" fill="black"></path><path d="M1140.75 261 a2.25 2.25 0 1 0 4.5 0 a2.25 2.25 0 1 0 -4.5 0zM1158.75 225 a2.25 2.25 0 1 0 4.5 0 a2.25 2.25 0 1 0 -4.5 0z" fill="black"></path><path d="M960.75 297 a2.25 2.25 0 1 0 4.5 0 a2.25 2.25 0 1 0 -4.5 0zM996.75 333 a2.25 2.25 0 1 0 4.5 0 a2.25 2.25 0 1 0 -4.5 0z" fill="black"></path><path d="M1248.75 351 a2.25 2.25 0 1 0 4.5 0 a2.25 2.25 0 1 0 -4.5 0zM1194.75 405 a2.25 2.25 0 1 0 4.5 0 a2.25 2.25 0 1 0 -4.5 0z" fill="black"></path><path d="M60.75 441 a2.25 2.25 0 1 0 4.5 0 a2.25 2.25 0 1 0 -4.5 0zM114.75 531 a2.25 2.25 0 1 0 4.5 0 a2.25 2.25 0 1 0 -4.5 0z" fill="black"></path><path d="M1068.75 315 a2.25 2.25 0 1 0 4.5 0 a2.25 2.25 0 1 0 -4.5 0zM1176.75 387 a2.25 2.25 0 1 0 4.5 0 a2.25 2.25 0 1 0 -4.5 0z" fill="black"></path><path d="M1356.75 297 a2.25 2.25 0 1 0 4.5 0 a2.25 2.25 0 1 0 -4.5 0zM1212.75 405 a2.25 2.25 0 1 0 4.5 0 a2.25 2.25 0 1 0 -4.5 0z" fill="black"></path><path d="M330.75 441 a2.25 2.25 0 1 0 4.5 0 a2.25 2.25 0 1 0 -4.5 0zM276.75 369 a2.25 2.25 0 1 0 4.5 0 a2.25 2.25 0 1 0 -4.5 0z" fill="black"></path><path d="M1392.75 477 a2.25 2.25 0 1 0 4.5 0 a2.25 2.25 0 1 0 -4.5 0zM1392.75 531 a2.25 2.25 0 1 0 4.5 0 a2.25 2.25 0 1 0 -4.5 0z" fill="black"></path><path d="M1392.75 441 a2.25 2.25 0 1 0 4.5 0 a2.25 2.25 0 1 0 -4.5 0zM1374.75 477 a2.25 2.25 0 1 0 4.5 0 a2.25 2.25 0 1 0 -4.5 0z" fill="black"></path><path d="M1086.75 369 a2.25 2.25 0 1 0 4.5 0 a2.25 2.25 0 1 0 -4.5 0zM1158.75 405 a2.25 2.25 0 1 0 4.5 0 a2.25 2.25 0 1 0 -4.5 0z" fill="black"></path><path d="M1176.75 315 a2.25 2.25 0 1 0 4.5 0 a2.25 2.25 0 1 0 -4.5 0zM1068.75 261 a2.25 2.25 0 1 0 4.5 0 a2.25 2.25 0 1 0 -4.5 0z" fill="black"></path><path d="M762.75 477 a2.25 2.25 0 1 0 4.5 0 a2.25 2.25 0 1 0 -4.5 0zM726.75 441 a2.25 2.25 0 1 0 4.5 0 a2.25 2.25 0 1 0 -4.5 0z" fill="black"></path><path d="M636.75 297 a2.25 2.25 0 1 0 4.5 0 a2.25 2.25 0 1 0 -4.5 0zM582.75 351 a2.25 2.25 0 1 0 4.5 0 a2.25 2.25 0 1 0 -4.5 0z" fill="black"></path><path d="M690.75 99 a2.25 2.25 0 1 0 4.5 0 a2.25 2.25 0 1 0 -4.5 0zM726.75 243 a2.25 2.25 0 1 0 4.5 0 a2.25 2.25 0 1 0 -4.5 0z" fill="black"></path><path d="M132.75 351 a2.25 2.25 0 1 0 4.5 0 a2.25 2.25 0 1 0 -4.5 0zM60.75 297 a2.25 2.25 0 1 0 4.5 0 a2.25 2.25 0 1 0 -4.5 0z" fill="black"></path><path d="M114.75 459 a2.25 2.25 0 1 0 4.5 0 a2.25 2.25 0 1 0 -4.5 0zM186.75 531 a2.25 2.25 0 1 0 4.5 0 a2.25 2.25 0 1 0 -4.5 0z" fill="black"></path><path d="M60.75 549 a2.25 2.25 0 1 0 4.5 0 a2.25 2.25 0 1 0 -4.5 0zM6.75 513 a2.25 2.25 0 1 0 4.5 0 a2.25 2.25 0 1 0 -4.5 0z" fill="black"></path><path d="M492.75 315 a2.25 2.25 0 1 0 4.5 0 a2.25 2.25 0 1 0 -4.5 0zM456.75 279 a2.25 2.25 0 1 0 4.5 0 a2.25 2.25 0 1 0 -4.5 0z" fill="black"></path><path d="M1248.75 387 a2.25 2.25 0 1 0 4.5 0 a2.25 2.25 0 1 0 -4.5 0zM1284.75 369 a2.25 2.25 0 1 0 4.5 0 a2.25 2.25 0 1 0 -4.5 0z" fill="black"></path><path d="M1212.75 279 a2.25 2.25 0 1 0 4.5 0 a2.25 2.25 0 1 0 -4.5 0zM1266.75 171 a2.25 2.25 0 1 0 4.5 0 a2.25 2.25 0 1 0 -4.5 0z" fill="black"></path><path d="M978.75 45 a2.25 2.25 0 1 0 4.5 0 a2.25 2.25 0 1 0 -4.5 0zM906.75 117 a2.25 2.25 0 1 0 4.5 0 a2.25 2.25 0 1 0 -4.5 0z" fill="black"></path><path d="M1140.75 243 a2.25 2.25 0 1 0 4.5 0 a2.25 2.25 0 1 0 -4.5 0zM1086.75 261 a2.25 2.25 0 1 0 4.5 0 a2.25 2.25 0 1 0 -4.5 0z" fill="black"></path><path d="M1230.75 477 a2.25 2.25 0 1 0 4.5 0 a2.25 2.25 0 1 0 -4.5 0zM1374.75 531 a2.25 2.25 0 1 0 4.5 0 a2.25 2.25 0 1 0 -4.5 0z" fill="black"></path><path d="M906.75 459 a2.25 2.25 0 1 0 4.5 0 a2.25 2.25 0 1 0 -4.5 0zM942.75 459 a2.25 2.25 0 1 0 4.5 0 a2.25 2.25 0 1 0 -4.5 0z" fill="black"></path><path d="M1212.75 513 a2.25 2.25 0 1 0 4.5 0 a2.25 2.25 0 1 0 -4.5 0zM1212.75 477 a2.25 2.25 0 1 0 4.5 0 a2.25 2.25 0 1 0 -4.5 0z" fill="black"></path><path d="M924.75 549 a2.25 2.25 0 1 0 4.5 0 a2.25 2.25 0 1 0 -4.5 0zM852.75 549 a2.25 2.25 0 1 0 4.5 0 a2.25 2.25 0 1 0 -4.5 0z" fill="black"></path><path d="M348.75 477 a2.25 2.25 0 1 0 4.5 0 a2.25 2.25 0 1 0 -4.5 0zM420.75 513 a2.25 2.25 0 1 0 4.5 0 a2.25 2.25 0 1 0 -4.5 0z" fill="black"></path><path d="M240.75 549 a2.25 2.25 0 1 0 4.5 0 a2.25 2.25 0 1 0 -4.5 0zM258.75 477 a2.25 2.25 0 1 0 4.5 0 a2.25 2.25 0 1 0 -4.5 0z" fill="black"></path><path d="M780.75 495 a2.25 2.25 0 1 0 4.5 0 a2.25 2.25 0 1 0 -4.5 0zM708.75 351 a2.25 2.25 0 1 0 4.5 0 a2.25 2.25 0 1 0 -4.5 0z" fill="black"></path><path d="M492.75 351 a2.25 2.25 0 1 0 4.5 0 a2.25 2.25 0 1 0 -4.5 0zM438.75 297 a2.25 2.25 0 1 0 4.5 0 a2.25 2.25 0 1 0 -4.5 0z" fill="black"></path><path d="M1302.75 189 a2.25 2.25 0 1 0 4.5 0 a2.25 2.25 0 1 0 -4.5 0zM1338.75 243 a2.25 2.25 0 1 0 4.5 0 a2.25 2.25 0 1 0 -4.5 0z" fill="black"></path><path d="M852.75 459 a2.25 2.25 0 1 0 4.5 0 a2.25 2.25 0 1 0 -4.5 0zM852.75 531 a2.25 2.25 0 1 0 4.5 0 a2.25 2.25 0 1 0 -4.5 0z" fill="black"></path><path d="M1032.75 513 a2.25 2.25 0 1 0 4.5 0 a2.25 2.25 0 1 0 -4.5 0zM924.75 495 a2.25 2.25 0 1 0 4.5 0 a2.25 2.25 0 1 0 -4.5 0z" fill="black"></path><path d="M1428.75 45 a2.25 2.25 0 1 0 4.5 0 a2.25 2.25 0 1 0 -4.5 0zM1428.75 81 a2.25 2.25 0 1 0 4.5 0 a2.25 2.25 0 1 0 -4.5 0z" fill="black"></path><path d="M582.75 261 a2.25 2.25 0 1 0 4.5 0 a2.25 2.25 0 1 0 -4.5 0zM654.75 225 a2.25 2.25 0 1 0 4.5 0 a2.25 2.25 0 1 0 -4.5 0z" fill="black"></path><path d="M1302.75 495 a2.25 2.25 0 1 0 4.5 0 a2.25 2.25 0 1 0 -4.5 0zM1248.75 477 a2.25 2.25 0 1 0 4.5 0 a2.25 2.25 0 1 0 -4.5 0z" fill="black"></path><path d="M150.75 405 a2.25 2.25 0 1 0 4.5 0 a2.25 2.25 0 1 0 -4.5 0zM114.75 405 a2.25 2.25 0 1 0 4.5 0 a2.25 2.25 0 1 0 -4.5 0z" fill="black"></path><path d="M474.75 135 a2.25 2.25 0 1 0 4.5 0 a2.25 2.25 0 1 0 -4.5 0zM474.75 171 a2.25 2.25 0 1 0 4.5 0 a2.25 2.25 0 1 0 -4.5 0z" fill="black"></path><path d="M330.75 387 a2.25 2.25 0 1 0 4.5 0 a2.25 2.25 0 1 0 -4.5 0zM366.75 423 a2.25 2.25 0 1 0 4.5 0 a2.25 2.25 0 1 0 -4.5 0z" fill="black"></path><path d="M438.75 315 a2.25 2.25 0 1 0 4.5 0 a2.25 2.25 0 1 0 -4.5 0zM438.75 387 a2.25 2.25 0 1 0 4.5 0 a2.25 2.25 0 1 0 -4.5 0z" fill="black"></path><path d="M1302.75 27 a2.25 2.25 0 1 0 4.5 0 a2.25 2.25 0 1 0 -4.5 0zM1266.75 9 a2.25 2.25 0 1 0 4.5 0 a2.25 2.25 0 1 0 -4.5 0z" fill="black"></path><path d="M762.75 423 a2.25 2.25 0 1 0 4.5 0 a2.25 2.25 0 1 0 -4.5 0zM762.75 459 a2.25 2.25 0 1 0 4.5 0 a2.25 2.25 0 1 0 -4.5 0z" fill="black"></path><path d="M654.75 459 a2.25 2.25 0 1 0 4.5 0 a2.25 2.25 0 1 0 -4.5 0zM636.75 549 a2.25 2.25 0 1 0 4.5 0 a2.25 2.25 0 1 0 -4.5 0z" fill="black"></path><path d="M1122.75 369 a2.25 2.25 0 1 0 4.5 0 a2.25 2.25 0 1 0 -4.5 0zM1158.75 387 a2.25 2.25 0 1 0 4.5 0 a2.25 2.25 0 1 0 -4.5 0z" fill="black"></path><path d="M330.75 279 a2.25 2.25 0 1 0 4.5 0 a2.25 2.25 0 1 0 -4.5 0zM402.75 369 a2.25 2.25 0 1 0 4.5 0 a2.25 2.25 0 1 0 -4.5 0z" fill="black"></path><path d="M672.75 495 a2.25 2.25 0 1 0 4.5 0 a2.25 2.25 0 1 0 -4.5 0zM798.75 549 a2.25 2.25 0 1 0 4.5 0 a2.25 2.25 0 1 0 -4.5 0z" fill="black"></path><path d="M186.75 99 a2.25 2.25 0 1 0 4.5 0 a2.25 2.25 0 1 0 -4.5 0zM222.75 99 a2.25 2.25 0 1 0 4.5 0 a2.25 2.25 0 1 0 -4.5 0z" fill="black"></path><path d="M870.75 135 a2.25 2.25 0 1 0 4.5 0 a2.25 2.25 0 1 0 -4.5 0zM834.75 99 a2.25 2.25 0 1 0 4.5 0 a2.25 2.25 0 1 0 -4.5 0z" fill="black"></path><path d="M1140.75 387 a2.25 2.25 0 1 0 4.5 0 a2.25 2.25 0 1 0 -4.5 0zM1104.75 387 a2.25 2.25 0 1 0 4.5 0 a2.25 2.25 0 1 0 -4.5 0z" fill="black"></path><path d="M582.75 531 a2.25 2.25 0 1 0 4.5 0 a2.25 2.25 0 1 0 -4.5 0zM528.75 549 a2.25 2.25 0 1 0 4.5 0 a2.25 2.25 0 1 0 -4.5 0z" fill="black"></path><path d="M582.75 63 a2.25 2.25 0 1 0 4.5 0 a2.25 2.25 0 1 0 -4.5 0zM582.75 27 a2.25 2.25 0 1 0 4.5 0 a2.25 2.25 0 1 0 -4.5 0z" fill="black"></path><path d="M240.75 279 a2.25 2.25 0 1 0 4.5 0 a2.25 2.25 0 1 0 -4.5 0zM276.75 297 a2.25 2.25 0 1 0 4.5 0 a2.25 2.25 0 1 0 -4.5 0z" fill="black"></path><path d="M1230.75 315 a2.25 2.25 0 1 0 4.5 0 a2.25 2.25 0 1 0 -4.5 0zM1176.75 369 a2.25 2.25 0 1 0 4.5 0 a2.25 2.25 0 1 0 -4.5 0z" fill="black"></path><path d="M582.75 441 a2.25 2.25 0 1 0 4.5 0 a2.25 2.25 0 1 0 -4.5 0zM492.75 513 a2.25 2.25 0 1 0 4.5 0 a2.25 2.25 0 1 0 -4.5 0z" fill="black"></path><path d="M78.75 153 a2.25 2.25 0 1 0 4.5 0 a2.25 2.25 0 1 0 -4.5 0zM168.75 189 a2.25 2.25 0 1 0 4.5 0 a2.25 2.25 0 1 0 -4.5 0z" fill="black"></path><path d="M780.75 171 a2.25 2.25 0 1 0 4.5 0 a2.25 2.25 0 1 0 -4.5 0zM798.75 243 a2.25 2.25 0 1 0 4.5 0 a2.25 2.25 0 1 0 -4.5 0z" fill="black"></path><path d="M258.75 207 a2.25 2.25 0 1 0 4.5 0 a2.25 2.25 0 1 0 -4.5 0zM222.75 207 a2.25 2.25 0 1 0 4.5 0 a2.25 2.25 0 1 0 -4.5 0z" fill="black"></path><path d="M24.75 9 a2.25 2.25 0 1 0 4.5 0 a2.25 2.25 0 1 0 -4.5 0zM60.75 9 a2.25 2.25 0 1 0 4.5 0 a2.25 2.25 0 1 0 -4.5 0z" fill="black"></path><path d="M672.75 423 a2.25 2.25 0 1 0 4.5 0 a2.25 2.25 0 1 0 -4.5 0zM726.75 477 a2.25 2.25 0 1 0 4.5 0 a2.25 2.25 0 1 0 -4.5 0z" fill="black"></path><path d="M546.75 279 a2.25 2.25 0 1 0 4.5 0 a2.25 2.25 0 1 0 -4.5 0zM528.75 315 a2.25 2.25 0 1 0 4.5 0 a2.25 2.25 0 1 0 -4.5 0z" fill="black"></path><path d="M672.75 117 a2.25 2.25 0 1 0 4.5 0 a2.25 2.25 0 1 0 -4.5 0zM618.75 153 a2.25 2.25 0 1 0 4.5 0 a2.25 2.25 0 1 0 -4.5 0z" fill="black"></path><path d="M1104.75 369 a2.25 2.25 0 1 0 4.5 0 a2.25 2.25 0 1 0 -4.5 0zM1068.75 351 a2.25 2.25 0 1 0 4.5 0 a2.25 2.25 0 1 0 -4.5 0z" fill="black"></path><path d="M330.75 63 a2.25 2.25 0 1 0 4.5 0 a2.25 2.25 0 1 0 -4.5 0zM402.75 81 a2.25 2.25 0 1 0 4.5 0 a2.25 2.25 0 1 0 -4.5 0z" fill="black"></path><path d="M564.75 423 a2.25 2.25 0 1 0 4.5 0 a2.25 2.25 0 1 0 -4.5 0zM582.75 387 a2.25 2.25 0 1 0 4.5 0 a2.25 2.25 0 1 0 -4.5 0z" fill="black"></path><path d="M1320.75 63 a2.25 2.25 0 1 0 4.5 0 a2.25 2.25 0 1 0 -4.5 0zM1374.75 27 a2.25 2.25 0 1 0 4.5 0 a2.25 2.25 0 1 0 -4.5 0z" fill="black"></path><path d="M726.75 369 a2.25 2.25 0 1 0 4.5 0 a2.25 2.25 0 1 0 -4.5 0zM708.75 405 a2.25 2.25 0 1 0 4.5 0 a2.25 2.25 0 1 0 -4.5 0z" fill="black"></path><path d="M1320.75 243 a2.25 2.25 0 1 0 4.5 0 a2.25 2.25 0 1 0 -4.5 0zM1302.75 207 a2.25 2.25 0 1 0 4.5 0 a2.25 2.25 0 1 0 -4.5 0z" fill="black"></path><path d="M996.75 207 a2.25 2.25 0 1 0 4.5 0 a2.25 2.25 0 1 0 -4.5 0zM1014.75 171 a2.25 2.25 0 1 0 4.5 0 a2.25 2.25 0 1 0 -4.5 0z" fill="black"></path><path d="M1158.75 333 a2.25 2.25 0 1 0 4.5 0 a2.25 2.25 0 1 0 -4.5 0zM1158.75 297 a2.25 2.25 0 1 0 4.5 0 a2.25 2.25 0 1 0 -4.5 0z" fill="black"></path><path d="M96.75 261 a2.25 2.25 0 1 0 4.5 0 a2.25 2.25 0 1 0 -4.5 0zM60.75 225 a2.25 2.25 0 1 0 4.5 0 a2.25 2.25 0 1 0 -4.5 0z" fill="black"></path><path d="M150.75 171 a2.25 2.25 0 1 0 4.5 0 a2.25 2.25 0 1 0 -4.5 0zM78.75 189 a2.25 2.25 0 1 0 4.5 0 a2.25 2.25 0 1 0 -4.5 0z" fill="black"></path><path d="M744.75 153 a2.25 2.25 0 1 0 4.5 0 a2.25 2.25 0 1 0 -4.5 0zM744.75 225 a2.25 2.25 0 1 0 4.5 0 a2.25 2.25 0 1 0 -4.5 0z" fill="black"></path><path d="M672.75 441 a2.25 2.25 0 1 0 4.5 0 a2.25 2.25 0 1 0 -4.5 0zM636.75 387 a2.25 2.25 0 1 0 4.5 0 a2.25 2.25 0 1 0 -4.5 0z" fill="black"></path><path d="M438.75 81 a2.25 2.25 0 1 0 4.5 0 a2.25 2.25 0 1 0 -4.5 0zM456.75 27 a2.25 2.25 0 1 0 4.5 0 a2.25 2.25 0 1 0 -4.5 0z" fill="black"></path><path d="M600.75 531 a2.25 2.25 0 1 0 4.5 0 a2.25 2.25 0 1 0 -4.5 0zM600.75 477 a2.25 2.25 0 1 0 4.5 0 a2.25 2.25 0 1 0 -4.5 0z" fill="black"></path><path d="M582.75 549 a2.25 2.25 0 1 0 4.5 0 a2.25 2.25 0 1 0 -4.5 0zM546.75 549 a2.25 2.25 0 1 0 4.5 0 a2.25 2.25 0 1 0 -4.5 0z" fill="black"></path><path d="M1104.75 27 a2.25 2.25 0 1 0 4.5 0 a2.25 2.25 0 1 0 -4.5 0zM1140.75 27 a2.25 2.25 0 1 0 4.5 0 a2.25 2.25 0 1 0 -4.5 0z" fill="black"></path><path d="M6.75 297 a2.25 2.25 0 1 0 4.5 0 a2.25 2.25 0 1 0 -4.5 0zM6.75 243 a2.25 2.25 0 1 0 4.5 0 a2.25 2.25 0 1 0 -4.5 0z" fill="black"></path><path d="M1356.75 351 a2.25 2.25 0 1 0 4.5 0 a2.25 2.25 0 1 0 -4.5 0zM1356.75 423 a2.25 2.25 0 1 0 4.5 0 a2.25 2.25 0 1 0 -4.5 0z" fill="black"></path><path d="M528.75 225 a2.25 2.25 0 1 0 4.5 0 a2.25 2.25 0 1 0 -4.5 0zM564.75 279 a2.25 2.25 0 1 0 4.5 0 a2.25 2.25 0 1 0 -4.5 0z" fill="black"></path><path d="M888.75 279 a2.25 2.25 0 1 0 4.5 0 a2.25 2.25 0 1 0 -4.5 0zM816.75 261 a2.25 2.25 0 1 0 4.5 0 a2.25 2.25 0 1 0 -4.5 0z" fill="black"></path><path d="M834.75 45 a2.25 2.25 0 1 0 4.5 0 a2.25 2.25 0 1 0 -4.5 0zM798.75 27 a2.25 2.25 0 1 0 4.5 0 a2.25 2.25 0 1 0 -4.5 0z" fill="black"></path><path d="M888.75 513 a2.25 2.25 0 1 0 4.5 0 a2.25 2.25 0 1 0 -4.5 0zM924.75 531 a2.25 2.25 0 1 0 4.5 0 a2.25 2.25 0 1 0 -4.5 0z" fill="black"></path><path d="M672.75 171 a2.25 2.25 0 1 0 4.5 0 a2.25 2.25 0 1 0 -4.5 0zM672.75 135 a2.25 2.25 0 1 0 4.5 0 a2.25 2.25 0 1 0 -4.5 0z" fill="black"></path><path d="M1176.75 153 a2.25 2.25 0 1 0 4.5 0 a2.25 2.25 0 1 0 -4.5 0zM1122.75 153 a2.25 2.25 0 1 0 4.5 0 a2.25 2.25 0 1 0 -4.5 0z" fill="black"></path><path d="M870.75 63 a2.25 2.25 0 1 0 4.5 0 a2.25 2.25 0 1 0 -4.5 0zM834.75 27 a2.25 2.25 0 1 0 4.5 0 a2.25 2.25 0 1 0 -4.5 0z" fill="black"></path><path d="M942.75 63 a2.25 2.25 0 1 0 4.5 0 a2.25 2.25 0 1 0 -4.5 0zM906.75 99 a2.25 2.25 0 1 0 4.5 0 a2.25 2.25 0 1 0 -4.5 0z" fill="black"></path><path d="M1194.75 279 a2.25 2.25 0 1 0 4.5 0 a2.25 2.25 0 1 0 -4.5 0zM1194.75 243 a2.25 2.25 0 1 0 4.5 0 a2.25 2.25 0 1 0 -4.5 0z" fill="black"></path><path d="M1374.75 135 a2.25 2.25 0 1 0 4.5 0 a2.25 2.25 0 1 0 -4.5 0zM1428.75 315 a2.25 2.25 0 1 0 4.5 0 a2.25 2.25 0 1 0 -4.5 0z" fill="black"></path><path d="M1194.75 513 a2.25 2.25 0 1 0 4.5 0 a2.25 2.25 0 1 0 -4.5 0zM1176.75 477 a2.25 2.25 0 1 0 4.5 0 a2.25 2.25 0 1 0 -4.5 0z" fill="black"></path><path d="M366.75 207 a2.25 2.25 0 1 0 4.5 0 a2.25 2.25 0 1 0 -4.5 0zM366.75 261 a2.25 2.25 0 1 0 4.5 0 a2.25 2.25 0 1 0 -4.5 0z" fill="black"></path><path d="M78.75 477 a2.25 2.25 0 1 0 4.5 0 a2.25 2.25 0 1 0 -4.5 0zM96.75 513 a2.25 2.25 0 1 0 4.5 0 a2.25 2.25 0 1 0 -4.5 0z" fill="black"></path><path d="M1158.75 513 a2.25 2.25 0 1 0 4.5 0 a2.25 2.25 0 1 0 -4.5 0zM1140.75 477 a2.25 2.25 0 1 0 4.5 0 a2.25 2.25 0 1 0 -4.5 0z" fill="black"></path><path d="M150.75 243 a2.25 2.25 0 1 0 4.5 0 a2.25 2.25 0 1 0 -4.5 0zM168.75 297 a2.25 2.25 0 1 0 4.5 0 a2.25 2.25 0 1 0 -4.5 0z" fill="black"></path><path d="M330.75 495 a2.25 2.25 0 1 0 4.5 0 a2.25 2.25 0 1 0 -4.5 0zM366.75 513 a2.25 2.25 0 1 0 4.5 0 a2.25 2.25 0 1 0 -4.5 0z" fill="black"></path><path d="M222.75 513 a2.25 2.25 0 1 0 4.5 0 a2.25 2.25 0 1 0 -4.5 0zM204.75 477 a2.25 2.25 0 1 0 4.5 0 a2.25 2.25 0 1 0 -4.5 0z" fill="black"></path><path d="M186.75 27 a2.25 2.25 0 1 0 4.5 0 a2.25 2.25 0 1 0 -4.5 0zM222.75 27 a2.25 2.25 0 1 0 4.5 0 a2.25 2.25 0 1 0 -4.5 0z" fill="black"></path><path d="M204.75 423 a2.25 2.25 0 1 0 4.5 0 a2.25 2.25 0 1 0 -4.5 0zM186.75 459 a2.25 2.25 0 1 0 4.5 0 a2.25 2.25 0 1 0 -4.5 0z" fill="black"></path><path d="M420.75 495 a2.25 2.25 0 1 0 4.5 0 a2.25 2.25 0 1 0 -4.5 0zM366.75 477 a2.25 2.25 0 1 0 4.5 0 a2.25 2.25 0 1 0 -4.5 0z" fill="black"></path><path d="M816.75 459 a2.25 2.25 0 1 0 4.5 0 a2.25 2.25 0 1 0 -4.5 0zM798.75 405 a2.25 2.25 0 1 0 4.5 0 a2.25 2.25 0 1 0 -4.5 0z" fill="black"></path><path d="M114.75 171 a2.25 2.25 0 1 0 4.5 0 a2.25 2.25 0 1 0 -4.5 0zM150.75 189 a2.25 2.25 0 1 0 4.5 0 a2.25 2.25 0 1 0 -4.5 0z" fill="black"></path><path d="M798.75 351 a2.25 2.25 0 1 0 4.5 0 a2.25 2.25 0 1 0 -4.5 0zM762.75 333 a2.25 2.25 0 1 0 4.5 0 a2.25 2.25 0 1 0 -4.5 0z" fill="black"></path><path d="M528.75 459 a2.25 2.25 0 1 0 4.5 0 a2.25 2.25 0 1 0 -4.5 0zM546.75 405 a2.25 2.25 0 1 0 4.5 0 a2.25 2.25 0 1 0 -4.5 0z" fill="black"></path><path d="M798.75 441 a2.25 2.25 0 1 0 4.5 0 a2.25 2.25 0 1 0 -4.5 0zM798.75 477 a2.25 2.25 0 1 0 4.5 0 a2.25 2.25 0 1 0 -4.5 0z" fill="black"></path><path d="M1212.75 27 a2.25 2.25 0 1 0 4.5 0 a2.25 2.25 0 1 0 -4.5 0zM1176.75 27 a2.25 2.25 0 1 0 4.5 0 a2.25 2.25 0 1 0 -4.5 0z" fill="black"></path><path d="M834.75 207 a2.25 2.25 0 1 0 4.5 0 a2.25 2.25 0 1 0 -4.5 0zM870.75 261 a2.25 2.25 0 1 0 4.5 0 a2.25 2.25 0 1 0 -4.5 0z" fill="black"></path><path d="M1086.75 477 a2.25 2.25 0 1 0 4.5 0 a2.25 2.25 0 1 0 -4.5 0zM1248.75 513 a2.25 2.25 0 1 0 4.5 0 a2.25 2.25 0 1 0 -4.5 0z" fill="black"></path><path d="M42.75 81 a2.25 2.25 0 1 0 4.5 0 a2.25 2.25 0 1 0 -4.5 0zM60.75 117 a2.25 2.25 0 1 0 4.5 0 a2.25 2.25 0 1 0 -4.5 0z" fill="black"></path><path d="M942.75 297 a2.25 2.25 0 1 0 4.5 0 a2.25 2.25 0 1 0 -4.5 0zM978.75 315 a2.25 2.25 0 1 0 4.5 0 a2.25 2.25 0 1 0 -4.5 0z" fill="black"></path><path d="M1104.75 297 a2.25 2.25 0 1 0 4.5 0 a2.25 2.25 0 1 0 -4.5 0zM1140.75 297 a2.25 2.25 0 1 0 4.5 0 a2.25 2.25 0 1 0 -4.5 0z" fill="black"></path><path d="M294.75 513 a2.25 2.25 0 1 0 4.5 0 a2.25 2.25 0 1 0 -4.5 0zM294.75 477 a2.25 2.25 0 1 0 4.5 0 a2.25 2.25 0 1 0 -4.5 0z" fill="black"></path><path d="M330.75 207 a2.25 2.25 0 1 0 4.5 0 a2.25 2.25 0 1 0 -4.5 0zM348.75 243 a2.25 2.25 0 1 0 4.5 0 a2.25 2.25 0 1 0 -4.5 0z" fill="black"></path><path d="M1194.75 99 a2.25 2.25 0 1 0 4.5 0 a2.25 2.25 0 1 0 -4.5 0zM1158.75 81 a2.25 2.25 0 1 0 4.5 0 a2.25 2.25 0 1 0 -4.5 0z" fill="black"></path><path d="M402.75 207 a2.25 2.25 0 1 0 4.5 0 a2.25 2.25 0 1 0 -4.5 0zM348.75 189 a2.25 2.25 0 1 0 4.5 0 a2.25 2.25 0 1 0 -4.5 0z" fill="black"></path><path d="M1302.75 513 a2.25 2.25 0 1 0 4.5 0 a2.25 2.25 0 1 0 -4.5 0zM1374.75 513 a2.25 2.25 0 1 0 4.5 0 a2.25 2.25 0 1 0 -4.5 0z" fill="black"></path><path d="M294.75 351 a2.25 2.25 0 1 0 4.5 0 a2.25 2.25 0 1 0 -4.5 0zM330.75 369 a2.25 2.25 0 1 0 4.5 0 a2.25 2.25 0 1 0 -4.5 0z" fill="black"></path><path d="M384.75 225 a2.25 2.25 0 1 0 4.5 0 a2.25 2.25 0 1 0 -4.5 0zM384.75 261 a2.25 2.25 0 1 0 4.5 0 a2.25 2.25 0 1 0 -4.5 0z" fill="black"></path><path d="M672.75 513 a2.25 2.25 0 1 0 4.5 0 a2.25 2.25 0 1 0 -4.5 0zM654.75 549 a2.25 2.25 0 1 0 4.5 0 a2.25 2.25 0 1 0 -4.5 0z" fill="black"></path><path d="M312.75 81 a2.25 2.25 0 1 0 4.5 0 a2.25 2.25 0 1 0 -4.5 0zM276.75 81 a2.25 2.25 0 1 0 4.5 0 a2.25 2.25 0 1 0 -4.5 0z" fill="black"></path><path d="M1104.75 513 a2.25 2.25 0 1 0 4.5 0 a2.25 2.25 0 1 0 -4.5 0zM1140.75 531 a2.25 2.25 0 1 0 4.5 0 a2.25 2.25 0 1 0 -4.5 0z" fill="black"></path><path d="M960.75 549 a2.25 2.25 0 1 0 4.5 0 a2.25 2.25 0 1 0 -4.5 0zM996.75 549 a2.25 2.25 0 1 0 4.5 0 a2.25 2.25 0 1 0 -4.5 0z" fill="black"></path><path d="M1374.75 81 a2.25 2.25 0 1 0 4.5 0 a2.25 2.25 0 1 0 -4.5 0zM1428.75 27 a2.25 2.25 0 1 0 4.5 0 a2.25 2.25 0 1 0 -4.5 0z" fill="black"></path><path d="M1410.75 189 a2.25 2.25 0 1 0 4.5 0 a2.25 2.25 0 1 0 -4.5 0zM1410.75 153 a2.25 2.25 0 1 0 4.5 0 a2.25 2.25 0 1 0 -4.5 0z" fill="black"></path><path d="M582.75 207 a2.25 2.25 0 1 0 4.5 0 a2.25 2.25 0 1 0 -4.5 0zM618.75 225 a2.25 2.25 0 1 0 4.5 0 a2.25 2.25 0 1 0 -4.5 0z" fill="black"></path><path d="M492.75 243 a2.25 2.25 0 1 0 4.5 0 a2.25 2.25 0 1 0 -4.5 0zM492.75 279 a2.25 2.25 0 1 0 4.5 0 a2.25 2.25 0 1 0 -4.5 0z" fill="black"></path><path d="M312.75 495 a2.25 2.25 0 1 0 4.5 0 a2.25 2.25 0 1 0 -4.5 0zM312.75 531 a2.25 2.25 0 1 0 4.5 0 a2.25 2.25 0 1 0 -4.5 0z" fill="black"></path><path d="M1194.75 297 a2.25 2.25 0 1 0 4.5 0 a2.25 2.25 0 1 0 -4.5 0zM1194.75 333 a2.25 2.25 0 1 0 4.5 0 a2.25 2.25 0 1 0 -4.5 0z" fill="black"></path><path d="M42.75 405 a2.25 2.25 0 1 0 4.5 0 a2.25 2.25 0 1 0 -4.5 0zM42.75 369 a2.25 2.25 0 1 0 4.5 0 a2.25 2.25 0 1 0 -4.5 0z" fill="black"></path><path d="M888.75 207 a2.25 2.25 0 1 0 4.5 0 a2.25 2.25 0 1 0 -4.5 0zM852.75 207 a2.25 2.25 0 1 0 4.5 0 a2.25 2.25 0 1 0 -4.5 0z" fill="black"></path></mask></defs></svg>