<?xml version="1.0" standalone="no"?>
<svg xmlns:xlink="http://www.w3.org/1999/xlink" id="wave" style="transform:rotate(0deg); transition: 0.3s" viewBox="0 0 1440 100" version="1.1" xmlns="http://www.w3.org/2000/svg"><defs><linearGradient id="sw-gradient-0" x1="0" x2="0" y1="1" y2="0"><stop stop-color="rgba(1, 45, 108, 1)" offset="0%"/><stop stop-color="rgba(4, 86, 170, 1)" offset="100%"/></linearGradient></defs><path style="transform:translate(0, 0px); opacity:1" fill="url(#sw-gradient-0)" d="M0,90L240,86.7C480,83,960,77,1440,70C1920,63,2400,57,2880,45C3360,33,3840,17,4320,11.7C4800,7,5280,13,5760,28.3C6240,43,6720,67,7200,70C7680,73,8160,57,8640,53.3C9120,50,9600,60,10080,55C10560,50,11040,30,11520,23.3C12000,17,12480,23,12960,30C13440,37,13920,43,14400,43.3C14880,43,15360,37,15840,36.7C16320,37,16800,43,17280,51.7C17760,60,18240,70,18720,71.7C19200,73,19680,67,20160,68.3C20640,70,21120,80,21600,85C22080,90,22560,90,23040,76.7C23520,63,24000,37,24480,28.3C24960,20,25440,30,25920,41.7C26400,53,26880,67,27360,75C27840,83,28320,87,28800,76.7C29280,67,29760,43,30240,28.3C30720,13,31200,7,31680,6.7C32160,7,32640,13,33120,20C33600,27,34080,33,34320,36.7L34560,40L34560,100L34320,100C34080,100,33600,100,33120,100C32640,100,32160,100,31680,100C31200,100,30720,100,30240,100C29760,100,29280,100,28800,100C28320,100,27840,100,27360,100C26880,100,26400,100,25920,100C25440,100,24960,100,24480,100C24000,100,23520,100,23040,100C22560,100,22080,100,21600,100C21120,100,20640,100,20160,100C19680,100,19200,100,18720,100C18240,100,17760,100,17280,100C16800,100,16320,100,15840,100C15360,100,14880,100,14400,100C13920,100,13440,100,12960,100C12480,100,12000,100,11520,100C11040,100,10560,100,10080,100C9600,100,9120,100,8640,100C8160,100,7680,100,7200,100C6720,100,6240,100,5760,100C5280,100,4800,100,4320,100C3840,100,3360,100,2880,100C2400,100,1920,100,1440,100C960,100,480,100,240,100L0,100Z"/></svg>