<svg xmlns="http://www.w3.org/2000/svg" width="1093.808" height="228.21" viewBox="0 0 1093.808 228.21"><g id="Group_468" data-name="Group 468" transform="translate(-413.096 -1772.656)"><g id="Group_361" data-name="Group 361" transform="translate(10.904 125.479)"><g id="kaseya-product-logos-01" transform="translate(375.752 1598.687)"><path id="Path_282" data-name="Path 282" d="M110.42,49.14H123.6V77.311L147.3,49.14h16.216L136.506,80.1l28.109,34.7h-17.2l-23.6-30.654H123.6V114.8H110.42Z" transform="translate(173.45 1.342)"></path><path id="Path_283" data-name="Path 283" d="M133.362,58.058a42.363,42.363,0,0,1,16.8-3.678c14.775,0,20.906,6.131,20.906,20.415v6.131c0,4.874,0,8.552.184,12.108s.276,7.081.582,10.851h-11.1a69.371,69.371,0,0,1-.582-7.234h-.184a17.35,17.35,0,0,1-14.959,8.338c-8.583,0-16.952-5.15-16.952-14.377a14.223,14.223,0,0,1,8.277-13.825,38.44,38.44,0,0,1,16.308-2.851H159.6c0-7.786-3.494-10.422-10.913-10.422a25.351,25.351,0,0,0-14.959,5.272Zm14.744,37.827a10.668,10.668,0,0,0,8.859-4.353A16.063,16.063,0,0,0,159.6,81.57h-5.456c-5.671,0-14.039.95-14.039,8.368C140.2,94.077,143.6,95.885,148.106,95.885Z" transform="translate(209.823 12.165)"></path><path id="Path_284" data-name="Path 284" d="M175.79,65.774a30.408,30.408,0,0,0-11.281-2.084c-3.4,0-7.479,1.226-7.479,5.4,0,7.663,21.948,2.789,21.948,20.293,0,11.281-10.085,15.787-20.293,15.787a56.493,56.493,0,0,1-14.346-2.054l.766-10.33a27.864,27.864,0,0,0,12.415,3.065c3.065,0,8.307-1.226,8.307-5.947,0-9.5-21.948-3.065-21.948-20.507,0-10.453,9.2-15.051,19.005-15.051a57.69,57.69,0,0,1,13.764,1.809Z" transform="translate(242.557 12.082)"></path><path id="Path_285" data-name="Path 285" d="M198.455,101.219a33.168,33.168,0,0,1-16.645,3.862c-16,0-25.32-9.2-25.32-25.105,0-14.039,7.449-25.6,22.5-25.6,17.932,0,23.082,12.261,23.082,29.274H168.537c.582,7.786,6.131,12.261,13.855,12.261a32.494,32.494,0,0,0,16.063-4.9Zm-8.46-26.24c-.337-6.131-3.065-11.373-10.208-11.373s-10.667,4.9-11.25,11.373Z" transform="translate(268.602 12.165)"></path><path id="Path_286" data-name="Path 286" d="M196.847,90.124h.184L208.679,54.75h12.813l-18.178,48.065c-4.016,10.729-6.958,21.274-20.139,21.274a31.759,31.759,0,0,1-8.92-1.318l.828-9.2a19.126,19.126,0,0,0,6.529.828,7.878,7.878,0,0,0,8.154-8.675L171.22,54.842h13.947Z" transform="translate(299.025 12.929)"></path><path id="Path_287" data-name="Path 287" d="M192.262,58.058a42.363,42.363,0,0,1,16.8-3.678C223.866,54.38,230,60.511,230,74.8v6.131c0,4.874,0,8.552.153,12.108s.276,7.081.582,10.851h-11.1a55.764,55.764,0,0,1-.582-7.234h-.184a17.35,17.35,0,0,1-14.959,8.338c-8.583,0-16.952-5.15-16.952-14.377a14.223,14.223,0,0,1,8.277-13.825,38.439,38.439,0,0,1,16.308-2.851H218.5c0-7.786-3.495-10.422-10.913-10.422a25.351,25.351,0,0,0-14.959,5.272Zm14.744,37.827a10.637,10.637,0,0,0,8.859-4.353A16.063,16.063,0,0,0,218.5,81.57h-5.456c-5.671,0-14.039.95-14.039,8.368C199.006,94.077,202.47,95.885,207.006,95.885Z" transform="translate(331.473 12.165)"></path><path id="Path_288" data-name="Path 288" d="M189.3,80.61l-13.733,64.863q-3.862,17.932-13.089,25.718a37.183,37.183,0,0,1-24.891,7.817q-29.213,0-29.213-26.638a61.55,61.55,0,0,1,1.809-13.334L122.44,80.61h6.836l-12.844,59.683a55.606,55.606,0,0,0-1.318,12.261q0,20.507,22.684,20.507a30.347,30.347,0,0,0,20.415-6.407c4.966-4.261,8.491-11.311,10.514-21.151l13.764-64.863Z" transform="translate(169.216 66.34)"></path><path id="Path_289" data-name="Path 289" d="M181.554,161.667l9.9-45.981a48.489,48.489,0,0,0,1.379-10.361,11.4,11.4,0,0,0-2.881-8.307,11.924,11.924,0,0,0-8.92-3.065A24.308,24.308,0,0,0,167.055,98.4a35.925,35.925,0,0,0-11.035,12.445,69.124,69.124,0,0,0-6.866,19.005l-6.774,31.819h-6.5l15.327-72.159h5.456l-2.452,14.683h.429Q165.491,88.374,182.228,88.4a17.81,17.81,0,0,1,12.936,4.23,16.4,16.4,0,0,1,4.322,12.261,61.957,61.957,0,0,1-1.594,12.078l-9.84,44.724Z" transform="translate(226.034 82.332)"></path><path id="Path_290" data-name="Path 290" d="M167.129,178.776h-6.5l15.327-72.159H182.3ZM178.838,88.1a10.483,10.483,0,0,1,1.441-5.824,4.537,4.537,0,0,1,3.985-2.207c2.544,0,3.8,1.594,3.8,4.782a10.636,10.636,0,0,1-1.471,6.131,4.353,4.353,0,0,1-3.77,2.176,3.617,3.617,0,0,1-3.065-1.287,5.7,5.7,0,0,1-.92-3.77Z" transform="translate(277.152 65.224)"></path><path id="Path_291" data-name="Path 291" d="M170.635,215.028a20.813,20.813,0,0,1-6.775-1.257v-6.131a23.3,23.3,0,0,0,6.652,1.073,11.219,11.219,0,0,0,8.89-3.525,29.121,29.121,0,0,0,4.966-12.261l16.338-77.4H187.1l.92-4.445,13.61-.95,2.33-10.606a30.1,30.1,0,0,1,7.725-16.093,21.458,21.458,0,0,1,15.112-5.058,35.374,35.374,0,0,1,11.066,1.992l-1.686,5.3a33.72,33.72,0,0,0-9.748-1.778,14.254,14.254,0,0,0-10.177,3.556,22.347,22.347,0,0,0-5.61,11.832l-2.33,10.882h16.461l-1.073,5.4H207.2l-16.737,78.995a30.991,30.991,0,0,1-6.9,15.572A17.135,17.135,0,0,1,170.635,215.028Zm58.886-32.677h-6.5l15.327-72.159h6.376ZM241.2,91.678a10.238,10.238,0,0,1,1.471-5.824,4.506,4.506,0,0,1,3.985-2.207q3.77,0,3.77,4.782a10.637,10.637,0,0,1-1.471,6.131,4.292,4.292,0,0,1-3.77,2.176,3.617,3.617,0,0,1-3.065-1.287,5.7,5.7,0,0,1-.92-3.77Z" transform="translate(283.823 61.648)"></path><path id="Path_292" data-name="Path 292" d="M218.455,163a22.684,22.684,0,0,1-17.9-7.265,29.581,29.581,0,0,1-6.468-20.293,58.243,58.243,0,0,1,4.721-23.021,43.529,43.529,0,0,1,13-17.534,28.631,28.631,0,0,1,18.208-6.5,17.38,17.38,0,0,1,12.078,4.046,14.07,14.07,0,0,1,4.537,11,20.048,20.048,0,0,1-10.851,18.392q-10.913,6.284-32.248,6.315H201.35a46.511,46.511,0,0,0-.4,6.5,25.044,25.044,0,0,0,4.9,16.706,17.626,17.626,0,0,0,14.131,5.732,40.677,40.677,0,0,0,18.392-4.843v6.131A44.174,44.174,0,0,1,218.455,163Zm10.759-68.91a22.255,22.255,0,0,0-16.155,7.663,44.51,44.51,0,0,0-10.79,20.477h3.249q34.3,0,34.332-17.932a9.963,9.963,0,0,0-3.065-7.326,10.33,10.33,0,0,0-7.725-2.881Z" transform="translate(346.141 82.351)"></path><path id="Path_293" data-name="Path 293" d="M250.844,108.59q15.327,0,18.392,14.53h.276q.766-4.353,9.472-44.54h6.59L263.657,181.852h-5.426l3.065-18.178h-.4q-11.5,19.557-28.14,19.526-18.668,0-18.668-24.829a64.957,64.957,0,0,1,4.751-24.523,44.569,44.569,0,0,1,13.12-18.392,29.335,29.335,0,0,1,18.883-6.867Zm-16.522,68.634a20.63,20.63,0,0,0,11.832-4.138,42.212,42.212,0,0,0,10.637-11.158,55.177,55.177,0,0,0,7.05-15.327,52.112,52.112,0,0,0,2.391-13.886,20.538,20.538,0,0,0-4.077-13.4,13.641,13.641,0,0,0-11.189-5A22.653,22.653,0,0,0,236.1,119.84a39.6,39.6,0,0,0-10.882,16.093,57.414,57.414,0,0,0-4.261,21.733Q220.957,177.224,234.322,177.224Z" transform="translate(387.567 62.147)"></path><path id="Path_294" data-name="Path 294" d="M284.839,80.61c9.809,0,17.258,1.87,22.255,5.579a19.19,19.19,0,0,1,7.541,16.461A23.357,23.357,0,0,1,308.9,118.8a27.833,27.833,0,0,1-15.909,8.43v.552a19.986,19.986,0,0,1,11.127,6.866,19.066,19.066,0,0,1,3.954,12.261,27.741,27.741,0,0,1-9.962,22.653q-9.978,8.231-27.588,8.215H238l20.507-97.05Zm-28.447,83.715H271.2a23.634,23.634,0,0,0,15.327-4.506,15.7,15.7,0,0,0,5.548-12.875,12.262,12.262,0,0,0-4.108-9.962,17.6,17.6,0,0,0-11.679-3.433h-13.3Zm9.2-43.62H278.8a22.316,22.316,0,0,0,14.377-4.016,13.733,13.733,0,0,0,5.027-11.373c0-7.6-4.935-11.434-14.806-11.434H271.382Z" transform="translate(436.95 66.34)"></path><path id="Path_295" data-name="Path 295" d="M285.771,163.924a17.963,17.963,0,0,1-14.806-6.744,29.3,29.3,0,0,1-5.456-18.944,67.439,67.439,0,0,1,4.69-25.105,45.183,45.183,0,0,1,12.691-18.392,27.067,27.067,0,0,1,17.81-6.805,18.882,18.882,0,0,1,18.392,11.8h.644l4.108-10.484H335.8l-15.664,73.569H308.056l1.379-11.679h-.4Q298.431,163.924,285.771,163.924Zm5.7-12.629a15.541,15.541,0,0,0,10.7-5.119,38.622,38.622,0,0,0,8.614-13.794,51.036,51.036,0,0,0,3.4-18.852,13.641,13.641,0,0,0-3.065-9.38,10.3,10.3,0,0,0-8.185-3.556,14.653,14.653,0,0,0-10.606,5.119,36.415,36.415,0,0,0-7.97,13.886,56.434,56.434,0,0,0-3.065,18.392,16.065,16.065,0,0,0,2.667,10.116A9.2,9.2,0,0,0,291.472,151.3Z" transform="translate(493.647 81.424)"></path><path id="Path_296" data-name="Path 296" d="M318.542,163.893a27.589,27.589,0,0,1-20.17-7.05,26.884,26.884,0,0,1-7.173-20.109,62.1,62.1,0,0,1,4.874-24.983,41.2,41.2,0,0,1,13.7-17.473,33.5,33.5,0,0,1,20.048-6.345,46.716,46.716,0,0,1,19.71,4.046L344.9,104.241a37.216,37.216,0,0,0-14.683-3.525c-6.652,0-12.261,3.4-16.614,10.177a45.367,45.367,0,0,0-6.621,25.2,15.94,15.94,0,0,0,3.709,11.342,13.365,13.365,0,0,0,10.3,3.985,28.907,28.907,0,0,0,9.2-1.441,75.158,75.158,0,0,0,8.583-3.587v12.936A43.865,43.865,0,0,1,318.542,163.893Z" transform="translate(546.706 81.455)"></path><path id="Path_297" data-name="Path 297" d="M366.59,108.437h18.055L352.55,140.654l19.312,41.2H354.482L340.6,150.586l-9.012,6.376-5.119,24.891H310.8L332.687,78.58H348.2q-8.951,41.628-10.576,48.433t-3.954,15.02h.276Z" transform="translate(587.309 62.147)"></path><path id="Path_298" data-name="Path 298" d="M361.84,88.32l-8.552,40.494a73.066,73.066,0,0,0-2.084,12.813c0,5.886,2.82,8.828,8.43,8.828a15.143,15.143,0,0,0,9.5-3.77,32.987,32.987,0,0,0,8.368-10.79,64.156,64.156,0,0,0,5.64-16.43l6.591-31.144h15.327l-15.327,73.569H377.473l1.379-13.58h-.521a40.369,40.369,0,0,1-11.342,11.311,24.186,24.186,0,0,1-12.752,3.617A18.086,18.086,0,0,1,340.5,158.18a19.955,19.955,0,0,1-4.874-14.469,44.025,44.025,0,0,1,.8-8.276c.552-2.7,1.073-5.426,1.594-8.185l8.031-38.93Z" transform="translate(638.5 82.264)"></path><path id="Path_299" data-name="Path 299" d="M400.165,163.985a18.975,18.975,0,0,1-17.994-11.679h-.644a94.643,94.643,0,0,1-1.655,12.261L373.5,195.221H358.17L380.609,89.129H392.87l-1.5,12.568h.613Q402.373,87.9,414.818,87.9a17.84,17.84,0,0,1,14.867,6.836,29.979,29.979,0,0,1,5.364,18.975,68.6,68.6,0,0,1-4.628,25.351,44.3,44.3,0,0,1-12.66,18.392,27.16,27.16,0,0,1-17.6,6.529Zm8.828-63.331a15.327,15.327,0,0,0-10.7,5.272,39.662,39.662,0,0,0-8.645,13.978,49.563,49.563,0,0,0-3.372,17.994,14.775,14.775,0,0,0,3.065,9.932,10.943,10.943,0,0,0,8.736,3.525,14.346,14.346,0,0,0,10.545-5.211,36.786,36.786,0,0,0,7.786-13.947,58.252,58.252,0,0,0,2.851-18.208Q419.293,100.654,408.994,100.654Z" transform="translate(685.146 81.363)"></path><path id="Path_300" data-name="Path 300" d="M39.14,151.8l19.5,19.465,58.426-58.426,58.4,58.426,19.5-19.465L136.527,93.375,117.062,73.91l-19.5,19.465Z" transform="translate(26.23 52.502)" fill-rule="evenodd"></path><path id="Path_301" data-name="Path 301" d="M26.44,165.342l19.465,19.465,97.387-97.356,97.356,97.356,19.465-19.465L162.757,67.986l-19.465-19.5-19.5,19.5Z" transform="translate(0)" fill-rule="evenodd"></path><path id="Path_302" data-name="Path 302" d="M90.811,99.32l38.93,38.93H51.85Z" transform="translate(52.481 104.983)" fill-rule="evenodd"></path></g><text id="THE_ANSWER" data-name="THE ANSWER" transform="translate(1197 1696.177)" font-size="47" font-family="Poppins-Medium, Poppins" font-weight="500"><tspan x="0" y="0">THE ANSWER</tspan></text></g></g></svg>