<svg fill="none" xmlns="http://www.w3.org/2000/svg" viewBox="0 0 145 145"><path d="M96.6967 74.1325h-3.3274l.3755-5.1528h12.8822c.861 0 1.34-.4853 1.34-1.3403v-5.3666c0-.8607-.485-1.3402-1.34-1.3402H86.9802c-.803 0-1.3403.4853-1.398 1.2882L84.577 76.3393c1.8659 1.9698 3.3968 4.1823 4.7716 6.1753h6.8051c3.5411 0 5.1013 1.8775 5.1013 4.1882 0 1.7388-.884 3.235-2.8311 3.8646-.6412.208-1.3922.3235-2.2645.3235-3.5238.2196-5.8518-2.9634-8.434-6.7241-3.2986-4.8005-7.013-10.5311-14.1705-11.2936-.2541-.0289-.5083-.052-.7683-.0635l7.0246-10.2596c.5892-.9127.2137-1.6117-.8608-1.6117h-6.8743c-.699 0-1.2362.2657-1.6117.8607l-9.9938 15.216.0057.0058-1.2304 1.9295-.0116-.0116c-1.0456-.907-2.2876-1.7215-3.8126-2.38-.3409-.1502-.699-.2889-1.0745-.4217l5.7536-7.4636c.3755-.5373.5893-1.0225.5893-1.6637v-4.7254c0-.8608-.4853-1.3402-1.3402-1.3402H37.8776c-.8607 0-1.3402.4852-1.3402 1.3402v5.3666c0 .8607.4853 1.3402 1.3402 1.3402h12.4547l-5.4244 7.0881c-.3754.5372-.5892 1.0167-.5892 1.6637v3.4372c0 .8607.4853 1.3402 1.3402 1.3402h2.8769c.3523 0 .7105-.0058 1.0687-.0058 3.3447 0 6.0367 1.9179 6.0367 4.3615 0 2.4436-2.7093 4.4192-6.0598 4.4192-1.7273 0-3.287-.5315-4.3904-1.3749-.1444-.1097-.2831-.2195-.4044-.3466-.6874-.647-1.1322-1.4442-1.2362-2.3049-.2368-.3639-.5777-.5603-1.1149-.5603h-5.9559c-.8607 0-1.3979.4852-1.3402 1.3979.699 7.3539 6.8166 11.1665 13.639 11.1665 3.7087 0 7.2094-1.1264 9.7396-3.3332l1.6464-1.5828.0404.0578.0174.0173.0173.0231.0173.0231.0174.0231.0173.0231.0115.0231.0174.0289.0115.0116v.0115l.0173.0116.0116.0115v.0116l.0173.0173h.0058l.0116.0231.0115.0231.0347.0462.0173.0232.0173.0231.0174.0231.0115.0231.0174.0231v.0115l.0173.0116.0115.0115.0116.0116.0115.0115h.0058l.0116.0232.0115.0231.0174.0231.0173.0231.0346.0404.0174.0231.0173.0231.0116.0231h.0057l.0116.0174v.0115l.0173.0116.0116.0115v.0116l.0173.0115h.0058l.0115.0231.0174.0231.0173.0232.0173.0231.0174.0173.0173.0173.0173.0173.0116.0174h.0057l.0116.0173h.0058l.0115.0173.0116.0116.0115.0115.0116.0116h.0058l.0115.0231h.0058l.0116.0231.0173.0231.0173.0231.0173.0174.0174.0173.0173.0173.0173.0173.0116.0174h.0058l.0115.0173h.0116l.0115.0173.0116.0116h.0058l.0115.0173h.0058l.0115.0174.0174.0173.0057.0115.0116.0116c2.4378 2.2529 5.8692 3.5643 9.9418 3.5643 4.6561 0 8.4919-1.7331 10.9586-4.6388l1.4615-1.7503c.2542.3523.5372.7047.7914 1.034.7914 1.0109 1.6406 1.8774 2.4782 2.5187 2.4725 1.8832 5.719 2.8479 9.1389 2.8479.7683 0 1.525-.0462 2.2645-.1444 6.2739-.8088 11.4209-5.0258 11.4209-12.4201 0-8.2665-5.904-12.5644-13.154-12.5644l.1387-.0405ZM71.6544 91.5726c-3.0213 0-5.5573-1.8312-6.2678-4.3095-.0116-.0173-.0231-.0289-.0289-.0462l.0116-.0347c-.1156-.4332-.1791-.878-.1791-1.3402 0-3.1656 2.8999-5.7305 6.47-5.7305 3.1136 0 5.7132 1.9468 6.3313 4.5405.0924.3871.1386.7799.1386 1.19 0 3.1657-2.8999 5.7306-6.4699 5.7306h-.0058ZM36.5722 45.7285h2.1143v4.5232l3.8069-4.5232h2.5995l-4.3325 4.968 4.5116 5.5688h-2.7613l-3.7895-4.8929h-.0347v4.8929h-2.1143V45.7285Zm9.5201 3.1657c.7799-.364 1.837-.5892 2.6978-.5892 2.3684 0 3.3563.9878 3.3563 3.2754v.9994c0 .7856.0173 1.3748.0289 1.9467.0173.5893.0462 1.1323.0924 1.7331h-1.7793c-.0751-.4044-.0751-.9185-.0924-1.1612h-.0289c-.4679.8608-1.4788 1.3402-2.3973 1.3402-1.3749 0-2.7209-.826-2.7209-2.3049 0-1.1669.5604-1.8428 1.3287-2.2183.7683-.3812 1.7677-.4563 2.6111-.4563h1.1149c0-1.2536-.5546-1.6753-1.7504-1.6753-.8607 0-1.7215.3351-2.4031.8492l-.0578-1.7388Zm2.3685 6.0714c.6181 0 1.1034-.2715 1.4211-.6932.3293-.4391.4217-.9937.4217-1.6002h-.8723c-.907 0-2.2529.1502-2.2529 1.3402 0 .6643.5603.9532 1.2882.9532h-.0058Zm9.6934-4.8467c-.6239-.2138-1.0802-.3351-1.8139-.3351-.543 0-1.1958.1964-1.1958.8665 0 1.2362 3.5238.4506 3.5238 3.2581 0 1.8081-1.6175 2.536-3.2581 2.536-.774 0-1.5539-.1328-2.2991-.3293l.1213-1.6579c.6354.3177 1.2998.5141 1.993.5141.5141 0 1.3286-.1964 1.3286-.9531 0-1.5251-3.518-.4795-3.518-3.287 0-1.681 1.4615-2.4205 3.0444-2.4205.9531 0 1.5712.1502 2.2067.2889l-.1329 1.525v-.0057Zm7.816 5.7074c-.7394.4102-1.5829.6181-2.6747.6181-2.5649 0-4.061-1.4788-4.061-4.0264 0-2.2529 1.1958-4.1073 3.6104-4.1073 2.8769 0 3.703 1.9757 3.703 4.6965h-5.3782c.0924 1.2478.9705 1.9584 2.2183 1.9584.982 0 1.8254-.364 2.5764-.7857v1.6464h.0058Zm-1.3576-4.217c-.0577-.9763-.5083-1.8255-1.6406-1.8255-1.1322 0-1.7041.7856-1.8023 1.8255h3.4429Zm5.979 2.5591h.0289l1.8717-5.6786h2.0507l-2.9173 7.7178c-.647 1.7215-1.1149 3.414-3.235 3.414-.4794 0-.9647-.0751-1.4326-.2137l.1329-1.4962c.2541.0924.543.1329 1.0456.1329.8145 0 1.3113-.5546 1.3113-1.3864l-2.975-8.1684h2.2356l1.8774 5.6786h.0058Zm4.4712-5.2742c.7856-.364 1.837-.5892 2.6978-.5892 2.3684 0 3.3563.9878 3.3563 3.2754v.9994c0 .7856.0173 1.3748.0289 1.9467.0173.5893.0462 1.1323.0924 1.7331h-1.7793c-.0808-.4044-.0808-.9185-.0924-1.1612h-.0289c-.4679.8608-1.4788 1.3402-2.3973 1.3402-1.3807 0-2.7267-.826-2.7267-2.3049 0-1.1669.5604-1.8428 1.3345-2.2183.7683-.3812 1.7677-.4563 2.6168-.4563h1.115c0-1.2536-.5604-1.6753-1.7504-1.6753-.8665 0-1.7273.3351-2.4031.8492l-.0636-1.7388Zm2.3685 6.0714c.6181 0 1.0976-.2715 1.4153-.6932.3293-.4391.4217-.9937.4217-1.6002h-.8723c-.9069 0-2.2529.1502-2.2529 1.3402 0 .6643.5661.9532 1.2882.9532Z" fill="#fff"/><path d="M123.888 21.3618C109.92 7.3243 90.9314 1.3338 72.6711 3.373c-13.5292 1.5135-26.6656 7.4174-37.0638 17.7693-2.432 2.4205-4.6098 4.9912-6.5566 7.6831-9.3064 12.8418-13.119 28.4275-11.4322 43.528 1.577-13.5234 7.5502-26.6251 17.9542-36.9771 10.3981-10.3462 23.5345-16.2616 37.0695-17.7694 15.1005-1.6868 30.6858 2.1259 43.5338 11.4323a62.464 62.464 0 0 1 7.683 6.5624c10.346 10.3982 16.262 23.5345 17.769 37.0637 2.04 18.2604-3.951 37.2487-17.988 51.2167 28.381-28.2367 28.502-74.1389.259-102.5202h-.011Z" fill="url(#k365-a)"/><path d="M115.945 116.165c9.306-12.842 13.119-28.4335 11.432-43.534-1.577 13.5234-7.55 26.6251-17.954 36.977-10.3981 10.346-23.5344 16.256-37.0694 17.769-15.0947 1.687-30.6862-2.125-43.528-11.432a63.0043 63.0043 0 0 1-7.6831-6.556C10.7964 98.9904 4.8867 85.854 3.3732 72.3248 1.334 54.0645 7.3245 35.0762 21.3621 21.1138c-28.3813 28.2368-28.4968 74.139-.26 102.5202 13.9682 14.038 32.9507 20.034 51.2111 17.995 13.5349-1.514 26.6655-7.418 37.0698-17.77 2.432-2.42 4.61-4.997 6.556-7.683l.006-.011Z" fill="url(#k365-b)"/><path d="M141.617 72.6652c-1.508-13.5291-7.423-26.6655-17.77-37.0637-2.414-2.432-4.991-4.6099-7.683-6.5624-12.841-9.3064-28.433-13.1133-43.5335-11.4322 13.5235 1.577 26.6252 7.556 36.9775 17.9542 10.346 10.3981 16.261 23.5345 17.769 37.0637 1.687 15.1005-2.126 30.6922-11.432 43.5342-1.947 2.686-4.131 5.262-6.557 7.683-10.3981 10.346-23.5344 16.255-37.0694 17.769-18.2604 2.039-37.2428-3.951-51.2111-17.995 28.2369 28.382 74.1391 28.497 102.5205.26 14.037-13.968 20.028-32.9562 17.989-51.2165v.0057Z" fill="url(#k365-c)"/><path d="M35.3827 109.417C25.0365 99.0133 19.1269 85.8827 17.6134 72.3535c-1.6869-15.1004 2.1258-30.6862 11.4322-43.5279 1.9468-2.692 4.1304-5.2684 6.5566-7.6831C46.0004 10.7963 59.1425 4.8867 72.666 3.3732c18.2603-2.0393 37.249 3.9513 51.217 17.9888-28.237-28.3813-74.1393-28.4968-102.5205-.26C7.3307 35.0703 1.3402 54.0585 3.3795 72.3189c1.5076 13.5292 7.4173 26.6655 17.7692 37.0641 2.4205 2.432 4.9912 4.609 7.6831 6.556 12.8418 9.307 28.4333 13.119 43.528 11.432-13.5234-1.577-26.6251-7.556-36.9713-17.954h-.0058Z" fill="url(#k365-d)"/><defs><linearGradient id="k365-a" x1="124.698" y1="50.2858" x2="26.8396" y2="93.4225" gradientUnits="userSpaceOnUse"><stop stop-color="#1A4165"/><stop offset=".14" stop-color="#1E4A6F"/><stop offset=".38" stop-color="#2B648B"/><stop offset=".69" stop-color="#3F8EB8"/><stop offset="1" stop-color="#57C0ED"/></linearGradient><linearGradient id="k365-b" x1="19.5548" y1="94.1513" x2="120.037" y2="51.8997" gradientUnits="userSpaceOnUse"><stop stop-color="#1A4165"/><stop offset=".14" stop-color="#1E496E"/><stop offset=".36" stop-color="#296086"/><stop offset=".64" stop-color="#3B86AF"/><stop offset=".96" stop-color="#54BAE6"/><stop offset="1" stop-color="#57C0ED"/></linearGradient><linearGradient id="k365-c" x1="94.2834" y1="124.77" x2="51.5902" y2="26.0389" gradientUnits="userSpaceOnUse"><stop stop-color="#1A4165"/><stop offset=".21" stop-color="#1B4368"/><stop offset=".38" stop-color="#1F4D72"/><stop offset=".53" stop-color="#275D83"/><stop offset=".68" stop-color="#32739B"/><stop offset=".82" stop-color="#4090B9"/><stop offset=".96" stop-color="#50B3DF"/><stop offset="1" stop-color="#57C0ED"/></linearGradient><linearGradient id="k365-d" x1="50.2309" y1="19.7082" x2="93.3683" y2="118.878" gradientUnits="userSpaceOnUse"><stop stop-color="#1A4165"/><stop offset=".21" stop-color="#1B4368"/><stop offset=".38" stop-color="#1F4D72"/><stop offset=".53" stop-color="#275D83"/><stop offset=".68" stop-color="#32739B"/><stop offset=".82" stop-color="#4090B9"/><stop offset=".96" stop-color="#50B3DF"/><stop offset="1" stop-color="#57C0ED"/></linearGradient></defs></svg>