<?xml version="1.0" encoding="UTF-8"?> <svg xmlns="http://www.w3.org/2000/svg" fill="none" viewBox="0 0 145 145"><path d="M123.888 21.3618C109.92 7.3243 90.9314 1.3338 72.6711 3.373c-13.5292 1.5135-26.6656 7.4174-37.0638 17.7693-2.432 2.4205-4.6098 4.9912-6.5566 7.6831-9.3064 12.8418-13.119 28.4275-11.4322 43.528 1.577-13.5234 7.5502-26.6251 17.9542-36.9771 10.3981-10.3462 23.5345-16.2616 37.0695-17.7694 15.1005-1.6868 30.6858 2.1259 43.5338 11.4323a62.464 62.464 0 0 1 7.683 6.5624c10.346 10.3982 16.262 23.5345 17.769 37.0637 2.04 18.2604-3.951 37.2487-17.988 51.2167 28.381-28.2367 28.502-74.1389.259-102.5202h-.011Z" fill="url(#k365-a)"></path><path d="M115.945 116.165c9.306-12.842 13.119-28.4335 11.432-43.534-1.577 13.5234-7.55 26.6251-17.954 36.977-10.3981 10.346-23.5344 16.256-37.0694 17.769-15.0947 1.687-30.6862-2.125-43.528-11.432a63.0043 63.0043 0 0 1-7.6831-6.556C10.7964 98.9904 4.8867 85.854 3.3732 72.3248 1.334 54.0645 7.3245 35.0762 21.3621 21.1138c-28.3813 28.2368-28.4968 74.139-.26 102.5202 13.9682 14.038 32.9507 20.034 51.2111 17.995 13.5349-1.514 26.6655-7.418 37.0698-17.77 2.432-2.42 4.61-4.997 6.556-7.683l.006-.011Z" fill="url(#k365-b)"></path><path d="M141.617 72.6652c-1.508-13.5291-7.423-26.6655-17.77-37.0637-2.414-2.432-4.991-4.6099-7.683-6.5624-12.841-9.3064-28.433-13.1133-43.5335-11.4322 13.5235 1.577 26.6252 7.556 36.9775 17.9542 10.346 10.3981 16.261 23.5345 17.769 37.0637 1.687 15.1005-2.126 30.6922-11.432 43.5342-1.947 2.686-4.131 5.262-6.557 7.683-10.3981 10.346-23.5344 16.255-37.0694 17.769-18.2604 2.039-37.2428-3.951-51.2111-17.995 28.2369 28.382 74.1391 28.497 102.5205.26 14.037-13.968 20.028-32.9562 17.989-51.2165v.0057Z" fill="url(#k365-c)"></path><path d="M35.3827 109.417C25.0365 99.0133 19.1269 85.8827 17.6134 72.3535c-1.6869-15.1004 2.1258-30.6862 11.4322-43.5279 1.9468-2.692 4.1304-5.2684 6.5566-7.6831C46.0004 10.7963 59.1425 4.8867 72.666 3.3732c18.2603-2.0393 37.249 3.9513 51.217 17.9888-28.237-28.3813-74.1393-28.4968-102.5205-.26C7.3307 35.0703 1.3402 54.0585 3.3795 72.3189c1.5076 13.5292 7.4173 26.6655 17.7692 37.0641 2.4205 2.432 4.9912 4.609 7.6831 6.556 12.8418 9.307 28.4333 13.119 43.528 11.432-13.5234-1.577-26.6251-7.556-36.9713-17.954h-.0058Z" fill="url(#k365-d)"></path><defs><linearGradient id="k365-a" x1="124.698" y1="50.2858" x2="26.8396" y2="93.4225" gradientUnits="userSpaceOnUse"><stop stop-color="#1A4165"></stop><stop offset=".14" stop-color="#1E4A6F"></stop><stop offset=".38" stop-color="#2B648B"></stop><stop offset=".69" stop-color="#3F8EB8"></stop><stop offset="1" stop-color="#57C0ED"></stop></linearGradient><linearGradient id="k365-b" x1="19.5548" y1="94.1513" x2="120.037" y2="51.8997" gradientUnits="userSpaceOnUse"><stop stop-color="#1A4165"></stop><stop offset=".14" stop-color="#1E496E"></stop><stop offset=".36" stop-color="#296086"></stop><stop offset=".64" stop-color="#3B86AF"></stop><stop offset=".96" stop-color="#54BAE6"></stop><stop offset="1" stop-color="#57C0ED"></stop></linearGradient><linearGradient id="k365-c" x1="94.2834" y1="124.77" x2="51.5902" y2="26.0389" gradientUnits="userSpaceOnUse"><stop stop-color="#1A4165"></stop><stop offset=".21" stop-color="#1B4368"></stop><stop offset=".38" stop-color="#1F4D72"></stop><stop offset=".53" stop-color="#275D83"></stop><stop offset=".68" stop-color="#32739B"></stop><stop offset=".82" stop-color="#4090B9"></stop><stop offset=".96" stop-color="#50B3DF"></stop><stop offset="1" stop-color="#57C0ED"></stop></linearGradient><linearGradient id="k365-d" x1="50.2309" y1="19.7082" x2="93.3683" y2="118.878" gradientUnits="userSpaceOnUse"><stop stop-color="#1A4165"></stop><stop offset=".21" stop-color="#1B4368"></stop><stop offset=".38" stop-color="#1F4D72"></stop><stop offset=".53" stop-color="#275D83"></stop><stop offset=".68" stop-color="#32739B"></stop><stop offset=".82" stop-color="#4090B9"></stop><stop offset=".96" stop-color="#50B3DF"></stop><stop offset="1" stop-color="#57C0ED"></stop></linearGradient></defs></svg> 