<svg xmlns="http://www.w3.org/2000/svg" width="1195.879" height="314.544" viewBox="0 0 1195.879 314.544"><g id="Group_362" data-name="Group 362" transform="translate(-362.06 -1437.177)"><g id="kaseya-product-logos3-01" transform="translate(338.65 1483.177)"><path id="Path_358" data-name="Path 358" d="M23.41,36.913h.913c18.265,0,36.531-.157,54.8,0a64.946,64.946,0,0,1,27.815,6.08,34.156,34.156,0,0,1,16.178,15.16,38.252,38.252,0,0,1,4.071,14.221,54.559,54.559,0,0,1,0,10.724c-1.461,14.169-9.237,27.346-26.067,32.434-2.035.6-4.175.939-6.262,1.409a4.354,4.354,0,0,0-.757.261c.235.444.391.835.6,1.2q11.794,19.57,23.484,39.14l13.281,22.1c.209.339.339.7.6,1.2h-29.12a2.009,2.009,0,0,1-2.087-1.226q-15.891-29.172-31.938-58.371l-.313-.5a1.383,1.383,0,0,0-1.566-.965h-16a3.68,3.68,0,0,0-1.2,0,1.148,1.148,0,0,0-.626.678,4.671,4.671,0,0,0,0,1.357v58.945H23.41ZM49.268,98h20.04a84.857,84.857,0,0,0,13.229-.731,28.7,28.7,0,0,0,9.55-3,15.656,15.656,0,0,0,7.985-10.437,23.929,23.929,0,0,0,.548-8.976A15.5,15.5,0,0,0,92.427,62.51a26.489,26.489,0,0,0-3.288-1.487,43.524,43.524,0,0,0-14.482-2.348c-8.063-.13-16.126,0-24.188,0a9.286,9.286,0,0,0-1.148.157Z" transform="translate(0 6.185)"></path><path id="Path_359" data-name="Path 359" d="M263.378,33.06V186.854c-1.018.287-20.692.391-22.858,0V172.346c-.731,0-.887.5-1.1.861a35.226,35.226,0,0,1-24.345,15.4,51.453,51.453,0,0,1-15.656.313,45.089,45.089,0,0,1-23.484-9.733,45.9,45.9,0,0,1-14.925-22.649A61.4,61.4,0,0,1,158.4,133.18a54.639,54.639,0,0,1,6.758-22.858A44.359,44.359,0,0,1,193.553,88.4a48.534,48.534,0,0,1,15.03-1.331,45.978,45.978,0,0,1,14.743,3.236,37.679,37.679,0,0,1,14.143,10.437,2.218,2.218,0,0,0,1.435.965,3.446,3.446,0,0,0,.209-.861,13.546,13.546,0,0,0,0-1.461V33.06ZM239.894,137.433c-.183-1.409-.313-3.627-.783-5.741A27.659,27.659,0,0,0,224.63,112.07a28.938,28.938,0,0,0-17.717-2.922,26.537,26.537,0,0,0-21.057,14.4,30.5,30.5,0,0,0-1.122,26.772,26.824,26.824,0,0,0,15.056,15.082,30.372,30.372,0,0,0,15.656,1.827,26.589,26.589,0,0,0,14.195-6.184c7.071-5.975,10.1-13.855,10.359-23.771Z" transform="translate(216.925 0.097)"></path><path id="Path_360" data-name="Path 360" d="M457.348,33.157V186.95c-1.018.287-22.205.365-24.058,0V33Z" transform="translate(659.631 0)"></path><path id="Path_361" data-name="Path 361" d="M406.573,136.559c-.339.444-.574.783-.861,1.122a49.864,49.864,0,0,1-28.7,17.2,58.031,58.031,0,0,1-15.656.965,55.031,55.031,0,0,1-21.97-5.949,47.568,47.568,0,0,1-25.859-34.652,53.153,53.153,0,0,1,3.679-32.8c.574-1.3,1.252-2.609,1.957-3.992l-2.9-.626a38.54,38.54,0,0,0-9.289-1.148,30.033,30.033,0,0,0-11.4,2.166,23.2,23.2,0,0,0-13.386,15.526,25.5,25.5,0,0,0-1.148,7.828v51.273c-1.1.339-19.909.5-23.928.209a5.765,5.765,0,0,1-.209-.965,9.2,9.2,0,0,1,0-1.2V58.253c0-2.609,0-2.27,2.244-2.27h21.918V71.639c.809,0,.913-.652,1.122-1.044a30.764,30.764,0,0,1,23.04-16.413,29.825,29.825,0,0,1,12.342.6l.652.157.757.261c0,.548.13,1.122.13,1.67V76.623a3.157,3.157,0,0,0,.339,1.566c.183-.235.391-.47.548-.7A49.577,49.577,0,0,1,348.7,56.14,58,58,0,0,1,362.423,53.9a50.047,50.047,0,0,1,18,2.114,40.053,40.053,0,0,1,24.684,21.683,58.32,58.32,0,0,1,5.219,17.822,118.029,118.029,0,0,1,.757,17.169,6.542,6.542,0,0,1,0,.783h-74.34a9.451,9.451,0,0,0,0,1.253A24.893,24.893,0,0,0,357.622,136.4a31.312,31.312,0,0,0,28.7-9.654l2.609-2.844h.287Zm-19.727-41.54a16.857,16.857,0,0,0-.287-4.462A20.875,20.875,0,0,0,373.017,73.6a30.268,30.268,0,0,0-17.143-1.3,22.6,22.6,0,0,0-11.9,6.341,27.111,27.111,0,0,0-7.019,14.221c-.13.7-.183,1.383-.287,2.061,1.122.287,48.377.365,50.177.1Z" transform="translate(375.734 33.457)"></path><path id="Path_362" data-name="Path 362" d="M102.347,56.216h21.944c.6,0,.939.235.913.861V70.645c.835.183.965-.417,1.2-.783a33.924,33.924,0,0,1,4.671-5.714,36.531,36.531,0,0,1,18.265-9.42,50.673,50.673,0,0,1,37.5,7.019,45.272,45.272,0,0,1,17.326,23.3,60.692,60.692,0,0,1,3.053,23.667A55.241,55.241,0,0,1,202,129.59a45.089,45.089,0,0,1-23.484,22.962,46.681,46.681,0,0,1-14.925,3.5,48.194,48.194,0,0,1-18.265-2.087,37.6,37.6,0,0,1-17.4-11.611,2.035,2.035,0,0,0-1.435-.965,5.22,5.22,0,0,0-.235.861v57.562c-1.174.365-22.623.391-24.058,0Zm52.187,78.28a31.116,31.116,0,0,0,4.41-.391,26.589,26.589,0,0,0,19.935-12.864,30.425,30.425,0,0,0,3.705-23.327,27.711,27.711,0,0,0-11.116-17.2,28.938,28.938,0,0,0-22.492-4.723A26.328,26.328,0,0,0,130.4,88.389a30.451,30.451,0,0,0-4.071,22.7,28.7,28.7,0,0,0,7.828,14.925,28.024,28.024,0,0,0,20.248,8.4Z" transform="translate(126.783 33.328)"></path><path id="Path_363" data-name="Path 363" d="M293.045,97.751v22.962h-63.3c-.209,2.949,0,5.767,0,8.559v51.247c-1.1.287-23.484.365-25.18,0-.261-.965-.391-141.165,0-143.513h0a3.966,3.966,0,0,1,.548,0h91.744a8.632,8.632,0,0,1,.156,1.409q0,10.02,0,20.014V59.89H229.742V97.725h63.3Z" transform="translate(291.136 6.431)"></path><path id="Path_364" data-name="Path 364" d="M453.863,104.9a52.474,52.474,0,0,1-8.689,28.937,49.943,49.943,0,0,1-28.7,20.118,60.51,60.51,0,0,1-42.245-4.1,47.464,47.464,0,0,1-25.806-35.278,52.708,52.708,0,0,1,3.6-31.312,48.325,48.325,0,0,1,27.033-25.519,54.642,54.642,0,0,1,14.534-3.575A58.893,58.893,0,0,1,405.9,53.97,52.187,52.187,0,0,1,441.86,71.792a47.309,47.309,0,0,1,10.985,24.241C453.393,98.929,453.576,101.929,453.863,104.9Zm-53.256,29.459a32.968,32.968,0,0,0,4.54-.391,26.3,26.3,0,0,0,18.135-10.437,30.216,30.216,0,0,0,4.853-27.763,26.9,26.9,0,0,0-15.056-17.743,29.72,29.72,0,0,0-18.265-2.061A26.484,26.484,0,0,0,376.1,89.013a30.477,30.477,0,0,0-3.679,22.258,28.364,28.364,0,0,0,8.167,15.265A27.946,27.946,0,0,0,400.606,134.363Z" transform="translate(521.534 33.382)"></path><path id="Path_365" data-name="Path 365" d="M495.461,103.414c0,12.76-3.027,23.145-9.837,32.277a49.864,49.864,0,0,1-27.372,18.265,58.219,58.219,0,0,1-12,1.957,55.944,55.944,0,0,1-27.763-4.906,47.646,47.646,0,0,1-28.076-35.826,52.184,52.184,0,0,1,3.705-32.434,48.326,48.326,0,0,1,27.659-25.389,55.264,55.264,0,0,1,13.673-3.236,59.415,59.415,0,0,1,12.186-.183c15.134,1.487,27.972,7.489,37.5,19.648A46.785,46.785,0,0,1,494.6,95.821,46.688,46.688,0,0,1,495.461,103.414Zm-52.187,30.921a17.9,17.9,0,0,0,3.705-.313,26.223,26.223,0,0,0,18.6-11.011,30.19,30.19,0,0,0,4.671-26.328,27.242,27.242,0,0,0-14.169-18.03,29.25,29.25,0,0,0-19.309-2.609A26.772,26.772,0,0,0,416.4,92.168a30.06,30.06,0,0,0-2.609,16,29.329,29.329,0,0,0,8.037,17.77A28.05,28.05,0,0,0,443.275,134.334Z" transform="translate(588.875 33.333)"></path><path id="Path_366" data-name="Path 366" d="M131.12,93.075c.418-6.784-1.044-12.525-6.523-16.7a21.135,21.135,0,0,0-9.968-4.018,37.939,37.939,0,0,0-31.312,8.976l-.417.339h0L70.193,69.1c.157-.157.47-.522.809-.835A51.221,51.221,0,0,1,94.172,55.84a71.466,71.466,0,0,1,13.36-1.983,74.471,74.471,0,0,1,9.655,0A47.776,47.776,0,0,1,134.043,57.9a30.346,30.346,0,0,1,17.039,20.875,50.411,50.411,0,0,1,1.644,11.533c0,3.523.183,7.071.209,10.594v52.735H131.355V140.46c-.783-.339-.965.209-1.279.574-1.252,1.566-2.4,3.236-3.784,4.7a32.669,32.669,0,0,1-17.274,9.394,43.188,43.188,0,0,1-10.672,1.018,42.167,42.167,0,0,1-21.579-5.949,25.467,25.467,0,0,1-12.29-16.752,29.12,29.12,0,0,1,4.932-24.606A31.312,31.312,0,0,1,81.6,99.6,61.892,61.892,0,0,1,96.573,95.11a97.565,97.565,0,0,1,15.317-1.7c5.767-.157,11.559-.235,17.326-.339C129.711,93.049,130.312,93.075,131.12,93.075Zm-1.409,16.987h-1.07a163.836,163.836,0,0,0-17.169.5,63.824,63.824,0,0,0-11.064,1.957,22.832,22.832,0,0,0-8.506,4.123,11.064,11.064,0,0,0,0,17.3,16.126,16.126,0,0,0,6.028,3.157,30.085,30.085,0,0,0,19.935-1.3A18.265,18.265,0,0,0,128.8,123.343a45.272,45.272,0,0,0,.913-13.281Z" transform="translate(64.662 33.313)"></path><path id="Path_367" data-name="Path 367" d="M314.33,59.707v-22.7h.13a2.088,2.088,0,0,1,.391,0H427.705c.313.965.365,21.37,0,22.91H383.921v120.6H358.61c0-.6-.13-1.148-.13-1.722V59.707Z" transform="translate(468.185 6.432)"></path><path id="Path_368" data-name="Path 368" d="M444.25,141.041l16.074-15.056c.391.417.757.757,1.07,1.122a45.66,45.66,0,0,0,7.828,6.628,25.806,25.806,0,0,0,15.839,4.123,21.031,21.031,0,0,0,9.237-2.609,11.951,11.951,0,0,0,3.94-3.366,8.976,8.976,0,0,0-1.331-12.133,16.543,16.543,0,0,0-5.088-2.949,71.363,71.363,0,0,0-10.7-2.975,108.281,108.281,0,0,1-16.152-4.279,48.037,48.037,0,0,1-6.419-3,21.683,21.683,0,0,1-10.881-16.1,31.884,31.884,0,0,1,1.148-15.212,28,28,0,0,1,12.551-15.212A42.793,42.793,0,0,1,475.718,54.8a53.566,53.566,0,0,1,11.351-1.018,50.7,50.7,0,0,1,22.284,5.036,32.982,32.982,0,0,1,10.8,8.506l.652.835a.784.784,0,0,0,.183.47L505.047,82.983l-1.07-1.253a21.606,21.606,0,0,0-13.047-8.115,22.31,22.31,0,0,0-12.525.887,12.08,12.08,0,0,0-3.992,2.427,8.558,8.558,0,0,0-2.766,8.376,7.307,7.307,0,0,0,3.261,4.332,17.145,17.145,0,0,0,5.558,2.609c3.966,1.07,7.958,2.035,11.951,2.975a94.166,94.166,0,0,1,14.143,4.044,34.076,34.076,0,0,1,8.219,4.514,22.388,22.388,0,0,1,8.4,12.446,32.46,32.46,0,0,1,0,16.726,26.511,26.511,0,0,1-12.5,16.152,45.3,45.3,0,0,1-14.977,5.636,65.465,65.465,0,0,1-14.795,1.3,56.152,56.152,0,0,1-23.067-4.775,42.349,42.349,0,0,1-12.551-9.08Z" transform="translate(677.269 33.437)"></path><path id="Path_369" data-name="Path 369" d="M146,151.992c-.287-1.07-.365-95.658,0-97.25h0a2.61,2.61,0,0,1,.652,0h22.414a.966.966,0,0,1,.391,0,1.07,1.07,0,0,1,.287.157v97.093Z" transform="translate(196.895 34.958)"></path><path id="Path_370" data-name="Path 370" d="M242.809,54.67h23.667c.313,1.07.365,95.945,0,97.432H242.783C242.548,151.059,242.522,56.079,242.809,54.67Z" transform="translate(352.748 34.874)"></path><path id="Path_371" data-name="Path 371" d="M256.64,65.451a15.03,15.03,0,0,1-12.525-6.106,14.116,14.116,0,0,1,5.532-21.4,16.178,16.178,0,0,1,16.465,1.279,13.36,13.36,0,0,1,6.158,13.047,13.7,13.7,0,0,1-8.219,11.559,16.073,16.073,0,0,1-7.41,1.618Z" transform="translate(350.607 5.28)"></path><path id="Path_372" data-name="Path 372" d="M159.876,65.445a15.108,15.108,0,0,1-13.047-6.628,14.195,14.195,0,0,1,6.523-21.136,16.1,16.1,0,0,1,15.291,1.174A13.386,13.386,0,0,1,175.4,52.086a13.882,13.882,0,0,1-9.472,12.264,15.421,15.421,0,0,1-6.054,1.1Z" transform="translate(194.71 5.286)"></path><path id="Path_373" data-name="Path 373" d="M471,57.771a13.986,13.986,0,1,1,14.012,13.751A13.568,13.568,0,0,1,471,57.771Zm13.96,11.011a11.09,11.09,0,1,0-10.724-11.064,10.62,10.62,0,0,0,10.646,10.959Z" transform="translate(720.317 16.978)"></path><path id="Path_374" data-name="Path 374" d="M482.433,53.6a4.906,4.906,0,0,1,2.766,3.992c.157.861.391,1.722.626,2.74h-2.609a1.122,1.122,0,0,1-.731-.652,18.3,18.3,0,0,1-.6-2.035c-.653-2.609-1.879-3.314-4.671-2.609V60.25H474.37V48.09c0-1.435,0-1.409,1.487-1.566a21.16,21.16,0,0,1,6.288,0,3.418,3.418,0,0,1,3.236,3.34,2.974,2.974,0,0,1-1.487,2.922ZM477.4,48.665a7.409,7.409,0,0,0,.183,4.018,8.037,8.037,0,0,0,3.235-.287,1.957,1.957,0,0,0,1.357-1.931,2.036,2.036,0,0,0-1.461-1.879,4.2,4.2,0,0,0-3.314.078Z" transform="translate(725.742 21.388)"></path><path id="Path_375" data-name="Path 375" d="M308.33,98.54h9.811v21.031L335.832,98.54h12.081L327.77,121.633l20.875,25.858H335.911L318.3,124.764h-.157v22.727H308.33Z" transform="translate(458.529 105.475)"></path><path id="Path_376" data-name="Path 376" d="M327.718,105.87a32.016,32.016,0,0,1,12.525-2.74c11.037,0,15.656,4.592,15.656,15.212v4.645c0,3.653,0,6.393.13,9.054s.209,5.219.417,8.063h-8.3a43.59,43.59,0,0,1-.444-5.4h-.156a12.864,12.864,0,0,1-11.116,6.236c-6.419,0-12.655-3.836-12.655-10.724a10.594,10.594,0,0,1,6.184-10.437,28.7,28.7,0,0,1,12.133-2.114h5.219c0-5.819-2.609-7.828-8.141-7.828a18.787,18.787,0,0,0-11.142,3.94ZM338.73,134.1a8.037,8.037,0,0,0,6.6-3.236,11.977,11.977,0,0,0,1.957-7.437h-4.071c-4.2,0-10.437.7-10.437,6.236C332.755,132.746,335.364,134.1,338.73,134.1Z" transform="translate(483.343 112.862)"></path><path id="Path_377" data-name="Path 377" d="M361.411,111.622a23.066,23.066,0,0,0-8.428-1.54c-2.609,0-5.558.913-5.558,3.992,0,5.741,16.36,2.114,16.36,15.16,0,8.4-7.515,11.768-15.134,11.768a41.751,41.751,0,0,1-10.672-1.539l.548-7.828a20.483,20.483,0,0,0,9.263,2.4c2.374,0,6.184-.913,6.184-4.436,0-7.071-16.334-2.244-16.334-15.265,0-7.828,6.784-11.246,14.143-11.246a43.786,43.786,0,0,1,10.255,1.331Z" transform="translate(505.699 112.798)"></path><path id="Path_378" data-name="Path 378" d="M379.94,138.069a24.867,24.867,0,0,1-12.394,2.87c-11.925,0-18.865-6.863-18.865-18.709,0-10.437,5.532-19.1,16.752-19.1,13.386,0,17.222,9.185,17.222,21.814h-25a9.472,9.472,0,0,0,10.307,9.133,24.24,24.24,0,0,0,11.977-3.653Zm-6.288-19.57c-.261-4.54-2.375-8.48-7.619-8.48s-7.828,3.653-8.376,8.48Z" transform="translate(523.466 112.862)"></path><path id="Path_379" data-name="Path 379" d="M380.6,129.83h.261l8.689-26.38h9.55L385.557,139.3c-3.027,7.985-5.219,15.865-15.03,15.865a24.159,24.159,0,0,1-6.654-.992l.626-6.941a14.037,14.037,0,0,0,4.853.626,5.845,5.845,0,0,0,6.08-6.445l-13.8-37.966h10.437Z" transform="translate(544.306 113.377)"></path><path id="Path_380" data-name="Path 380" d="M379.25,105.87a32.121,32.121,0,0,1,12.551-2.74c11.011,0,15.656,4.592,15.656,15.212v4.645c0,3.653,0,6.393.13,9.054s.209,5.219.417,8.063h-8.245a43.626,43.626,0,0,1-.444-5.4h-.131a13.046,13.046,0,0,1-11.142,6.236c-6.419,0-12.655-3.836-12.655-10.724a10.594,10.594,0,0,1,6.184-10.437,28.7,28.7,0,0,1,12.159-2.114h5.219c0-5.819-2.609-7.828-8.115-7.828a18.761,18.761,0,0,0-11.168,3.94ZM390.287,134.1a8.01,8.01,0,0,0,6.576-3.236,11.975,11.975,0,0,0,1.957-7.437h-4.071c-4.2,0-10.437.7-10.437,6.236C384.286,132.746,386.9,134.1,390.287,134.1Z" transform="translate(566.4 112.862)"></path><text id="COMPANY" transform="translate(990.218 243.303)" fill="#7f7f7f" font-size="34" font-family="Poppins-Regular, Poppins"><tspan x="0" y="0">COMPANY</tspan></text><text id="A" transform="translate(723.545 243.277)" fill="#7f7f7f" font-size="34" font-family="Poppins-Regular, Poppins"><tspan x="0" y="0">A</tspan></text></g><text id="THE_ANSWER" data-name="THE ANSWER" transform="translate(418.727 1486.177)" font-size="47" font-family="Poppins-Medium, Poppins" font-weight="500"><tspan x="0" y="0">THE ANSWER</tspan></text></g></svg>